<?xml version="1.0" standalone="no"?>
<!DOCTYPE svg PUBLIC "-//W3C//DTD SVG 1.1//EN" "http://www.w3.org/Graphics/SVG/1.1/DTD/svg11.dtd" >
<svg xmlns="http://www.w3.org/2000/svg">
<metadata>Generated by IcoMoon</metadata>
<defs>
<font id="icomoon" horiz-adv-x="1024">
<font-face units-per-em="1024" ascent="960" descent="-64" />
<missing-glyph horiz-adv-x="1024" />
<glyph unicode="&#x20;" horiz-adv-x="512" d="" />
<glyph unicode="&#xe900;" glyph-name="dwonload" horiz-adv-x="983" d="M160.533 117.174v6.144h6.144v134.701c0 17.908 0.004 35.815 0.008 53.719 0.009 44.757 0.019 89.506-0.031 134.267-0.024 20.541-11.509 36.794-29.574 42.43-27.97 8.729-55.068-11.768-55.091-42.078l78.544-329.183zM160.533 117.174h6.144M160.533 117.174h6.144M166.677 117.174h655.779M166.677 117.174h655.779M822.456 117.174v6.144M822.456 117.174v6.144M822.456 123.318v10.236c0 26.034-0.004 52.068-0.004 78.103-0.004 78.111-0.008 156.221 0.025 234.32v0.004M822.456 123.318l0.020 322.662M822.477 445.981c0 20.853 13.869 36.315 32.633 38.134M822.477 445.981l32.633 38.134M88.132 446.353v-0.004c-0.086-80.445-0.072-160.891-0.058-241.34 0.005-30.167 0.010-60.338 0.010-90.509l0.048 331.854zM88.132 446.353c0.020 26.403 23.323 43.643 47.117 36.217M88.132 446.353l47.117 36.217M855.11 484.114l-0.594 6.115M855.11 484.114l-0.594 6.115M854.516 490.23l0.59-6.119c21.201 2.040 39.477-14.221 39.703-36.045M854.516 490.23l40.292-42.164M894.808 448.066c0.217-22.508 0.176-44.999 0.131-67.531M894.808 448.066l0.131-67.531M894.939 380.535c-0.020-9.232-0.037-18.469-0.037-27.722M894.939 380.535l-0.037-27.722M894.902 352.813v-0.463M894.902 352.813v-0.463M894.902 352.35v-0.467M894.902 352.35v-0.467M894.902 351.883v-0.467M894.902 351.883v-0.467M894.902 351.416v-0.463M894.902 351.416v-0.463M894.902 350.953v-0.467M894.902 350.953v-0.467M894.902 350.487v-0.467M894.902 350.487v-0.467M894.902 350.020v-0.463M894.902 350.020v-0.463M894.902 349.557v-0.467M894.902 349.557v-0.467M894.902 349.090v-0.463M894.902 349.090v-0.463M894.902 348.627v-0.467M894.902 348.627v-0.467M894.902 348.16v-0.467M894.902 348.16v-0.467M894.902 347.693v-0.463M894.902 347.693v-0.463M894.902 347.23v-0.467M894.902 347.23v-0.467M894.902 346.763v-0.467M894.902 346.763v-0.467M894.902 346.296v-0.463M894.902 346.296v-0.463M894.902 345.833v-0.467M894.902 345.833v-0.467M894.902 345.367v-0.467M894.902 345.367v-0.467M894.902 344.9v-0.463M894.902 344.9v-0.463M894.902 344.437v-0.467M894.902 344.437v-0.467M894.902 343.97v-0.463M894.902 343.97v-0.463M894.902 343.507v-0.467M894.902 343.507v-0.467M894.902 343.040v-0.467M894.902 343.040v-0.467M894.902 342.573v-0.463M894.902 342.573v-0.463M894.902 342.11v-0.467M894.902 342.11v-0.467M894.902 341.643v-0.467M894.902 341.643v-0.467M894.902 341.176v-0.463M894.902 341.176v-0.463M894.902 340.713v-0.467M894.902 340.713v-0.467M894.902 340.247v-0.467M894.902 340.247v-0.467M894.902 339.78v-0.463M894.902 339.78v-0.463M894.902 339.317v-0.467M894.902 339.317v-0.467M894.902 338.85v-0.463M894.902 338.85v-0.463M894.902 338.387v-0.467M894.902 338.387v-0.467M894.902 337.92v-0.467M894.902 337.92v-0.467M894.902 337.453v-0.463M894.902 337.453v-0.463M894.902 336.99v-0.467M894.902 336.99v-0.467M894.902 336.523v-0.467M894.902 336.523v-0.467M894.902 336.056v-0.463M894.902 336.056v-0.463M894.902 335.593v-0.467M894.902 335.593v-0.467M894.902 335.127v-0.467M894.902 335.127v-0.467M894.902 334.66v-0.463M894.902 334.66v-0.463M894.902 334.197v-0.467M894.902 334.197v-0.467M894.902 333.73v-0.463M894.902 333.73v-0.463M894.902 333.267v-0.467M894.902 333.267v-0.467M894.902 332.8v-0.467M894.902 332.8v-0.467M894.902 332.333v-0.463M894.902 332.333v-0.463M894.902 331.87v-0.467M894.902 331.87v-0.467M894.902 331.403v-0.467M894.902 331.403v-0.467M894.902 330.936v-0.463M894.902 330.936v-0.463M894.902 330.473v-0.467M894.902 330.473v-0.467M894.902 330.007v-0.463M894.902 330.007v-0.463M894.902 329.544v-0.467M894.902 329.544v-0.467M894.902 329.077v-0.467M894.902 329.077v-0.467M894.902 328.61v-0.463M894.902 328.61v-0.463M894.902 328.147v-0.467M894.902 328.147v-0.467M894.902 327.68v-0.467M894.902 327.68v-0.467M894.902 327.213v-0.463M894.902 327.213v-0.463M894.902 326.75v-0.467M894.902 326.75v-0.467M894.902 326.283v-0.467M894.902 326.283v-0.467M894.902 325.816v-0.463M894.902 325.816v-0.463M894.902 325.353v-0.467M894.902 325.353v-0.467M894.902 324.887v-0.463M894.902 324.887v-0.463M894.902 324.424v-0.467M894.902 324.424v-0.467M894.902 323.957v-0.467M894.902 323.957v-0.467M894.902 323.49v-0.463M894.902 323.49v-0.463M894.902 323.027v-0.467M894.902 323.027v-0.467M894.902 322.56v-0.467M894.902 322.56v-0.467M894.902 322.093v-0.463M894.902 322.093v-0.463M894.902 321.63v-0.467M894.902 321.63v-0.467M894.902 321.163v-0.463M894.902 321.163v-0.463M894.902 320.7v-0.467M894.902 320.7v-0.467M894.902 320.233v-0.467M894.902 320.233v-0.467M894.902 319.767v-0.463M894.902 319.767v-0.463M894.902 319.304v-0.467M894.902 319.304v-0.467M894.902 318.837v-0.467M894.902 318.837v-0.467M894.902 318.37v-0.463M894.902 318.37v-0.463M894.902 317.907v-0.467M894.902 317.907v-0.467M894.902 317.44v-0.467M894.902 317.44v-0.467M894.902 316.973v-0.463M894.902 316.973v-0.463M894.902 316.51v-0.467M894.902 316.51v-0.467M894.902 316.043v-0.463M894.902 316.043v-0.463M894.902 315.58v-0.467M894.902 315.58v-0.467M894.902 315.113v-0.467M894.902 315.113v-0.467M894.902 314.647v-0.463M894.902 314.647v-0.463M894.902 314.184v-0.467M894.902 314.184v-0.467M894.902 313.717v-0.467M894.902 313.717v-0.467M894.902 313.25v-0.463M894.902 313.25v-0.463M894.902 312.787v-0.467M894.902 312.787v-0.467M894.902 312.32v-0.463M894.902 312.32v-0.463M894.902 311.857v-0.467M894.902 311.857v-0.467M894.902 311.39v-0.467M894.902 311.39v-0.467M894.902 310.923v-0.463M894.902 310.923v-0.463M894.902 310.46v-0.467M894.902 310.46v-0.467M894.902 309.993v-0.467M894.902 309.993v-0.467M894.902 309.527v-0.463M894.902 309.527v-0.463M894.902 309.064v-0.467M894.902 309.064v-0.467M894.902 308.597v-0.463M894.902 308.597v-0.463M894.902 308.134v-0.467M894.902 308.134v-0.467M894.902 307.667v-0.467M894.902 307.667v-0.467M894.902 307.2v-0.463M894.902 307.2v-0.463M894.902 306.737v-0.467M894.902 306.737v-0.467M894.902 306.27v-0.467M894.902 306.27v-0.467M894.902 305.803v-0.463M894.902 305.803v-0.463M894.902 305.34v-0.467M894.902 305.34v-0.467M894.902 304.873v-0.463M894.902 304.873v-0.463M894.902 304.411v-0.467M894.902 304.411v-0.467M894.902 303.944v-0.467M894.902 303.944v-0.467M894.902 303.477v-0.463M894.902 303.477v-0.463M894.902 303.014v-0.467M894.902 303.014v-0.467M894.902 302.547v-0.467M894.902 302.547v-0.467M894.902 302.080v-0.463M894.902 302.080v-0.463M894.902 301.617v-0.467M894.902 301.617v-0.467M894.902 301.15v-0.463M894.902 301.15v-0.463M894.902 300.687v-0.467M894.902 300.687v-0.467M894.902 300.22v-0.467M894.902 300.22v-0.467M894.902 299.753v-0.463M894.902 299.753v-0.463M894.902 299.291v-0.467M894.902 299.291v-0.467M894.902 298.824v-0.467M894.902 298.824v-0.467M894.902 298.357v-0.463M894.902 298.357v-0.463M894.902 297.894v-0.467M894.902 297.894v-0.467M894.902 297.427v-0.463M894.902 297.427v-0.463M894.902 296.964v-0.467M894.902 296.964v-0.467M894.902 296.497v-0.467M894.902 296.497v-0.467M894.902 296.030v-0.463M894.902 296.030v-0.463M894.902 295.567v-0.467M894.902 295.567v-0.467M894.902 295.1v-0.467M894.902 295.1v-0.467M894.902 294.633v-0.463M894.902 294.633v-0.463M894.902 294.171v-0.467M894.902 294.171v-0.467M894.902 293.704v-0.463M894.902 293.704v-0.463M894.902 293.241v-0.467M894.902 293.241v-0.467M894.902 292.774v-0.467M894.902 292.774v-0.467M894.902 292.307v-0.463M894.902 292.307v-0.463M894.902 291.844v-0.467M894.902 291.844v-0.467M894.902 291.377v-0.467M894.902 291.377v-0.467M894.902 290.91v-0.463M894.902 290.91v-0.463M894.902 290.447v-0.467M894.902 290.447v-0.467M894.902 289.98v-0.463M894.902 289.98v-0.463M894.902 289.518v-0.467M894.902 289.518v-0.467M894.902 289.051v-0.467M894.902 289.051v-0.467M894.902 288.584v-0.463M894.902 288.584v-0.463M894.902 288.121v-0.467M894.902 288.121v-0.467M894.902 287.654v-0.467M894.902 287.654v-0.467M894.902 287.187v-0.463M894.902 287.187v-0.463M894.902 286.724v-0.467M894.902 286.724v-0.467M894.902 286.257v-0.463M894.902 286.257v-0.463M894.902 285.794v-0.467M894.902 285.794v-0.467M894.902 285.327v-0.467M894.902 285.327v-0.467M894.902 284.86v-0.463M894.902 284.86v-0.463M894.902 284.398v-0.467M894.902 284.398v-0.467M894.902 283.931v-0.467M894.902 283.931v-0.467M894.902 283.464v-0.463M894.902 283.464v-0.463M894.902 283.001v-0.467M894.902 283.001v-0.467M894.902 282.534v-0.463M894.902 282.534v-0.463M894.902 282.071v-0.467M894.902 282.071v-0.467M894.902 281.604v-0.467M894.902 281.604v-0.467M894.902 281.137v-0.463M894.902 281.137v-0.463M894.902 280.674v-0.467M894.902 280.674v-0.467M894.902 280.207v-0.467M894.902 280.207v-0.467M894.902 279.74v-0.463M894.902 279.74v-0.463M894.902 279.278v-0.467M894.902 279.278v-0.467M894.902 278.811v-0.463M894.902 278.811v-0.463M894.902 278.348v-0.467M894.902 278.348v-0.467M894.902 277.881v-0.467M894.902 277.881v-0.467M894.902 277.414v-0.463M894.902 277.414v-0.463M894.902 276.951v-0.467M894.902 276.951v-0.467M894.902 276.484v-0.467M894.902 276.484v-0.467M894.902 276.017v-0.463M894.902 276.017v-0.463M894.902 275.554v-0.467M894.902 275.554v-0.467M894.902 275.087v-0.463M894.902 275.087v-0.463M894.902 274.625v-0.467M894.902 274.625v-0.467M894.902 274.158v-0.467M894.902 274.158v-0.467M894.902 273.691v-0.463M894.902 273.691v-0.463M894.902 273.228v-0.467M894.902 273.228v-0.467M894.902 272.761v-0.467M894.902 272.761v-0.467M894.902 272.294v-0.463M894.902 272.294v-0.463M894.902 271.831v-0.467M894.902 271.831v-0.467M894.902 271.364v-0.463M894.902 271.364v-0.463M894.902 270.901v-0.467M894.902 270.901v-0.467M894.902 270.434v-0.467M894.902 270.434v-0.467M894.902 269.967v-0.463M894.902 269.967v-0.463M894.902 269.505v-0.467M894.902 269.505v-0.467M894.902 269.038v-0.467M894.902 269.038v-0.467M894.902 268.571v-0.463M894.902 268.571v-0.463M894.902 268.108v-0.467M894.902 268.108v-0.467M894.902 267.641v-0.463M894.902 267.641v-0.463M894.902 267.178v-0.467M894.902 267.178v-0.467M894.902 266.711v-0.467M894.902 266.711v-0.467M894.902 266.244v-0.463M894.902 266.244v-0.463M894.902 265.781v-0.467M894.902 265.781v-0.467M894.902 265.314v-0.467M894.902 265.314v-0.467M894.902 264.847v-0.463M894.902 264.847v-0.463M894.902 264.385v-0.467M894.902 264.385v-0.467M894.902 263.918v-0.463M894.902 263.918v-0.463M894.902 263.455v-0.467M894.902 263.455v-0.467M894.902 262.988v-0.467M894.902 262.988v-0.467M894.902 262.521v-0.463M894.902 262.521v-0.463M894.902 262.058v-0.467M894.902 262.058v-0.467M894.902 261.591v-0.467M894.902 261.591v-0.467M894.902 261.124v-0.463M894.902 261.124v-0.463M894.902 260.661v-0.467M894.902 260.661v-0.467M894.902 260.194v-0.463M894.902 260.194v-0.463M894.902 259.731v-0.467M894.902 259.731v-0.467M894.902 259.265v-0.467M894.902 259.265v-0.467M894.902 258.798v-0.463M894.902 258.798v-0.463M894.902 258.335v-0.467M894.902 258.335v-0.467M894.902 257.868v-0.463M894.902 257.868v-0.463M894.902 257.405v-0.467M894.902 257.405v-0.467M894.902 256.938v-0.467M894.902 256.938v-0.467M894.902 256.471v-0.463M894.902 256.471v-0.463M894.902 256.008v-0.467M894.902 256.008v-0.467M894.902 255.541v-0.467M894.902 255.541v-0.467M894.902 255.074v-0.463M894.902 255.074v-0.463M894.902 254.611v-0.467M894.902 254.611v-0.467M894.902 254.145v-0.463M894.902 254.145v-0.463M894.902 253.682v-0.467M894.902 253.682v-0.467M894.902 253.215v-0.467M894.902 253.215v-0.467M894.902 252.748v-0.463M894.902 252.748v-0.463M894.902 252.285v-0.467M894.902 252.285v-0.467M894.902 251.818v-0.467M894.902 251.818v-0.467M894.902 251.351v-0.463M894.902 251.351v-0.463M894.902 250.888v-0.467M894.902 250.888v-0.467M894.902 250.421v-0.463M894.902 250.421v-0.463M894.902 249.958v-0.467M894.902 249.958v-0.467M894.902 249.491v-0.467M894.902 249.491v-0.467M894.902 249.025v-0.463M894.902 249.025v-0.463M894.902 248.562v-0.467M894.902 248.562v-0.467M894.902 248.095v-0.467M894.902 248.095v-0.467M894.902 247.628v-0.463M894.902 247.628v-0.463M894.902 247.165v-0.467M894.902 247.165v-0.467M894.902 246.698v-0.463M894.902 246.698v-0.463M894.902 246.235v-0.467M894.902 246.235v-0.467M894.902 245.768v-0.467M894.902 245.768v-0.467M894.902 245.301v-0.463M894.902 245.301v-0.463M894.902 244.838v-0.467M894.902 244.838v-0.467M894.902 244.371v-0.467M894.902 244.371v-0.467M894.902 243.905v-0.463M894.902 243.905v-0.463M894.902 243.442v-0.467M894.902 243.442v-0.467M894.902 242.975v-0.463M894.902 242.975v-0.463M894.902 242.512v-0.467M894.902 242.512v-0.467M894.902 242.045v-0.467M894.902 242.045v-0.467M894.902 241.578v-0.463M894.902 241.578v-0.463M894.902 241.115v-0.467M894.902 241.115v-0.467M894.902 240.648v-0.463M894.902 240.648v-0.463M894.902 240.185v-0.467M894.902 240.185v-0.467M894.902 239.718v-0.467M894.902 239.718v-0.467M894.902 239.251v-0.463M894.902 239.251v-0.463M894.902 238.789v-0.467M894.902 238.789v-0.467M894.902 238.322v-0.467M894.902 238.322v-0.467M894.902 237.855v-0.463M894.902 237.855v-0.463M894.902 237.392v-0.467M894.902 237.392v-0.467M894.902 236.925v-0.463M894.902 236.925v-0.463M894.902 236.462v-0.467M894.902 236.462v-0.467M894.902 235.995v-0.467M894.902 235.995v-0.467M894.902 235.528v-0.463M894.902 235.528v-0.463M894.902 235.065v-0.467M894.902 235.065v-0.467M894.902 234.598v-0.467M894.902 234.598v-0.467M894.902 234.131v-0.463M894.902 234.131v-0.463M894.902 233.669v-0.467M894.902 233.669v-0.467M894.902 233.202v-0.463M894.902 233.202v-0.463M894.902 232.739v-0.467M894.902 232.739v-0.467M894.902 232.272v-0.467M894.902 232.272v-0.467M894.902 231.805v-0.463M894.902 231.805v-0.463M894.902 231.342v-0.467M894.902 231.342v-0.467M894.902 230.875v-0.467M894.902 230.875v-0.467M894.902 230.408v-0.463M894.902 230.408v-0.463M894.902 229.945v-0.467M894.902 229.945v-0.467M894.902 229.478v-0.463M894.902 229.478v-0.463M894.902 229.016v-0.467M894.902 229.016v-0.467M894.902 228.549v-0.467M894.902 228.549v-0.467M894.902 228.082v-0.463M894.902 228.082v-0.463M894.902 227.619v-0.467M894.902 227.619v-0.467M894.902 227.152v-0.463M894.902 227.152v-0.463M894.902 226.689v-0.467M894.902 226.689v-0.467M894.902 226.222v-0.467M894.902 226.222v-0.467M894.902 225.755v-0.463M894.902 225.755v-0.463M894.902 225.292v-0.467M894.902 225.292v-0.467M894.902 224.825v-0.467M894.902 224.825v-0.467M894.902 224.358v-0.463M894.902 224.358v-0.463M894.902 223.896v-0.467M894.902 223.896v-0.467M894.902 223.429v-0.463M894.902 223.429v-0.463M894.902 222.966v-0.467M894.902 222.966v-0.467M894.902 222.499v-0.467M894.902 222.499v-0.467M894.902 222.032v-0.463M894.902 222.032v-0.463M894.902 221.569v-0.467M894.902 221.569v-0.467M894.902 221.102v-0.467M894.902 221.102v-0.467M894.902 220.635v-0.463M894.902 220.635v-0.463M894.902 220.172v-0.467M894.902 220.172v-0.467M894.902 219.705v-0.463M894.902 219.705v-0.463M894.902 219.242v-0.467M894.902 219.242v-0.467M894.902 218.776v-0.467M894.902 218.776v-0.467M894.902 218.309v-0.463M894.902 218.309v-0.463M894.902 217.846v-0.467M894.902 217.846v-0.467M894.902 217.379v-0.467M894.902 217.379v-0.467M894.902 216.912v-0.463M894.902 216.912v-0.463M894.902 216.449v-0.467M894.902 216.449v-0.467M894.902 215.982v-0.463M894.902 215.982v-0.463M894.902 215.519v-0.467M894.902 215.519v-0.467M894.902 215.052v-0.467M894.902 215.052v-0.467M894.902 214.585v-0.463M894.902 214.585v-0.463M894.902 214.122v-0.467M894.902 214.122v-0.467M894.902 213.656v-0.467M894.902 213.656v-0.467M894.902 213.189v-0.463M894.902 213.189v-0.463M894.902 212.726v-0.467M894.902 212.726v-0.467M894.902 212.259v-0.463M894.902 212.259v-0.463M894.902 211.796v-0.467M894.902 211.796v-0.467M894.902 211.329v-0.467M894.902 211.329v-0.467M894.902 210.862v-0.463M894.902 210.862v-0.463M894.902 210.399v-0.467M894.902 210.399v-0.467M894.902 209.932v-0.463M894.902 209.932v-0.463M894.902 209.469v-0.467M894.902 209.469v-0.467M894.902 209.002v-0.467M894.902 209.002v-0.467M894.902 208.536v-0.463M894.902 208.536v-0.463M894.902 208.073v-0.467M894.902 208.073v-0.467M894.902 207.606v-0.467M894.902 207.606v-0.467M894.902 207.139v-0.463M894.902 207.139v-0.463M894.902 206.676v-0.467M894.902 206.676v-0.467M894.902 206.209v-0.463M894.902 206.209v-0.463M894.902 205.746v-0.467M894.902 205.746v-0.467M894.902 205.279v-0.467M894.902 205.279v-0.467M894.902 204.812v-0.463M894.902 204.812v-0.463M894.902 204.349v-0.467M894.902 204.349v-0.467M894.902 203.882v-0.467M894.902 203.882v-0.467M894.902 203.416v-0.463M894.902 203.416v-0.463M894.902 202.953v-0.467M894.902 202.953v-0.467M894.902 202.486v-0.463M894.902 202.486v-0.463M894.902 202.023v-0.467M894.902 202.023v-0.467M894.902 201.556v-0.467M894.902 201.556v-0.467M894.902 201.089v-0.463M894.902 201.089v-0.463M894.902 200.626v-0.467M894.902 200.626v-0.467M894.902 200.159v-0.467M894.902 200.159v-0.467M894.902 199.692v-0.463M894.902 199.692v-0.463M894.902 199.229v-0.467M894.902 199.229v-0.467M894.902 198.762v-0.463M894.902 198.762v-0.463M894.902 198.3v-0.467M894.902 198.3v-0.467M894.902 197.833v-0.467M894.902 197.833v-0.467M894.902 197.366v-0.463M894.902 197.366v-0.463M894.902 196.903v-0.467M894.902 196.903v-0.467M894.902 196.436v-0.467M894.902 196.436v-0.467M894.902 195.969v-0.463M894.902 195.969v-0.463M894.902 195.506v-0.467M894.902 195.506v-0.467M894.902 195.039v-0.463M894.902 195.039v-0.463M894.902 194.576v-0.467M894.902 194.576v-0.467M894.902 194.109v-0.467M894.902 194.109v-0.467M894.902 193.642v-0.463M894.902 193.642v-0.463M894.902 193.18v-0.467M894.902 193.18v-0.467M894.902 192.713v-0.467M894.902 192.713v-0.467M894.902 192.246v-0.463M894.902 192.246v-0.463M894.902 191.783v-0.467M894.902 191.783v-0.467M894.902 191.316v-0.463M894.902 191.316v-0.463M894.902 190.853v-0.467M894.902 190.853v-0.467M894.902 190.386v-0.467M894.902 190.386v-0.467M894.902 189.919v-0.463M894.902 189.919v-0.463M894.902 189.456v-0.467M894.902 189.456v-0.467M894.902 188.989v-0.467M894.902 188.989v-0.467M894.902 188.522v-0.463M894.902 188.522v-0.463M894.902 188.060v-0.467M894.902 188.060v-0.467M894.902 187.593v-0.463M894.902 187.593v-0.463M894.902 187.13v-0.467M894.902 187.13v-0.467M894.902 186.663v-0.467M894.902 186.663v-0.467M894.902 186.196v-0.463M894.902 186.196v-0.463M894.902 185.733v-0.467M894.902 185.733v-0.467M894.902 185.266v-0.463M894.902 185.266v-0.463M894.902 184.803v-0.467M894.902 184.803v-0.467M894.902 184.336v-0.467M894.902 184.336v-0.467M894.902 183.869v-0.463M894.902 183.869v-0.463M894.902 183.407v-0.467M894.902 183.407v-0.467M894.902 182.94v-0.467M894.902 182.94v-0.467M894.902 182.473v-0.463M894.902 182.473v-0.463M894.902 182.010v-0.467M894.902 182.010v-0.467M894.902 181.543v-0.463M894.902 181.543v-0.463M894.902 181.080v-0.467M894.902 181.080v-0.467M894.902 180.613v-0.467M894.902 180.613v-0.467M894.902 180.146v-0.463M894.902 180.146v-0.463M894.902 179.683v-0.467M894.902 179.683v-0.467M894.902 179.216v-0.467M894.902 179.216v-0.467M894.902 178.749v-0.463M894.902 178.749v-0.463M894.902 178.287v-0.467M894.902 178.287v-0.467M894.902 177.82v-0.463M894.902 177.82v-0.463M894.902 177.357v-0.467M894.902 177.357v-0.467M894.902 176.89v-0.467M894.902 176.89v-0.467M894.902 176.423v-0.463M894.902 176.423v-0.463M894.902 175.96v-0.467M894.902 175.96v-0.467M894.902 175.493v-0.467M894.902 175.493v-0.467M894.902 175.026v-0.463M894.902 175.026v-0.463M894.902 174.563v-0.467M894.902 174.563v-0.467M894.902 174.096v-0.463M894.902 174.096v-0.463M894.902 173.634v-0.467M894.902 173.634v-0.467M894.902 173.167v-0.467M894.902 173.167v-0.467M894.902 172.7v-0.463M894.902 172.7v-0.463M894.902 172.237v-0.467M894.902 172.237v-0.467M894.902 171.77v-0.467M894.902 171.77v-0.467M894.902 171.303v-0.463M894.902 171.303v-0.463M894.902 170.84v-0.467M894.902 170.84v-0.467M894.902 170.373v-0.463M894.902 170.373v-0.463M894.902 169.91v-0.467M894.902 169.91v-0.467M894.902 169.443v-0.467M894.902 169.443v-0.467M894.902 168.976v-0.463M894.902 168.976v-0.463M894.902 168.514v-0.467M894.902 168.514v-0.467M894.902 168.047v-0.467M894.902 168.047v-0.467M894.902 167.58v-0.463M894.902 167.58v-0.463M894.902 167.117v-0.467M894.902 167.117v-0.467M894.902 166.65v-0.463M894.902 166.65v-0.463M894.902 166.187v-0.467M894.902 166.187v-0.467M894.902 165.72v-0.467M894.902 165.72v-0.467M894.902 165.253v-0.463M894.902 165.253v-0.463M894.902 164.79v-0.467M894.902 164.79v-0.467M894.902 164.323v-0.467M894.902 164.323v-0.467M894.902 163.856v-0.463M894.902 163.856v-0.463M894.902 163.394v-0.467M894.902 163.394v-0.467M894.902 162.927v-0.467M894.902 162.927v-0.467M894.902 162.46v-0.463M894.902 162.46v-0.463M894.902 161.997v-0.467M894.902 161.997v-0.467M894.902 161.53v-0.463M894.902 161.53v-0.463M894.902 161.067v-0.467M894.902 161.067v-0.467M894.902 160.6v-0.467M894.902 160.6v-0.467M894.902 160.133v-0.463M894.902 160.133v-0.463M894.902 159.67v-0.467M894.902 159.67v-0.467M894.902 159.203v-0.467M894.902 159.203v-0.467M894.902 158.736v-0.463M894.902 158.736v-0.463M894.902 158.274v-0.467M894.902 158.274v-0.467M894.902 157.807v-0.463M894.902 157.807v-0.463M894.902 157.344v-0.467M894.902 157.344v-0.467M894.902 156.877v-0.467M894.902 156.877v-0.467M894.902 156.41v-0.463M894.902 156.41v-0.463M894.902 155.947v-0.467M894.902 155.947v-0.467M894.902 155.48v-0.467M894.902 155.48v-0.467M894.902 155.013v-0.463M894.902 155.013v-0.463M894.902 154.55v-0.467M894.902 154.55v-0.467M894.902 154.083v-0.463M894.902 154.083v-0.463M894.902 153.62v-0.467M894.902 153.62v-0.467M894.902 153.154v-0.467M894.902 153.154v-0.467M894.902 152.687v-0.463M894.902 152.687v-0.463M894.902 152.224v-0.467M894.902 152.224v-0.467M894.902 151.757v-0.467M894.902 151.757v-0.467M894.902 151.29v-0.463M894.902 151.29v-0.463M894.902 150.827v-0.467M894.902 150.827v-0.467M894.902 150.36v-0.463M894.902 150.36v-0.463M894.902 149.897v-0.467M894.902 149.897v-0.467M894.902 149.43v-0.467M894.902 149.43v-0.467M894.902 148.963v-0.463M894.902 148.963v-0.463M894.902 148.5v-0.467M894.902 148.5v-0.467M894.902 148.034v-0.467M894.902 148.034v-0.467M894.902 147.567v-0.463M894.902 147.567v-0.463M894.902 147.104v-0.467M894.902 147.104v-0.467M894.902 146.637v-0.467M894.902 146.637v-0.467M894.902 146.17v-0.463M894.902 146.17v-0.463M894.902 145.707v-0.467M894.902 145.707v-0.467M894.902 145.24v-0.463M894.902 145.24v-0.463M894.902 144.777v-0.467M894.902 144.777v-0.467M894.902 144.31v-0.467M894.902 144.31v-0.467M894.902 143.843v-0.463M894.902 143.843v-0.463M894.902 143.38v-0.467M894.902 143.38v-0.467M894.902 142.914v-0.467M894.902 142.914v-0.467M894.902 142.447v-0.463M894.902 142.447v-0.463M894.902 141.984v-0.467M894.902 141.984v-0.467M894.902 141.517v-0.463M894.902 141.517v-0.463M894.902 141.054v-0.467M894.902 141.054v-0.467M894.902 140.587v-0.467M894.902 140.587v-0.467M894.902 140.12v-0.463M894.902 140.12v-0.463M894.902 139.657v-0.467M894.902 139.657v-0.467M894.902 139.19v-0.467M894.902 139.19v-0.467M894.902 138.723v-0.463M894.902 138.723v-0.463M894.902 138.26v-0.467M894.902 138.26v-0.467M894.902 137.794v-0.467M894.902 137.794v-0.467M894.902 137.327v-0.463M894.902 137.327v-0.463M894.902 136.864v-0.467M894.902 136.864v-0.467M894.902 136.397v-0.463M894.902 136.397v-0.463M894.902 135.934v-0.467M894.902 135.934v-0.467M894.902 135.467v-0.467M894.902 135.467v-0.467M894.902 135v-0.463M894.902 135v-0.463M894.902 134.537v-0.467M894.902 134.537v-0.467M894.902 134.070v-0.467M894.902 134.070v-0.467M894.902 133.603v-0.463M894.902 133.603v-0.463M894.902 133.14v-0.467M894.902 133.14v-0.467M894.902 132.674v-0.463M894.902 132.674v-0.463M894.902 132.211v-0.467M894.902 132.211v-0.467M894.902 131.744v-0.467M894.902 131.744v-0.467M894.902 131.277v-0.463M894.902 131.277v-0.463M894.902 130.814v-0.467M894.902 130.814v-0.467M894.902 130.347v-0.467M894.902 130.347v-0.467M894.902 129.88v-0.463M894.902 129.88v-0.463M894.902 129.417v-0.467M894.902 129.417v-0.467M894.902 128.95v-0.467M894.902 128.95v-0.467M894.902 128.483v-0.463M894.902 128.483v-0.463M894.902 128.020v-0.467M894.902 128.020v-0.467M894.902 127.554v-0.463M894.902 127.554v-0.463M894.902 127.091v-0.467M894.902 127.091v-0.467M894.902 126.624v-0.467M894.902 126.624v-0.467M894.902 126.157v-0.463M894.902 126.157v-0.463M894.902 125.694v-0.467M894.902 125.694v-0.467M894.902 125.227v-0.467M894.902 125.227v-0.467M894.902 124.76v-0.463M894.902 124.76v-0.463M894.902 124.297v-0.467M894.902 124.297v-0.467M894.902 123.83v-0.467M894.902 123.83v-0.467M894.902 123.363v-0.463M894.902 123.363v-0.463M894.902 122.9v-0.467M894.902 122.9v-0.467M894.902 122.434v-0.463M894.902 122.434v-0.463M894.902 121.971v-0.467M894.902 121.971v-0.467M894.902 121.504v-0.467M894.902 121.504v-0.467M894.902 121.037v-0.463M894.902 121.037v-0.463M894.902 120.574v-0.467M894.902 120.574v-0.467M894.902 120.107v-0.467M894.902 120.107v-0.467M894.902 119.64v-0.463M894.902 119.64v-0.463M894.902 119.177v-0.467M894.902 119.177v-0.467M894.902 118.71v-0.467M894.902 118.71v-0.467M894.902 118.243v-0.463M894.902 118.243v-0.463M894.902 117.78v-0.467M894.902 117.78v-0.467M894.902 117.314v-0.463M894.902 117.314v-0.463M894.902 116.851v-0.467M894.902 116.851v-0.467M894.902 116.384v-0.467M894.902 116.384v-0.467M894.902 115.917v-0.463M894.902 115.917v-0.463M894.902 115.454v-0.467M894.902 115.454v-0.467M894.902 114.987v-0.467M894.902 114.987v-0.467M894.902 114.52c0-21.975-6.926-39.326-18.756-51.175M894.902 114.52l-18.756-51.175M876.147 63.345c-11.825-11.846-29.143-18.78-51.065-18.792M876.147 63.345l-51.065-18.792M825.082 44.552h-667.154c-21.934 0-39.252 6.93-51.077 18.772-11.826 11.846-18.754 29.196-18.766 51.175l736.997-69.947zM135.25 482.57c15.27-4.764 25.239-18.465 25.26-36.573M135.25 482.57l25.26-36.573M160.51 445.997c0.050-44.757 0.041-89.502 0.031-134.25M160.51 445.997l0.031-134.25M160.541 311.747c-0.004-17.908-0.008-35.815-0.008-53.727M160.541 311.747l-0.008-53.727M160.533 258.019v-0.242M160.533 258.019v-0.242M160.533 257.778v-0.242M160.533 257.778v-0.242M160.533 257.536v-0.246M160.533 257.536v-0.246M160.533 257.29v-0.242M160.533 257.29v-0.242M160.533 257.049v-0.242M160.533 257.049v-0.242M160.533 256.807v-0.246M160.533 256.807v-0.246M160.533 256.561v-0.242M160.533 256.561v-0.242M160.533 256.319v-0.242M160.533 256.319v-0.242M160.533 256.078v-0.246M160.533 256.078v-0.246M160.533 255.832v-0.242M160.533 255.832v-0.242M160.533 255.59v-0.246M160.533 255.59v-0.246M160.533 255.345v-0.242M160.533 255.345v-0.242M160.533 255.103v-0.242M160.533 255.103v-0.242M160.533 254.861v-0.246M160.533 254.861v-0.246M160.533 254.616v-0.242M160.533 254.616v-0.242M160.533 254.374v-0.242M160.533 254.374v-0.242M160.533 254.132v-0.246M160.533 254.132v-0.246M160.533 253.886v-0.242M160.533 253.886v-0.242M160.533 253.645v-0.242M160.533 253.645v-0.242M160.533 253.403v-0.246M160.533 253.403v-0.246M160.533 253.157v-0.242M160.533 253.157v-0.242M160.533 252.916v-0.242M160.533 252.916v-0.242M160.533 252.674v-0.246M160.533 252.674v-0.246M160.533 252.428v-0.242M160.533 252.428v-0.242M160.533 252.187v-0.242M160.533 252.187v-0.242M160.533 251.945v-0.246M160.533 251.945v-0.246M160.533 251.699v-0.242M160.533 251.699v-0.242M160.533 251.458v-0.242M160.533 251.458v-0.242M160.533 251.216v-0.246M160.533 251.216v-0.246M160.533 250.97v-0.242M160.533 250.97v-0.242M160.533 250.728v-0.242M160.533 250.728v-0.242M160.533 250.487v-0.246M160.533 250.487v-0.246M160.533 250.241v-0.242M160.533 250.241v-0.242M160.533 249.999v-0.242M160.533 249.999v-0.242M160.533 249.758v-0.246M160.533 249.758v-0.246M160.533 249.512v-0.242M160.533 249.512v-0.242M160.533 249.27v-0.246M160.533 249.27v-0.246M160.533 249.025v-0.242M160.533 249.025v-0.242M160.533 248.783v-0.242M160.533 248.783v-0.242M160.533 248.541v-0.246M160.533 248.541v-0.246M160.533 248.295v-0.242M160.533 248.295v-0.242M160.533 248.054v-0.242M160.533 248.054v-0.242M160.533 247.812v-0.246M160.533 247.812v-0.246M160.533 247.566v-0.242M160.533 247.566v-0.242M160.533 247.325v-0.242M160.533 247.325v-0.242M160.533 247.083v-0.246M160.533 247.083v-0.246M160.533 246.837v-0.242M160.533 246.837v-0.242M160.533 246.596v-0.242M160.533 246.596v-0.242M160.533 246.354v-0.246M160.533 246.354v-0.246M160.533 246.108v-0.242M160.533 246.108v-0.242M160.533 245.866v-0.242M160.533 245.866v-0.242M160.533 245.625v-0.246M160.533 245.625v-0.246M160.533 245.379v-0.242M160.533 245.379v-0.242M160.533 245.137v-0.242M160.533 245.137v-0.242M160.533 244.896v-0.246M160.533 244.896v-0.246M160.533 244.65v-0.242M160.533 244.65v-0.242M160.533 244.408v-0.242M160.533 244.408v-0.242M160.533 244.167v-0.246M160.533 244.167v-0.246M160.533 243.921v-0.242M160.533 243.921v-0.242M160.533 243.679v-0.242M160.533 243.679v-0.242M160.533 243.438v-0.246M160.533 243.438v-0.246M160.533 243.192v-0.242M160.533 243.192v-0.242M160.533 242.95v-0.242M160.533 242.95v-0.242M160.533 242.708v-0.246M160.533 242.708v-0.246M160.533 242.463v-0.242M160.533 242.463v-0.242M160.533 242.221v-0.242M160.533 242.221v-0.242M160.533 241.979v-0.246M160.533 241.979v-0.246M160.533 241.734v-0.242M160.533 241.734v-0.242M160.533 241.492v-0.242M160.533 241.492v-0.242M160.533 241.25v-0.246M160.533 241.25v-0.246M160.533 241.005v-0.242M160.533 241.005v-0.242M160.533 240.763v-0.246M160.533 240.763v-0.246M160.533 240.517v-0.242M160.533 240.517v-0.242M160.533 240.275v-0.242M160.533 240.275v-0.242M160.533 240.034v-0.246M160.533 240.034v-0.246M160.533 239.788v-0.242M160.533 239.788v-0.242M160.533 239.546v-0.242M160.533 239.546v-0.242M160.533 239.305v-0.246M160.533 239.305v-0.246M160.533 239.059v-0.242M160.533 239.059v-0.242M160.533 238.817v-0.242M160.533 238.817v-0.242M160.533 238.576v-0.246M160.533 238.576v-0.246M160.533 238.33v-0.242M160.533 238.33v-0.242M160.533 238.088v-0.242M160.533 238.088v-0.242M160.533 237.847v-0.246M160.533 237.847v-0.246M160.533 237.601v-0.242M160.533 237.601v-0.242M160.533 237.359v-0.242M160.533 237.359v-0.242M160.533 237.117v-0.246M160.533 237.117v-0.246M160.533 236.872v-0.242M160.533 236.872v-0.242M160.533 236.63v-0.242M160.533 236.63v-0.242M160.533 236.388v-0.246M160.533 236.388v-0.246M160.533 236.143v-0.242M160.533 236.143v-0.242M160.533 235.901v-0.242M160.533 235.901v-0.242M160.533 235.659v-0.246M160.533 235.659v-0.246M160.533 235.414v-0.242M160.533 235.414v-0.242M160.533 235.172v-0.242M160.533 235.172v-0.242M160.533 234.93v-0.246M160.533 234.93v-0.246M160.533 234.684v-0.242M160.533 234.684v-0.242M160.533 234.443v-0.242M160.533 234.443v-0.242M160.533 234.201v-0.246M160.533 234.201v-0.246M160.533 233.955v-0.242M160.533 233.955v-0.242M160.533 233.714v-0.242M160.533 233.714v-0.242M160.533 233.472v-0.246M160.533 233.472v-0.246M160.533 233.226v-0.242M160.533 233.226v-0.242M160.533 232.985v-0.242M160.533 232.985v-0.242M160.533 232.743v-0.246M160.533 232.743v-0.246M160.533 232.497v-0.242M160.533 232.497v-0.242M160.533 232.255v-0.242M160.533 232.255v-0.242M160.533 232.014v-0.246M160.533 232.014v-0.246M160.533 231.768v-0.242M160.533 231.768v-0.242M160.533 231.526v-0.242M160.533 231.526v-0.242M160.533 231.285v-0.246M160.533 231.285v-0.246M160.533 231.039v-0.242M160.533 231.039v-0.242M160.533 230.797v-0.242M160.533 230.797v-0.242M160.533 230.556v-0.246M160.533 230.556v-0.246M160.533 230.31v-0.242M160.533 230.31v-0.242M160.533 230.068v-0.242M160.533 230.068v-0.242M160.533 229.827v-0.246M160.533 229.827v-0.246M160.533 229.581v-0.242M160.533 229.581v-0.242M160.533 229.339v-0.242M160.533 229.339v-0.242M160.533 229.097v-0.246M160.533 229.097v-0.246M160.533 228.852v-0.242M160.533 228.852v-0.242M160.533 228.61v-0.242M160.533 228.61v-0.242M160.533 228.368v-0.246M160.533 228.368v-0.246M160.533 228.123v-0.242M160.533 228.123v-0.242M160.533 227.881v-0.242M160.533 227.881v-0.242M160.533 227.639v-0.246M160.533 227.639v-0.246M160.533 227.394v-0.242M160.533 227.394v-0.242M160.533 227.152v-0.246M160.533 227.152v-0.246M160.533 226.906v-0.242M160.533 226.906v-0.242M160.533 226.664v-0.242M160.533 226.664v-0.242M160.533 226.423v-0.246M160.533 226.423v-0.246M160.533 226.177v-0.242M160.533 226.177v-0.242M160.533 225.935v-0.242M160.533 225.935v-0.242M160.533 225.694v-0.246M160.533 225.694v-0.246M160.533 225.448v-0.242M160.533 225.448v-0.242M160.533 225.206v-0.242M160.533 225.206v-0.242M160.533 224.965v-0.246M160.533 224.965v-0.246M160.533 224.719v-0.242M160.533 224.719v-0.242M160.533 224.477v-0.242M160.533 224.477v-0.242M160.533 224.236v-0.246M160.533 224.236v-0.246M160.533 223.99v-0.242M160.533 223.99v-0.242M160.533 223.748v-0.242M160.533 223.748v-0.242M160.533 223.506v-0.246M160.533 223.506v-0.246M160.533 223.261v-0.242M160.533 223.261v-0.242M160.533 223.019v-0.242M160.533 223.019v-0.242M160.533 222.777v-0.246M160.533 222.777v-0.246M160.533 222.532v-0.242M160.533 222.532v-0.242M160.533 222.29v-0.242M160.533 222.29v-0.242M160.533 222.048v-0.246M160.533 222.048v-0.246M160.533 221.802v-0.242M160.533 221.802v-0.242M160.533 221.561v-0.242M160.533 221.561v-0.242M160.533 221.319v-0.246M160.533 221.319v-0.246M160.533 221.073v-0.242M160.533 221.073v-0.242M160.533 220.832v-0.242M160.533 220.832v-0.242M160.533 220.59v-0.246M160.533 220.59v-0.246M160.533 220.344v-0.242M160.533 220.344v-0.242M160.533 220.103v-0.242M160.533 220.103v-0.242M160.533 219.861v-0.246M160.533 219.861v-0.246M160.533 219.615v-0.242M160.533 219.615v-0.242M160.533 219.374v-0.242M160.533 219.374v-0.242M160.533 219.132v-0.246M160.533 219.132v-0.246M160.533 218.886v-0.242M160.533 218.886v-0.242M160.533 218.644v-0.242M160.533 218.644v-0.242M160.533 218.403v-0.246M160.533 218.403v-0.246M160.533 218.157v-0.242M160.533 218.157v-0.242M160.533 217.915v-0.242M160.533 217.915v-0.242M160.533 217.674v-0.246M160.533 217.674v-0.246M160.533 217.428v-0.242M160.533 217.428v-0.242M160.533 217.186v-0.242M160.533 217.186v-0.242M160.533 216.945v-0.246M160.533 216.945v-0.246M160.533 216.699v-0.242M160.533 216.699v-0.242M160.533 216.457v-0.242M160.533 216.457v-0.242M160.533 216.216v-0.246M160.533 216.216v-0.246M160.533 215.97v-0.242M160.533 215.97v-0.242M160.533 215.728v-0.242M160.533 215.728v-0.242M160.533 215.486v-0.246M160.533 215.486v-0.246M160.533 215.241v-0.242M160.533 215.241v-0.242M160.533 214.999v-0.242M160.533 214.999v-0.242M160.533 214.757v-0.246M160.533 214.757v-0.246M160.533 214.512v-0.242M160.533 214.512v-0.242M160.533 214.27v-0.242M160.533 214.27v-0.242M160.533 214.028v-0.246M160.533 214.028v-0.246M160.533 213.783v-0.242M160.533 213.783v-0.242M160.533 213.541v-0.242M160.533 213.541v-0.242M160.533 213.299v-0.246M160.533 213.299v-0.246M160.533 213.053v-0.242M160.533 213.053v-0.242M160.533 212.812v-0.242M160.533 212.812v-0.242M160.533 212.57v-0.246M160.533 212.57v-0.246M160.533 212.324v-0.242M160.533 212.324v-0.242M160.533 212.083v-0.242M160.533 212.083v-0.242M160.533 211.841v-0.246M160.533 211.841v-0.246M160.533 211.595v-0.242M160.533 211.595v-0.242M160.533 211.354v-0.242M160.533 211.354v-0.242M160.533 211.112v-0.246M160.533 211.112v-0.246M160.533 210.866v-0.242M160.533 210.866v-0.242M160.533 210.625v-0.242M160.533 210.625v-0.242M160.533 210.383v-0.246M160.533 210.383v-0.246M160.533 210.137v-0.242M160.533 210.137v-0.242M160.533 209.895v-0.242M160.533 209.895v-0.242M160.533 209.654v-0.246M160.533 209.654v-0.246M160.533 209.408v-0.242M160.533 209.408v-0.242M160.533 209.166v-0.242M160.533 209.166v-0.242M160.533 208.925v-0.246M160.533 208.925v-0.246M160.533 208.679v-0.242M160.533 208.679v-0.242M160.533 208.437v-0.242M160.533 208.437v-0.242M160.533 208.196v-0.246M160.533 208.196v-0.246M160.533 207.95v-0.242M160.533 207.95v-0.242M160.533 207.708v-0.242M160.533 207.708v-0.242M160.533 207.466v-0.246M160.533 207.466v-0.246M160.533 207.221v-0.242M160.533 207.221v-0.242M160.533 206.979v-0.242M160.533 206.979v-0.242M160.533 206.737v-0.246M160.533 206.737v-0.246M160.533 206.492v-0.242M160.533 206.492v-0.242M160.533 206.25v-0.242M160.533 206.25v-0.242M160.533 206.008v-0.246M160.533 206.008v-0.246M160.533 205.763v-0.242M160.533 205.763v-0.242M160.533 205.521v-0.242M160.533 205.521v-0.242M160.533 205.279v-0.246M160.533 205.279v-0.246M160.533 205.033v-0.242M160.533 205.033v-0.242M160.533 204.792v-0.242M160.533 204.792v-0.242M160.533 204.55v-0.246M160.533 204.55v-0.246M160.533 204.304v-0.242M160.533 204.304v-0.242M160.533 204.063v-0.242M160.533 204.063v-0.242M160.533 203.821v-0.246M160.533 203.821v-0.246M160.533 203.575v-0.242M160.533 203.575v-0.242M160.533 203.334v-0.242M160.533 203.334v-0.242M160.533 203.092v-0.246M160.533 203.092v-0.246M160.533 202.846v-0.242M160.533 202.846v-0.242M160.533 202.605v-0.242M160.533 202.605v-0.242M160.533 202.363v-0.246M160.533 202.363v-0.246M160.533 202.117v-0.242M160.533 202.117v-0.242M160.533 201.875v-0.242M160.533 201.875v-0.242M160.533 201.634v-0.246M160.533 201.634v-0.246M160.533 201.388v-0.242M160.533 201.388v-0.242M160.533 201.146v-0.242M160.533 201.146v-0.242M160.533 200.905v-0.246M160.533 200.905v-0.246M160.533 200.659v-0.242M160.533 200.659v-0.242M160.533 200.417v-0.242M160.533 200.417v-0.242M160.533 200.176v-0.246M160.533 200.176v-0.246M160.533 199.93v-0.242M160.533 199.93v-0.242M160.533 199.688v-0.242M160.533 199.688v-0.242M160.533 199.447v-0.246M160.533 199.447v-0.246M160.533 199.201v-0.242M160.533 199.201v-0.242M160.533 198.959v-0.242M160.533 198.959v-0.242M160.533 198.717v-0.246M160.533 198.717v-0.246M160.533 198.472v-0.242M160.533 198.472v-0.242M160.533 198.23v-0.242M160.533 198.23v-0.242M160.533 197.988v-0.246M160.533 197.988v-0.246M160.533 197.743v-0.242M160.533 197.743v-0.242M160.533 197.501v-0.242M160.533 197.501v-0.242M160.533 197.259v-0.246M160.533 197.259v-0.246M160.533 197.014v-0.242M160.533 197.014v-0.242M160.533 196.772v-0.242M160.533 196.772v-0.242M160.533 196.53v-0.246M160.533 196.53v-0.246M160.533 196.284v-0.242M160.533 196.284v-0.242M160.533 196.043v-0.242M160.533 196.043v-0.242M160.533 195.801v-0.246M160.533 195.801v-0.246M160.533 195.555v-0.242M160.533 195.555v-0.242M160.533 195.314v-0.242M160.533 195.314v-0.242M160.533 195.072v-0.246M160.533 195.072v-0.246M160.533 194.826v-0.242M160.533 194.826v-0.242M160.533 194.585v-0.242M160.533 194.585v-0.242M160.533 194.343v-0.246M160.533 194.343v-0.246M160.533 194.097v-0.242M160.533 194.097v-0.242M160.533 193.855v-0.242M160.533 193.855v-0.242M160.533 193.614v-0.246M160.533 193.614v-0.246M160.533 193.368v-0.242M160.533 193.368v-0.242M160.533 193.126v-0.242M160.533 193.126v-0.242M160.533 192.885v-0.246M160.533 192.885v-0.246M160.533 192.639v-0.242M160.533 192.639v-0.242M160.533 192.397v-0.242M160.533 192.397v-0.242M160.533 192.156v-0.246M160.533 192.156v-0.246M160.533 191.91v-0.242M160.533 191.91v-0.242M160.533 191.668v-0.242M160.533 191.668v-0.242M160.533 191.427v-0.246M160.533 191.427v-0.246M160.533 191.181v-0.242M160.533 191.181v-0.242M160.533 190.939v-0.242M160.533 190.939v-0.242M160.533 190.697v-0.246M160.533 190.697v-0.246M160.533 190.452v-0.242M160.533 190.452v-0.242M160.533 190.21v-0.242M160.533 190.21v-0.242M160.533 189.968v-0.246M160.533 189.968v-0.246M160.533 189.723v-0.242M160.533 189.723v-0.242M160.533 189.481v-0.242M160.533 189.481v-0.242M160.533 189.239v-0.246M160.533 189.239v-0.246M160.533 188.994v-0.242M160.533 188.994v-0.242M160.533 188.752v-0.242M160.533 188.752v-0.242M160.533 188.51v-0.246M160.533 188.51v-0.246M160.533 188.264v-0.242M160.533 188.264v-0.242M160.533 188.023v-0.242M160.533 188.023v-0.242M160.533 187.781v-0.246M160.533 187.781v-0.246M160.533 187.535v-0.242M160.533 187.535v-0.242M160.533 187.294v-0.242M160.533 187.294v-0.242M160.533 187.052v-0.246M160.533 187.052v-0.246M160.533 186.806v-0.242M160.533 186.806v-0.242M160.533 186.565v-0.242M160.533 186.565v-0.242M160.533 186.323v-0.246M160.533 186.323v-0.246M160.533 186.077v-0.242M160.533 186.077v-0.242M160.533 185.836v-0.242M160.533 185.836v-0.242M160.533 185.594v-0.246M160.533 185.594v-0.246M160.533 185.348v-0.242M160.533 185.348v-0.242M160.533 185.106v-0.242M160.533 185.106v-0.242M160.533 184.865v-0.246M160.533 184.865v-0.246M160.533 184.619v-0.242M160.533 184.619v-0.242M160.533 184.377v-0.242M160.533 184.377v-0.242M160.533 184.136v-0.246M160.533 184.136v-0.246M160.533 183.89v-0.242M160.533 183.89v-0.242M160.533 183.648v-0.242M160.533 183.648v-0.242M160.533 183.407v-0.246M160.533 183.407v-0.246M160.533 183.161v-0.242M160.533 183.161v-0.242M160.533 182.919v-0.242M160.533 182.919v-0.242M160.533 182.678v-0.246M160.533 182.678v-0.246M160.533 182.432v-0.242M160.533 182.432v-0.242M160.533 182.19v-0.242M160.533 182.19v-0.242M160.533 181.948v-0.246M160.533 181.948v-0.246M160.533 181.703v-0.242M160.533 181.703v-0.242M160.533 181.461v-0.242M160.533 181.461v-0.242M160.533 181.219v-0.246M160.533 181.219v-0.246M160.533 180.974v-0.242M160.533 180.974v-0.242M160.533 180.732v-0.242M160.533 180.732v-0.242M160.533 180.49v-0.246M160.533 180.49v-0.246M160.533 180.244v-0.242M160.533 180.244v-0.242M160.533 180.003v-0.242M160.533 180.003v-0.242M160.533 179.761v-0.246M160.533 179.761v-0.246M160.533 179.515v-0.242M160.533 179.515v-0.242M160.533 179.274v-0.242M160.533 179.274v-0.242M160.533 179.032v-0.246M160.533 179.032v-0.246M160.533 178.786v-0.242M160.533 178.786v-0.242M160.533 178.545v-0.242M160.533 178.545v-0.242M160.533 178.303v-0.246M160.533 178.303v-0.246M160.533 178.057v-0.242M160.533 178.057v-0.242M160.533 177.816v-0.242M160.533 177.816v-0.242M160.533 177.574v-0.246M160.533 177.574v-0.246M160.533 177.328v-0.242M160.533 177.328v-0.242M160.533 177.086v-0.242M160.533 177.086v-0.242M160.533 176.845v-0.246M160.533 176.845v-0.246M160.533 176.599v-0.242M160.533 176.599v-0.242M160.533 176.357v-0.242M160.533 176.357v-0.242M160.533 176.116v-0.246M160.533 176.116v-0.246M160.533 175.87v-0.242M160.533 175.87v-0.242M160.533 175.628v-0.242M160.533 175.628v-0.242M160.533 175.387v-0.246M160.533 175.387v-0.246M160.533 175.141v-0.242M160.533 175.141v-0.242M160.533 174.899v-0.242M160.533 174.899v-0.242M160.533 174.658v-0.246M160.533 174.658v-0.246M160.533 174.412v-0.242M160.533 174.412v-0.242M160.533 174.17v-0.242M160.533 174.17v-0.242M160.533 173.928v-0.246M160.533 173.928v-0.246M160.533 173.683v-0.242M160.533 173.683v-0.242M160.533 173.441v-0.242M160.533 173.441v-0.242M160.533 173.199v-0.246M160.533 173.199v-0.246M160.533 172.954v-0.242M160.533 172.954v-0.242M160.533 172.712v-0.242M160.533 172.712v-0.242M160.533 172.47v-0.246M160.533 172.47v-0.246M160.533 172.225v-0.242M160.533 172.225v-0.242M160.533 171.983v-0.242M160.533 171.983v-0.242M160.533 171.741v-0.246M160.533 171.741v-0.246M160.533 171.495v-0.242M160.533 171.495v-0.242M160.533 171.254v-0.242M160.533 171.254v-0.242M160.533 171.012v-0.246M160.533 171.012v-0.246M160.533 170.766v-0.242M160.533 170.766v-0.242M160.533 170.525v-0.242M160.533 170.525v-0.242M160.533 170.283v-0.246M160.533 170.283v-0.246M160.533 170.037v-0.242M160.533 170.037v-0.242M160.533 169.796v-0.242M160.533 169.796v-0.242M160.533 169.554v-0.246M160.533 169.554v-0.246M160.533 169.308v-0.242M160.533 169.308v-0.242M160.533 169.066v-0.242M160.533 169.066v-0.242M160.533 168.825v-0.246M160.533 168.825v-0.246M160.533 168.579v-0.242M160.533 168.579v-0.242M160.533 168.337v-0.242M160.533 168.337v-0.242M160.533 168.096v-0.246M160.533 168.096v-0.246M160.533 167.85v-0.242M160.533 167.85v-0.242M160.533 167.608v-0.242M160.533 167.608v-0.242M160.533 167.367v-0.246M160.533 167.367v-0.246M160.533 167.121v-0.242M160.533 167.121v-0.242M160.533 166.879v-0.242M160.533 166.879v-0.242M160.533 166.638v-0.246M160.533 166.638v-0.246M160.533 166.392v-0.242M160.533 166.392v-0.242M160.533 166.15v-0.242M160.533 166.15v-0.242M160.533 165.908v-0.246M160.533 165.908v-0.246M160.533 165.663v-0.242M160.533 165.663v-0.242M160.533 165.421v-0.242M160.533 165.421v-0.242M160.533 165.179v-0.246M160.533 165.179v-0.246M160.533 164.934v-0.242M160.533 164.934v-0.242M160.533 164.692v-0.242M160.533 164.692v-0.242M160.533 164.45v-0.246M160.533 164.45v-0.246M160.533 164.205v-0.242M160.533 164.205v-0.242M160.533 163.963v-0.242M160.533 163.963v-0.242M160.533 163.721v-0.246M160.533 163.721v-0.246M160.533 163.475v-0.242M160.533 163.475v-0.242M160.533 163.234v-0.242M160.533 163.234v-0.242M160.533 162.992v-0.246M160.533 162.992v-0.246M160.533 162.746v-0.242M160.533 162.746v-0.242M160.533 162.505v-0.242M160.533 162.505v-0.242M160.533 162.263v-0.246M160.533 162.263v-0.246M160.533 162.017v-0.242M160.533 162.017v-0.242M160.533 161.776v-0.242M160.533 161.776v-0.242M160.533 161.534v-0.246M160.533 161.534v-0.246M160.533 161.288v-0.242M160.533 161.288v-0.242M160.533 161.047v-0.242M160.533 161.047v-0.242M160.533 160.805v-0.246M160.533 160.805v-0.246M160.533 160.559v-0.242M160.533 160.559v-0.242M160.533 160.317v-0.242M160.533 160.317v-0.242M160.533 160.076v-0.246M160.533 160.076v-0.246M160.533 159.83v-0.242M160.533 159.83v-0.242M160.533 159.588v-0.242M160.533 159.588v-0.242M160.533 159.347v-0.246M160.533 159.347v-0.246M160.533 159.101v-0.242M160.533 159.101v-0.242M160.533 158.859v-0.242M160.533 158.859v-0.242M160.533 158.618v-0.246M160.533 158.618v-0.246M160.533 158.372v-0.242M160.533 158.372v-0.242M160.533 158.13v-0.242M160.533 158.13v-0.242M160.533 157.889v-0.246M160.533 157.889v-0.246M160.533 157.643v-0.242M160.533 157.643v-0.242M160.533 157.401v-0.242M160.533 157.401v-0.242M160.533 157.159v-0.246M160.533 157.159v-0.246M160.533 156.914v-0.242M160.533 156.914v-0.242M160.533 156.672v-0.246M160.533 156.672v-0.246M160.533 156.426v-0.242M160.533 156.426v-0.242M160.533 156.185v-0.242M160.533 156.185v-0.242M160.533 155.943v-0.246M160.533 155.943v-0.246M160.533 155.697v-0.242M160.533 155.697v-0.242M160.533 155.455v-0.242M160.533 155.455v-0.242M160.533 155.214v-0.246M160.533 155.214v-0.246M160.533 154.968v-0.242M160.533 154.968v-0.242M160.533 154.726v-0.242M160.533 154.726v-0.242M160.533 154.485v-0.246M160.533 154.485v-0.246M160.533 154.239v-0.242M160.533 154.239v-0.242M160.533 153.997v-0.242M160.533 153.997v-0.242M160.533 153.756v-0.246M160.533 153.756v-0.246M160.533 153.51v-0.242M160.533 153.51v-0.242M160.533 153.268v-0.242M160.533 153.268v-0.242M160.533 153.027v-0.246M160.533 153.027v-0.246M160.533 152.781v-0.242M160.533 152.781v-0.242M160.533 152.539v-0.242M160.533 152.539v-0.242M160.533 152.297v-0.246M160.533 152.297v-0.246M160.533 152.052v-0.242M160.533 152.052v-0.242M160.533 151.81v-0.242M160.533 151.81v-0.242M160.533 151.568v-0.246M160.533 151.568v-0.246M160.533 151.323v-0.242M160.533 151.323v-0.242M160.533 151.081v-0.242M160.533 151.081v-0.242M160.533 150.839v-0.246M160.533 150.839v-0.246M160.533 150.594v-0.242M160.533 150.594v-0.242M160.533 150.352v-0.242M160.533 150.352v-0.242M160.533 150.11v-0.246M160.533 150.11v-0.246M160.533 149.864v-0.242M160.533 149.864v-0.242M160.533 149.623v-0.242M160.533 149.623v-0.242M160.533 149.381v-0.246M160.533 149.381v-0.246M160.533 149.135v-0.242M160.533 149.135v-0.242M160.533 148.894v-0.242M160.533 148.894v-0.242M160.533 148.652v-0.246M160.533 148.652v-0.246M160.533 148.406v-0.242M160.533 148.406v-0.242M160.533 148.165v-0.242M160.533 148.165v-0.242M160.533 147.923v-0.246M160.533 147.923v-0.246M160.533 147.677v-0.242M160.533 147.677v-0.242M160.533 147.436v-0.242M160.533 147.436v-0.242M160.533 147.194v-0.246M160.533 147.194v-0.246M160.533 146.948v-0.242M160.533 146.948v-0.242M160.533 146.706v-0.246M160.533 146.706v-0.246M160.533 146.461v-0.242M160.533 146.461v-0.242M160.533 146.219v-0.242M160.533 146.219v-0.242M160.533 145.977v-0.246M160.533 145.977v-0.246M160.533 145.732v-0.242M160.533 145.732v-0.242M160.533 145.49v-0.242M160.533 145.49v-0.242M160.533 145.248v-0.246M160.533 145.248v-0.246M160.533 145.002v-0.242M160.533 145.002v-0.242M160.533 144.761v-0.242M160.533 144.761v-0.242M160.533 144.519v-0.246M160.533 144.519v-0.246M160.533 144.273v-0.242M160.533 144.273v-0.242M160.533 144.032v-0.242M160.533 144.032v-0.242M160.533 143.79v-0.246M160.533 143.79v-0.246M160.533 143.544v-0.242M160.533 143.544v-0.242M160.533 143.303v-0.242M160.533 143.303v-0.242M160.533 143.061v-0.246M160.533 143.061v-0.246M160.533 142.815v-0.242M160.533 142.815v-0.242M160.533 142.574v-0.242M160.533 142.574v-0.242M160.533 142.332v-0.246M160.533 142.332v-0.246M160.533 142.086v-0.242M160.533 142.086v-0.242M160.533 141.844v-0.242M160.533 141.844v-0.242M160.533 141.603v-0.246M160.533 141.603v-0.246M160.533 141.357v-0.242M160.533 141.357v-0.242M160.533 141.115v-0.242M160.533 141.115v-0.242M160.533 140.874v-0.246M160.533 140.874v-0.246M160.533 140.628v-0.242M160.533 140.628v-0.242M160.533 140.386v-0.242M160.533 140.386v-0.242M160.533 140.145v-0.246M160.533 140.145v-0.246M160.533 139.899v-0.242M160.533 139.899v-0.242M160.533 139.657v-0.246M160.533 139.657v-0.246M160.533 139.411v-0.242M160.533 139.411v-0.242M160.533 139.17v-0.242M160.533 139.17v-0.242M160.533 138.928v-0.246M160.533 138.928v-0.246M160.533 138.682v-0.242M160.533 138.682v-0.242M160.533 138.441v-0.242M160.533 138.441v-0.242M160.533 138.199v-0.246M160.533 138.199v-0.246M160.533 137.953v-0.242M160.533 137.953v-0.242M160.533 137.712v-0.242M160.533 137.712v-0.242M160.533 137.47v-0.246M160.533 137.47v-0.246M160.533 137.224v-0.242M160.533 137.224v-0.242M160.533 136.983v-0.242M160.533 136.983v-0.242M160.533 136.741v-0.246M160.533 136.741v-0.246M160.533 136.495v-0.242M160.533 136.495v-0.242M160.533 136.253v-0.242M160.533 136.253v-0.242M160.533 136.012v-0.246M160.533 136.012v-0.246M160.533 135.766v-0.242M160.533 135.766v-0.242M160.533 135.524v-0.242M160.533 135.524v-0.242M160.533 135.283v-0.246M160.533 135.283v-0.246M160.533 135.037v-0.242M160.533 135.037v-0.242M160.533 134.795v-0.242M160.533 134.795v-0.242M160.533 134.554v-0.246M160.533 134.554v-0.246M160.533 134.308v-0.242M160.533 134.308v-0.242M160.533 134.066v-0.246M160.533 134.066v-0.246M160.533 133.82v-0.242M160.533 133.82v-0.242M160.533 133.579v0zM437.297 355.75c0.004 0 0.004 0 0.004 0 1.43-1.43 2.994-2.855 4.854-4.547 0.864-0.786 1.794-1.63 2.798-2.56l10.31-9.511v473.442c0 23.054 15.888 39.079 36.643 38.859h0.008c18.833-0.181 34.578-15.189 35.668-34.071v-0.017c0.143-2.361 0.123-4.655 0.102-7.184-0.012-0.972-0.020-1.978-0.020-3.036v-468.915l10.449 10.449-100.815 7.090zM437.297 355.75c-8.208 8.204-16.4 16.413-24.588 24.617-17.994 18.031-35.972 36.045-54.082 53.948-15.769 15.585-37.841 15.708-52.219 1.569-14.672-14.434-14.763-36.815 1.106-52.748v0c52.090-52.31 104.298-104.526 156.624-156.643v0c8.716-8.688 18.231-12.661 27.345-12.673s18.62 3.936 27.333 12.603l4.334-4.354-85.852 133.681z" />
<glyph unicode="&#xe902;" glyph-name="emoji" horiz-adv-x="964" d="M0-10.993h963.765v963.765h-963.765v-963.765z" />
<glyph unicode="&#xe903;" glyph-name="expert" horiz-adv-x="1003" d="M501.551 949.551c276.999 0 501.551-224.552 501.551-501.551s-224.552-501.551-501.551-501.551c-276.999 0-501.551 224.552-501.551 501.551s224.552 501.551 501.551 501.551z" />
<glyph unicode="&#xe905;" glyph-name="favorite" horiz-adv-x="990" d="M520.516 90.511c-14.022-4.949-37.12-4.949-51.142 0-119.61 40.83-386.874 211.173-386.874 499.883 0 127.445 102.699 230.556 229.319 230.556 75.065 0 141.468-36.295 183.125-92.388 41.656 56.093 108.472 92.388 183.125 92.388 126.621 0 229.321-103.111 229.321-230.556 0-288.71-267.264-459.052-386.874-499.883z" />
<glyph unicode="&#xe906;" horiz-adv-x="1436" d="M509.419 776.415c37.087 29.413 74.251 58.701 111.365 88.039 44.359-43.127 89.121-85.901 133.179-129.329-45.693 35.779-90.581 72.615-135.695 109.099-27.2-25.111-54.626-49.945-81.826-75.056-8.982 2.466-18.016 4.805-27.023 7.246z" />
<glyph unicode="&#xe907;" horiz-adv-x="1436" d="M0 509.593c89.675 75.434 179.099 151.12 268.647 226.654 40.209-38.548 79.913-77.672 120.121-116.245 13.059-12.882 26.772-25.161 39.101-38.748-51.052 41.415-101.651 83.384-152.528 125.026-69.218-59.456-138.135-119.215-207.229-178.846-7.246-5.914-13.562-13.386-22.167-17.336-15.248-1.46-30.646-0.177-45.945-0.504z" />
<glyph unicode="&#xe908;" horiz-adv-x="1436" d="M1005.597 520.008c59.532 59.683 120.196 118.233 180.080 177.59 83.485-75.057 166.92-150.214 250.582-225.094-13.538-0.403-27.023-2.039-40.561-1.56-3.95-0.051-6.57 3.396-9.429 5.51-68.043 62.149-136.431 123.945-204.543 185.968-58.751-47.378-116.925-95.563-176.104-142.413h-0.025z" />
<glyph unicode="&#xe909;" horiz-adv-x="1436" d="M802.924 921.666c15.827 12.757 31.603 25.639 47.504 38.321 27.476-13.436 54.827-27.199 82.227-40.862-0.125-5.032-0.277-10.115-0.352-15.172-27.274 13.235-54.599 26.344-81.85 39.629-15.827-12.279-31.753-24.432-47.53-36.761-0.025 4.957 0 9.888 0 14.845z" />
<glyph unicode="&#xe90a;" horiz-adv-x="1436" d="M851.585 926.675c24.507-11.297 48.862-22.947 73.37-34.219 0.477-17.99 0.805-35.956 0.88-53.946 10.316 0.101 20.632 0.176 30.999 0.201 31.275-29.338 62.147-59.104 93.449-88.493-67.156-15.348-134.312-30.596-201.392-46.145-78.554 68.488-157.056 137.028-235.485 205.694-37.037-25.413-73.748-51.304-111.137-76.189 34.144 30.747 68.363 61.444 102.482 92.216 62.928-14.845 125.856-29.69 188.836-44.359 8.403-2.39 18.62-2.34 24.532-9.788 11.599-12.555 23.198-25.086 34.571-37.843-0.101 30.948-1.309 61.897-1.106 92.845v0.025z" />
<glyph unicode="&#xe90b;" horiz-adv-x="1436" d="M56.185 629.322c67.835 60.865 136.223 121.077 204.285 181.691 129.984-31.377 259.992-62.979 390.002-94.305 6.365-1.233 10.466-6.668 15.146-10.693 27.451-26.343 55.356-52.209 82.858-78.529 16.883 15.726 34.093 31.075 51.127 46.624 5.988 6.039 15.071 5.963 22.822 8.127 123.34 28.131 246.757 55.833 369.998 84.19 43.076-38.472 86.077-77.018 129.178-115.515 18.723-17.286 38.578-33.465 56.758-51.354-67.527 48.562-134.18 98.331-201.511 147.194-104.621-99.388-209.443-198.548-314.114-297.886-2.818-2.869-6.164-5.51-10.442-4.73-108.37 0.126-216.765 1.484-325.16 1.737 18.645 16.279 36.988 32.91 55.582 49.29-106.936 97.928-213.62 196.133-320.505 294.137-68.792-53.142-136.979-107.112-205.996-159.951l-0.025-0.025z" />
<glyph unicode="&#xe90c;" horiz-adv-x="1436" d="M622.236 805.143h19.451c0-6.543 0.025-13.11 0.074-19.651-6.542 0-13.058 0-19.549-0.025 0 6.567 0.024 13.134 0.024 19.677z" />
<glyph unicode="&#xe90d;" horiz-adv-x="1436" d="M598.035 780.104c6.39 0.025 12.781 0.025 19.173 0.025-0.025-6.491 0-13.009 0.025-19.525-6.417 0.025-12.833 0.025-19.249 0.025 0.025 6.491 0.051 13.009 0.051 19.475z" />
<glyph unicode="&#xe90e;" horiz-adv-x="1436" d="M622.238 780.13c6.467 0 12.984 0 19.5-0.025-0.025-6.466-0.025-12.984 0.025-19.475h-19.576c0.025 6.491 0.025 13.009 0.051 19.5z" />
<glyph unicode="&#xe90f;" horiz-adv-x="1436" d="M209.542 618.781c18.468 0.076 36.912 0 55.355 0.051-0.051-18.393-0.051-36.76 0-55.154-18.468-0.327-36.912 0.68-55.355-0.101 0.025 18.419 0.025 36.812 0 55.204z" />
<glyph unicode="&#xe910;" horiz-adv-x="1436" d="M278.636 618.678c18.545 0.956 37.089-0.201 55.632 0.101-0.025-18.393-0.025-36.76 0.025-55.154-18.569 0-37.113-0.051-55.658 0.051 0.025 18.343 0.025 36.659 0 55.002z" />
<glyph unicode="&#xe911;" horiz-adv-x="1436" d="M1113.315 575.197c19.399 0.025 38.823 0 58.198 0-0.051-19.449-0.051-38.9 0-58.349h-58.198c0.074 19.449 0.049 38.9 0 58.349z" />
<glyph unicode="&#xe912;" horiz-adv-x="1436" d="M1185.753 575.197c19.424 0 38.849 0.025 58.248 0-0.101-19.449-0.101-38.9 0-58.349h-58.248c0.025 19.449 0.025 38.9 0 58.349z" />
<glyph unicode="&#xe913;" horiz-adv-x="1436" d="M209.542 548.52c18.468-0.025 36.937-0.025 55.405 0-0.101-18.518-0.101-37.013 0.025-55.506-18.493-0.025-36.962-0.051-55.43 0 0.025 18.493 0.025 37.013 0 55.506z" />
<glyph unicode="&#xe914;" horiz-adv-x="1436" d="M279.116 548.2c18.393 0.805 36.811 0.051 55.204 0.327-0.101-18.52-0.101-37.013 0.025-55.506-18.594-0.025-37.138-0.051-55.707 0 0.327 18.417-0.604 36.811 0.477 55.179z" />
<glyph unicode="&#xe915;" horiz-adv-x="1436" d="M1113.341 501.248c19.4 0.025 38.774 0 58.174 0-0.051-19.449-0.051-38.873 0-58.348-19.4 0.025-38.824 0-58.174 0.025 0.025 19.449 0.051 38.873 0 58.323z" />
<glyph unicode="&#xe916;" horiz-adv-x="1436" d="M1185.753 501.273c19.424-0.051 38.824 0 58.248-0.051-0.101-19.425-0.101-38.875-0.025-58.324-19.424 0.025-38.849 0-58.223 0.025 0 19.449 0.025 38.899 0 58.349z" />
<glyph unicode="&#xe917;" horiz-adv-x="1436" d="M598.060 805.143h19.122c0-6.543 0.025-13.11 0.025-19.677-6.415 0.025-12.807 0.025-19.198 0.025 0 6.542 0.025 13.109 0.051 19.651z" />
<glyph unicode="&#xe918;" horiz-adv-x="1436" d="M213.608-31.511c0-3.422 0-6.491 0.051-9.184 0.025-2.692 0.076-5.157 0.126-7.397 0.051-1.811 0.704-2.919 1.962-3.322l8.882-2.892 0.251-4.278c-6.314 0.177-14.141 0.251-23.475 0.251-9.963 0-18.846-0.074-26.645-0.251l-0.428 4.278 11.449 3.145c1.434 0.402 2.189 1.283 2.314 2.641 0.051 2.265 0.101 4.831 0.126 7.649s0.051 5.938 0.051 9.36v68.061c0 2.843 0 5.435-0.051 7.776-0.025 2.339-0.076 4.478-0.126 6.415-0.051 1.485-0.754 2.416-2.037 2.818l-11.449 3.322-0.251 4.353c7.975-0.226 16.129-0.352 24.507-0.352 1.761 0 3.95 0.051 6.567 0.126s5.813 0.176 9.562 0.302c3.422 0.1 6.265 0.201 8.58 0.251 2.314 0.051 4.101 0.076 5.434 0.076 14.619 0 25.589-2.442 32.912-7.348s10.97-12.053 10.97-21.438c0-8.479-2.24-15.323-6.693-20.532-4.478-5.208-11.021-9.209-19.675-12.002 4.781-7.044 8.479-12.781 11.071-17.159 2.591-4.378 5.183-8.681 7.8-12.933 2.617-4.253 5.007-7.977 7.12-11.223s4.152-5.812 6.014-7.673c1.032-0.856 2.013-1.585 2.944-2.214s1.912-1.158 2.944-1.636c1.031-0.453 2.113-0.83 3.295-1.157 1.157-0.327 2.466-0.604 3.901-0.907l0.352-4.353c-5.587-0.805-11.952-1.208-19.124-1.208-5.687 0-9.687 0.378-11.952 1.108s-4.302 1.786-6.064 3.17c-2.616 2.037-5.032 4.73-7.221 8.026-2.189 3.297-4.503 7.020-6.97 11.198-2.44 4.151-4.956 8.554-7.548 13.235-2.591 4.655-5.309 9.284-8.152 13.839-0.855 1.309-1.56 2.39-2.088 3.245-0.553 0.856-1.083 1.485-1.636 1.912s-1.106 0.73-1.71 0.956c-0.605 0.202-1.359 0.327-2.265 0.378l-3.573 0.076v-28.508h-0.051zM213.608 4.444c3.020-0.176 5.737-0.251 8.203-0.251 8.078 0 13.99 2.037 17.764 6.115 3.774 4.076 5.636 10.441 5.636 19.097s-1.811 14.468-5.435 18.318c-3.623 3.85-9.235 5.762-16.857 5.762-1.309 0-2.718-0.076-4.228-0.177s-3.196-0.277-5.083-0.503v-48.361z" />
<glyph unicode="&#xe919;" horiz-adv-x="1436" d="M320.367 60.884h21.589c13.839 0 28.18 0.101 43.051 0.352l0.604-0.68-5.284-28.433-4.604-0.68-5.46 20.758h-33.037v-45.341h4.604c4.958 0 10.267 0.051 15.978 0.177 1.484 0.051 2.44 0.83 2.892 2.314l3.071 11.7 5.636 0.251c-0.177-8.252-0.251-14.442-0.251-18.518s0.074-10.090 0.251-18.267l-5.636-0.427-3.17 12.026c-0.453 1.536-1.334 2.341-2.642 2.391-5.812 0.101-11.221 0.176-16.228 0.176h-4.53v-29.288c0-6.265 0.051-12.454 0.176-18.62h34.144l10.769 22.469 5.208 0.781-2.037-31.93-0.604-0.604c-14.166 0.176-27.979 0.251-41.416 0.251h-22.62c-7.348 0-14.921-0.076-22.721-0.251l-0.428 4.277 11.449 3.145c1.435 0.403 2.189 1.283 2.315 2.642 0.051 2.265 0.1 4.831 0.125 7.649s0.051 5.938 0.051 9.36v68.061c0 2.843 0 5.435-0.051 7.774-0.025 2.341-0.074 4.479-0.125 6.417-0.051 1.484-0.755 2.415-2.039 2.818l-11.448 3.321-0.253 4.354c7.977-0.227 15.55-0.352 22.721-0.352l-0.051-0.076z" />
<glyph unicode="&#xe91a;" horiz-adv-x="1436" d="M427.958-20.417l-6.063-15.978c-1.209-3.145-2.114-5.636-2.769-7.548s-0.981-3.371-0.981-4.403c0-1.031 0.253-1.71 0.781-2.214 0.503-0.503 1.309-0.906 2.39-1.182l8.203-2.39 0.253-4.428c-8.253 0.176-14.972 0.251-20.154 0.251-5.184 0-11.575-0.076-18.52-0.251l-0.427 4.277 9.134 2.742c2.164 0.629 3.749 1.661 4.78 3.121 1.032 1.459 2.165 3.673 3.423 6.617l42.523 103.589 9.233 1.358 36.812-103.84c1.434-3.975 2.717-6.668 3.874-8.076 1.158-1.41 2.843-2.416 5.007-3.045l8.38-2.466 0.251-4.277c-7.7 0.176-15.424 0.251-23.224 0.251-10.317 0-20.356-0.076-30.144-0.251l-0.427 4.277 8.454 2.466c1.132 0.352 1.963 0.781 2.466 1.283 0.503 0.504 0.781 1.283 0.781 2.315 0 1.132-0.278 2.617-0.856 4.479s-1.408 4.277-2.466 7.297l-5.636 16.053-35.075-0.025zM446.401 28.596c-1.032-2.968-2.138-6.039-3.322-9.209l-11.7-30.923h28.508l-10.493 30.824c-1.081 3.245-2.088 6.341-2.994 9.309z" />
<glyph unicode="&#xe91b;" horiz-adv-x="1436" d="M559.53 36.877v-67.532c0-6.266 0.051-12.456 0.176-18.62h33.389l11.7 24.256 5.209 0.779-2.14-33.741-0.604-0.604c-14.065 0.177-27.802 0.251-41.239 0.251h-21.186c-8.479 0-16.329-0.074-23.576-0.251l-0.427 4.278 10.592 3.145c1.434 0.402 2.189 1.283 2.315 2.641 0.049 2.265 0.1 4.831 0.125 7.649s0.051 5.938 0.051 9.36v68.061c0 2.843 0 5.435-0.051 7.776-0.025 2.339-0.076 4.478-0.125 6.415-0.051 1.485-0.755 2.416-2.039 2.818l-10.592 3.322-0.251 4.353c7.346-0.226 15.825-0.352 25.438-0.352 9.611 0 18.493 0.101 25.79 0.352l0.428-4.353-10.594-3.17c-1.358-0.352-2.113-1.208-2.214-2.567-0.051-2.039-0.1-4.956-0.125-8.756-0.025-3.774-0.051-5.611-0.051-5.511z" />
<glyph unicode="&#xe91c;" horiz-adv-x="1436" d="M682.738 60.884h21.588c13.839 0 28.181 0.101 43.052 0.352l0.604-0.68-5.284-28.433-4.605-0.68-5.46 20.758h-33.037v-45.341h4.605c4.956 0 10.265 0.051 15.977 0.177 1.484 0.051 2.44 0.83 2.894 2.314l3.069 11.7 5.636 0.251c-0.176-8.252-0.251-14.442-0.251-18.518s0.076-10.090 0.251-18.267l-5.636-0.427-3.17 12.026c-0.453 1.536-1.334 2.341-2.642 2.391-5.812 0.101-11.221 0.176-16.228 0.176h-4.53v-29.288c0-6.265 0.051-12.454 0.177-18.62h34.143l10.769 22.469 5.209 0.781-2.039-31.93-0.604-0.604c-14.166 0.176-27.979 0.251-41.415 0.251h-22.621c-7.346 0-14.92-0.076-22.721-0.251l-0.427 4.277 11.448 3.145c1.435 0.403 2.19 1.283 2.315 2.642 0.051 2.265 0.101 4.831 0.126 7.649s0.051 5.938 0.051 9.36v68.061c0 2.843 0 5.435-0.051 7.774-0.025 2.341-0.076 4.479-0.126 6.417-0.051 1.484-0.754 2.415-2.037 2.818l-11.449 3.321-0.251 4.354c7.975-0.227 15.549-0.352 22.721-0.352l-0.051-0.076z" />
<glyph unicode="&#xe91d;" horiz-adv-x="1436" d="M823.823 53.107c-3.648 1.434-7.598 2.138-11.876 2.138-6.039 0-11.147-1.761-15.323-5.284-4.177-3.523-6.29-8.078-6.29-13.663 0-3.371 0.68-6.24 2.037-8.631 1.359-2.39 3.196-4.528 5.46-6.39 2.29-1.887 4.881-3.573 7.825-5.032 2.919-1.485 5.963-2.97 9.083-4.428 3.472-1.661 6.97-3.447 10.493-5.435 3.523-1.963 6.693-4.302 9.486-6.995s5.057-5.938 6.793-9.687c1.737-3.749 2.617-8.304 2.617-13.663 0-11.549-4.353-20.632-13.059-27.249-8.705-6.592-20.205-9.914-34.496-9.914-10.316 0-20.456 1.61-30.495 4.857l-0.504 0.779 4.53 30.748 5.284 0.855 6.417-26.117c4.101-1.887 8.655-2.818 13.662-2.818 7.223 0 13.059 1.837 17.463 5.51s6.617 8.58 6.617 14.72c0 3.472-0.68 6.415-2.039 8.832-1.358 2.415-3.22 4.579-5.56 6.491s-4.982 3.599-7.951 5.083c-2.968 1.484-6.039 2.97-9.233 4.454-3.472 1.71-6.945 3.498-10.417 5.385s-6.567 4.152-9.31 6.844c-2.742 2.692-4.956 5.887-6.668 9.612-1.71 3.724-2.565 8.227-2.565 13.537 0 10.869 4.151 19.525 12.454 25.966s19.097 9.638 32.357 9.638c8.43 0 18.016-1.309 28.785-3.926l0.503-0.779-5.208-27.502-4.705-0.781-6.24 22.872 0.074-0.025z" />
<glyph unicode="&#xe91e;" horiz-adv-x="1436" d="M903.127-58.333c-10.015 0-19.576-0.076-28.684-0.251l-0.428 4.277 13.663 3.749c1.434 0.453 2.164 1.359 2.214 2.742 0.1 4.278 0.176 9.763 0.176 16.481v83.435h-24.583l-7.85-22.721-4.781-0.779-2.214 31.93 0.604 0.678c13.99-0.226 27.401-0.352 40.233-0.352h23.829c12.807 0 26.293 0.101 40.459 0.352l0.529-0.678-5.636-31.251-4.781-0.781-5.56 23.576h-24.684v-83.435c0-6.719 0.051-12.203 0.176-16.481 0.051-1.358 0.831-2.263 2.315-2.742l13.41-3.749 0.253-4.277c-9.461 0.176-18.997 0.251-28.609 0.251l-0.049 0.025z" />
<glyph unicode="&#xe91f;" horiz-adv-x="1436" d="M980-20.417l-6.064-15.978c-1.182-3.145-2.113-5.636-2.767-7.548s-0.981-3.371-0.981-4.403c0-1.031 0.253-1.71 0.781-2.214 0.503-0.503 1.309-0.906 2.39-1.182l8.203-2.39 0.251-4.428c-8.252 0.176-14.97 0.251-20.154 0.251s-11.574-0.076-18.518-0.251l-0.427 4.277 9.134 2.742c2.164 0.629 3.749 1.661 4.78 3.121 1.032 1.459 2.164 3.673 3.422 6.617l42.524 103.589 9.208 1.358 36.811-103.84c1.435-3.975 2.718-6.668 3.901-8.076 1.157-1.384 2.843-2.416 4.982-3.045l8.38-2.466 0.251-4.277c-7.675 0.176-15.424 0.251-23.224 0.251-10.317 0-20.356-0.076-30.144-0.251l-0.427 4.277 8.454 2.466c1.132 0.352 1.963 0.781 2.491 1.283 0.503 0.504 0.779 1.283 0.779 2.315 0 1.132-0.277 2.617-0.855 4.479s-1.383 4.277-2.491 7.297l-5.636 16.053-35.050-0.025zM998.444 28.596c-1.032-2.968-2.14-6.039-3.322-9.209l-11.7-30.923h28.534l-10.518 30.824c-1.081 3.245-2.088 6.341-2.994 9.309z" />
<glyph unicode="&#xe920;" horiz-adv-x="1436" d="M1110.811-58.333c-10.014 0-19.576-0.076-28.684-0.251l-0.428 4.277 13.663 3.749c1.434 0.453 2.164 1.359 2.214 2.742 0.101 4.278 0.176 9.763 0.176 16.481v83.435h-24.583l-7.85-22.721-4.78-0.779-2.214 31.93 0.604 0.678c13.989-0.226 27.401-0.352 40.233-0.352h23.827c12.808 0 26.294 0.101 40.485 0.352l0.503-0.678-5.636-31.251-4.781-0.781-5.56 23.576h-24.684v-83.435c0-6.719 0.051-12.203 0.177-16.481 0.051-1.358 0.83-2.263 2.314-2.742l13.412-3.749 0.251-4.277c-9.461 0.176-18.997 0.251-28.608 0.251l-0.051 0.025z" />
<glyph unicode="&#xe921;" horiz-adv-x="1436" d="M1194.826 60.884h21.588c13.839 0 28.181 0.101 43.052 0.352l0.604-0.68-5.285-28.433-4.604-0.68-5.46 20.758h-33.037v-45.341h4.605c4.956 0 10.265 0.051 15.977 0.177 1.484 0.051 2.44 0.83 2.894 2.314l3.069 11.7 5.636 0.251c-0.176-8.252-0.251-14.442-0.251-18.518s0.076-10.090 0.251-18.267l-5.636-0.427-3.17 12.026c-0.453 1.536-1.334 2.341-2.642 2.391-5.812 0.101-11.221 0.176-16.228 0.176h-4.53v-29.288c0-6.265 0.051-12.454 0.177-18.62h34.143l10.769 22.469 5.209 0.781-2.039-31.93-0.604-0.604c-14.166 0.176-27.979 0.251-41.416 0.251h-22.62c-7.346 0-14.92-0.076-22.721-0.251l-0.427 4.277 11.448 3.145c1.435 0.403 2.189 1.283 2.315 2.642 0.051 2.265 0.101 4.831 0.126 7.649s0.049 5.938 0.049 9.36v68.061c0 2.843 0 5.435-0.049 7.774-0.025 2.341-0.076 4.479-0.126 6.417-0.051 1.484-0.73 2.415-2.037 2.818l-11.449 3.321-0.251 4.354c7.975-0.227 15.524-0.352 22.721-0.352l-0.051-0.076z" />
<glyph unicode="&#xe922;" horiz-adv-x="1436" d="M22.571 396.077c18.544-0.528 37.616-0.806 57.217-0.806 7.146 0.253 18.343 0.654 33.59 1.184 15.223 0.528 25.69 0.779 31.402 0.779 33.514 0 58.776-5.41 75.811-16.203 17.009-10.795 25.539-26.319 25.539-46.6 0-31.804-18.82-53.795-56.437-65.972 21.866-3.044 38.723-10.668 50.575-22.847 11.85-12.203 17.788-27.426 17.788-45.693 0-26.495-10.668-47-31.979-61.493-21.336-14.518-51.531-21.765-90.607-21.765-7.674 0-15.725 0.201-24.154 0.604-8.404 0.402-18.921 0.604-31.502 0.604-19.349 0-38.094-0.202-56.236-0.604l-0.981 9.938 26.621 7.348c3.321 0.931 5.108 2.968 5.359 6.164 0.126 5.309 0.226 11.223 0.302 17.79s0.101 13.813 0.101 21.765v158.365c0 6.617-0.025 12.656-0.101 18.092-0.075 5.434-0.176 10.392-0.302 14.895-0.126 3.448-1.736 5.637-4.781 6.568l-26.621 7.749-0.604 10.14zM114.184 273.288c6.769-0.125 13.185-0.201 19.274-0.201 16.959 0 29.514 4.076 37.641 12.228 8.152 8.152 12.229 21.967 12.229 41.416 0 18.292-4.202 31.401-12.606 39.352-8.405 7.951-20.557 11.926-36.46 11.926-2.516 0-5.46-0.1-8.831-0.302-3.372-0.201-7.121-0.578-11.222-1.106v-103.314h-0.025zM114.184 255.399v-118.837c7.423-1.182 15.223-1.786 23.451-1.786 18.141 0 31.929 5.258 41.339 15.802 9.41 10.542 14.117 25.79 14.117 45.794s-4.756 34.873-14.292 44.61-24.986 14.594-46.297 14.594c-6.215 0-12.329-0.076-18.292-0.202l-0.025 0.025z" />
<glyph unicode="&#xe923;" horiz-adv-x="1436" d="M291.621 396.077c18.544-0.528 37.615-0.806 57.216-0.806 7.145 0.253 18.343 0.654 33.59 1.184 15.223 0.528 25.69 0.779 31.402 0.779 33.514 0 58.776-5.41 75.811-16.203 17.009-10.795 25.539-26.319 25.539-46.6 0-31.804-18.82-53.795-56.437-65.972 21.866-3.044 38.723-10.668 50.575-22.847 11.85-12.203 17.788-27.426 17.788-45.693 0-26.495-10.668-47-31.979-61.493-21.336-14.518-51.531-21.765-90.607-21.765-7.673 0-15.726 0.201-24.154 0.604-8.403 0.402-18.921 0.604-31.502 0.604-19.35 0-38.094-0.202-56.236-0.604l-0.98 9.938 26.62 7.348c3.322 0.931 5.108 2.968 5.359 6.164 0.126 5.309 0.226 11.223 0.302 17.79s0.101 13.813 0.101 21.765v158.365c0 6.617-0.025 12.656-0.101 18.092-0.076 5.434-0.176 10.392-0.302 14.895-0.126 3.448-1.735 5.637-4.781 6.568l-26.62 7.749-0.604 10.14zM383.233 273.288c6.768-0.125 13.184-0.201 19.274-0.201 16.959 0 29.514 4.076 37.641 12.228 8.152 8.152 12.228 21.967 12.228 41.416 0 18.292-4.201 31.401-12.605 39.352s-20.557 11.926-36.46 11.926c-2.516 0-5.459-0.1-8.832-0.302-3.371-0.201-7.12-0.578-11.221-1.106v-103.314h-0.025zM383.233 255.399v-118.837c7.422-1.182 15.223-1.786 23.451-1.786 18.141 0 31.929 5.258 41.339 15.802 9.41 10.518 14.117 25.79 14.117 45.794s-4.756 34.873-14.292 44.61-24.986 14.594-46.297 14.594c-6.214 0-12.329-0.076-18.292-0.202l-0.025 0.025z" />
<glyph unicode="&#xe924;" horiz-adv-x="1436" d="M861.1 262.941c0-45.843-13.511-82.706-40.534-110.584s-64.64-41.818-112.874-41.818-81.725 12.882-106.911 38.647c-25.161 25.765-37.742 60.639-37.742 104.621s13.587 82.101 40.737 108.798c27.148 26.696 64.714 40.032 112.672 40.032s81.725-12.481 106.911-37.465c25.161-24.96 37.742-59.054 37.742-102.231zM629.817 260.349c0-42.396 7.145-74.804 21.463-97.273 14.316-22.444 35.301-33.691 62.979-33.691s47.454 10.189 60.513 30.596c13.034 20.406 19.576 52.461 19.576 96.167 0 41.062-6.894 72.615-20.658 94.681-13.788 22.067-35.099 33.087-63.985 33.087s-48.258-10.24-60.889-30.697c-12.656-20.456-18.972-51.429-18.972-92.895l-0.025 0.025z" />
<glyph unicode="&#xe925;" horiz-adv-x="1436" d="M1012.494 268.296l38.145 75.912c3.573 6.617 6.417 12.253 8.555 16.883 2.114 4.631 3.196 8.405 3.196 11.323 0 3.976-2.968 6.769-8.933 8.354l-17.889 4.756-0.604 10.542c14.694-0.528 30.143-0.805 46.297-0.805 14.695 0 29.212 0.251 43.529 0.805l0.981-10.14-21.060-6.164c-4.756-1.585-8.454-3.95-11.021-7.046-2.567-3.12-5.209-7.044-7.85-11.825l-62.778-116.245v-64.388c0-7.951 0.025-15.172 0.101-21.664 0.074-6.492 0.15-12.329 0.302-17.488 0.125-3.447 2.44-5.761 6.945-6.97l22.267-6.943 0.604-9.939c-17.085 0.403-36.836 0.604-59.204 0.604s-43.051-0.201-60.010-0.604l-0.981 9.939 24.633 7.346c3.322 0.931 5.083 2.97 5.359 6.165 0.126 5.309 0.277 11.221 0.403 17.788s0.201 13.813 0.201 21.765v59.607l-64.564 115.642c-4.906 8.076-8.906 13.864-12.027 17.387-3.12 3.523-7.246 6.064-12.404 7.649l-19.073 5.359-0.805 10.139c13.109-0.528 31.728-0.805 55.833-0.805 26.495 0 51.606 0.251 75.308 0.805l0.981-10.139-20.281-4.958c-3.044-0.654-5.284-1.636-6.744-2.894-1.459-1.258-2.189-2.867-2.189-4.855 0-2.793 0.931-6.165 2.793-10.14s4.428-8.68 7.75-14.115l44.309-80.667-0.076 0.025z" />
<glyph unicode="&#xe926;" horiz-adv-x="1436" d="M1413.692 262.941c0-45.843-13.511-82.706-40.534-110.584s-64.641-41.818-112.875-41.818-81.723 12.882-106.886 38.647c-25.161 25.765-37.767 60.639-37.767 104.621s13.587 82.101 40.737 108.798c27.149 26.696 64.715 40.032 112.648 40.032 47.931 0 81.722-12.481 106.91-37.465 25.161-24.96 37.742-59.054 37.742-102.231h0.027zM1182.407 260.349c0-42.396 7.147-74.804 21.463-97.273 14.292-22.444 35.301-33.691 62.979-33.691s47.455 10.189 60.513 30.596c13.041 20.406 19.57 52.461 19.57 96.167 0 41.062-6.889 72.615-20.652 94.681-13.788 22.067-35.101 33.087-63.985 33.087s-48.26-10.24-60.891-30.697c-12.656-20.456-18.972-51.429-18.972-92.895l-0.025 0.025z" />
<glyph unicode="&#xe928;" glyph-name="help" d="M477.141 174.212c0 19.234 15.612 34.846 34.846 34.846 19.23 0 34.842-15.612 34.842-34.846s-15.612-34.842-34.842-34.842c-19.234 0-34.846 15.607-34.846 34.842zM232.437 168.427c-154.416 154.385-154.415 404.727-0.004 559.139l0.004-559.139zM232.437 168.427c154.374-154.406 404.717-154.406 559.136 0.009M232.437 168.427l559.136 0.009M791.573 168.435c154.406 154.372 154.406 404.717-0.004 559.131-154.415 154.414-404.757 154.415-559.135 0l559.139-559.131zM183.153 776.842v0c181.59 181.632 476.064 181.632 657.692 0.003 181.628-181.631 181.628-476.101 0-657.69v0c-181.628-181.628-476.102-181.628-657.684-0.004h-0.001c-181.633 181.594-181.634 476.064-0.007 657.691zM527.241 642.901h-0.004c-51.738 9.082-97.741-29.867-97.741-81.136 0-19.244-15.599-34.844-34.843-34.844s-34.844 15.6-34.844 34.844c0 94.371 84.881 166.381 179.49 149.774 61.606-10.83 111.633-60.856 122.462-122.47 11.588-65.971-19.857-129.468-76.395-160.64v0c-23.782-13.111-38.537-41.297-38.537-72.269v-68.173c0-19.243-15.603-34.842-34.846-34.842s-34.842 15.599-34.842 34.842v68.173c0 55.654 27.742 107.473 74.577 133.295 30.801 16.981 47.77 51.321 41.404 87.553v0c-5.751 32.727-33.165 60.14-65.882 65.892z" />
<glyph unicode="&#xe92a;" horiz-adv-x="1003" d="M710.886 66.102l-417.959-0.397c-91.951-0.084-167.247 75.065-167.351 167.016l-0.397 417.959c-0.084 91.951 75.065 167.246 167.017 167.35l417.959 0.397c91.951 0.084 167.246-75.065 167.351-167.016l0.397-417.959c0.104-91.972-75.065-167.267-167.016-167.351z" />
<glyph unicode="&#xe92b;" horiz-adv-x="1003" d="M710.886 66.102l-417.959-0.397c-91.951-0.084-167.247 75.065-167.351 167.016l-0.397 417.959c-0.084 91.951 75.065 167.246 167.017 167.35l417.959 0.397c91.951 0.084 167.246-75.065 167.351-167.016l0.397-417.959c0.104-91.972-75.065-167.267-167.016-167.351z" />
<glyph unicode="&#xe92c;" horiz-adv-x="1003" d="M501.551 295.775c-80.645 0-146.286 65.62-146.286 146.286s65.64 146.286 146.286 146.286c80.645 0 146.286-65.62 146.286-146.286s-65.64-146.286-146.286-146.286zM501.551 546.551c-57.616 0-104.49-46.874-104.49-104.49s46.874-104.49 104.49-104.49c57.616 0 104.49 46.874 104.49 104.49s-46.874 104.49-104.49 104.49z" />
<glyph unicode="&#xe92d;" horiz-adv-x="1003" d="M658.286 567.449c17.312 0 31.347 14.035 31.347 31.347s-14.035 31.347-31.347 31.347c-17.312 0-31.347-14.035-31.347-31.347s14.035-31.347 31.347-31.347z" />
<glyph unicode="&#xe92e;" horiz-adv-x="1003" d="M626.939 170.387h-250.776c-80.645 0-146.286 65.62-146.286 146.286v250.776c0 80.666 65.64 146.286 146.286 146.286h250.776c80.645 0 146.286-65.62 146.286-146.286v-250.776c0-80.666-65.64-146.286-146.286-146.286zM376.163 671.938c-57.616 0-104.49-46.874-104.49-104.49v-250.776c0-57.616 46.874-104.49 104.49-104.49h250.776c57.616 0 104.49 46.874 104.49 104.49v250.776c0 57.616-46.874 104.49-104.49 104.49h-250.776z" />
<glyph unicode="&#xe933;" glyph-name="messgae" horiz-adv-x="983" d="M290.528 84.931l-1.98 0.688c-0.108 0.045-0.204 0.119-0.278 0.209-0.075 0.086-0.127 0.193-0.152 0.307l-29.358 16.646c-3.765 1.511-7.781 2.298-11.838 2.322-1.622 0.025-3.241-0.152-4.821-0.516-30.544-10.969-61.759-19.976-93.455-26.968l-5.811-0.688h-1.765c-7.070-0.406-14.142 0.754-20.712 3.391-6.57 2.642-12.477 6.697-17.298 11.878-8.958 11.19-13.546 25.252-12.914 39.567l0.861 7.053c7.731 32.117 17.464 63.717 29.143 94.618 1.675 5.755 1.010 11.94-1.851 17.203l-7.921 15.401c-34.319 65.642-51.098 139.031-48.714 213.053 2.383 74.022 23.849 146.177 62.321 209.483s92.645 115.62 157.281 151.88c64.635 36.26 137.544 55.238 211.669 55.099h1.679c65.171-0.527 129.376-15.832 187.765-44.761s109.441-70.727 149.303-122.242c39.866-51.515 67.502-111.401 80.826-175.141 13.324-63.742 11.989-129.671-3.908-192.823-15.892-63.148-45.933-121.868-87.851-171.729s-94.622-89.559-154.137-116.105c-59.515-26.542-124.281-39.24-189.424-37.13-65.139 2.109-128.992 18.969-186.66 49.304zM283.168 157.532c3.96-1.892 8.997-4.604 15.927-8.602l18.166-10.453h0.258l12.355-6.279c63.823-30.773 135.121-42.668 205.49-34.288 70.369 8.385 136.868 36.696 191.66 81.596l9.47 8.045c56.324 49.562 96.252 115.053 114.495 187.789 18.244 72.741 13.943 149.303-12.333 219.547s-73.29 130.856-134.812 173.811c-61.522 42.956-134.652 66.227-209.703 66.734h-12.095c-62.857-1.657-124.257-19.283-178.407-51.214s-99.268-77.118-131.097-131.297c-31.83-54.179-49.323-115.564-50.831-178.368-1.507-62.808 13.022-124.961 42.217-180.601l7.791-15.18c5.151-9.855 8.284-20.636 9.215-31.711 0.931-11.080-0.358-22.229-3.791-32.805-11.007-29.225-20.208-59.101-27.55-89.457l4.046 15.827 17.219 4.301c12.268 3.4 23.805 6.881 35.299 10.666l17.993 6.193c7.588 2.081 15.42 3.138 23.289 3.142 12.276-0.098 24.414-2.642 35.729-7.397zM636.154 465.474c0 9.703 2.879 19.194 8.274 27.263 5.399 8.069 13.070 14.361 22.045 18.072 8.974 3.715 18.85 4.69 28.377 2.793 9.527-1.892 18.28-6.566 25.149-13.431 6.869-6.861 11.547-15.606 13.443-25.125s0.922-19.386-2.798-28.353c-3.715-8.966-10.011-16.63-18.088-22.024-8.077-5.39-17.572-8.27-27.288-8.27-13.013 0.025-25.481 5.202-34.677 14.406-9.191 9.2-14.352 21.668-14.352 34.669h-0.086zM445.239 465.474c0 9.703 2.879 19.194 8.278 27.263 5.394 8.069 13.066 14.361 22.041 18.072 8.978 3.715 18.854 4.69 28.381 2.793 9.527-1.892 18.276-6.566 25.145-13.431 6.869-6.861 11.551-15.606 13.443-25.125 1.896-9.519 0.922-19.386-2.793-28.353-3.719-8.966-10.015-16.63-18.092-22.024-8.077-5.39-17.572-8.27-27.288-8.27-13.025 0-25.518 5.169-34.73 14.373s-14.385 21.684-14.385 34.701zM254.24 465.474c0 9.703 2.881 19.194 8.278 27.263s13.068 14.361 22.043 18.072c8.975 3.715 18.851 4.69 28.378 2.793 9.528-1.892 18.28-6.566 25.149-13.431 6.869-6.861 11.547-15.606 13.442-25.125s0.922-19.386-2.795-28.353c-3.718-8.966-10.013-16.63-18.090-22.024-8.077-5.39-17.573-8.27-27.288-8.27-13.027 0-25.519 5.169-34.73 14.373s-14.386 21.684-14.386 34.701z" />
<glyph unicode="&#xe935;" d="M0-64v1024h1024v-1024h-1024zM97.813 449.894c-0.64-228.642 185.12-415.202 414.268-416.055 228.638-0.853 415.253 184.695 416.346 413.973 1.092 228.908-185.28 416.081-414.775 416.535-228.798 0.453-415.198-185.307-415.838-414.427v-0.026z" />
<glyph unicode="&#xe936;" d="M0.002 449.020c0.789 282.5 230.586 511.538 512.655 510.979 282.923-0.559 512.687-231.306 511.339-513.578-1.348-282.697-231.411-511.437-513.28-510.417-282.495 1.050-511.503 231.074-510.714 512.981v0.034zM945.225 448.627c-0.461 238.834-194.487 432.593-433.195 432.593-239.132 0-433.621-194.744-433.226-433.779 0.394-238.703 194.554-432.627 433.196-432.627 239.1 0 433.719 194.846 433.259 433.843l-0.034-0.030z" />
<glyph unicode="&#xe937;" d="M864.538 449.591c0.371-193.843-157.47-351.868-351.441-351.868-193.574 0-351.068 157.308-351.388 350.878-0.32 193.868 157.467 351.842 351.413 351.815 193.626 0 351.040-157.174 351.386-350.855l0.030 0.030zM438.75 374.737c5.359 0 9.28 0 13.201 0 38.263 0.132 76.557-0.934 114.743 0.666 73.788 3.093 134.349 74.24 126.989 147.546-7.654 76.082-64.614 128.002-140.932 128.268-46.242 0.16-92.48 0.027-138.722 0.027-28.213 0-39.147-10.933-39.173-39.147 0-108.775 0-217.545 0-326.32 0-2.987-0.053-5.999 0.133-8.986 0.987-15.817 13.12-28.373 28.48-29.602 16.533-1.306 30.562 8.559 34.001 24.346 1.041 4.83 1.199 9.894 1.225 14.857 0.107 28.907 0.055 57.813 0.055 88.346z" />
<glyph unicode="&#xe938;" d="M438.733 374.775c0-30.532 0.055-59.439-0.051-88.346 0-4.962-0.188-10.027-1.229-14.857-3.439-15.812-17.466-25.651-33.999-24.346-15.36 1.229-27.494 13.786-28.48 29.602-0.187 2.987-0.134 5.973-0.134 8.986 0 108.774 0 217.545 0 326.319 0 28.213 10.933 39.147 39.174 39.147 46.24 0 92.478 0.134 138.72-0.026 76.318-0.267 133.278-52.187 140.932-128.268 7.386-73.306-53.171-144.478-126.985-147.546-38.187-1.6-76.51-0.533-114.748-0.666-3.921 0-7.842 0-13.201 0zM439.398 587.388v-148.241c2.56-0.183 4.48-0.452 6.4-0.452 36.587 0 73.173-0.051 109.76 0.055 4.962 0 10.027 0.29 14.857 1.331 36.77 7.761 62.797 41.707 59.678 77.44-3.52 39.893-33.118 68.667-72.559 69.653-23.253 0.587-46.562 0.187-69.841 0.213-15.893 0-31.787 0-48.32 0h0.026z" />
<glyph unicode="&#xe939;" d="M439.415 587.288c16.533 0 32.427 0 48.32 0 23.283 0 46.562 0.4 69.841-0.213 39.415-1.013 69.039-29.786 72.559-69.652 3.149-35.763-22.903-69.683-59.678-77.44-4.826-1.015-9.894-1.31-14.852-1.335-36.587-0.107-73.173-0.081-109.76-0.051-1.92 0-3.87 0.265-6.4 0.452v148.24h-0.030z" />
<glyph unicode="&#xe93e;" glyph-name="satisfaction" horiz-adv-x="1003" d="M501.551 949.551c276.999 0 501.551-224.552 501.551-501.551s-224.552-501.551-501.551-501.551c-276.999 0-501.551 224.552-501.551 501.551s224.552 501.551 501.551 501.551z" />
<glyph unicode="&#xe940;" glyph-name="seen" horiz-adv-x="1792" d="M388.364-43.602l-368.070 370.391c-12.994 13.076-20.294 30.811-20.294 49.303s7.3 36.227 20.294 49.303c12.994 13.076 30.618 20.422 48.994 20.422s36-7.346 48.994-20.422l319.098-321.111 830.011 835.294c12.993 13.076 30.619 20.422 49 20.422 18.368 0 35.994-7.346 48.986-20.422s20.301-30.811 20.301-49.303c0-18.492-7.309-36.227-20.301-49.303l-879.069-884.574c-12.991-13.066-30.606-20.404-48.972-20.404-18.367 0-35.981 7.338-48.972 20.404zM794.657-43.603l-183.364 184.52c-12.993 13.076-20.293 30.811-20.293 49.303 0 18.493 7.3 36.228 20.293 49.303 12.995 13.076 30.618 20.422 48.995 20.422s36-7.346 48.993-20.422l134.17-135.014 830.239 835.069c13.030 12.854 30.579 20.013 48.832 19.922 18.24-0.091 35.725-7.424 48.627-20.406s20.198-30.566 20.301-48.93c0.102-18.364-7.014-36.025-19.776-49.147l-879.073-884.619c-12.991-13.065-30.605-20.404-48.972-20.404-18.365 0-35.981 7.34-48.972 20.404z" />
<glyph unicode="&#xe942;" horiz-adv-x="1003" d="M271.673 661.021h480.653v-480.653h-480.653v480.653z" />
<glyph unicode="&#xe943;" horiz-adv-x="1003" d="M501.551 828.204c-218.954 0-397.061-178.108-397.061-397.060 0-218.954 178.107-397.061 397.061-397.061s397.061 178.107 397.061 397.061c0 218.952-178.107 397.060-397.061 397.060zM695.541 508.414c0.173-4.073 0.278-8.217 0.278-12.378 0-126.334-96.21-272.056-272.108-272.056-54 0-104.289 15.83-146.585 42.968 7.475-0.897 15.053-1.329 22.804-1.329 44.818 0 86.060 15.262 118.757 40.916-41.848 0.759-77.134 28.467-89.339 66.412 5.851-1.122 11.843-1.726 18.022-1.726 8.719 0 17.178 1.158 25.172 3.367-43.712 8.821-76.668 47.424-76.668 93.775 0 0.414 0 0.811 0 1.208 12.896-7.164 27.621-11.479 43.315-11.981-25.69 17.178-42.538 46.423-42.538 79.602 0 17.523 4.696 33.94 12.93 48.097 47.181-57.85 117.651-95.915 197.116-99.922-1.64 7.009-2.504 14.294-2.504 21.786 0 52.809 42.814 95.623 95.64 95.623 27.502 0 52.343-11.6 69.78-30.193 21.769 4.282 42.26 12.24 60.732 23.184-7.128-22.304-22.304-41.052-42.070-52.895 19.368 2.347 37.771 7.458 54.949 15.072-12.81-19.18-29.021-36.047-47.683-49.53z" />
<glyph unicode="&#xe945;" glyph-name="wass" d="M142.764 494.515h849.944c20.301 0 36.753-16.448 36.749-36.749l-886.693 36.749zM142.764 494.515v318.883c0 26.649 15.891 50.44 40.51 60.648h0.001c24.469 10.153 52.359 4.696 71.209-13.872-25.475-44.821-25.357-100.239 0.525-144.907 5.329-9.21 14.641-15.407 25.187-16.787 10.552-1.381 21.138 2.229 28.654 9.745v0l152.35 152.354c7.518 7.518 11.115 18.105 9.732 28.644-1.378 10.535-7.569 19.858-16.772 25.19-45.849 26.567-102.996 25.96-148.409-1.577-39.933 39.108-98.918 50.554-150.63 29.104l-12.357-447.425zM69.257 494.515v318.878c0 56.459 33.71 106.928 85.863 128.546l-85.863-447.424zM69.257 494.515h-37.958c-20.296 0-36.751-16.457-36.751-36.749s16.455-36.749 36.751-36.749h37.958v-127.070c0-103.693 66.907-192.009 159.791-224.149l-63.724-63.74c-14.353-14.353-14.346-37.619 0.006-51.968l0.001-0.004c7.179-7.172 16.586-10.752 25.984-10.752 9.393 0 18.812 3.588 25.985 10.761v0l102.703 102.72h389.705l102.703-102.72c7.177-7.181 16.597-10.761 25.988-10.761 9.395 0 18.807 3.588 25.984 10.761v0c14.353 14.349 14.353 37.619 0 51.968l-65.242 65.25c90.684 33.314 155.601 120.499 155.601 222.635v127.070h37.961c20.301 0 36.753 16.457 36.753 36.745l-960.2 36.753zM881.246 293.952c0-90.223-73.408-163.635-163.635-163.635h-411.222c-90.221 0-163.629 73.408-163.629 163.635v118.281c0 4.847 3.934 8.785 8.784 8.785h720.917c4.847 0 8.785-3.934 8.785-8.785v-118.281zM405.851 741.297c5.495 0 10.923 2.224 14.741 6.125 3.896 3.823 6.126 9.246 6.126 14.741s-2.225 10.851-6.126 14.747c-7.786 7.786-21.702 7.786-29.488 0-3.891-3.896-6.125-9.251-6.125-14.747s2.229-10.923 6.125-14.741c3.895-3.901 9.251-6.125 14.747-6.125zM477.431 661.004c4.105-4.030 9.459-6.048 14.814-6.048 5.291 0 10.645 2.018 14.746 6.048 8.141 8.209 8.141 21.356 0 29.56-8.137 8.137-21.35 8.137-29.559 0-8.132-8.209-8.132-21.351 0-29.56zM463.799 704.187c8.141 8.137 8.141 21.351 0 29.493-8.137 8.204-21.35 8.204-29.487 0-8.138-8.142-8.138-21.356 0-29.493 4.105-4.035 9.391-6.125 14.746-6.125 5.35 0.005 10.705 2.090 14.741 6.125zM514.522 632.66c0-5.49 2.227-10.851 6.123-14.747 3.891-3.891 9.242-6.12 14.737-6.12s10.918 2.229 14.741 6.12c3.9 3.895 6.127 9.251 6.127 14.747s-2.227 10.851-6.127 14.746c-7.71 7.791-21.696 7.791-29.483 0-3.891-3.895-6.118-9.246-6.118-14.746zM352.657 731.74c-3.828-3.895-6.052-9.251-6.052-14.747 0-5.49 2.229-10.851 6.052-14.741 3.963-3.896 9.318-6.125 14.814-6.125 5.428 0 10.851 2.229 14.747 6.125 3.89 3.89 6.119 9.246 6.119 14.741s-2.224 10.851-6.119 14.747c-7.724 7.791-21.769 7.791-29.561 0zM382.932 641.94c1.946 0 3.824 0.279 5.774 0.836 11.057 3.132 17.456 14.675 14.324 25.804-3.199 11.063-14.747 17.461-25.804 14.262-11.057-3.132-17.523-14.679-14.324-25.737 2.642-9.179 10.985-15.165 20.030-15.165zM398.439 587.796c1.878 0 3.823 0.279 5.774 0.836 11.057 3.199 17.456 14.746 14.329 25.804-3.204 11.063-14.746 17.528-25.809 14.329-11.124-3.199-17.528-14.742-14.324-25.799 2.647-9.184 10.99-15.17 20.030-15.17zM413.949 533.654c5.49 0 10.851 2.224 14.748 6.125 3.891 3.823 6.118 9.246 6.118 14.741s-2.227 10.851-6.118 14.746c-7.792 7.791-21.703 7.719-29.495 0-3.895-3.895-6.12-9.251-6.12-14.746s2.224-10.918 6.12-14.741c3.896-3.896 9.246-6.125 14.746-6.125zM438.020 813.24c-3.895-3.823-6.123-9.251-6.123-14.746s2.223-10.851 6.123-14.742c3.891-3.89 9.246-6.125 14.741-6.125s10.85 2.229 14.741 6.125c3.895 3.896 6.127 9.246 6.127 14.742s-2.231 10.923-6.127 14.746c-7.787 7.791-21.696 7.791-29.483 0zM552.887 742.745c2.155-0.696 4.386-1.042 6.609-1.042 8.695 0 16.832 5.495 19.819 14.19 3.691 10.918-2.231 22.744-13.137 26.429-10.927 3.684-22.75-2.224-26.436-13.142-3.686-10.923 2.227-22.749 13.146-26.434zM499.469 760.805c2.231-0.759 4.454-1.109 6.677-1.109 8.7 0 16.832 5.49 19.75 14.184 3.695 10.924-2.227 22.817-13.141 26.434-10.918 3.684-22.741-2.157-26.432-13.075-3.678-10.923 2.227-22.817 13.146-26.434zM612.911 723.692c5.495 0 10.854 2.229 14.75 6.125s6.118 9.247 6.118 14.814c0 5.423-2.223 10.851-6.118 14.747-7.791 7.719-21.705 7.719-29.495 0-3.895-3.896-6.123-9.329-6.123-14.747 0-5.495 2.227-10.918 6.123-14.814 3.904-3.895 9.254-6.125 14.746-6.125z" />
<glyph unicode="&#xe946;" glyph-name="whitw-delete" d="M269.333 596.094h36.090v-390.756c0-5.28 2.097-10.345 5.83-14.080 3.735-3.733 8.8-5.83 14.080-5.83h373.333c5.28 0 10.345 2.097 14.080 5.83 3.733 3.735 5.83 8.8 5.83 14.080v390.756h36.090c5.28 0 10.345 2.097 14.080 5.83 3.733 3.735 5.83 8.8 5.83 14.080s-2.097 10.345-5.83 14.080c-3.735 3.733-8.8 5.83-14.080 5.83h-148.090v54.795c0 5.28-2.097 10.345-5.83 14.078-3.735 3.735-8.8 5.833-14.080 5.833h-149.333c-5.28 0-10.345-2.097-14.080-5.833-3.733-3.733-5.83-8.798-5.83-14.078v-54.795h-148.090c-5.28 0-10.345-2.097-14.080-5.83-3.733-3.735-5.83-8.8-5.83-14.080s2.097-10.345 5.83-14.080c3.735-3.733 8.8-5.83 14.080-5.83zM457.244 670.761h109.513v-34.846h-109.513v34.846zM678.756 596.094v-370.846h-333.513v370.846h333.513zM441.92 303.258c3.735-3.733 8.8-5.83 14.080-5.83s10.345 2.097 14.080 5.83c3.733 3.735 5.83 8.8 5.83 14.080v186.667c0 5.28-2.097 10.345-5.83 14.080-3.735 3.733-8.8 5.83-14.080 5.83s-10.345-2.097-14.080-5.83c-3.733-3.735-5.83-8.8-5.83-14.080v-186.667c0-5.28 2.097-10.345 5.83-14.080zM553.92 303.258c3.735-3.733 8.8-5.83 14.080-5.83s10.345 2.097 14.080 5.83c3.733 3.735 5.83 8.8 5.83 14.080v186.667c0 5.28-2.097 10.345-5.83 14.080-3.735 3.733-8.8 5.83-14.080 5.83s-10.345-2.097-14.080-5.83c-3.733-3.735-5.83-8.8-5.83-14.080v-186.667c0-5.28 2.097-10.345 5.83-14.080z" />
<glyph unicode="&#xe947;" horiz-adv-x="1003" d="M919.51 431.144c0-219.291-177.77-397.061-397.061-397.061s-397.061 177.77-397.061 397.061c0 219.291 177.77 397.061 397.061 397.061s397.061-177.77 397.061-397.061z" />
<glyph unicode="&#xe948;" horiz-adv-x="1003" d="M371.672 681.919h31.602l21.686-77.371 20.079 77.371h31.903l-36.534-115.043v-78.514h-31.408v78.514l-37.328 115.043zM516.355 632.326c-24.551 0-40.828-15.471-40.828-38.348v-69.996c0-25.167 13.803-38.264 40.828-38.264 22.428 0 40.068 14.275 40.068 38.264v69.996c0 22.338-17.498 38.348-40.068 38.348zM528.002 525.178c0-7.778-4.171-13.502-11.665-13.502-7.705 0-12.158 5.994-12.158 13.502v66.443c0 7.812 3.78 13.602 11.611 13.602 8.556 0 12.213-5.624 12.213-13.602v-66.443zM631.768 631.131v-108.377c-3.394-4.058-10.976-10.708-16.384-10.708-5.939 0-7.423 3.889-7.423 9.613v109.472h-27.872v-119.336c0-14.108 4.524-25.504 19.458-25.504 8.432 0 20.15 4.175 32.204 17.826v-15.755h27.872v142.752l-27.855 0.017zM680.109 341.519c-9.828 0-11.878-6.581-11.878-15.941v-13.772h23.454v13.788c0.036 9.191-2.015 15.924-11.575 15.924zM576.907 340.676c-1.837-0.892-3.659-2.272-5.479-4.14v-84.743c2.175-2.221 4.261-3.803 6.292-4.779 4.33-2.088 10.641-2.24 13.575 1.396 1.536 1.918 2.297 5.034 2.297 9.377v70.198c0 4.595-0.936 8.062-2.827 10.453-3.216 4.040-9.191 4.478-13.857 2.238zM682.83 449.256c-57.141 3.703-242.811 3.703-299.865 0-61.737-4.006-69.036-39.543-69.496-133.055 0.46-93.362 7.688-129.049 69.496-133.055 57.054-3.703 242.724-3.703 299.865 0 61.737 4.006 69.036 39.56 69.496 133.055-0.46 93.345-7.688 129.032-69.496 133.055zM412.411 225.936h-29.905v157.583h-30.931v26.749h91.767v-26.749h-30.931v-157.583zM518.742 225.936h-26.549v15.001c-4.894-5.54-9.985-9.764-15.27-12.643-14.298-7.812-33.953-7.626-33.953 19.966v113.645h26.53v-104.235c0-5.471 1.379-9.157 7.070-9.157 5.179 0 12.372 6.328 15.607 10.184v103.209h26.547l0.019-135.968zM620.935 254.1c0-16.817-6.61-29.913-24.267-29.913-9.722 0-17.816 3.383-25.205 12.188v-10.455h-26.793v184.333h26.793v-59.356c5.991 6.953 14.123 12.71 23.615 12.71 19.441 0 25.893-15.657 25.893-34.089v-75.417h-0.036zM719.028 290.714h-50.778v-25.671c0-10.202 0.917-19.023 11.575-19.023 11.205 0 11.878 7.189 11.878 19.023v9.444h27.324v-10.219c0-26.194-11.807-42.068-39.786-42.068-25.345 0-38.318 17.592-38.318 42.068v61.041c0 23.6 16.367 39.997 40.316 39.997 25.468 0 37.771-15.419 37.771-39.997v-34.611l0.017 0.017z" />
<glyph unicode="&#xe94b;" glyph-name="bath" horiz-adv-x="970" d="M819.049 20.658l-61.559 61.569c85.822 31.679 147.224 114.273 147.224 211.003v120.164h35.743c19.359 0 35.042 15.687 35.042 35.034 0.005 19.357-15.683 35.042-35.037 35.042h-804.988v301.875c0 25.155 14.999 47.612 38.239 57.249l0.001 0.001c23.045 9.561 49.303 4.457 67.095-12.974-24.088-42.506-23.947-95.020 0.585-137.356 5.084-8.784 13.966-14.694 24.025-16.011 10.066-1.317 20.164 2.126 27.334 9.296v0l144.33 144.335c7.172 7.172 10.603 17.271 9.286 27.324-1.316 10.050-7.219 18.943-16.001 24.029-43.455 25.181-97.608 24.635-140.677-1.406-37.894 37.015-93.802 47.831-142.823 27.497-49.492-20.515-81.482-68.41-81.482-121.988v-301.87h-35.735c-19.352 0-35.041-15.689-35.041-35.042 0-19.348 15.69-35.034 35.041-35.034h35.735v-120.164c0-98.207 63.286-181.868 151.193-212.442l-60.116-60.13c-13.685-13.689-13.678-35.872 0.005-49.556h0.002c6.844-6.839 15.814-10.251 24.775-10.251 8.956 0 17.937 3.417 24.776 10.256h0.001l97.232 97.248h369.006l97.237-97.242c0 0 0-0.005 0-0.005 6.839-6.845 15.823-10.256 24.775-10.256 8.957 0 17.931 3.417 24.775 10.256v0c13.689 13.678 13.689 35.872 0 49.551zM834.641 293.236c0-85.348-69.449-154.796-154.802-154.796h-389.575c-85.349 0-154.793 69.443-154.793 154.796v112.058c0 4.468 3.627 8.1 8.097 8.1h682.973c4.468 0 8.1-3.633 8.1-8.1v-112.058zM384.51 717.025c5.206 0 10.348 2.107 13.966 5.802 3.691 3.622 5.802 8.76 5.802 13.966s-2.107 10.28-5.802 13.971c-7.377 7.376-20.56 7.376-27.936 0-3.686-3.691-5.802-8.764-5.802-13.971s2.112-10.348 5.802-13.966c3.691-3.696 8.765-5.802 13.971-5.802zM452.304 640.987c3.886-3.818 8.96-5.729 14.034-5.729 5.011 0 10.085 1.911 13.971 5.729 7.709 7.777 7.709 20.233 0 28.005-7.709 7.709-20.227 7.709-28.005 0-7.704-7.778-7.704-20.228 0-28.005zM439.389 681.9c7.713 7.709 7.713 20.228 0 27.941-7.709 7.773-20.228 7.773-27.937 0-7.709-7.713-7.709-20.232 0-27.941 3.891-3.822 8.897-5.802 13.971-5.802 5.069 0.005 10.143 1.98 13.966 5.802zM487.434 614.102c0-5.201 2.112-10.28 5.802-13.971 3.685-3.686 8.755-5.797 13.961-5.797s10.343 2.112 13.965 5.797c3.696 3.691 5.803 8.765 5.803 13.971s-2.107 10.28-5.803 13.971c-7.303 7.381-20.555 7.381-27.931 0-3.686-3.691-5.797-8.76-5.797-13.971zM334.103 707.997c-3.627-3.691-5.734-8.764-5.734-13.971 0-5.201 2.112-10.28 5.734-13.966 3.754-3.691 8.828-5.802 14.034-5.802 5.143 0 10.28 2.112 13.971 5.802 3.685 3.686 5.797 8.76 5.797 13.966s-2.107 10.28-5.797 13.971c-7.318 7.381-20.624 7.381-28.005 0zM362.765 622.93c1.843 0 3.622 0.264 5.47 0.792 10.476 2.967 16.537 13.902 13.57 24.446-3.031 10.48-13.971 16.541-24.446 13.511-10.476-2.967-16.601-13.907-13.57-24.383 2.502-8.696 10.407-14.367 18.976-14.367zM377.456 571.599c1.779 0 3.622 0.264 5.47 0.792 10.476 3.031 16.537 13.97 13.575 24.446-3.036 10.48-13.971 16.606-24.451 13.575-10.539-3.031-16.606-13.966-13.57-24.441 2.508-8.701 10.411-14.372 18.976-14.372zM392.149 520.33c5.201 0 10.28 2.107 13.971 5.803 3.685 3.622 5.797 8.76 5.797 13.965s-2.112 10.28-5.797 13.971c-7.381 7.381-20.56 7.313-27.941 0-3.691-3.691-5.798-8.764-5.798-13.971s2.107-10.343 5.798-13.965c3.691-3.691 8.76-5.803 13.97-5.803zM414.947 785.158c-3.69-3.622-5.802-8.764-5.802-13.97s2.107-10.28 5.802-13.966c3.686-3.686 8.76-5.802 13.966-5.802s10.28 2.112 13.966 5.802c3.691 3.691 5.802 8.76 5.802 13.966s-2.112 10.348-5.802 13.97c-7.376 7.381-20.555 7.381-27.931 0zM523.806 718.41c2.044-0.66 4.155-0.988 6.262-0.988 8.237 0 15.945 5.206 18.774 13.443 3.498 10.343-2.113 21.547-12.444 25.037-10.354 3.49-21.553-2.107-25.043-12.45-3.495-10.348 2.107-21.552 12.45-25.042zM473.202 735.476c2.112-0.718 4.218-1.051 6.326-1.051 8.241 0 15.945 5.201 18.712 13.438 3.5 10.348-2.112 21.616-12.45 25.043-10.343 3.49-21.547-2.043-25.042-12.387-3.485-10.348 2.112-21.616 12.455-25.043zM580.667 700.353c5.206 0 10.278 2.112 13.97 5.802s5.799 8.76 5.799 14.034c0 5.138-2.107 10.28-5.799 13.971-7.378 7.313-20.561 7.313-27.939 0-3.692-3.691-5.804-8.838-5.804-13.971 0-5.206 2.113-10.343 5.804-14.034 3.697-3.69 8.763-5.802 13.97-5.802z" />
<glyph unicode="&#xe94c;" horiz-adv-x="3001" d="M421.542-0.653c0-7.32 0-13.884 0.109-19.643 0.053-5.759 0.162-11.034 0.268-15.823 0.109-3.877 1.508-6.243 4.198-7.104l18.997-6.19 0.537-9.149c-13.506 0.378-30.243 0.54-50.211 0.54-21.31 0-40.307-0.162-56.991-0.54l-0.915 9.149 24.488 6.727c3.065 0.862 4.682 2.747 4.951 5.653 0.106 4.841 0.215 10.332 0.268 16.359s0.106 12.701 0.106 20.021v145.574c0 6.084 0 11.624-0.106 16.631-0.053 5.003-0.162 9.58-0.268 13.722-0.109 3.178-1.614 5.169-4.361 6.027l-24.486 7.104-0.538 9.311c17.062-0.484 34.498-0.752 52.418-0.752 3.768 0 8.45 0.106 14.046 0.268 5.597 0.159 12.433 0.374 20.452 0.646 7.316 0.215 13.4 0.431 18.351 0.537 4.951 0.109 8.771 0.162 11.624 0.162 31.267 0 54.731-5.222 70.395-15.717 15.66-10.494 23.464-25.777 23.464-45.85 0-18.135-4.792-32.775-14.315-43.915-9.58-11.14-23.573-19.696-42.086-25.671 10.226-15.070 18.135-27.341 23.679-36.705s11.087-18.566 16.684-27.662c5.597-9.092 10.71-17.058 15.229-24s8.881-12.433 12.864-16.416c2.207-1.829 4.304-3.39 6.296-4.735s4.089-2.475 6.296-3.499c2.207-0.968 4.52-1.776 7.051-2.475 2.475-0.699 5.272-1.292 8.34-1.935l0.756-9.311c-11.949-1.723-25.565-2.585-40.904-2.585-12.161 0-20.72 0.809-25.561 2.369-4.845 1.561-9.205 3.821-12.969 6.78-5.6 4.361-10.766 10.12-15.448 17.168-4.682 7.051-9.633 15.017-14.908 23.951-5.219 8.877-10.6 18.298-16.144 28.305-5.544 9.958-11.356 19.859-17.436 29.601-1.829 2.8-3.337 5.113-4.467 6.942-1.183 1.829-2.313 3.174-3.499 4.092-1.183 0.915-2.366 1.561-3.658 2.044-1.292 0.431-2.906 0.699-4.845 0.805l-7.641 0.162v-60.974h-0.109zM421.542 76.253c6.458-0.378 12.27-0.54 17.546-0.54 17.274 0 29.922 4.361 37.994 13.079 8.075 8.718 12.055 22.334 12.055 40.847s-3.874 30.942-11.624 39.177c-7.747 8.234-19.749 12.327-36.055 12.327-2.8 0-5.812-0.162-9.043-0.378-3.227-0.215-6.836-0.593-10.872-1.077v-103.435z" />
<glyph unicode="&#xe94d;" horiz-adv-x="3001" d="M649.887 196.965h46.175c29.601 0 60.275 0.215 92.082 0.752l1.292-1.451-11.303-60.815-9.848-1.451-11.677 44.399h-70.663v-96.98h9.848c10.604 0 21.96 0.109 34.173 0.378 3.178 0.106 5.222 1.776 6.19 4.951l6.564 25.024 12.055 0.537c-0.374-17.652-0.537-30.889-0.537-39.608s0.162-21.582 0.537-39.071l-12.055-0.915-6.78 25.724c-0.968 3.284-2.853 5.003-5.65 5.113-12.433 0.215-24.004 0.378-34.714 0.378h-9.686v-62.644c0-13.4 0.106-26.642 0.374-39.827h73.032l23.033 48.061 11.14 1.667-4.361-68.294-1.289-1.292c-30.3 0.378-59.848 0.54-88.583 0.54h-48.382c-15.717 0-31.913-0.162-48.598-0.54l-0.915 9.149 24.484 6.727c3.068 0.862 4.682 2.747 4.954 5.653 0.106 4.845 0.215 10.332 0.268 16.359s0.106 12.701 0.106 20.021v145.574c0 6.084 0 11.624-0.106 16.631-0.053 5.003-0.162 9.58-0.268 13.722-0.109 3.178-1.617 5.169-4.361 6.027l-24.488 7.104-0.537 9.311c17.058-0.484 33.259-0.752 48.598-0.752l-0.109-0.162z" />
<glyph unicode="&#xe94e;" horiz-adv-x="3001" d="M880.015 23.075l-12.969-34.173c-2.581-6.73-4.52-12.055-5.918-16.147-1.402-4.089-2.101-7.21-2.101-9.417s0.54-3.658 1.67-4.735c1.073-1.077 2.797-1.939 5.113-2.532l17.542-5.109 0.54-9.474c-17.652 0.378-32.023 0.537-43.11 0.537-11.084 0-24.756-0.159-39.608-0.537l-0.915 9.149 19.534 5.865c4.629 1.345 8.019 3.552 10.226 6.674s4.629 7.857 7.32 14.156l90.952 221.565 19.749 2.906 78.735-222.106c3.068-8.503 5.812-14.262 8.287-17.274 2.475-3.016 6.084-5.166 10.71-6.511l17.924-5.275 0.537-9.149c-16.469 0.378-32.99 0.537-49.675 0.537-22.065 0-43.538-0.159-64.473-0.537l-0.915 9.149 18.082 5.275c2.422 0.752 4.198 1.667 5.275 2.744s1.667 2.744 1.667 4.951c0 2.422-0.59 5.597-1.829 9.58-1.236 3.983-3.012 9.149-5.272 15.607l-12.055 34.336-75.024-0.053zM919.464 127.912c-2.207-6.352-4.573-12.917-7.104-19.7l-25.024-66.14h60.974l-22.44 65.924c-2.316 6.946-4.467 13.563-6.405 19.915z" />
<glyph unicode="&#xe94f;" horiz-adv-x="3001" d="M1161.428 145.62v-144.444c0-13.4 0.106-26.642 0.374-39.827h71.415l25.024 51.881 11.14 1.667-4.573-72.167-1.292-1.292c-30.084 0.378-59.466 0.537-88.205 0.537h-45.314c-18.139 0-34.929-0.159-50.427-0.537l-0.915 9.149 22.655 6.727c3.068 0.862 4.682 2.744 4.951 5.65 0.109 4.845 0.215 10.335 0.268 16.363 0.056 6.027 0.109 12.701 0.109 20.017v145.577c0 6.080 0 11.624-0.109 16.631-0.053 5.003-0.159 9.58-0.268 13.722-0.106 3.174-1.614 5.166-4.357 6.027l-22.659 7.104-0.537 9.311c15.713-0.487 33.848-0.756 54.41-0.756 20.558 0 39.555 0.215 55.162 0.756l0.915-9.311-22.659-6.78c-2.906-0.756-4.52-2.585-4.735-5.491-0.106-4.361-0.215-10.604-0.268-18.729-0.053-8.072-0.106-12.002-0.106-11.787z" />
<glyph unicode="&#xe950;" horiz-adv-x="3001" d="M1424.967 196.965h46.175c29.597 0 60.275 0.215 92.079 0.752l1.292-1.451-11.299-60.815-9.852-1.451-11.677 44.399h-70.663v-96.98h9.848c10.604 0 21.96 0.109 34.177 0.378 3.174 0.106 5.219 1.776 6.186 4.951l6.568 25.024 12.055 0.537c-0.378-17.652-0.54-30.889-0.54-39.608s0.162-21.582 0.54-39.071l-12.055-0.915-6.783 25.724c-0.968 3.284-2.85 5.003-5.65 5.113-12.433 0.215-24.004 0.378-34.714 0.378h-9.686v-62.644c0-13.4 0.109-26.642 0.378-39.827h73.029l23.033 48.061 11.14 1.667-4.357-68.294-1.292-1.292c-30.3 0.378-59.844 0.54-88.583 0.54h-48.382c-15.713 0-31.913-0.162-48.598-0.54l-0.915 9.149 24.488 6.727c3.068 0.862 4.682 2.747 4.951 5.653 0.109 4.845 0.215 10.332 0.268 16.359 0.056 6.027 0.109 12.701 0.109 20.021v145.574c0 6.084 0 11.624-0.109 16.631-0.053 5.003-0.159 9.58-0.268 13.722-0.106 3.178-1.614 5.169-4.357 6.027l-24.488 7.104-0.54 9.311c17.062-0.484 33.259-0.752 48.598-0.752l-0.106-0.162z" />
<glyph unicode="&#xe951;" horiz-adv-x="3001" d="M1726.725 180.33c-7.804 3.065-16.253 4.573-25.402 4.573-12.917 0-23.842-3.768-32.775-11.299-8.934-7.535-13.453-17.277-13.453-29.223 0-7.214 1.451-13.347 4.357-18.46s6.836-9.689 11.681-13.669c4.898-4.040 10.441-7.645 16.737-10.766 6.243-3.174 12.754-6.349 19.428-9.47 7.426-3.552 14.908-7.373 22.44-11.624 7.535-4.198 14.318-9.205 20.289-14.961 5.975-5.759 10.819-12.701 14.53-20.72 3.715-8.019 5.6-17.761 5.6-29.223 0-24.703-9.311-44.131-27.934-58.283-18.619-14.103-43.213-21.207-73.781-21.207-22.065 0-43.753 3.446-65.229 10.388l-1.077 1.67 9.689 65.762 11.303 1.833 13.722-55.864c8.771-4.036 18.513-6.027 29.223-6.027 15.445 0 27.93 3.93 37.348 11.787 9.421 7.857 14.156 18.351 14.156 31.483 0 7.426-1.455 13.725-4.361 18.891s-6.889 9.795-11.893 13.884c-5.003 4.089-10.657 7.694-17.005 10.872-6.352 3.174-12.917 6.349-19.753 9.523-7.426 3.662-14.852 7.482-22.281 11.518-7.426 4.036-14.046 8.881-19.912 14.64-5.865 5.756-10.6 12.592-14.262 20.558-3.658 7.962-5.487 17.599-5.487 28.954 0 23.248 8.877 41.762 26.638 55.536 17.761 13.778 40.847 20.614 69.208 20.614 18.029 0 38.534-2.8 61.567-8.397l1.077-1.667-11.14-58.824-10.063-1.667-13.347 48.919 0.162-0.053z" />
<glyph unicode="&#xe952;" horiz-adv-x="3001" d="M1896.356-58.022c-21.419 0-41.867-0.162-61.352-0.54l-0.915 9.152 29.223 8.015c3.068 0.971 4.629 2.906 4.739 5.869 0.215 9.149 0.374 20.879 0.374 35.25v178.458h-52.577l-16.794-48.598-10.226-1.67-4.735 68.294 1.292 1.455c29.922-0.484 58.608-0.752 86.055-0.752h50.963c27.394 0 56.239 0.215 86.539 0.752l1.13-1.455-12.055-66.839-10.226-1.67-11.893 50.427h-52.796v-178.455c0-14.371 0.109-26.101 0.378-35.25 0.106-2.91 1.776-4.845 4.951-5.869l28.686-8.019 0.537-9.149c-20.236 0.378-40.632 0.54-61.189 0.54l-0.109 0.053z" />
</font>
</defs>
</svg>
