<svg width="85" height="29" viewBox="0 0 85 29" fill="none" xmlns="http://www.w3.org/2000/svg">
<path d="M11.9382 27.206C11.9382 27.4133 11.9382 27.5992 11.9413 27.7623C11.9428 27.9254 11.9459 28.0748 11.9489 28.2104C11.952 28.3202 11.9916 28.3872 12.0678 28.4116L12.6058 28.5869L12.621 28.846C12.2385 28.8353 11.7645 28.8307 11.199 28.8307C10.5955 28.8307 10.0575 28.8353 9.58499 28.846L9.55908 28.5869L10.2526 28.3964C10.3394 28.372 10.3852 28.3186 10.3928 28.2363C10.3958 28.0992 10.3989 27.9437 10.4004 27.773C10.4019 27.6023 10.4034 27.4133 10.4034 27.206V23.0833C10.4034 22.911 10.4034 22.7541 10.4004 22.6123C10.3989 22.4706 10.3958 22.341 10.3928 22.2237C10.3897 22.1337 10.3471 22.0773 10.2693 22.053L9.57585 21.8518L9.56061 21.5881C10.0438 21.6018 10.5376 21.6094 11.0451 21.6094C11.1518 21.6094 11.2844 21.6064 11.4429 21.6018C11.6014 21.5973 11.795 21.5912 12.0221 21.5835C12.2293 21.5774 12.4016 21.5713 12.5418 21.5683C12.682 21.5652 12.7902 21.5637 12.871 21.5637C13.7565 21.5637 14.421 21.7116 14.8646 22.0088C15.3081 22.306 15.5291 22.7388 15.5291 23.3073C15.5291 23.8209 15.3934 24.2355 15.1237 24.551C14.8524 24.8665 14.4561 25.1088 13.9318 25.278C14.2214 25.7048 14.4454 26.0523 14.6024 26.3175C14.7594 26.5827 14.9164 26.8433 15.0749 27.1009C15.2334 27.3584 15.3782 27.584 15.5062 27.7806C15.6342 27.9772 15.7577 28.1327 15.8705 28.2455C15.933 28.2973 15.9924 28.3415 16.0488 28.3796C16.1052 28.4177 16.1646 28.4497 16.2271 28.4787C16.2896 28.5061 16.3551 28.529 16.4268 28.5488C16.4969 28.5686 16.5761 28.5854 16.663 28.6036L16.6844 28.8673C16.346 28.9161 15.9604 28.9405 15.526 28.9405C15.1816 28.9405 14.9392 28.9176 14.8021 28.8734C14.6649 28.8292 14.5414 28.7652 14.4348 28.6814C14.2762 28.5579 14.1299 28.3948 13.9973 28.1952C13.8647 27.9955 13.7245 27.7699 13.5751 27.5169C13.4273 27.2655 13.2749 26.9987 13.1179 26.7153C12.9609 26.4333 12.7963 26.1529 12.6241 25.877C12.5723 25.7977 12.5296 25.7322 12.4976 25.6804C12.4641 25.6286 12.4321 25.5905 12.3985 25.5645C12.365 25.5386 12.3315 25.5203 12.2949 25.5066C12.2583 25.4944 12.2126 25.4868 12.1577 25.4838L11.9413 25.4792V27.206H11.9382ZM11.9382 25.028C12.1211 25.0387 12.2857 25.0433 12.4351 25.0433C12.9243 25.0433 13.2825 24.9198 13.5111 24.6729C13.7398 24.426 13.8525 24.0404 13.8525 23.5161C13.8525 22.9918 13.7428 22.6398 13.5233 22.4066C13.3039 22.1734 12.964 22.0575 12.5022 22.0575C12.4229 22.0575 12.3376 22.0621 12.2461 22.0682C12.1547 22.0743 12.0525 22.085 11.9382 22.0987V25.0265V25.028Z" fill="#808080"/>
<path d="M18.405 21.6094H19.7127C20.551 21.6094 21.4197 21.6033 22.3205 21.5881L22.3571 21.6292L22.037 23.3515L21.7581 23.3926L21.4274 22.1352H19.4262V24.8817H19.7051C20.0054 24.8817 20.327 24.8786 20.6729 24.871C20.7629 24.868 20.8208 24.8207 20.8482 24.7308L21.0341 24.0221L21.3755 24.0069C21.3649 24.5068 21.3603 24.8817 21.3603 25.1286C21.3603 25.3755 21.3649 25.7398 21.3755 26.2351L21.0341 26.261L20.8421 25.5325C20.8147 25.4395 20.7613 25.3908 20.6821 25.3877C20.33 25.3816 20.0023 25.377 19.699 25.377H19.4247V27.1511C19.4247 27.5306 19.4277 27.9056 19.4353 28.279H21.5036L22.1559 26.9179L22.4714 26.8707L22.3479 28.8048L22.3114 28.8414C21.4533 28.8307 20.6165 28.8261 19.8027 28.8261H18.4325C17.9874 28.8261 17.5287 28.8307 17.0562 28.8414L17.0303 28.5823L17.7237 28.3918C17.8106 28.3674 17.8563 28.314 17.864 28.2317C17.867 28.0945 17.8701 27.9391 17.8716 27.7684C17.8731 27.5977 17.8746 27.4087 17.8746 27.2014V23.0787C17.8746 22.9064 17.8746 22.7495 17.8716 22.6077C17.8701 22.466 17.867 22.3364 17.864 22.2191C17.8609 22.1291 17.8182 22.0727 17.7405 22.0484L17.047 21.8472L17.0318 21.5835C17.5149 21.5972 17.9737 21.6048 18.4081 21.6048L18.405 21.6094Z" fill="#808080"/>
<path d="M24.9223 26.534L24.555 27.5018C24.4819 27.6924 24.427 27.8432 24.3874 27.9591C24.3477 28.0749 24.3279 28.1633 24.3279 28.2258C24.3279 28.2883 24.3432 28.3294 24.3752 28.3599C24.4056 28.3904 24.4544 28.4148 24.52 28.4316L25.0168 28.5763L25.0321 28.8446C24.5322 28.8339 24.1252 28.8294 23.8112 28.8294C23.4973 28.8294 23.1101 28.8339 22.6895 28.8446L22.6636 28.5855L23.2168 28.4194C23.3479 28.3813 23.4439 28.3188 23.5064 28.2304C23.5689 28.142 23.6375 28.0079 23.7137 27.8295L26.2895 21.5547L26.8488 21.4724L29.0786 27.7625C29.1655 28.0033 29.2432 28.1664 29.3133 28.2517C29.3834 28.3371 29.4856 28.398 29.6166 28.4361L30.1242 28.5855L30.1394 28.8446C29.673 28.8339 29.2051 28.8294 28.7326 28.8294C28.1077 28.8294 27.4996 28.8339 26.9067 28.8446L26.8808 28.5855L27.3929 28.4361C27.4615 28.4148 27.5118 28.3889 27.5423 28.3584C27.5728 28.3279 27.5895 28.2807 27.5895 28.2182C27.5895 28.1496 27.5728 28.0597 27.5377 27.9469C27.5027 27.8341 27.4524 27.6878 27.3884 27.5049L27.047 26.5325H24.9269L24.9223 26.534ZM26.0395 23.565C25.977 23.7449 25.91 23.9308 25.8383 24.1229L25.1296 25.996H26.8564L26.2209 24.129C26.1553 23.9323 26.0944 23.7449 26.0395 23.565Z" fill="#808080"/>
<path d="M32.892 23.0635V27.1542C32.892 27.5337 32.895 27.9087 32.9026 28.2821H34.9251L35.6338 26.8128L35.9493 26.7656L35.8198 28.8094L35.7832 28.846C34.9312 28.8353 34.0991 28.8308 33.2852 28.8308H32.0019C31.4882 28.8308 31.0127 28.8353 30.5738 28.846L30.5479 28.5869L31.1895 28.3964C31.2764 28.372 31.3221 28.3187 31.3297 28.2364C31.3328 28.0992 31.3358 27.9437 31.3373 27.773C31.3389 27.6023 31.3404 27.4133 31.3404 27.2061V23.0833C31.3404 22.9111 31.3404 22.7541 31.3373 22.6123C31.3358 22.4706 31.3328 22.341 31.3297 22.2237C31.3267 22.1338 31.284 22.0774 31.2063 22.053L30.5646 21.8518L30.5494 21.5881C30.9944 21.6019 31.508 21.6095 32.0903 21.6095C32.6725 21.6095 33.2105 21.6034 33.6525 21.5881L33.6784 21.8518L33.0367 22.0438C32.9544 22.0652 32.9087 22.117 32.9026 22.1993C32.8996 22.3228 32.8965 22.4996 32.895 22.7297C32.8935 22.9583 32.892 23.0696 32.892 23.0635Z" fill="#808080"/>
<path d="M40.3555 21.6094H41.6632C42.5014 21.6094 43.3702 21.6033 44.2709 21.5881L44.3075 21.6292L43.9875 23.3515L43.7085 23.3926L43.3778 22.1352H41.3766V24.8817H41.6555C41.9558 24.8817 42.2774 24.8786 42.6234 24.871C42.7133 24.868 42.7712 24.8207 42.7986 24.7308L42.9846 24.0221L43.326 24.0069C43.3153 24.5068 43.3107 24.8817 43.3107 25.1286C43.3107 25.3755 43.3153 25.7398 43.326 26.2351L42.9846 26.261L42.7925 25.5325C42.7651 25.4395 42.7118 25.3908 42.6325 25.3877C42.2804 25.3816 41.9527 25.377 41.6494 25.377H41.3751V27.1511C41.3751 27.5306 41.3782 27.9056 41.3858 28.279H43.454L44.1063 26.9179L44.4218 26.8707L44.2984 28.8048L44.2618 28.8414C43.4037 28.8307 42.567 28.8261 41.7531 28.8261H40.3829C39.9379 28.8261 39.4791 28.8307 39.0066 28.8414L38.9807 28.5823L39.6742 28.3918C39.7611 28.3674 39.8068 28.314 39.8144 28.2317C39.8175 28.0945 39.8205 27.9391 39.822 27.7684C39.8236 27.5977 39.8251 27.4087 39.8251 27.2014V23.0787C39.8251 22.9064 39.8251 22.7495 39.822 22.6077C39.8205 22.466 39.8175 22.3364 39.8144 22.2191C39.8114 22.1291 39.7687 22.0727 39.691 22.0484L38.9975 21.8472L38.9822 21.5835C39.4654 21.5972 39.9241 21.6048 40.3585 21.6048L40.3555 21.6094Z" fill="#808080"/>
<path d="M48.9014 22.0805C48.6804 21.9937 48.4411 21.951 48.182 21.951C47.8162 21.951 47.5068 22.0577 47.2538 22.271C47.0008 22.4844 46.8728 22.7603 46.8728 23.0986C46.8728 23.3029 46.9139 23.4766 46.9962 23.6214C47.0785 23.7662 47.1898 23.8958 47.327 24.0085C47.4657 24.1229 47.6227 24.225 47.801 24.3134C47.9778 24.4033 48.1622 24.4932 48.3512 24.5816C48.5615 24.6822 48.7734 24.7904 48.9867 24.9108C49.2001 25.0297 49.3922 25.1715 49.5613 25.3345C49.7305 25.4976 49.8677 25.6942 49.9728 25.9213C50.078 26.1484 50.1314 26.4243 50.1314 26.7489C50.1314 27.4485 49.8677 27.9987 49.3403 28.3995C48.813 28.7989 48.1165 29.0001 47.2508 29.0001C46.6259 29.0001 46.0117 28.9025 45.4035 28.7059L45.373 28.6586L45.6474 26.7962L45.9675 26.7443L46.3561 28.3264C46.6045 28.4407 46.8804 28.4971 47.1837 28.4971C47.6211 28.4971 47.9747 28.3858 48.2414 28.1633C48.5082 27.9408 48.6423 27.6436 48.6423 27.2717C48.6423 27.0614 48.6011 26.883 48.5188 26.7367C48.4365 26.5904 48.3237 26.4593 48.182 26.3435C48.0403 26.2277 47.8802 26.1256 47.7004 26.0356C47.5205 25.9457 47.3346 25.8558 47.141 25.7659C46.9307 25.6622 46.7204 25.554 46.51 25.4397C46.2997 25.3254 46.1122 25.1882 45.9461 25.0251C45.78 24.8621 45.6459 24.6685 45.5422 24.4429C45.4386 24.2174 45.3868 23.9445 45.3868 23.6229C45.3868 22.9645 45.6382 22.4402 46.1412 22.0501C46.6442 21.6599 47.298 21.4663 48.1012 21.4663C48.6118 21.4663 49.1925 21.5456 49.8448 21.7041L49.8753 21.7513L49.5598 23.4172L49.2748 23.4644L48.8968 22.079L48.9014 22.0805Z" fill="#808080"/>
<path d="M53.7054 28.8307C53.0988 28.8307 52.5197 28.8353 51.9679 28.846L51.942 28.5868L52.7696 28.3598C52.8565 28.3323 52.9007 28.2775 52.9038 28.1936C52.9099 27.9345 52.9144 27.6023 52.9144 27.1953V22.1413H51.4254L50.9498 23.5176L50.6602 23.5649L50.5261 21.6308L50.5627 21.5896C51.4101 21.6033 52.2225 21.6109 52.9998 21.6109H54.4431C55.2189 21.6109 56.0358 21.6048 56.8939 21.5896L56.9259 21.6308L56.5845 23.5237L56.2949 23.571L55.9581 22.1429H54.4629V27.1968C54.4629 27.6038 54.466 27.936 54.4736 28.1951C54.4766 28.2775 54.5239 28.3323 54.6138 28.3613L55.4262 28.5884L55.4414 28.8475C54.8683 28.8368 54.2907 28.8322 53.7085 28.8322L53.7054 28.8307Z" fill="#808080"/>
<path d="M58.3615 26.534L57.9942 27.5018C57.9226 27.6924 57.8662 27.8432 57.8266 27.9591C57.7869 28.0749 57.7671 28.1633 57.7671 28.2258C57.7671 28.2883 57.7824 28.3294 57.8144 28.3599C57.8449 28.3904 57.8936 28.4148 57.9592 28.4316L58.456 28.5763L58.4713 28.8446C57.9714 28.8339 57.5644 28.8294 57.2504 28.8294C56.9365 28.8294 56.5493 28.8339 56.1287 28.8446L56.1028 28.5855L56.656 28.4194C56.7871 28.3813 56.8831 28.3188 56.9456 28.2304C57.0081 28.142 57.0767 28.0079 57.1529 27.8295L59.7287 21.5547L60.2865 21.4724L62.5163 27.7625C62.6032 28.0033 62.6809 28.1664 62.7525 28.2517C62.8226 28.3355 62.9248 28.398 63.0543 28.4361L63.5618 28.5855L63.5771 28.8446C63.1122 28.8339 62.6428 28.8294 62.1703 28.8294C61.5454 28.8294 60.9373 28.8339 60.3444 28.8446L60.3185 28.5855L60.8306 28.4361C60.8992 28.4148 60.9495 28.3889 60.9815 28.3584C61.012 28.3279 61.0288 28.2807 61.0288 28.2182C61.0288 28.1496 61.012 28.0597 60.9769 27.9469C60.9419 27.8341 60.8931 27.6878 60.826 27.5049L60.4846 26.5325H58.3646L58.3615 26.534ZM59.4787 23.565C59.4162 23.7449 59.3492 23.9308 59.2775 24.1229L58.5688 25.996H60.2972L59.6601 24.129C59.5945 23.9323 59.5336 23.7449 59.4787 23.565Z" fill="#808080"/>
<path d="M66.2855 28.8307C65.6789 28.8307 65.0998 28.8353 64.548 28.846L64.5221 28.5868L65.3497 28.3598C65.4366 28.3323 65.4808 28.2775 65.4838 28.1936C65.4899 27.9345 65.4945 27.6023 65.4945 27.1953V22.1413H64.0054L63.5299 23.5176L63.2403 23.5649L63.1062 21.6308L63.1428 21.5896C63.9902 21.6033 64.8026 21.6109 65.5799 21.6109H67.0232C67.799 21.6109 68.6159 21.6048 69.4755 21.5896L69.506 21.6308L69.1646 23.5237L68.875 23.571L68.5382 22.1429H67.043V27.1968C67.043 27.6038 67.0461 27.936 67.0537 28.1951C67.0567 28.2775 67.104 28.3323 67.1939 28.3613L68.0063 28.5884L68.0215 28.8475C67.4484 28.8368 66.8708 28.8322 66.2886 28.8322L66.2855 28.8307Z" fill="#808080"/>
<path d="M71.3745 21.6094H72.6822C73.5205 21.6094 74.3892 21.6033 75.29 21.5881L75.3266 21.6292L75.0065 23.3515L74.7276 23.3926L74.3969 22.1352H72.3957V24.8817H72.6746C72.9748 24.8817 73.2964 24.8786 73.6424 24.871C73.7323 24.868 73.7903 24.8207 73.8177 24.7308L74.0036 24.0221L74.345 24.0069C74.3344 24.5068 74.3298 24.8817 74.3298 25.1286C74.3298 25.3755 74.3344 25.7398 74.345 26.2351L74.0036 26.261L73.8116 25.5325C73.7842 25.4395 73.7308 25.3908 73.6516 25.3877C73.2995 25.3816 72.9718 25.377 72.6685 25.377H72.3942V27.1511C72.3942 27.5306 72.3972 27.9056 72.4048 28.279H74.4731L75.1254 26.9179L75.4409 26.8707L75.3174 28.8048L75.2808 28.8414C74.4228 28.8307 73.586 28.8261 72.7721 28.8261H71.402C70.9569 28.8261 70.4981 28.8307 70.0257 28.8414L69.9998 28.5823L70.6932 28.3918C70.7801 28.3674 70.8258 28.314 70.8335 28.2317C70.8365 28.0945 70.8395 27.9391 70.8411 27.7684C70.8426 27.5977 70.8441 27.4087 70.8441 27.2014V23.0787C70.8441 22.9064 70.8441 22.7495 70.8411 22.6077C70.8395 22.466 70.8365 22.3364 70.8335 22.2191C70.8304 22.1291 70.7893 22.0727 70.71 22.0484L70.0165 21.8472L70.0013 21.5835C70.4844 21.5972 70.9417 21.6048 71.3776 21.6048L71.3745 21.6094Z" fill="#808080"/>
<path d="M0.367188 1.30522C1.49047 1.33722 2.64575 1.35399 3.83304 1.35399C4.26589 1.33875 4.94413 1.31436 5.86775 1.28235C6.78984 1.25035 7.42388 1.23511 7.76985 1.23511C9.79998 1.23511 11.3302 1.56279 12.362 2.21664C13.3923 2.87049 13.909 3.81087 13.909 5.03932C13.909 6.96581 12.769 8.29789 10.4904 9.03557C11.8149 9.21999 12.836 9.6818 13.5539 10.4195C14.2718 11.1587 14.6315 12.0808 14.6315 13.1873C14.6315 14.7922 13.9852 16.0343 12.6943 16.9122C11.4018 17.7917 9.57289 18.2306 7.20593 18.2306C6.74107 18.2306 6.25335 18.2184 5.74277 18.194C5.23371 18.1696 4.59663 18.1574 3.83457 18.1574C2.66252 18.1574 1.52705 18.1696 0.428152 18.194L0.368712 17.592L1.98123 17.147C2.18242 17.0906 2.29063 16.9671 2.30587 16.7735C2.31349 16.452 2.31959 16.0938 2.32416 15.696C2.32873 15.2982 2.33026 14.8592 2.33026 14.3776V4.78479C2.33026 4.38394 2.32873 4.01816 2.32416 3.68895C2.31959 3.35974 2.31349 3.05948 2.30587 2.78666C2.29825 2.57786 2.20071 2.44526 2.01629 2.38887L0.403766 1.91944L0.367188 1.30522ZM5.91652 8.74294C6.32651 8.75056 6.71516 8.75513 7.084 8.75513C8.11126 8.75513 8.87179 8.50822 9.36409 8.01441C9.8579 7.52059 10.1048 6.68385 10.1048 5.5057C10.1048 4.39766 9.85028 3.6036 9.34122 3.12197C8.83217 2.64035 8.09602 2.39954 7.13277 2.39954C6.98036 2.39954 6.80203 2.40563 6.5978 2.41783C6.39357 2.43002 6.16648 2.45288 5.91804 2.48489V8.74294H5.91652ZM5.91652 9.82659V17.025C6.36614 17.0967 6.83861 17.1332 7.337 17.1332C8.43589 17.1332 9.27111 16.8147 9.84114 16.1761C10.4112 15.5375 10.6962 14.6139 10.6962 13.4022C10.6962 12.1905 10.4081 11.2897 9.83047 10.6999C9.25282 10.1101 8.31701 9.81592 7.02608 9.81592C6.64962 9.81592 6.27926 9.82049 5.91804 9.82811L5.91652 9.82659Z" fill="#0255A3"/>
<path d="M16.6646 1.30522C17.7878 1.33722 18.9431 1.35399 20.1304 1.35399C20.5633 1.33875 21.2415 1.31436 22.1651 1.28235C23.0872 1.25035 23.7212 1.23511 24.0672 1.23511C26.0973 1.23511 27.6276 1.56279 28.6594 2.21664C29.6897 2.87049 30.2064 3.81087 30.2064 5.03932C30.2064 6.96581 29.0663 8.29789 26.7878 9.03557C28.1122 9.21999 29.1334 9.6818 29.8513 10.4195C30.5691 11.1587 30.9288 12.0808 30.9288 13.1873C30.9288 14.7922 30.2826 16.0343 28.9917 16.9122C27.6992 17.7917 25.8703 18.2306 23.5033 18.2306C23.0384 18.2306 22.5507 18.2184 22.0401 18.194C21.5311 18.1696 20.894 18.1574 20.1319 18.1574C18.9599 18.1574 17.8244 18.1696 16.7255 18.194L16.6661 17.592L18.2786 17.147C18.4798 17.0906 18.588 16.9671 18.6032 16.7735C18.6109 16.452 18.617 16.0938 18.6215 15.696C18.6261 15.2982 18.6276 14.8592 18.6276 14.3776V4.78479C18.6276 4.38394 18.6261 4.01816 18.6215 3.68895C18.617 3.35974 18.6109 3.05948 18.6032 2.78666C18.5956 2.57786 18.4981 2.44526 18.3137 2.38887L16.7011 1.91944L16.6646 1.30522ZM22.2139 8.74294C22.6239 8.75056 23.0125 8.75513 23.3814 8.75513C24.4086 8.75513 25.1692 8.50822 25.6614 8.01441C26.1553 7.52059 26.4022 6.68385 26.4022 5.5057C26.4022 4.39766 26.1476 3.6036 25.6386 3.12197C25.1295 2.64035 24.3934 2.39954 23.4301 2.39954C23.2777 2.39954 23.0994 2.40563 22.8952 2.41783C22.6909 2.43002 22.4638 2.45288 22.2154 2.48489V8.74294H22.2139ZM22.2139 9.82659V17.025C22.6635 17.0967 23.136 17.1332 23.6344 17.1332C24.7333 17.1332 25.5685 16.8147 26.1385 16.1761C26.7085 15.539 26.9935 14.6139 26.9935 13.4022C26.9935 12.1905 26.7055 11.2897 26.1278 10.6999C25.5502 10.1101 24.6144 9.81592 23.3234 9.81592C22.947 9.81592 22.5766 9.82049 22.2154 9.82811L22.2139 9.82659Z" fill="#0255A3"/>
<path d="M51.16 9.36916C51.16 12.1461 50.3415 14.379 48.7046 16.0677C47.0677 17.7564 44.7892 18.6008 41.8674 18.6008C38.9457 18.6008 36.9171 17.8204 35.3914 16.2597C33.8673 14.699 33.1052 12.5866 33.1052 9.92241C33.1052 7.25825 33.9283 4.9492 35.5728 3.3321C37.2173 1.71501 39.4928 0.907227 42.3978 0.907227C45.3028 0.907227 47.3482 1.66319 48.8738 3.17665C50.3979 4.68858 51.16 6.75376 51.16 9.36916ZM37.1502 9.52614C37.1502 12.0943 37.5831 14.0574 38.4503 15.4184C39.3175 16.7779 40.5887 17.4592 42.2652 17.4592C43.9417 17.4592 45.1397 16.8419 45.9307 15.6059C46.7202 14.3698 47.1165 12.4281 47.1165 9.78067C47.1165 7.2933 46.6989 5.38205 45.8652 4.0454C45.03 2.70874 43.739 2.04117 41.9893 2.04117C40.2396 2.04117 39.0661 2.66149 38.301 3.9006C37.5343 5.13972 37.1518 7.01591 37.1518 9.52767L37.1502 9.52614Z" fill="#0255A3"/>
<path d="M60.3307 9.04467L62.6413 4.44639C62.8577 4.04555 63.03 3.70415 63.1595 3.42371C63.2875 3.14327 63.3531 2.91465 63.3531 2.73785C63.3531 2.49704 63.1732 2.32786 62.812 2.23184L61.7284 1.94378L61.6918 1.30518C62.5819 1.33718 63.5177 1.35395 64.4962 1.35395C65.3862 1.35395 66.2657 1.33871 67.1329 1.30518L67.1923 1.9194L65.9166 2.29281C65.6286 2.38883 65.4045 2.5321 65.2491 2.71956C65.0936 2.90856 64.9336 3.14632 64.7735 3.4359L60.9709 10.4773V14.3776C60.9709 14.8592 60.9724 15.2966 60.977 15.6899C60.9815 16.0831 60.9861 16.4367 60.9952 16.7491C61.0029 16.9579 61.1431 17.0981 61.4159 17.1713L62.7648 17.592L62.8013 18.194C61.7665 18.1696 60.57 18.1574 59.2151 18.1574C57.8601 18.1574 56.6073 18.1696 55.58 18.194L55.5206 17.592L57.0127 17.1469C57.2139 17.0905 57.3206 16.9671 57.3374 16.7735C57.345 16.4519 57.3541 16.0937 57.3617 15.6959C57.3694 15.2982 57.3739 14.8592 57.3739 14.3776V10.7669L53.463 3.76206C53.1658 3.27282 52.9235 2.92227 52.7345 2.70889C52.5455 2.49552 52.2956 2.34158 51.9831 2.24556L50.8278 1.92092L50.7791 1.3067C51.5731 1.33871 52.701 1.35547 54.1611 1.35547C55.766 1.35547 57.2871 1.34023 58.7228 1.3067L58.7822 1.92092L57.5538 2.22118C57.3694 2.2608 57.2337 2.32024 57.1453 2.39645C57.0569 2.47265 57.0127 2.5702 57.0127 2.69061C57.0127 2.85978 57.0691 3.06402 57.1819 3.30483C57.2947 3.54564 57.4501 3.83065 57.6513 4.15986L60.3353 9.0462L60.3307 9.04467Z" fill="#0255A3"/>
<path d="M84.6329 9.36916C84.6329 12.1461 83.8144 14.379 82.1775 16.0677C80.5406 17.7564 78.2621 18.6008 75.3403 18.6008C72.4186 18.6008 70.39 17.8204 68.8658 16.2597C67.3417 14.699 66.5781 12.5866 66.5781 9.92241C66.5781 7.25825 67.4011 4.9492 69.0457 3.3321C70.6902 1.71501 72.9657 0.907227 75.8692 0.907227C78.7726 0.907227 80.8195 1.66319 82.3452 3.17665C83.8693 4.68858 84.6314 6.75376 84.6314 9.36916H84.6329ZM70.6231 9.52614C70.6231 12.0943 71.056 14.0574 71.9232 15.4184C72.7889 16.7779 74.0616 17.4592 75.7381 17.4592C77.4146 17.4592 78.6126 16.8419 79.4036 15.6059C80.1931 14.3698 80.5894 12.4281 80.5894 9.78067C80.5894 7.2933 80.1718 5.38205 79.3381 4.0454C78.5029 2.70874 77.2119 2.04117 75.4622 2.04117C73.7125 2.04117 72.539 2.66149 71.7739 3.9006C71.0072 5.13972 70.6247 7.01591 70.6247 9.52767L70.6231 9.52614Z" fill="#0255A3"/>
</svg>
