<svg width="24" height="24" viewBox="0 0 24 24" fill="none" xmlns="http://www.w3.org/2000/svg">
<path d="M12 8.25C14.0711 8.25 15.75 9.92893 15.75 12C15.75 14.0711 14.0711 15.75 12 15.75C9.9289 15.75 8.25 14.0711 8.25 12C8.25 9.92893 9.9289 8.25 12 8.25Z" fill="#171A20"/>
<path fill-rule="evenodd" clip-rule="evenodd" d="M12 1.25C11.5858 1.25 11.25 1.58579 11.25 2V3.28169C7.0158 3.64113 3.6411 7.01581 3.2817 11.25H2C1.5858 11.25 1.25 11.5858 1.25 12C1.25 12.4142 1.5858 12.75 2 12.75H3.2817C3.6411 16.9842 7.0158 20.3589 11.25 20.7183V22C11.25 22.4142 11.5858 22.75 12 22.75C12.4142 22.75 12.75 22.4142 12.75 22V20.7183C16.9842 20.3589 20.3589 16.9842 20.7183 12.75H22C22.4142 12.75 22.75 12.4142 22.75 12C22.75 11.5858 22.4142 11.25 22 11.25H20.7183C20.3589 7.01581 16.9842 3.64113 12.75 3.28169V2C12.75 1.58579 12.4142 1.25 12 1.25ZM19.25 12C19.25 16.0041 16.0041 19.25 12 19.25C7.9959 19.25 4.75 16.0041 4.75 12C4.75 7.99594 7.9959 4.75 12 4.75C16.0041 4.75 19.25 7.99594 19.25 12Z" fill="#171A20"/>
</svg>
