<svg width="28" height="28" viewBox="0 0 28 28" fill="none" xmlns="http://www.w3.org/2000/svg">
<path d="M2.625 7.05032H4.31667V25.367C4.31667 25.6145 4.415 25.8519 4.59003 26.027C4.76507 26.202 5.00246 26.3003 5.25 26.3003H22.75C22.9975 26.3003 23.2349 26.202 23.41 26.027C23.585 25.8519 23.6833 25.6145 23.6833 25.367V7.05032H25.375C25.6225 7.05032 25.8599 6.95198 26.035 6.77695C26.21 6.60192 26.3083 6.36452 26.3083 6.11698C26.3083 5.86945 26.21 5.63205 26.035 5.45702C25.8599 5.28198 25.6225 5.18365 25.375 5.18365H18.4333V2.61523C18.4333 2.3677 18.335 2.1303 18.16 1.95527C17.9849 1.78023 17.7475 1.6819 17.5 1.6819H10.5C10.2525 1.6819 10.0151 1.78023 9.84003 1.95527C9.665 2.1303 9.56667 2.3677 9.56667 2.61523V5.18365H2.625C2.37746 5.18365 2.14007 5.28198 1.96503 5.45702C1.79 5.63205 1.69167 5.86945 1.69167 6.11698C1.69167 6.36452 1.79 6.60192 1.96503 6.77695C2.14007 6.95198 2.37746 7.05032 2.625 7.05032ZM11.4333 3.55032H16.5667V5.18365H11.4333V3.55032ZM21.8167 7.05032V24.4337H6.18333V7.05032H21.8167ZM10.715 20.777C10.8901 20.952 11.1275 21.0503 11.375 21.0503C11.6225 21.0503 11.8599 20.952 12.035 20.777C12.21 20.6019 12.3083 20.3645 12.3083 20.117V11.367C12.3083 11.1194 12.21 10.8821 12.035 10.707C11.8599 10.532 11.6225 10.4337 11.375 10.4337C11.1275 10.4337 10.8901 10.532 10.715 10.707C10.54 10.8821 10.4417 11.1194 10.4417 11.367V20.117C10.4417 20.3645 10.54 20.6019 10.715 20.777ZM15.965 20.777C16.1401 20.952 16.3775 21.0503 16.625 21.0503C16.8725 21.0503 17.1099 20.952 17.285 20.777C17.46 20.6019 17.5583 20.3645 17.5583 20.117V11.367C17.5583 11.1194 17.46 10.8821 17.285 10.707C17.1099 10.532 16.8725 10.4337 16.625 10.4337C16.3775 10.4337 16.1401 10.532 15.965 10.707C15.79 10.8821 15.6917 11.1194 15.6917 11.367V20.117C15.6917 20.3645 15.79 20.6019 15.965 20.777Z" fill="#FE4646" stroke="#FE4646" stroke-width="0.116667"/>
</svg>
