<svg width="24" height="24" viewBox="0 0 24 24" fill="none" xmlns="http://www.w3.org/2000/svg">
<g clip-path="url(#clip0_2184_16554)">
<path d="M3.91926 20.0768V19.9268H4.06926V19.7768V19.6763V16.6382C4.06926 16.201 4.06935 15.7639 4.06945 15.3267C4.06968 14.2341 4.06992 13.1416 4.06869 12.0488C4.06811 11.5472 3.78771 11.1505 3.34667 11.0129C2.6638 10.7998 2.00224 11.3002 2.00167 12.0402L3.91926 20.0768ZM3.91926 20.0768H4.06926M3.91926 20.0768H4.06926M4.06926 20.0768H19.9295H20.0795M4.06926 20.0768H20.0795M20.0795 20.0768V19.9268M20.0795 20.0768V19.9268M20.0795 19.9268V19.9263V19.9258V19.9253V19.9248V19.9243V19.9238V19.9233V19.9228V19.9223V19.9218V19.9213V19.9208V19.9204V19.9199V19.9194V19.9189V19.9184V19.9179V19.9174V19.9169V19.9164V19.9159V19.9154V19.9149V19.9144V19.9139V19.9134V19.9129V19.9124V19.9119V19.9114V19.9109V19.9104V19.9099V19.9094V19.9089V19.9084V19.9079V19.9074V19.9069V19.9064V19.9059V19.9054V19.9049V19.9044V19.9039V19.9034V19.9029V19.9024V19.9019V19.9015V19.901V19.9005V19.9V19.8995V19.899V19.8985V19.898V19.8975V19.897V19.8965V19.896V19.8955V19.895V19.8945V19.894V19.8935V19.893V19.8925V19.892V19.8915V19.891V19.8906V19.8901V19.8896V19.8891V19.8886V19.8881V19.8876V19.8871V19.8866V19.8861V19.8856V19.8851V19.8846V19.8841V19.8836V19.8831V19.8826V19.8821V19.8817V19.8812V19.8807V19.8802V19.8797V19.8792V19.8787V19.8782V19.8777V19.8772V19.8767V19.8762V19.8757V19.8752V19.8747V19.8742V19.8738V19.8733V19.8728V19.8723V19.8718V19.8713V19.8708V19.8703V19.8698V19.8693V19.8688V19.8683V19.8678V19.8674V19.8669V19.8664V19.8659V19.8654V19.8649V19.8644V19.8639V19.8634V19.8629V19.8624V19.8619V19.8614V19.861V19.8605V19.86V19.8595V19.859V19.8585V19.858V19.8575V19.857V19.8565V19.856V19.8555V19.8551V19.8546V19.8541V19.8536V19.8531V19.8526V19.8521V19.8516V19.8511V19.8506V19.8501V19.8497V19.8492V19.8487V19.8482V19.8477V19.8472V19.8467V19.8462V19.8457V19.8452V19.8448V19.8443V19.8438V19.8433V19.8428V19.8423V19.8418V19.8413V19.8408V19.8403V19.8399V19.8394V19.8389V19.8384V19.8379V19.8374V19.8369V19.8364V19.8359V19.8354V19.835V19.8345V19.834V19.8335V19.833V19.8325V19.832V19.8315V19.831V19.8306V19.8301V19.8296V19.8291V19.8286V19.8281V19.8276V19.8271V19.8266V19.8262V19.8257V19.8252V19.8247V19.8242V19.8237V19.8232V19.8227V19.8222V19.8218V19.8213V19.8208V19.8203V19.8198V19.8193V19.8188V19.8183V19.8179V19.8174V19.8169V19.8164V19.8159V19.8154V19.8149V19.8144V19.814V19.8135V19.813V19.8125V19.812V19.8115V19.811V19.8105V19.8101V19.8096V19.8091V19.8086V19.8081V19.8076V19.8071V19.8066V19.8062V19.8057V19.8052V19.8047V19.8042V19.8037V19.8032V19.8027V19.8023V19.8018V19.8013V19.8008V19.8003V19.7998V19.7993V19.7989V19.7984V19.7979V19.7974V19.7969V19.7964V19.7959V19.7954V19.795V19.7945V19.794V19.7935V19.793V19.7925V19.792V19.7916V19.7911V19.7906V19.7901V19.7896V19.7891V19.7886V19.7882V19.7877V19.7872V19.7867V19.7862V19.7857V19.7852V19.7848V19.7843V19.7838V19.7833V19.7828V19.7823V19.7818V19.7814V19.7809V19.7804V19.7799V19.7794V19.7789V19.7784V19.778V19.7775V19.777V19.7765V19.776V19.7755V19.775V19.7746V19.7741V19.7736V19.7731V19.7726V19.7721V19.7717V19.7712V19.7707V19.7702V19.7697V19.7692V19.7687V19.7683V19.7678V19.7673V19.7668V19.7663V19.7658V19.7654V19.7649V19.7644V19.7639V19.7634V19.7629V19.7624V19.762V19.7615V19.761V19.7605V19.76V19.7595V19.7591V19.7586V19.7581V19.7576V19.7571V19.7566V19.7561V19.7557V19.7552V19.7547V19.7542V19.7537V19.7532V19.7528V19.7523V19.7518V19.7513V19.7508V19.7503V19.7499V19.7494V19.7489V19.7484V19.7479V19.7474V19.747V19.7465V19.746V19.7455V19.745V19.7445V19.744V19.7436V19.7431V19.7426V19.7421V19.7416V19.7411V19.7407V19.7402V19.7397V19.7392V19.7387V19.7382V19.7378V19.7373V19.7368V19.7363V19.7358V19.7353V19.7349V19.7344V19.7339V19.7334V19.7329V19.7324V19.732V19.7315V19.731V19.7305V19.73V19.7295V19.7291V19.7286V19.7281V19.7276V19.7271V19.7266V19.7262V19.7257V19.7252V19.7247V19.7242V19.7237V19.7233V19.7228V19.7223V19.7218V19.7213V19.7208V19.7204V19.7199V19.7194V19.7189V19.7184V19.7179V19.7175V19.717V19.7165V19.716V19.7155V19.7151V19.7146V19.7141V19.7136V19.7131V19.7126V19.7122V19.7117V19.7112V19.7107V19.7102V19.7097V19.7093V19.7088V19.7083V19.7078V19.7073V19.7068V19.7064V19.7059V19.7054V19.7049V19.7044V19.7039V19.7035V19.703V19.7025V19.702V19.7015V19.7011V19.7006V19.7001V19.6996V19.6991V19.6986V19.6982V19.6977V19.6972V19.6967V19.6962V19.6957V19.6953V19.6948V19.6943V19.6938V19.6933V19.6928V19.6924V19.6919V19.6914V19.6909V19.6904V19.69V19.6895V19.689V19.6885V19.688V19.6875V19.6871V19.6866V19.6861V19.6856V19.6851V19.6846V19.6842V19.6837V19.6832V19.6827V19.6822V19.6817V19.6813V19.6808V19.6803V19.6798V19.6793V19.6789V19.6784V19.6779V19.6774V19.6769C20.0795 19.0419 20.0794 18.4068 20.0794 17.7717C20.0793 15.8643 20.0792 13.9567 20.08 12.0494V12.0494M20.0795 19.9268L20.08 12.0494M20.08 12.0494C20.08 11.5403 20.4186 11.1628 20.8767 11.1184M20.08 12.0494L20.8767 11.1184M2.15167 12.0403L2.15167 12.0403C2.14957 14.0044 2.14991 15.9683 2.15026 17.9324C2.15039 18.669 2.15051 19.4055 2.15051 20.1421L2.15167 12.0403ZM2.15167 12.0403C2.15217 11.3957 2.72107 10.9748 3.30199 11.1561M2.15167 12.0403L3.30199 11.1561M20.8767 11.1184L20.8622 10.9691M20.8767 11.1184L20.8622 10.9691M20.8622 10.9691L20.8766 11.1184C21.3943 11.0687 21.8405 11.4657 21.8459 11.9985M20.8622 10.9691L21.8459 11.9985M21.8459 11.9985C21.8512 12.548 21.8502 13.097 21.8491 13.6471M21.8459 11.9985L21.8491 13.6471M21.8491 13.6471C21.8486 13.8725 21.8482 14.0981 21.8482 14.3239M21.8491 13.6471L21.8482 14.3239M21.8482 14.3239V14.3353M21.8482 14.3239V14.3353M21.8482 14.3353V14.3467M21.8482 14.3353V14.3467M21.8482 14.3467V14.358M21.8482 14.3467V14.358M21.8482 14.358V14.3694M21.8482 14.358V14.3694M21.8482 14.3694V14.3808M21.8482 14.3694V14.3808M21.8482 14.3808V14.3921M21.8482 14.3808V14.3921M21.8482 14.3921V14.4035M21.8482 14.3921V14.4035M21.8482 14.4035V14.4148M21.8482 14.4035V14.4148M21.8482 14.4148V14.4262M21.8482 14.4148V14.4262M21.8482 14.4262V14.4376M21.8482 14.4262V14.4376M21.8482 14.4376V14.4489M21.8482 14.4376V14.4489M21.8482 14.4489V14.4603M21.8482 14.4489V14.4603M21.8482 14.4603V14.4717M21.8482 14.4603V14.4717M21.8482 14.4717V14.483M21.8482 14.4717V14.483M21.8482 14.483V14.4944M21.8482 14.483V14.4944M21.8482 14.4944V14.5058M21.8482 14.4944V14.5058M21.8482 14.5058V14.5171M21.8482 14.5058V14.5171M21.8482 14.5171V14.5285M21.8482 14.5171V14.5285M21.8482 14.5285V14.5398M21.8482 14.5285V14.5398M21.8482 14.5398V14.5512M21.8482 14.5398V14.5512M21.8482 14.5512V14.5626M21.8482 14.5512V14.5626M21.8482 14.5626V14.5739M21.8482 14.5626V14.5739M21.8482 14.5739V14.5853M21.8482 14.5739V14.5853M21.8482 14.5853V14.5967M21.8482 14.5853V14.5967M21.8482 14.5967V14.608M21.8482 14.5967V14.608M21.8482 14.608V14.6194M21.8482 14.608V14.6194M21.8482 14.6194V14.6308M21.8482 14.6194V14.6308M21.8482 14.6308V14.6421M21.8482 14.6308V14.6421M21.8482 14.6421V14.6535M21.8482 14.6421V14.6535M21.8482 14.6535V14.6648M21.8482 14.6535V14.6648M21.8482 14.6648V14.6762M21.8482 14.6648V14.6762M21.8482 14.6762V14.6876M21.8482 14.6762V14.6876M21.8482 14.6876V14.6989M21.8482 14.6876V14.6989M21.8482 14.6989V14.7103M21.8482 14.6989V14.7103M21.8482 14.7103V14.7217M21.8482 14.7103V14.7217M21.8482 14.7217V14.733M21.8482 14.7217V14.733M21.8482 14.733V14.7444M21.8482 14.733V14.7444M21.8482 14.7444V14.7558M21.8482 14.7444V14.7558M21.8482 14.7558V14.7671M21.8482 14.7558V14.7671M21.8482 14.7671V14.7785M21.8482 14.7671V14.7785M21.8482 14.7785V14.7898M21.8482 14.7785V14.7898M21.8482 14.7898V14.8012M21.8482 14.7898V14.8012M21.8482 14.8012V14.8126M21.8482 14.8012V14.8126M21.8482 14.8126V14.8239M21.8482 14.8126V14.8239M21.8482 14.8239V14.8353M21.8482 14.8239V14.8353M21.8482 14.8353V14.8467M21.8482 14.8353V14.8467M21.8482 14.8467V14.858M21.8482 14.8467V14.858M21.8482 14.858V14.8694M21.8482 14.858V14.8694M21.8482 14.8694V14.8807M21.8482 14.8694V14.8807M21.8482 14.8807V14.8921M21.8482 14.8807V14.8921M21.8482 14.8921V14.9035M21.8482 14.8921V14.9035M21.8482 14.9035V14.9148M21.8482 14.9035V14.9148M21.8482 14.9148V14.9262M21.8482 14.9148V14.9262M21.8482 14.9262V14.9376M21.8482 14.9262V14.9376M21.8482 14.9376V14.9489M21.8482 14.9376V14.9489M21.8482 14.9489V14.9603M21.8482 14.9489V14.9603M21.8482 14.9603V14.9717M21.8482 14.9603V14.9717M21.8482 14.9717V14.983M21.8482 14.9717V14.983M21.8482 14.983V14.9944M21.8482 14.983V14.9944M21.8482 14.9944V15.0057M21.8482 14.9944V15.0057M21.8482 15.0057V15.0171M21.8482 15.0057V15.0171M21.8482 15.0171V15.0285M21.8482 15.0171V15.0285M21.8482 15.0285V15.0398M21.8482 15.0285V15.0398M21.8482 15.0398V15.0512M21.8482 15.0398V15.0512M21.8482 15.0512V15.0626M21.8482 15.0512V15.0626M21.8482 15.0626V15.0739M21.8482 15.0626V15.0739M21.8482 15.0739V15.0853M21.8482 15.0739V15.0853M21.8482 15.0853V15.0966M21.8482 15.0853V15.0966M21.8482 15.0966V15.108M21.8482 15.0966V15.108M21.8482 15.108V15.1194M21.8482 15.108V15.1194M21.8482 15.1194V15.1307M21.8482 15.1194V15.1307M21.8482 15.1307V15.1421M21.8482 15.1307V15.1421M21.8482 15.1421V15.1535M21.8482 15.1421V15.1535M21.8482 15.1535V15.1648M21.8482 15.1535V15.1648M21.8482 15.1648V15.1762M21.8482 15.1648V15.1762M21.8482 15.1762V15.1875M21.8482 15.1762V15.1875M21.8482 15.1875V15.1989M21.8482 15.1875V15.1989M21.8482 15.1989V15.2103M21.8482 15.1989V15.2103M21.8482 15.2103V15.2216M21.8482 15.2103V15.2216M21.8482 15.2216V15.233M21.8482 15.2216V15.233M21.8482 15.233V15.2444M21.8482 15.233V15.2444M21.8482 15.2444V15.2557M21.8482 15.2444V15.2557M21.8482 15.2557V15.2671M21.8482 15.2557V15.2671M21.8482 15.2671V15.2785M21.8482 15.2671V15.2785M21.8482 15.2785V15.2898M21.8482 15.2785V15.2898M21.8482 15.2898V15.3012M21.8482 15.2898V15.3012M21.8482 15.3012V15.3125M21.8482 15.3012V15.3125M21.8482 15.3125V15.3239M21.8482 15.3125V15.3239M21.8482 15.3239V15.3353M21.8482 15.3239V15.3353M21.8482 15.3353V15.3466M21.8482 15.3353V15.3466M21.8482 15.3466V15.358M21.8482 15.3466V15.358M21.8482 15.358V15.3694M21.8482 15.358V15.3694M21.8482 15.3694V15.3807M21.8482 15.3694V15.3807M21.8482 15.3807V15.3921M21.8482 15.3807V15.3921M21.8482 15.3921V15.4034M21.8482 15.3921V15.4034M21.8482 15.4034V15.4148M21.8482 15.4034V15.4148M21.8482 15.4148V15.4262M21.8482 15.4148V15.4262M21.8482 15.4262V15.4375M21.8482 15.4262V15.4375M21.8482 15.4375V15.4489M21.8482 15.4375V15.4489M21.8482 15.4489V15.4603M21.8482 15.4489V15.4603M21.8482 15.4603V15.4716M21.8482 15.4603V15.4716M21.8482 15.4716V15.483M21.8482 15.4716V15.483M21.8482 15.483V15.4943M21.8482 15.483V15.4943M21.8482 15.4943V15.5057M21.8482 15.4943V15.5057M21.8482 15.5057V15.5171M21.8482 15.5057V15.5171M21.8482 15.5171V15.5284M21.8482 15.5171V15.5284M21.8482 15.5284V15.5398M21.8482 15.5284V15.5398M21.8482 15.5398V15.5512M21.8482 15.5398V15.5512M21.8482 15.5512V15.5625M21.8482 15.5512V15.5625M21.8482 15.5625V15.5739M21.8482 15.5625V15.5739M21.8482 15.5739V15.5852M21.8482 15.5739V15.5852M21.8482 15.5852V15.5966M21.8482 15.5852V15.5966M21.8482 15.5966V15.608M21.8482 15.5966V15.608M21.8482 15.608V15.6193M21.8482 15.608V15.6193M21.8482 15.6193V15.6307M21.8482 15.6193V15.6307M21.8482 15.6307V15.6421M21.8482 15.6307V15.6421M21.8482 15.6421V15.6534M21.8482 15.6421V15.6534M21.8482 15.6534V15.6648M21.8482 15.6534V15.6648M21.8482 15.6648V15.6761M21.8482 15.6648V15.6761M21.8482 15.6761V15.6875M21.8482 15.6761V15.6875M21.8482 15.6875V15.6989M21.8482 15.6875V15.6989M21.8482 15.6989V15.7102M21.8482 15.6989V15.7102M21.8482 15.7102V15.7216M21.8482 15.7102V15.7216M21.8482 15.7216V15.733M21.8482 15.7216V15.733M21.8482 15.733V15.7443M21.8482 15.733V15.7443M21.8482 15.7443V15.7557M21.8482 15.7443V15.7557M21.8482 15.7557V15.767M21.8482 15.7557V15.767M21.8482 15.767V15.7784M21.8482 15.767V15.7784M21.8482 15.7784V15.7898M21.8482 15.7784V15.7898M21.8482 15.7898V15.8011M21.8482 15.7898V15.8011M21.8482 15.8011V15.8125M21.8482 15.8011V15.8125M21.8482 15.8125V15.8239M21.8482 15.8125V15.8239M21.8482 15.8239V15.8352M21.8482 15.8239V15.8352M21.8482 15.8352V15.8466M21.8482 15.8352V15.8466M21.8482 15.8466V15.8579M21.8482 15.8466V15.8579M21.8482 15.8579V15.8693M21.8482 15.8579V15.8693M21.8482 15.8693V15.8807M21.8482 15.8693V15.8807M21.8482 15.8807V15.892M21.8482 15.8807V15.892M21.8482 15.892V15.9034M21.8482 15.892V15.9034M21.8482 15.9034V15.9148M21.8482 15.9034V15.9148M21.8482 15.9148V15.9261M21.8482 15.9148V15.9261M21.8482 15.9261V15.9375M21.8482 15.9261V15.9375M21.8482 15.9375V15.9488M21.8482 15.9375V15.9488M21.8482 15.9488V15.9602M21.8482 15.9488V15.9602M21.8482 15.9602V15.9716M21.8482 15.9602V15.9716M21.8482 15.9716V15.9829M21.8482 15.9716V15.9829M21.8482 15.9829V15.9943M21.8482 15.9829V15.9943M21.8482 15.9943V16.0057M21.8482 15.9943V16.0057M21.8482 16.0057V16.017M21.8482 16.0057V16.017M21.8482 16.017V16.0284M21.8482 16.017V16.0284M21.8482 16.0284V16.0397M21.8482 16.0284V16.0397M21.8482 16.0397V16.0511M21.8482 16.0397V16.0511M21.8482 16.0511V16.0625M21.8482 16.0511V16.0625M21.8482 16.0625V16.0738M21.8482 16.0625V16.0738M21.8482 16.0738V16.0852M21.8482 16.0738V16.0852M21.8482 16.0852V16.0966M21.8482 16.0852V16.0966M21.8482 16.0966V16.1079M21.8482 16.0966V16.1079M21.8482 16.1079V16.1193M21.8482 16.1079V16.1193M21.8482 16.1193V16.1306M21.8482 16.1193V16.1306M21.8482 16.1306V16.142M21.8482 16.1306V16.142M21.8482 16.142V16.1534M21.8482 16.142V16.1534M21.8482 16.1534V16.1647M21.8482 16.1534V16.1647M21.8482 16.1647V16.1761M21.8482 16.1647V16.1761M21.8482 16.1761V16.1875M21.8482 16.1761V16.1875M21.8482 16.1875V16.1988M21.8482 16.1875V16.1988M21.8482 16.1988V16.2102M21.8482 16.1988V16.2102M21.8482 16.2102V16.2215M21.8482 16.2102V16.2215M21.8482 16.2215V16.2329M21.8482 16.2215V16.2329M21.8482 16.2329V16.2443M21.8482 16.2329V16.2443M21.8482 16.2443V16.2556M21.8482 16.2443V16.2556M21.8482 16.2556V16.267M21.8482 16.2556V16.267M21.8482 16.267V16.2784M21.8482 16.267V16.2784M21.8482 16.2784V16.2897M21.8482 16.2784V16.2897M21.8482 16.2897V16.3011M21.8482 16.2897V16.3011M21.8482 16.3011V16.3124M21.8482 16.3011V16.3124M21.8482 16.3124V16.3238M21.8482 16.3124V16.3238M21.8482 16.3238V16.3352M21.8482 16.3238V16.3352M21.8482 16.3352V16.3465M21.8482 16.3352V16.3465M21.8482 16.3465V16.3579M21.8482 16.3465V16.3579M21.8482 16.3579V16.3693M21.8482 16.3579V16.3693M21.8482 16.3693V16.3806M21.8482 16.3693V16.3806M21.8482 16.3806V16.392M21.8482 16.3806V16.392M21.8482 16.392V16.4033M21.8482 16.392V16.4033M21.8482 16.4033V16.4147M21.8482 16.4033V16.4147M21.8482 16.4147V16.4261M21.8482 16.4147V16.4261M21.8482 16.4261V16.4374M21.8482 16.4261V16.4374M21.8482 16.4374V16.4488M21.8482 16.4374V16.4488M21.8482 16.4488V16.4602M21.8482 16.4488V16.4602M21.8482 16.4602V16.4715M21.8482 16.4602V16.4715M21.8482 16.4715V16.4829M21.8482 16.4715V16.4829M21.8482 16.4829V16.4942M21.8482 16.4829V16.4942M21.8482 16.4942V16.5056M21.8482 16.4942V16.5056M21.8482 16.5056V16.517M21.8482 16.5056V16.517M21.8482 16.517V16.5283M21.8482 16.517V16.5283M21.8482 16.5283V16.5397M21.8482 16.5283V16.5397M21.8482 16.5397V16.5511M21.8482 16.5397V16.5511M21.8482 16.5511V16.5624M21.8482 16.5511V16.5624M21.8482 16.5624V16.5738M21.8482 16.5624V16.5738M21.8482 16.5738V16.5851M21.8482 16.5738V16.5851M21.8482 16.5851V16.5965M21.8482 16.5851V16.5965M21.8482 16.5965V16.6079M21.8482 16.5965V16.6079M21.8482 16.6079V16.6192M21.8482 16.6079V16.6192M21.8482 16.6192V16.6306M21.8482 16.6192V16.6306M21.8482 16.6306V16.6419M21.8482 16.6306V16.6419M21.8482 16.6419V16.6533M21.8482 16.6419V16.6533M21.8482 16.6533V16.6647M21.8482 16.6533V16.6647M21.8482 16.6647V16.676M21.8482 16.6647V16.676M21.8482 16.676V16.6874M21.8482 16.676V16.6874M21.8482 16.6874V16.6988M21.8482 16.6874V16.6988M21.8482 16.6988V16.7101M21.8482 16.6988V16.7101M21.8482 16.7101V16.7215M21.8482 16.7101V16.7215M21.8482 16.7215V16.7328M21.8482 16.7215V16.7328M21.8482 16.7328V16.7442M21.8482 16.7328V16.7442M21.8482 16.7442V16.7556M21.8482 16.7442V16.7556M21.8482 16.7556V16.7669M21.8482 16.7556V16.7669M21.8482 16.7669V16.7783M21.8482 16.7669V16.7783M21.8482 16.7783V16.7897M21.8482 16.7783V16.7897M21.8482 16.7897V16.801M21.8482 16.7897V16.801M21.8482 16.801V16.8124M21.8482 16.801V16.8124M21.8482 16.8124V16.8237M21.8482 16.8124V16.8237M21.8482 16.8237V16.8351M21.8482 16.8237V16.8351M21.8482 16.8351V16.8465M21.8482 16.8351V16.8465M21.8482 16.8465V16.8578M21.8482 16.8465V16.8578M21.8482 16.8578V16.8692M21.8482 16.8578V16.8692M21.8482 16.8692V16.8806M21.8482 16.8692V16.8806M21.8482 16.8806V16.8919M21.8482 16.8806V16.8919M21.8482 16.8919V16.9033M21.8482 16.8919V16.9033M21.8482 16.9033V16.9146M21.8482 16.9033V16.9146M21.8482 16.9146V16.926M21.8482 16.9146V16.926M21.8482 16.926V16.9374M21.8482 16.926V16.9374M21.8482 16.9374V16.9487M21.8482 16.9374V16.9487M21.8482 16.9487V16.9601M21.8482 16.9487V16.9601M21.8482 16.9601V16.9715M21.8482 16.9601V16.9715M21.8482 16.9715V16.9828M21.8482 16.9715V16.9828M21.8482 16.9828V16.9942M21.8482 16.9828V16.9942M21.8482 16.9942V17.0055M21.8482 16.9942V17.0055M21.8482 17.0055V17.0169M21.8482 17.0055V17.0169M21.8482 17.0169V17.0283M21.8482 17.0169V17.0283M21.8482 17.0283V17.0396M21.8482 17.0283V17.0396M21.8482 17.0396V17.051M21.8482 17.0396V17.051M21.8482 17.051V17.0623M21.8482 17.051V17.0623M21.8482 17.0623V17.0737M21.8482 17.0623V17.0737M21.8482 17.0737V17.0851M21.8482 17.0737V17.0851M21.8482 17.0851V17.0964M21.8482 17.0851V17.0964M21.8482 17.0964V17.1078M21.8482 17.0964V17.1078M21.8482 17.1078V17.1192M21.8482 17.1078V17.1192M21.8482 17.1192V17.1305M21.8482 17.1192V17.1305M21.8482 17.1305V17.1419M21.8482 17.1305V17.1419M21.8482 17.1419V17.1532M21.8482 17.1419V17.1532M21.8482 17.1532V17.1646M21.8482 17.1532V17.1646M21.8482 17.1646V17.176M21.8482 17.1646V17.176M21.8482 17.176V17.1873M21.8482 17.176V17.1873M21.8482 17.1873V17.1987M21.8482 17.1873V17.1987M21.8482 17.1987V17.2101M21.8482 17.1987V17.2101M21.8482 17.2101V17.2214M21.8482 17.2101V17.2214M21.8482 17.2214V17.2328M21.8482 17.2214V17.2328M21.8482 17.2328V17.2441M21.8482 17.2328V17.2441M21.8482 17.2441V17.2555M21.8482 17.2441V17.2555M21.8482 17.2555V17.2669M21.8482 17.2555V17.2669M21.8482 17.2669V17.2782M21.8482 17.2669V17.2782M21.8482 17.2782V17.2896M21.8482 17.2782V17.2896M21.8482 17.2896V17.301M21.8482 17.2896V17.301M21.8482 17.301V17.3123M21.8482 17.301V17.3123M21.8482 17.3123V17.3237M21.8482 17.3123V17.3237M21.8482 17.3237V17.335M21.8482 17.3237V17.335M21.8482 17.335V17.3464M21.8482 17.335V17.3464M21.8482 17.3464V17.3578M21.8482 17.3464V17.3578M21.8482 17.3578V17.3691M21.8482 17.3578V17.3691M21.8482 17.3691V17.3805M21.8482 17.3691V17.3805M21.8482 17.3805V17.3918M21.8482 17.3805V17.3918M21.8482 17.3918V17.4032M21.8482 17.3918V17.4032M21.8482 17.4032V17.4146M21.8482 17.4032V17.4146M21.8482 17.4146V17.4259M21.8482 17.4146V17.4259M21.8482 17.4259V17.4373M21.8482 17.4259V17.4373M21.8482 17.4373V17.4487M21.8482 17.4373V17.4487M21.8482 17.4487V17.46M21.8482 17.4487V17.46M21.8482 17.46V17.4714M21.8482 17.46V17.4714M21.8482 17.4714V17.4827M21.8482 17.4714V17.4827M21.8482 17.4827V17.4941M21.8482 17.4827V17.4941M21.8482 17.4941V17.5055M21.8482 17.4941V17.5055M21.8482 17.5055V17.5168M21.8482 17.5055V17.5168M21.8482 17.5168V17.5282M21.8482 17.5168V17.5282M21.8482 17.5282V17.5396M21.8482 17.5282V17.5396M21.8482 17.5396V17.5509M21.8482 17.5396V17.5509M21.8482 17.5509V17.5623M21.8482 17.5509V17.5623M21.8482 17.5623V17.5736M21.8482 17.5623V17.5736M21.8482 17.5736V17.585M21.8482 17.5736V17.585M21.8482 17.585V17.5964M21.8482 17.585V17.5964M21.8482 17.5964V17.6077M21.8482 17.5964V17.6077M21.8482 17.6077V17.6191M21.8482 17.6077V17.6191M21.8482 17.6191V17.6305M21.8482 17.6191V17.6305M21.8482 17.6305V17.6418M21.8482 17.6305V17.6418M21.8482 17.6418V17.6532M21.8482 17.6418V17.6532M21.8482 17.6532V17.6645M21.8482 17.6532V17.6645M21.8482 17.6645V17.6759M21.8482 17.6645V17.6759M21.8482 17.6759V17.6873M21.8482 17.6759V17.6873M21.8482 17.6873V17.6986M21.8482 17.6873V17.6986M21.8482 17.6986V17.71M21.8482 17.6986V17.71M21.8482 17.71V17.7214M21.8482 17.71V17.7214M21.8482 17.7214V17.7327M21.8482 17.7214V17.7327M21.8482 17.7327V17.7441M21.8482 17.7327V17.7441M21.8482 17.7441V17.7554M21.8482 17.7441V17.7554M21.8482 17.7554V17.7668M21.8482 17.7554V17.7668M21.8482 17.7668V17.7782M21.8482 17.7668V17.7782M21.8482 17.7782V17.7895M21.8482 17.7782V17.7895M21.8482 17.7895V17.8009M21.8482 17.7895V17.8009M21.8482 17.8009V17.8122M21.8482 17.8009V17.8122M21.8482 17.8122V17.8236M21.8482 17.8122V17.8236M21.8482 17.8236V17.835M21.8482 17.8236V17.835M21.8482 17.835V17.8463M21.8482 17.835V17.8463M21.8482 17.8463V17.8577M21.8482 17.8463V17.8577M21.8482 17.8577V17.8691M21.8482 17.8577V17.8691M21.8482 17.8691V17.8804M21.8482 17.8691V17.8804M21.8482 17.8804V17.8918M21.8482 17.8804V17.8918M21.8482 17.8918V17.9031M21.8482 17.8918V17.9031M21.8482 17.9031V17.9145M21.8482 17.9031V17.9145M21.8482 17.9145V17.9259M21.8482 17.9145V17.9259M21.8482 17.9259V17.9372M21.8482 17.9259V17.9372M21.8482 17.9372V17.9486M21.8482 17.9372V17.9486M21.8482 17.9486V17.96M21.8482 17.9486V17.96M21.8482 17.96V17.9713M21.8482 17.96V17.9713M21.8482 17.9713V17.9827M21.8482 17.9713V17.9827M21.8482 17.9827V17.994M21.8482 17.9827V17.994M21.8482 17.994V18.0054M21.8482 17.994V18.0054M21.8482 18.0054V18.0168M21.8482 18.0054V18.0168M21.8482 18.0168V18.0281M21.8482 18.0168V18.0281M21.8482 18.0281V18.0395M21.8482 18.0281V18.0395M21.8482 18.0395V18.0509M21.8482 18.0395V18.0509M21.8482 18.0509V18.0622M21.8482 18.0509V18.0622M21.8482 18.0622V18.0736M21.8482 18.0622V18.0736M21.8482 18.0736V18.0849M21.8482 18.0736V18.0849M21.8482 18.0849V18.0963M21.8482 18.0849V18.0963M21.8482 18.0963V18.1077M21.8482 18.0963V18.1077M21.8482 18.1077V18.119M21.8482 18.1077V18.119M21.8482 18.119V18.1304M21.8482 18.119V18.1304M21.8482 18.1304V18.1418M21.8482 18.1304V18.1418M21.8482 18.1418V18.1531M21.8482 18.1418V18.1531M21.8482 18.1531V18.1645M21.8482 18.1531V18.1645M21.8482 18.1645V18.1758M21.8482 18.1645V18.1758M21.8482 18.1758V18.1872M21.8482 18.1758V18.1872M21.8482 18.1872V18.1986M21.8482 18.1872V18.1986M21.8482 18.1986V18.2099M21.8482 18.1986V18.2099M21.8482 18.2099V18.2213M21.8482 18.2099V18.2213M21.8482 18.2213V18.2327M21.8482 18.2213V18.2327M21.8482 18.2327V18.244M21.8482 18.2327V18.244M21.8482 18.244V18.2554M21.8482 18.244V18.2554M21.8482 18.2554V18.2667M21.8482 18.2554V18.2667M21.8482 18.2667V18.2781M21.8482 18.2667V18.2781M21.8482 18.2781V18.2895M21.8482 18.2781V18.2895M21.8482 18.2895V18.3008M21.8482 18.2895V18.3008M21.8482 18.3008V18.3122M21.8482 18.3008V18.3122M21.8482 18.3122V18.3235M21.8482 18.3122V18.3235M21.8482 18.3235V18.3349M21.8482 18.3235V18.3349M21.8482 18.3349V18.3463M21.8482 18.3349V18.3463M21.8482 18.3463V18.3576M21.8482 18.3463V18.3576M21.8482 18.3576V18.369M21.8482 18.3576V18.369M21.8482 18.369V18.3804M21.8482 18.369V18.3804M21.8482 18.3804V18.3917M21.8482 18.3804V18.3917M21.8482 18.3917V18.4031M21.8482 18.3917V18.4031M21.8482 18.4031V18.4144M21.8482 18.4031V18.4144M21.8482 18.4144V18.4258M21.8482 18.4144V18.4258M21.8482 18.4258V18.4372M21.8482 18.4258V18.4372M21.8482 18.4372V18.4485M21.8482 18.4372V18.4485M21.8482 18.4485V18.4599M21.8482 18.4485V18.4599M21.8482 18.4599V18.4713M21.8482 18.4599V18.4713M21.8482 18.4713V18.4826M21.8482 18.4713V18.4826M21.8482 18.4826V18.494M21.8482 18.4826V18.494M21.8482 18.494V18.5053M21.8482 18.494V18.5053M21.8482 18.5053V18.5167M21.8482 18.5053V18.5167M21.8482 18.5167V18.5281M21.8482 18.5167V18.5281M21.8482 18.5281V18.5394M21.8482 18.5281V18.5394M21.8482 18.5394V18.5508M21.8482 18.5394V18.5508M21.8482 18.5508V18.5622M21.8482 18.5508V18.5622M21.8482 18.5622V18.5735M21.8482 18.5622V18.5735M21.8482 18.5735V18.5849M21.8482 18.5735V18.5849M21.8482 18.5849V18.5962M21.8482 18.5849V18.5962M21.8482 18.5962V18.6076M21.8482 18.5962V18.6076M21.8482 18.6076V18.619M21.8482 18.6076V18.619M21.8482 18.619V18.6303M21.8482 18.619V18.6303M21.8482 18.6303V18.6417M21.8482 18.6303V18.6417M21.8482 18.6417V18.6531M21.8482 18.6417V18.6531M21.8482 18.6531V18.6644M21.8482 18.6531V18.6644M21.8482 18.6644V18.6758M21.8482 18.6644V18.6758M21.8482 18.6758V18.6871M21.8482 18.6758V18.6871M21.8482 18.6871V18.6985M21.8482 18.6871V18.6985M21.8482 18.6985V18.7099M21.8482 18.6985V18.7099M21.8482 18.7099V18.7212M21.8482 18.7099V18.7212M21.8482 18.7212V18.7326M21.8482 18.7212V18.7326M21.8482 18.7326V18.744M21.8482 18.7326V18.744M21.8482 18.744V18.7553M21.8482 18.744V18.7553M21.8482 18.7553V18.7667M21.8482 18.7553V18.7667M21.8482 18.7667V18.778M21.8482 18.7667V18.778M21.8482 18.778V18.7894M21.8482 18.778V18.7894M21.8482 18.7894V18.8008M21.8482 18.7894V18.8008M21.8482 18.8008V18.8121M21.8482 18.8008V18.8121M21.8482 18.8121V18.8235M21.8482 18.8121V18.8235M21.8482 18.8235V18.8349M21.8482 18.8235V18.8349M21.8482 18.8349V18.8462M21.8482 18.8349V18.8462M21.8482 18.8462V18.8576M21.8482 18.8462V18.8576M21.8482 18.8576V18.8689M21.8482 18.8576V18.8689M21.8482 18.8689V18.8803M21.8482 18.8689V18.8803M21.8482 18.8803V18.8917M21.8482 18.8803V18.8917M21.8482 18.8917V18.903M21.8482 18.8917V18.903M21.8482 18.903V18.9144M21.8482 18.903V18.9144M21.8482 18.9144V18.9258M21.8482 18.9144V18.9258M21.8482 18.9258V18.9371M21.8482 18.9258V18.9371M21.8482 18.9371V18.9485M21.8482 18.9371V18.9485M21.8482 18.9485V18.9598M21.8482 18.9485V18.9598M21.8482 18.9598V18.9712M21.8482 18.9598V18.9712M21.8482 18.9712V18.9826M21.8482 18.9712V18.9826M21.8482 18.9826V18.9939M21.8482 18.9826V18.9939M21.8482 18.9939V19.0053M21.8482 18.9939V19.0053M21.8482 19.0053V19.0167M21.8482 19.0053V19.0167M21.8482 19.0167V19.028M21.8482 19.0167V19.028M21.8482 19.028V19.0394M21.8482 19.028V19.0394M21.8482 19.0394V19.0508M21.8482 19.0394V19.0508M21.8482 19.0508V19.0621M21.8482 19.0508V19.0621M21.8482 19.0621V19.0735M21.8482 19.0621V19.0735M21.8482 19.0735V19.0848M21.8482 19.0735V19.0848M21.8482 19.0848V19.0962M21.8482 19.0848V19.0962M21.8482 19.0962V19.1076M21.8482 19.0962V19.1076M21.8482 19.1076V19.1189M21.8482 19.1076V19.1189M21.8482 19.1189V19.1303M21.8482 19.1189V19.1303M21.8482 19.1303V19.1417M21.8482 19.1303V19.1417M21.8482 19.1417V19.153M21.8482 19.1417V19.153M21.8482 19.153V19.1644M21.8482 19.153V19.1644M21.8482 19.1644V19.1757M21.8482 19.1644V19.1757M21.8482 19.1757V19.1871M21.8482 19.1757V19.1871M21.8482 19.1871V19.1985M21.8482 19.1871V19.1985M21.8482 19.1985V19.2098M21.8482 19.1985V19.2098M21.8482 19.2098V19.2212M21.8482 19.2098V19.2212M21.8482 19.2212V19.2326M21.8482 19.2212V19.2326M21.8482 19.2326V19.2439M21.8482 19.2326V19.2439M21.8482 19.2439V19.2553M21.8482 19.2439V19.2553M21.8482 19.2553V19.2666M21.8482 19.2553V19.2666M21.8482 19.2666V19.278M21.8482 19.2666V19.278M21.8482 19.278V19.2894M21.8482 19.278V19.2894M21.8482 19.2894V19.3007M21.8482 19.2894V19.3007M21.8482 19.3007V19.3121M21.8482 19.3007V19.3121M21.8482 19.3121V19.3235M21.8482 19.3121V19.3235M21.8482 19.3235V19.3348M21.8482 19.3235V19.3348M21.8482 19.3348V19.3462M21.8482 19.3348V19.3462M21.8482 19.3462V19.3575M21.8482 19.3462V19.3575M21.8482 19.3575V19.3689M21.8482 19.3575V19.3689M21.8482 19.3689V19.3803M21.8482 19.3689V19.3803M21.8482 19.3803V19.3916M21.8482 19.3803V19.3916M21.8482 19.3916V19.403M21.8482 19.3916V19.403M21.8482 19.403V19.4144M21.8482 19.403V19.4144M21.8482 19.4144V19.4257M21.8482 19.4144V19.4257M21.8482 19.4257V19.4371M21.8482 19.4257V19.4371M21.8482 19.4371V19.4485M21.8482 19.4371V19.4485M21.8482 19.4485V19.4598M21.8482 19.4485V19.4598M21.8482 19.4598V19.4712M21.8482 19.4598V19.4712M21.8482 19.4712V19.4825M21.8482 19.4712V19.4825M21.8482 19.4825V19.4939M21.8482 19.4825V19.4939M21.8482 19.4939V19.5053M21.8482 19.4939V19.5053M21.8482 19.5053V19.5166M21.8482 19.5053V19.5166M21.8482 19.5166V19.528M21.8482 19.5166V19.528M21.8482 19.528V19.5394M21.8482 19.528V19.5394M21.8482 19.5394V19.5507M21.8482 19.5394V19.5507M21.8482 19.5507V19.5621M21.8482 19.5507V19.5621M21.8482 19.5621V19.5734M21.8482 19.5621V19.5734M21.8482 19.5734V19.5848M21.8482 19.5734V19.5848M21.8482 19.5848V19.5962M21.8482 19.5848V19.5962M21.8482 19.5962V19.6075M21.8482 19.5962V19.6075M21.8482 19.6075V19.6189M21.8482 19.6075V19.6189M21.8482 19.6189V19.6303M21.8482 19.6189V19.6303M21.8482 19.6303V19.6416M21.8482 19.6303V19.6416M21.8482 19.6416V19.653M21.8482 19.6416V19.653M21.8482 19.653V19.6644M21.8482 19.653V19.6644M21.8482 19.6644V19.6757M21.8482 19.6644V19.6757M21.8482 19.6757V19.6871M21.8482 19.6757V19.6871M21.8482 19.6871V19.6984M21.8482 19.6871V19.6984M21.8482 19.6984V19.7098M21.8482 19.6984V19.7098M21.8482 19.7098V19.7212M21.8482 19.7098V19.7212M21.8482 19.7212V19.7325M21.8482 19.7212V19.7325M21.8482 19.7325V19.7439M21.8482 19.7325V19.7439M21.8482 19.7439V19.7553M21.8482 19.7439V19.7553M21.8482 19.7553V19.7666M21.8482 19.7553V19.7666M21.8482 19.7666V19.778M21.8482 19.7666V19.778M21.8482 19.778V19.7894M21.8482 19.778V19.7894M21.8482 19.7894V19.8007M21.8482 19.7894V19.8007M21.8482 19.8007V19.8121M21.8482 19.8007V19.8121M21.8482 19.8121V19.8234M21.8482 19.8121V19.8234M21.8482 19.8234V19.8348M21.8482 19.8234V19.8348M21.8482 19.8348V19.8462M21.8482 19.8348V19.8462M21.8482 19.8462V19.8575M21.8482 19.8462V19.8575M21.8482 19.8575V19.8689M21.8482 19.8575V19.8689M21.8482 19.8689V19.8803M21.8482 19.8689V19.8803M21.8482 19.8803V19.8916M21.8482 19.8803V19.8916M21.8482 19.8916V19.903M21.8482 19.8916V19.903M21.8482 19.903V19.9143M21.8482 19.903V19.9143M21.8482 19.9143V19.9257M21.8482 19.9143V19.9257M21.8482 19.9257V19.9371M21.8482 19.9257V19.9371M21.8482 19.9371V19.9484M21.8482 19.9371V19.9484M21.8482 19.9484V19.9598M21.8482 19.9484V19.9598M21.8482 19.9598V19.9712M21.8482 19.9598V19.9712M21.8482 19.9712V19.9825M21.8482 19.9712V19.9825M21.8482 19.9825V19.9939M21.8482 19.9825V19.9939M21.8482 19.9939V20.0053M21.8482 19.9939V20.0053M21.8482 20.0053V20.0166M21.8482 20.0053V20.0166M21.8482 20.0166V20.028M21.8482 20.0166V20.028M21.8482 20.028V20.0393M21.8482 20.028V20.0393M21.8482 20.0393V20.0507M21.8482 20.0393V20.0507M21.8482 20.0507V20.0621M21.8482 20.0507V20.0621M21.8482 20.0621V20.0734M21.8482 20.0621V20.0734M21.8482 20.0734V20.0848M21.8482 20.0734V20.0848M21.8482 20.0848V20.0962M21.8482 20.0848V20.0962M21.8482 20.0962V20.1075M21.8482 20.0962V20.1075M21.8482 20.1075V20.1189M21.8482 20.1075V20.1189M21.8482 20.1189V20.1303M21.8482 20.1189V20.1303M21.8482 20.1303V20.1416M21.8482 20.1303V20.1416M21.8482 20.1416C21.8482 20.6782 21.6791 21.1018 21.3903 21.391M21.8482 20.1416L21.3903 21.391M21.3903 21.391C21.1016 21.6802 20.6788 21.8496 20.1436 21.8499M21.3903 21.391L20.1436 21.8499M20.1436 21.8499H20.1118H20.08H20.0482H20.0164H19.9846H19.9528H19.921H19.8891H19.8573H19.8255H19.7937H19.7619H19.7301H19.6983H19.6664H19.6346H19.6028H19.571H19.5392H19.5074H19.4756H19.4438H19.4119H19.3801H19.3483H19.3165H19.2847H19.2529H19.2211H19.1892H19.1574H19.1256H19.0938H19.062H19.0302H18.9984H18.9666H18.9347H18.9029H18.8711H18.8393H18.8075H18.7757H18.7439H18.7121H18.6802H18.6484H18.6166H18.5848H18.553H18.5212H18.4894H18.4575H18.4257H18.3939H18.3621H18.3303H18.2985H18.2667H18.2349H18.203H18.1712H18.1394H18.1076H18.0758H18.044H18.0122H17.9804H17.9485H17.9167H17.8849H17.8531H17.8213H17.7895H17.7577H17.7259H17.694H17.6622H17.6304H17.5986H17.5668H17.535H17.5032H17.4713H17.4395H17.4077H17.3759H17.3441H17.3123H17.2805H17.2487H17.2168H17.185H17.1532H17.1214H17.0896H17.0578H17.026H16.9942H16.9623H16.9305H16.8987H16.8669H16.8351H16.8033H16.7715H16.7397H16.7078H16.676H16.6442H16.6124H16.5806H16.5488H16.517H16.4852H16.4533H16.4215H16.3897H16.3579H16.3261H16.2943H16.2625H16.2307H16.1988H16.167H16.1352H16.1034H16.0716H16.0398H16.008H15.9762H15.9443H15.9125H15.8807H15.8489H15.8171H15.7853H15.7535H15.7217H15.6898H15.658H15.6262H15.5944H15.5626H15.5308H15.499H15.4672H15.4354H15.4035H15.3717H15.3399H15.3081H15.2763H15.2445H15.2127H15.1809H15.149H15.1172H15.0854H15.0536H15.0218H14.99H14.9582H14.9264H14.8945H14.8627H14.8309H14.7991H14.7673H14.7355H14.7037H14.6719H14.64H14.6082H14.5764H14.5446H14.5128H14.481H14.4492H14.4174H14.3855H14.3537H14.3219H14.2901H14.2583H14.2265H14.1947H14.1629H14.1311H14.0992H14.0674H14.0356H14.0038H13.972H13.9402H13.9084H13.8766H13.8447H13.8129H13.7811H13.7493H13.7175H13.6857H13.6539H13.6221H13.5902H13.5584H13.5266H13.4948H13.463H13.4312H13.3994H13.3676H13.3358H13.3039H13.2721H13.2403H13.2085H13.1767H13.1449H13.1131H13.0813H13.0494H13.0176H12.9858H12.954H12.9222H12.8904H12.8586H12.8268H12.7949H12.7631H12.7313H12.6995H12.6677H12.6359H12.6041H12.5723H12.5405H12.5086H12.4768H12.445H12.4132H12.3814H12.3496H12.3178H12.286H12.2541H12.2223H12.1905H12.1587H12.1269H12.0951H12.0633H12.0315H11.9997H11.9678H11.936H11.9042H11.8724H11.8406H11.8088H11.777H11.7452H11.7133H11.6815H11.6497H11.6179H11.5861H11.5543H11.5225H11.4907H11.4588H11.427H11.3952H11.3634H11.3316H11.2998H11.268H11.2362H11.2044H11.1725H11.1407H11.1089H11.0771H11.0453H11.0135H10.9817H10.9499H10.918H10.8862H10.8544H10.8226H10.7908H10.759H10.7272H10.6954H10.6635H10.6317H10.5999H10.5681H10.5363H10.5045H10.4727H10.4409H10.4091H10.3772H10.3454H10.3136H10.2818H10.25H10.2182H10.1864H10.1546H10.1227H10.0909H10.0591H10.0273H9.9955H9.96368H9.93187H9.90006H9.86825H9.83644H9.80462H9.77281H9.741H9.70919H9.67738H9.64556H9.61375H9.58194H9.55013H9.51832H9.4865H9.45469H9.42288H9.39107H9.35925H9.32744H9.29563H9.26382H9.23201H9.20019H9.16838H9.13657H9.10476H9.07295H9.04113H9.00932H8.97751H8.9457H8.91388H8.88207H8.85026H8.81845H8.78664H8.75482H8.72301H8.6912H8.65939H8.62757H8.59576H8.56395H8.53214H8.50033H8.46851H8.4367H8.40489H8.37308H8.34126H8.30945H8.27764H8.24583H8.21402H8.1822H8.15039H8.11858H8.08677H8.05495H8.02314H7.99133H7.95952H7.9277H7.89589H7.86408H7.83227H7.80045H7.76864H7.73683H7.70502H7.6732H7.64139H7.60958H7.57777H7.54596H7.51414H7.48233H7.45052H7.41871H7.38689H7.35508H7.32327H7.29146H7.25964H7.22783H7.19602H7.16421H7.13239H7.10058H7.06877H7.03696H7.00514H6.97333H6.94152H6.90971H6.87789H6.84608H6.81427H6.78245H6.75064H6.71883H6.68702H6.6552H6.62339H6.59158H6.55977H6.52795H6.49614H6.46433H6.43252H6.4007H6.36889H6.33708H6.30526H6.27345H6.24164H6.20983H6.17801H6.1462H6.11439H6.08257H6.05076H6.01895H5.98714H5.95532H5.92351H5.8917H5.85988H5.82807H5.79626H5.76445H5.73263H5.70082H5.66901H5.63719H5.60538H5.57357H5.54175H5.50994H5.47813H5.44632H5.4145H5.38269H5.35088H5.31906H5.28725H5.25544H5.22362H5.19181H5.16H5.12818H5.09637H5.06456H5.03275H5.00093H4.96912H4.93731H4.90549H4.87368H4.84187H4.81005H4.77824H4.74643H4.71461H4.6828H4.65099H4.61917H4.58736H4.55555H4.52373H4.49192H4.46011H4.42829H4.39648H4.36467H4.33285H4.30104H4.26923H4.23741H4.2056H4.17379H4.14197H4.11016H4.07834H4.04653H4.01472H3.9829H3.95109H3.91928H3.88746H3.85565C3.32016 21.8499 2.89736 21.6806 2.60866 21.3915C2.31994 21.1024 2.1508 20.6788 2.15051 20.1422L20.1436 21.8499ZM3.30199 11.1561C3.6748 11.2724 3.91818 11.6069 3.91869 12.049M3.30199 11.1561L3.34666 11.0129L3.91869 12.049M3.91869 12.049C3.91992 13.1417 3.91968 14.2341 3.91945 15.3267M3.91869 12.049L3.91945 15.3267M3.91945 15.3267C3.91936 15.7638 3.91926 16.201 3.91926 16.6382M3.91945 15.3267L3.91926 16.6382M3.91926 16.6382V16.6442M3.91926 16.6382V16.6442M3.91926 16.6442V16.6501M3.91926 16.6442V16.6501M3.91926 16.6501V16.656M3.91926 16.6501V16.656M3.91926 16.656V16.662M3.91926 16.656V16.662M3.91926 16.662V16.6679M3.91926 16.662V16.6679M3.91926 16.6679V16.6738M3.91926 16.6679V16.6738M3.91926 16.6738V16.6798M3.91926 16.6738V16.6798M3.91926 16.6798V16.6857M3.91926 16.6798V16.6857M3.91926 16.6857V16.6916M3.91926 16.6857V16.6916M3.91926 16.6916V16.6976M3.91926 16.6916V16.6976M3.91926 16.6976V16.7035M3.91926 16.6976V16.7035M3.91926 16.7035V16.7094M3.91926 16.7035V16.7094M3.91926 16.7094V16.7154M3.91926 16.7094V16.7154M3.91926 16.7154V16.7213M3.91926 16.7154V16.7213M3.91926 16.7213V16.7273M3.91926 16.7213V16.7273M3.91926 16.7273V16.7332M3.91926 16.7273V16.7332M3.91926 16.7332V16.7391M3.91926 16.7332V16.7391M3.91926 16.7391V16.7451M3.91926 16.7391V16.7451M3.91926 16.7451V16.751M3.91926 16.7451V16.751M3.91926 16.751V16.7569M3.91926 16.751V16.7569M3.91926 16.7569V16.7629M3.91926 16.7569V16.7629M3.91926 16.7629V16.7688M3.91926 16.7629V16.7688M3.91926 16.7688V16.7747M3.91926 16.7688V16.7747M3.91926 16.7747V16.7807M3.91926 16.7747V16.7807M3.91926 16.7807V16.7866M3.91926 16.7807V16.7866M3.91926 16.7866V16.7925M3.91926 16.7866V16.7925M3.91926 16.7925V16.7985M3.91926 16.7925V16.7985M3.91926 16.7985V16.8044M3.91926 16.7985V16.8044M3.91926 16.8044V16.8103M3.91926 16.8044V16.8103M3.91926 16.8103V16.8163M3.91926 16.8103V16.8163M3.91926 16.8163V16.8222M3.91926 16.8163V16.8222M3.91926 16.8222V16.8281M3.91926 16.8222V16.8281M3.91926 16.8281V16.8341M3.91926 16.8281V16.8341M3.91926 16.8341V16.84M3.91926 16.8341V16.84M3.91926 16.84V16.8459M3.91926 16.84V16.8459M3.91926 16.8459V16.8519M3.91926 16.8459V16.8519M3.91926 16.8519V16.8578M3.91926 16.8519V16.8578M3.91926 16.8578V16.8637M3.91926 16.8578V16.8637M3.91926 16.8637V16.8697M3.91926 16.8637V16.8697M3.91926 16.8697V16.8756M3.91926 16.8697V16.8756M3.91926 16.8756V16.8815M3.91926 16.8756V16.8815M3.91926 16.8815V16.8875M3.91926 16.8815V16.8875M3.91926 16.8875V16.8934M3.91926 16.8875V16.8934M3.91926 16.8934V16.8994M3.91926 16.8934V16.8994M3.91926 16.8994V16.9053M3.91926 16.8994V16.9053M3.91926 16.9053V16.9112M3.91926 16.9053V16.9112M3.91926 16.9112V16.9172M3.91926 16.9112V16.9172M3.91926 16.9172V16.9231M3.91926 16.9172V16.9231M3.91926 16.9231V16.929M3.91926 16.9231V16.929M3.91926 16.929V16.935M3.91926 16.929V16.935M3.91926 16.935V16.9409M3.91926 16.935V16.9409M3.91926 16.9409V16.9468M3.91926 16.9409V16.9468M3.91926 16.9468V16.9528M3.91926 16.9468V16.9528M3.91926 16.9528V16.9587M3.91926 16.9528V16.9587M3.91926 16.9587V16.9646M3.91926 16.9587V16.9646M3.91926 16.9646V16.9706M3.91926 16.9646V16.9706M3.91926 16.9706V16.9765M3.91926 16.9706V16.9765M3.91926 16.9765V16.9824M3.91926 16.9765V16.9824M3.91926 16.9824V16.9884M3.91926 16.9824V16.9884M3.91926 16.9884V16.9943M3.91926 16.9884V16.9943M3.91926 16.9943V17.0002M3.91926 16.9943V17.0002M3.91926 17.0002V17.0062M3.91926 17.0002V17.0062M3.91926 17.0062V17.0121M3.91926 17.0062V17.0121M3.91926 17.0121V17.018M3.91926 17.0121V17.018M3.91926 17.018V17.024M3.91926 17.018V17.024M3.91926 17.024V17.0299M3.91926 17.024V17.0299M3.91926 17.0299V17.0358M3.91926 17.0299V17.0358M3.91926 17.0358V17.0418M3.91926 17.0358V17.0418M3.91926 17.0418V17.0477M3.91926 17.0418V17.0477M3.91926 17.0477V17.0536M3.91926 17.0477V17.0536M3.91926 17.0536V17.0596M3.91926 17.0536V17.0596M3.91926 17.0596V17.0655M3.91926 17.0596V17.0655M3.91926 17.0655V17.0714M3.91926 17.0655V17.0714M3.91926 17.0714V17.0774M3.91926 17.0714V17.0774M3.91926 17.0774V17.0833M3.91926 17.0774V17.0833M3.91926 17.0833V17.0892M3.91926 17.0833V17.0892M3.91926 17.0892V17.0952M3.91926 17.0892V17.0952M3.91926 17.0952V17.1011M3.91926 17.0952V17.1011M3.91926 17.1011V17.1071M3.91926 17.1011V17.1071M3.91926 17.1071V17.113M3.91926 17.1071V17.113M3.91926 17.113V17.1189M3.91926 17.113V17.1189M3.91926 17.1189V17.1249M3.91926 17.1189V17.1249M3.91926 17.1249V17.1308M3.91926 17.1249V17.1308M3.91926 17.1308V17.1367M3.91926 17.1308V17.1367M3.91926 17.1367V17.1427M3.91926 17.1367V17.1427M3.91926 17.1427V17.1486M3.91926 17.1427V17.1486M3.91926 17.1486V17.1545M3.91926 17.1486V17.1545M3.91926 17.1545V17.1605M3.91926 17.1545V17.1605M3.91926 17.1605V17.1664M3.91926 17.1605V17.1664M3.91926 17.1664V17.1723M3.91926 17.1664V17.1723M3.91926 17.1723V17.1783M3.91926 17.1723V17.1783M3.91926 17.1783V17.1842M3.91926 17.1783V17.1842M3.91926 17.1842V17.1901M3.91926 17.1842V17.1901M3.91926 17.1901V17.1961M3.91926 17.1901V17.1961M3.91926 17.1961V17.202M3.91926 17.1961V17.202M3.91926 17.202V17.2079M3.91926 17.202V17.2079M3.91926 17.2079V17.2139M3.91926 17.2079V17.2139M3.91926 17.2139V17.2198M3.91926 17.2139V17.2198M3.91926 17.2198V17.2257M3.91926 17.2198V17.2257M3.91926 17.2257V17.2317M3.91926 17.2257V17.2317M3.91926 17.2317V17.2376M3.91926 17.2317V17.2376M3.91926 17.2376V17.2435M3.91926 17.2376V17.2435M3.91926 17.2435V17.2495M3.91926 17.2435V17.2495M3.91926 17.2495V17.2554M3.91926 17.2495V17.2554M3.91926 17.2554V17.2613M3.91926 17.2554V17.2613M3.91926 17.2613V17.2673M3.91926 17.2613V17.2673M3.91926 17.2673V17.2732M3.91926 17.2673V17.2732M3.91926 17.2732V17.2791M3.91926 17.2732V17.2791M3.91926 17.2791V17.2851M3.91926 17.2791V17.2851M3.91926 17.2851V17.291M3.91926 17.2851V17.291M3.91926 17.291V17.2969M3.91926 17.291V17.2969M3.91926 17.2969V17.3029M3.91926 17.2969V17.3029M3.91926 17.3029V17.3088M3.91926 17.3029V17.3088M3.91926 17.3088V17.3147M3.91926 17.3088V17.3147M3.91926 17.3147V17.3207M3.91926 17.3147V17.3207M3.91926 17.3207V17.3266M3.91926 17.3207V17.3266M3.91926 17.3266V17.3325M3.91926 17.3266V17.3325M3.91926 17.3325V17.3385M3.91926 17.3325V17.3385M3.91926 17.3385V17.3444M3.91926 17.3385V17.3444M3.91926 17.3444V17.3503M3.91926 17.3444V17.3503M3.91926 17.3503V17.3563M3.91926 17.3503V17.3563M3.91926 17.3563V17.3622M3.91926 17.3563V17.3622M3.91926 17.3622V17.3681M3.91926 17.3622V17.3681M3.91926 17.3681V17.3741M3.91926 17.3681V17.3741M3.91926 17.3741V17.38M3.91926 17.3741V17.38M3.91926 17.38V17.3859M3.91926 17.38V17.3859M3.91926 17.3859V17.3919M3.91926 17.3859V17.3919M3.91926 17.3919V17.3978M3.91926 17.3919V17.3978M3.91926 17.3978V17.4037M3.91926 17.3978V17.4037M3.91926 17.4037V17.4097M3.91926 17.4037V17.4097M3.91926 17.4097V17.4156M3.91926 17.4097V17.4156M3.91926 17.4156V17.4215M3.91926 17.4156V17.4215M3.91926 17.4215V17.4275M3.91926 17.4215V17.4275M3.91926 17.4275V17.4334M3.91926 17.4275V17.4334M3.91926 17.4334V17.4393M3.91926 17.4334V17.4393M3.91926 17.4393V17.4453M3.91926 17.4393V17.4453M3.91926 17.4453V17.4512M3.91926 17.4453V17.4512M3.91926 17.4512V17.4571M3.91926 17.4512V17.4571M3.91926 17.4571V17.4631M3.91926 17.4571V17.4631M3.91926 17.4631V17.469M3.91926 17.4631V17.469M3.91926 17.469V17.4749M3.91926 17.469V17.4749M3.91926 17.4749V17.4809M3.91926 17.4749V17.4809M3.91926 17.4809V17.4868M3.91926 17.4809V17.4868M3.91926 17.4868V17.4927M3.91926 17.4868V17.4927M3.91926 17.4927V17.4987M3.91926 17.4927V17.4987M3.91926 17.4987V17.5046M3.91926 17.4987V17.5046M3.91926 17.5046V17.5106M3.91926 17.5046V17.5106M3.91926 17.5106V17.5165M3.91926 17.5106V17.5165M3.91926 17.5165V17.5224M3.91926 17.5165V17.5224M3.91926 17.5224V17.5284M3.91926 17.5224V17.5284M3.91926 17.5284V17.5343M3.91926 17.5284V17.5343M3.91926 17.5343V17.5402M3.91926 17.5343V17.5402M3.91926 17.5402V17.5462M3.91926 17.5402V17.5462M3.91926 17.5462V17.5521M3.91926 17.5462V17.5521M3.91926 17.5521V17.558M3.91926 17.5521V17.558M3.91926 17.558V17.564M3.91926 17.558V17.564M3.91926 17.564V17.5699M3.91926 17.564V17.5699M3.91926 17.5699V17.5758M3.91926 17.5699V17.5758M3.91926 17.5758V17.5818M3.91926 17.5758V17.5818M3.91926 17.5818V17.5877M3.91926 17.5818V17.5877M3.91926 17.5877V17.5936M3.91926 17.5877V17.5936M3.91926 17.5936V17.5996M3.91926 17.5936V17.5996M3.91926 17.5996V17.6055M3.91926 17.5996V17.6055M3.91926 17.6055V17.6114M3.91926 17.6055V17.6114M3.91926 17.6114V17.6174M3.91926 17.6114V17.6174M3.91926 17.6174V17.6233M3.91926 17.6174V17.6233M3.91926 17.6233V17.6292M3.91926 17.6233V17.6292M3.91926 17.6292V17.6352M3.91926 17.6292V17.6352M3.91926 17.6352V17.6411M3.91926 17.6352V17.6411M3.91926 17.6411V17.647M3.91926 17.6411V17.647M3.91926 17.647V17.653M3.91926 17.647V17.653M3.91926 17.653V17.6589M3.91926 17.653V17.6589M3.91926 17.6589V17.6648M3.91926 17.6589V17.6648M3.91926 17.6648V17.6708M3.91926 17.6648V17.6708M3.91926 17.6708V17.6767M3.91926 17.6708V17.6767M3.91926 17.6767V17.6826M3.91926 17.6767V17.6826M3.91926 17.6826V17.6886M3.91926 17.6826V17.6886M3.91926 17.6886V17.6945M3.91926 17.6886V17.6945M3.91926 17.6945V17.7004M3.91926 17.6945V17.7004M3.91926 17.7004V17.7064M3.91926 17.7004V17.7064M3.91926 17.7064V17.7123M3.91926 17.7064V17.7123M3.91926 17.7123V17.7182M3.91926 17.7123V17.7182M3.91926 17.7182V17.7242M3.91926 17.7182V17.7242M3.91926 17.7242V17.7301M3.91926 17.7242V17.7301M3.91926 17.7301V17.736M3.91926 17.7301V17.736M3.91926 17.736V17.742M3.91926 17.736V17.742M3.91926 17.742V17.7479M3.91926 17.742V17.7479M3.91926 17.7479V17.7538M3.91926 17.7479V17.7538M3.91926 17.7538V17.7598M3.91926 17.7538V17.7598M3.91926 17.7598V17.7657M3.91926 17.7598V17.7657M3.91926 17.7657V17.7716M3.91926 17.7657V17.7716M3.91926 17.7716V17.7776M3.91926 17.7716V17.7776M3.91926 17.7776V17.7835M3.91926 17.7776V17.7835M3.91926 17.7835V17.7894M3.91926 17.7835V17.7894M3.91926 17.7894V17.7954M3.91926 17.7894V17.7954M3.91926 17.7954V17.8013M3.91926 17.7954V17.8013M3.91926 17.8013V17.8072M3.91926 17.8013V17.8072M3.91926 17.8072V17.8132M3.91926 17.8072V17.8132M3.91926 17.8132V17.8191M3.91926 17.8132V17.8191M3.91926 17.8191V17.825M3.91926 17.8191V17.825M3.91926 17.825V17.831M3.91926 17.825V17.831M3.91926 17.831V17.8369M3.91926 17.831V17.8369M3.91926 17.8369V17.8428M3.91926 17.8369V17.8428M3.91926 17.8428V17.8488M3.91926 17.8428V17.8488M3.91926 17.8488V17.8547M3.91926 17.8488V17.8547M3.91926 17.8547V17.8606M3.91926 17.8547V17.8606M3.91926 17.8606V17.8666M3.91926 17.8606V17.8666M3.91926 17.8666V17.8725M3.91926 17.8666V17.8725M3.91926 17.8725V17.8784M3.91926 17.8725V17.8784M3.91926 17.8784V17.8844M3.91926 17.8784V17.8844M3.91926 17.8844V17.8903M3.91926 17.8844V17.8903M3.91926 17.8903V17.8962M3.91926 17.8903V17.8962M3.91926 17.8962V17.9022M3.91926 17.8962V17.9022M3.91926 17.9022V17.9081M3.91926 17.9022V17.9081M3.91926 17.9081V17.914M3.91926 17.9081V17.914M3.91926 17.914V17.92M3.91926 17.914V17.92M3.91926 17.92V17.9259M3.91926 17.92V17.9259M3.91926 17.9259V17.9318M3.91926 17.9259V17.9318M3.91926 17.9318V17.9378M3.91926 17.9318V17.9378M3.91926 17.9378V17.9437M3.91926 17.9378V17.9437M3.91926 17.9437V17.9496M3.91926 17.9437V17.9496M3.91926 17.9496V17.9556M3.91926 17.9496V17.9556M3.91926 17.9556V17.9615M3.91926 17.9556V17.9615M3.91926 17.9615V17.9674M3.91926 17.9615V17.9674M3.91926 17.9674V17.9734M3.91926 17.9674V17.9734M3.91926 17.9734V17.9793M3.91926 17.9734V17.9793M3.91926 17.9793V17.9852M3.91926 17.9793V17.9852M3.91926 17.9852V17.9912M3.91926 17.9852V17.9912M3.91926 17.9912V17.9971M3.91926 17.9912V17.9971M3.91926 17.9971V18.003M3.91926 17.9971V18.003M3.91926 18.003V18.009M3.91926 18.003V18.009M3.91926 18.009V18.0149M3.91926 18.009V18.0149M3.91926 18.0149V18.0208M3.91926 18.0149V18.0208M3.91926 18.0208V18.0268M3.91926 18.0208V18.0268M3.91926 18.0268V18.0327M3.91926 18.0268V18.0327M3.91926 18.0327V18.0386M3.91926 18.0327V18.0386M3.91926 18.0386V18.0446M3.91926 18.0386V18.0446M3.91926 18.0446V18.0505M3.91926 18.0446V18.0505M3.91926 18.0505V18.0564M3.91926 18.0505V18.0564M3.91926 18.0564V18.0624M3.91926 18.0564V18.0624M3.91926 18.0624V18.0683M3.91926 18.0624V18.0683M3.91926 18.0683V18.0742M3.91926 18.0683V18.0742M3.91926 18.0742V18.0802M3.91926 18.0742V18.0802M3.91926 18.0802V18.0861M3.91926 18.0802V18.0861M3.91926 18.0861V18.092M3.91926 18.0861V18.092M3.91926 18.092V18.098M3.91926 18.092V18.098M3.91926 18.098V18.1039M3.91926 18.098V18.1039M3.91926 18.1039V18.1098M3.91926 18.1039V18.1098M3.91926 18.1098V18.1158M3.91926 18.1098V18.1158M3.91926 18.1158V18.1217M3.91926 18.1158V18.1217M3.91926 18.1217V18.1276M3.91926 18.1217V18.1276M3.91926 18.1276V18.1336M3.91926 18.1276V18.1336M3.91926 18.1336V18.1395M3.91926 18.1336V18.1395M3.91926 18.1395V18.1454M3.91926 18.1395V18.1454M3.91926 18.1454V18.1514M3.91926 18.1454V18.1514M3.91926 18.1514V18.1573M3.91926 18.1514V18.1573M3.91926 18.1573V18.1632M3.91926 18.1573V18.1632M3.91926 18.1632V18.1692M3.91926 18.1632V18.1692M3.91926 18.1692V18.1751M3.91926 18.1692V18.1751M3.91926 18.1751V18.181M3.91926 18.1751V18.181M3.91926 18.181V18.187M3.91926 18.181V18.187M3.91926 18.187V18.1929M3.91926 18.187V18.1929M3.91926 18.1929V18.1988M3.91926 18.1929V18.1988M3.91926 18.1988V18.2048M3.91926 18.1988V18.2048M3.91926 18.2048V18.2107M3.91926 18.2048V18.2107M3.91926 18.2107V18.2166M3.91926 18.2107V18.2166M3.91926 18.2166V18.2226M3.91926 18.2166V18.2226M3.91926 18.2226V18.2285M3.91926 18.2226V18.2285M3.91926 18.2285V18.2344M3.91926 18.2285V18.2344M3.91926 18.2344V18.2404M3.91926 18.2344V18.2404M3.91926 18.2404V18.2463M3.91926 18.2404V18.2463M3.91926 18.2463V18.2522M3.91926 18.2463V18.2522M3.91926 18.2522V18.2582M3.91926 18.2522V18.2582M3.91926 18.2582V18.2641M3.91926 18.2582V18.2641M3.91926 18.2641V18.27M3.91926 18.2641V18.27M3.91926 18.27V18.276M3.91926 18.27V18.276M3.91926 18.276V18.2819M3.91926 18.276V18.2819M3.91926 18.2819V18.2878M3.91926 18.2819V18.2878M3.91926 18.2878V18.2938M3.91926 18.2878V18.2938M3.91926 18.2938V18.2997M3.91926 18.2938V18.2997M3.91926 18.2997V18.3056M3.91926 18.2997V18.3056M3.91926 18.3056V18.3116M3.91926 18.3056V18.3116M3.91926 18.3116V18.3175M3.91926 18.3116V18.3175M3.91926 18.3175V18.3234M3.91926 18.3175V18.3234M3.91926 18.3234V18.3294M3.91926 18.3234V18.3294M3.91926 18.3294V18.3353M3.91926 18.3294V18.3353M3.91926 18.3353V18.3412M3.91926 18.3353V18.3412M3.91926 18.3412V18.3472M3.91926 18.3412V18.3472M3.91926 18.3472V18.3531M3.91926 18.3472V18.3531M3.91926 18.3531V18.359M3.91926 18.3531V18.359M3.91926 18.359V18.365M3.91926 18.359V18.365M3.91926 18.365V18.3709M3.91926 18.365V18.3709M3.91926 18.3709V18.3768M3.91926 18.3709V18.3768M3.91926 18.3768V18.3828M3.91926 18.3768V18.3828M3.91926 18.3828V18.3887M3.91926 18.3828V18.3887M3.91926 18.3887V18.3946M3.91926 18.3887V18.3946M3.91926 18.3946V18.4006M3.91926 18.3946V18.4006M3.91926 18.4006V18.4065M3.91926 18.4006V18.4065M3.91926 18.4065V18.4124M3.91926 18.4065V18.4124M3.91926 18.4124V18.4184M3.91926 18.4124V18.4184M3.91926 18.4184V18.4243M3.91926 18.4184V18.4243M3.91926 18.4243V18.4302M3.91926 18.4243V18.4302M3.91926 18.4302V18.4362M3.91926 18.4302V18.4362M3.91926 18.4362V18.4421M3.91926 18.4362V18.4421M3.91926 18.4421V18.448M3.91926 18.4421V18.448M3.91926 18.448V18.454M3.91926 18.448V18.454M3.91926 18.454V18.4599M3.91926 18.454V18.4599M3.91926 18.4599V18.4658M3.91926 18.4599V18.4658M3.91926 18.4658V18.4718M3.91926 18.4658V18.4718M3.91926 18.4718V18.4777M3.91926 18.4718V18.4777M3.91926 18.4777V18.4836M3.91926 18.4777V18.4836M3.91926 18.4836V18.4896M3.91926 18.4836V18.4896M3.91926 18.4896V18.4955M3.91926 18.4896V18.4955M3.91926 18.4955V18.5014M3.91926 18.4955V18.5014M3.91926 18.5014V18.5074M3.91926 18.5014V18.5074M3.91926 18.5074V18.5133M3.91926 18.5074V18.5133M3.91926 18.5133V18.5192M3.91926 18.5133V18.5192M3.91926 18.5192V18.5252M3.91926 18.5192V18.5252M3.91926 18.5252V18.5311M3.91926 18.5252V18.5311M3.91926 18.5311V18.537M3.91926 18.5311V18.537M3.91926 18.537V18.543M3.91926 18.537V18.543M3.91926 18.543V18.5489M3.91926 18.543V18.5489M3.91926 18.5489V18.5548M3.91926 18.5489V18.5548M3.91926 18.5548V18.5608M3.91926 18.5548V18.5608M3.91926 18.5608V18.5667M3.91926 18.5608V18.5667M3.91926 18.5667V18.5726M3.91926 18.5667V18.5726M3.91926 18.5726V18.5786M3.91926 18.5726V18.5786M3.91926 18.5786V18.5845M3.91926 18.5786V18.5845M3.91926 18.5845V18.5904M3.91926 18.5845V18.5904M3.91926 18.5904V18.5964M3.91926 18.5904V18.5964M3.91926 18.5964V18.6023M3.91926 18.5964V18.6023M3.91926 18.6023V18.6082M3.91926 18.6023V18.6082M3.91926 18.6082V18.6142M3.91926 18.6082V18.6142M3.91926 18.6142V18.6201M3.91926 18.6142V18.6201M3.91926 18.6201V18.626M3.91926 18.6201V18.626M3.91926 18.626V18.632M3.91926 18.626V18.632M3.91926 18.632V18.6379M3.91926 18.632V18.6379M3.91926 18.6379V18.6438M3.91926 18.6379V18.6438M3.91926 18.6438V18.6498M3.91926 18.6438V18.6498M3.91926 18.6498V18.6557M3.91926 18.6498V18.6557M3.91926 18.6557V18.6616M3.91926 18.6557V18.6616M3.91926 18.6616V18.6676M3.91926 18.6616V18.6676M3.91926 18.6676V18.6735M3.91926 18.6676V18.6735M3.91926 18.6735V18.6794M3.91926 18.6735V18.6794M3.91926 18.6794V18.6854M3.91926 18.6794V18.6854M3.91926 18.6854V18.6913M3.91926 18.6854V18.6913M3.91926 18.6913V18.6972M3.91926 18.6913V18.6972M3.91926 18.6972V18.7032M3.91926 18.6972V18.7032M3.91926 18.7032V18.7091M3.91926 18.7032V18.7091M3.91926 18.7091V18.715M3.91926 18.7091V18.715M3.91926 18.715V18.721M3.91926 18.715V18.721M3.91926 18.721V18.7269M3.91926 18.721V18.7269M3.91926 18.7269V18.7328M3.91926 18.7269V18.7328M3.91926 18.7328V18.7388M3.91926 18.7328V18.7388M3.91926 18.7388V18.7447M3.91926 18.7388V18.7447M3.91926 18.7447V18.7506M3.91926 18.7447V18.7506M3.91926 18.7506V18.7566M3.91926 18.7506V18.7566M3.91926 18.7566V18.7625M3.91926 18.7566V18.7625M3.91926 18.7625V18.7684M3.91926 18.7625V18.7684M3.91926 18.7684V18.7744M3.91926 18.7684V18.7744M3.91926 18.7744V18.7803M3.91926 18.7744V18.7803M3.91926 18.7803V18.7862M3.91926 18.7803V18.7862M3.91926 18.7862V18.7922M3.91926 18.7862V18.7922M3.91926 18.7922V18.7981M3.91926 18.7922V18.7981M3.91926 18.7981V18.804M3.91926 18.7981V18.804M3.91926 18.804V18.81M3.91926 18.804V18.81M3.91926 18.81V18.8159M3.91926 18.81V18.8159M3.91926 18.8159V18.8218M3.91926 18.8159V18.8218M3.91926 18.8218V18.8278M3.91926 18.8218V18.8278M3.91926 18.8278V18.8337M3.91926 18.8278V18.8337M3.91926 18.8337V18.8396M3.91926 18.8337V18.8396M3.91926 18.8396V18.8456M3.91926 18.8396V18.8456M3.91926 18.8456V18.8515M3.91926 18.8456V18.8515M3.91926 18.8515V18.8574M3.91926 18.8515V18.8574M3.91926 18.8574V18.8634M3.91926 18.8574V18.8634M3.91926 18.8634V18.8693M3.91926 18.8634V18.8693M3.91926 18.8693V18.8752M3.91926 18.8693V18.8752M3.91926 18.8752V18.8812M3.91926 18.8752V18.8812M3.91926 18.8812V18.8871M3.91926 18.8812V18.8871M3.91926 18.8871V18.893M3.91926 18.8871V18.893M3.91926 18.893V18.899M3.91926 18.893V18.899M3.91926 18.899V18.9049M3.91926 18.899V18.9049M3.91926 18.9049V18.9108M3.91926 18.9049V18.9108M3.91926 18.9108V18.9168M3.91926 18.9108V18.9168M3.91926 18.9168V18.9227M3.91926 18.9168V18.9227M3.91926 18.9227V18.9286M3.91926 18.9227V18.9286M3.91926 18.9286V18.9346M3.91926 18.9286V18.9346M3.91926 18.9346V18.9405M3.91926 18.9346V18.9405M3.91926 18.9405V18.9464M3.91926 18.9405V18.9464M3.91926 18.9464V18.9524M3.91926 18.9464V18.9524M3.91926 18.9524V18.9583M3.91926 18.9524V18.9583M3.91926 18.9583V18.9642M3.91926 18.9583V18.9642M3.91926 18.9642V18.9702M3.91926 18.9642V18.9702M3.91926 18.9702V18.9761M3.91926 18.9702V18.9761M3.91926 18.9761V18.982M3.91926 18.9761V18.982M3.91926 18.982V18.988M3.91926 18.982V18.988M3.91926 18.988V18.9939M3.91926 18.988V18.9939M3.91926 18.9939V18.9998M3.91926 18.9939V18.9998M3.91926 18.9998V19.0058M3.91926 18.9998V19.0058M3.91926 19.0058V19.0117M3.91926 19.0058V19.0117M3.91926 19.0117V19.0176M3.91926 19.0117V19.0176M3.91926 19.0176V19.0236M3.91926 19.0176V19.0236M3.91926 19.0236V19.0295M3.91926 19.0236V19.0295M3.91926 19.0295V19.0354M3.91926 19.0295V19.0354M3.91926 19.0354V19.0414M3.91926 19.0354V19.0414M3.91926 19.0414V19.0473M3.91926 19.0414V19.0473M3.91926 19.0473V19.0532M3.91926 19.0473V19.0532M3.91926 19.0532V19.0592M3.91926 19.0532V19.0592M3.91926 19.0592V19.0651M3.91926 19.0592V19.0651M3.91926 19.0651V19.071M3.91926 19.0651V19.071M3.91926 19.071V19.077M3.91926 19.071V19.077M3.91926 19.077V19.0829M3.91926 19.077V19.0829M3.91926 19.0829V19.0888M3.91926 19.0829V19.0888M3.91926 19.0888V19.0948M3.91926 19.0888V19.0948M3.91926 19.0948V19.1007M3.91926 19.0948V19.1007M3.91926 19.1007V19.1066M3.91926 19.1007V19.1066M3.91926 19.1066V19.1126M3.91926 19.1066V19.1126M3.91926 19.1126V19.1185M3.91926 19.1126V19.1185M3.91926 19.1185V19.1244M3.91926 19.1185V19.1244M3.91926 19.1244V19.1304M3.91926 19.1244V19.1304M3.91926 19.1304V19.1363M3.91926 19.1304V19.1363M3.91926 19.1363V19.1422M3.91926 19.1363V19.1422M3.91926 19.1422V19.1482M3.91926 19.1422V19.1482M3.91926 19.1482V19.1541M3.91926 19.1482V19.1541M3.91926 19.1541V19.1601M3.91926 19.1541V19.1601M3.91926 19.1601V19.166M3.91926 19.1601V19.166M3.91926 19.166V19.1719M3.91926 19.166V19.1719M3.91926 19.1719V19.1779M3.91926 19.1719V19.1779M3.91926 19.1779V19.1838M3.91926 19.1779V19.1838M3.91926 19.1838V19.1897M3.91926 19.1838V19.1897M3.91926 19.1897V19.1957M3.91926 19.1897V19.1957M3.91926 19.1957V19.2016M3.91926 19.1957V19.2016M3.91926 19.2016V19.2075M3.91926 19.2016V19.2075M3.91926 19.2075V19.2135M3.91926 19.2075V19.2135M3.91926 19.2135V19.2194M3.91926 19.2135V19.2194M3.91926 19.2194V19.2253M3.91926 19.2194V19.2253M3.91926 19.2253V19.2313M3.91926 19.2253V19.2313M3.91926 19.2313V19.2372M3.91926 19.2313V19.2372M3.91926 19.2372V19.2431M3.91926 19.2372V19.2431M3.91926 19.2431V19.2491M3.91926 19.2431V19.2491M3.91926 19.2491V19.255M3.91926 19.2491V19.255M3.91926 19.255V19.2609M3.91926 19.255V19.2609M3.91926 19.2609V19.2669M3.91926 19.2609V19.2669M3.91926 19.2669V19.2728M3.91926 19.2669V19.2728M3.91926 19.2728V19.2787M3.91926 19.2728V19.2787M3.91926 19.2787V19.2847M3.91926 19.2787V19.2847M3.91926 19.2847V19.2906M3.91926 19.2847V19.2906M3.91926 19.2906V19.2965M3.91926 19.2906V19.2965M3.91926 19.2965V19.3025M3.91926 19.2965V19.3025M3.91926 19.3025V19.3084M3.91926 19.3025V19.3084M3.91926 19.3084V19.3143M3.91926 19.3084V19.3143M3.91926 19.3143V19.3203M3.91926 19.3143V19.3203M3.91926 19.3203V19.3262M3.91926 19.3203V19.3262M3.91926 19.3262V19.3321M3.91926 19.3262V19.3321M3.91926 19.3321V19.3381M3.91926 19.3321V19.3381M3.91926 19.3381V19.344M3.91926 19.3381V19.344M3.91926 19.344V19.3499M3.91926 19.344V19.3499M3.91926 19.3499V19.3559M3.91926 19.3499V19.3559M3.91926 19.3559V19.3618M3.91926 19.3559V19.3618M3.91926 19.3618V19.3677M3.91926 19.3618V19.3677M3.91926 19.3677V19.3737M3.91926 19.3677V19.3737M3.91926 19.3737V19.3796M3.91926 19.3737V19.3796M3.91926 19.3796V19.3855M3.91926 19.3796V19.3855M3.91926 19.3855V19.3915M3.91926 19.3855V19.3915M3.91926 19.3915V19.3974M3.91926 19.3915V19.3974M3.91926 19.3974V19.4034M3.91926 19.3974V19.4034M3.91926 19.4034V19.4093M3.91926 19.4034V19.4093M3.91926 19.4093V19.4152M3.91926 19.4093V19.4152M3.91926 19.4152V19.4212M3.91926 19.4152V19.4212M3.91926 19.4212V19.4271M3.91926 19.4212V19.4271M3.91926 19.4271V19.433M3.91926 19.4271V19.433M3.91926 19.433V19.439M3.91926 19.433V19.439M3.91926 19.439V19.4449M3.91926 19.439V19.4449M3.91926 19.4449V19.4508M3.91926 19.4449V19.4508M3.91926 19.4508V19.4568M3.91926 19.4508V19.4568M3.91926 19.4568V19.4627M3.91926 19.4568V19.4627M3.91926 19.4627V19.4686M3.91926 19.4627V19.4686M3.91926 19.4686V19.4746M3.91926 19.4686V19.4746M3.91926 19.4746V19.4805M3.91926 19.4746V19.4805M3.91926 19.4805V19.4864M3.91926 19.4805V19.4864M3.91926 19.4864V19.4924M3.91926 19.4864V19.4924M3.91926 19.4924V19.4983M3.91926 19.4924V19.4983M3.91926 19.4983V19.5042M3.91926 19.4983V19.5042M3.91926 19.5042V19.5102M3.91926 19.5042V19.5102M3.91926 19.5102V19.5161M3.91926 19.5102V19.5161M3.91926 19.5161V19.522M3.91926 19.5161V19.522M3.91926 19.522V19.528M3.91926 19.522V19.528M3.91926 19.528V19.5339M3.91926 19.528V19.5339M3.91926 19.5339V19.5398M3.91926 19.5339V19.5398M3.91926 19.5398V19.5458M3.91926 19.5398V19.5458M3.91926 19.5458V19.5517M3.91926 19.5458V19.5517M3.91926 19.5517V19.5577M3.91926 19.5517V19.5577M3.91926 19.5577V19.5636M3.91926 19.5577V19.5636M3.91926 19.5636V19.5695M3.91926 19.5636V19.5695M3.91926 19.5695V19.5755M3.91926 19.5695V19.5755M3.91926 19.5755V19.5814M3.91926 19.5755V19.5814M3.91926 19.5814V19.5873M3.91926 19.5814V19.5873M3.91926 19.5873V19.5933M3.91926 19.5873V19.5933M3.91926 19.5933V19.5992M3.91926 19.5933V19.5992M3.91926 19.5992V19.6051M3.91926 19.5992V19.6051M3.91926 19.6051V19.6111M3.91926 19.6051V19.6111M3.91926 19.6111V19.617M3.91926 19.6111V19.617M3.91926 19.617V19.6229M3.91926 19.617V19.6229M3.91926 19.6229V19.6289M3.91926 19.6229V19.6289M3.91926 19.6289V19.6348M3.91926 19.6289V19.6348M3.91926 19.6348V19.6407M3.91926 19.6348V19.6407M3.91926 19.6407V19.6467M3.91926 19.6407V19.6467M3.91926 19.6467V19.6526M3.91926 19.6467V19.6526M3.91926 19.6526V19.6585M3.91926 19.6526V19.6585M3.91926 19.6585V19.6645M3.91926 19.6585V19.6645M3.91926 19.6645V19.6704M3.91926 19.6645V19.6704M3.91926 19.6704V19.6763M3.91926 19.6704V19.6763M3.91926 19.6763V19.9268V19.6763Z" fill="#0255A3" stroke="white" stroke-width="0.3"/>
<path d="M13.3238 14.2516C13.2875 14.2879 13.2487 14.3234 13.2011 14.3669C13.1815 14.3847 13.1605 14.404 13.1376 14.4252L12.8824 14.6803V14.3182V14.0504V14.0293V14.0082V13.987V13.9659V13.9448V13.9236V13.9025V13.8814V13.8603V13.8391V13.818V13.7969V13.7757V13.7546V13.7335V13.7124V13.6912V13.6701V13.649V13.6278V13.6067V13.5856V13.5645V13.5433V13.5222V13.5011V13.4799V13.4588V13.4377V13.4166V13.3954V13.3743V13.3532V13.332V13.3109V13.2898V13.2687V13.2475V13.2264V13.2053V13.1841V13.163V13.1419V13.1208V13.0996V13.0785V13.0574V13.0362V13.0151V12.994V12.9729V12.9517V12.9306V12.9095V12.8883V12.8672V12.8461V12.8249V12.8038V12.7827V12.7616V12.7404V12.7193V12.6982V12.677V12.6559V12.6348V12.6137V12.5925V12.5714V12.5503V12.5291V12.508V12.4869V12.4658V12.4446V12.4235V12.4024V12.3812V12.3601V12.339V12.3179V12.2967V12.2756V12.2545V12.2333V12.2122V12.1911V12.1699V12.1488V12.1277V12.1066V12.0854V12.0643V12.0432V12.022V12.0009V11.9798V11.9587V11.9375V11.9164V11.8953V11.8741V11.853V11.8319V11.8107V11.7896V11.7685V11.7474V11.7262V11.7051V11.684V11.6628V11.6417V11.6206V11.5995V11.5783V11.5572V11.5361V11.5149V11.4938V11.4727V11.4515V11.4304V11.4093V11.3882V11.367V11.3459V11.3248V11.3036V11.2825V11.2614V11.2403V11.2191V11.198V11.1769V11.1557V11.1346V11.1135V11.0923V11.0712V11.0501V11.029V11.0078V10.9867V10.9656V10.9444V10.9233V10.9022V10.881V10.8599V10.8388V10.8177V10.7965V10.7754V10.7543V10.7331V10.712V10.6909V10.6697V10.6486V10.6275V10.6064V10.5852V10.5641V10.543V10.5218V10.5007V10.4796V10.4585V10.4373V10.4162V10.3951V10.3739V10.3528V10.3317V10.3105V10.2894V10.2683V10.2472V10.226V10.2049V10.1838V10.1626V10.1415V10.1204V10.0992V10.0781V10.057V10.0359V10.0147V9.9936V9.97247V9.95134V9.93021V9.90908V9.88795V9.86682V9.84569V9.82456V9.80343V9.7823V9.76117V9.74004V9.71891V9.69778V9.67665V9.65552V9.63439V9.61326V9.59213V9.571V9.54987V9.52874V9.50761V9.48648V9.46535V9.44422V9.42309V9.40196V9.38083V9.3597V9.33857V9.31744V9.29631V9.27518V9.25405V9.23292V9.21179V9.19066V9.16953V9.1484V9.12727V9.10614V9.08501V9.06388V9.04275V9.02162V9.00049V8.97936V8.95823V8.9371V8.91597V8.89484V8.87371V8.85258V8.83145V8.81032V8.78919V8.76806V8.74693V8.7258V8.70467V8.68354V8.66241V8.64128V8.62015V8.59902V8.57789V8.55676V8.53563V8.5145V8.49337V8.47224V8.45111V8.42998V8.40885V8.38772V8.36659V8.34546V8.32433V8.3032V8.28207V8.26094V8.23981V8.21868V8.19755V8.17642V8.15529V8.13416V8.11303V8.0919V8.07077V8.04964V8.02851V8.00738V7.98625V7.96512V7.94399V7.92286V7.90173V7.8806V7.85947V7.83834V7.81721V7.79608V7.77495V7.75382V7.73269V7.71156V7.69043V7.6693V7.64817V7.62704V7.60591V7.58478V7.56365V7.54252V7.52139V7.50026V7.47913V7.458V7.43687V7.41574V7.39461V7.37348V7.35235V7.33122V7.31009V7.28896V7.26783V7.2467V7.22557V7.20444V7.18331V7.16218V7.14105V7.11992V7.09879V7.07766V7.05653V7.0354V7.01427V6.99314V6.97201V6.95088V6.92975V6.90862V6.8875V6.86636V6.84524V6.82411V6.80298V6.78185V6.76072V6.73959V6.71846V6.69733V6.6762V6.65507V6.63394V6.61281V6.59168V6.57055V6.54942V6.52829V6.50716V6.48603V6.4649V6.44377V6.42264V6.40151V6.38038V6.35925V6.33812V6.31699V6.29586V6.27473V6.2536V6.23247V6.21134V6.19021V6.16908V6.14795V6.12682V6.1057V6.08457V6.06344V6.04231V6.02118V6.00005V5.97892V5.95779V5.93666V5.91553V5.8944V5.87327V5.85214V5.83101V5.80988V5.78875V5.76762V5.74649V5.72536V5.70423V5.6831V5.66197V5.64085V5.61972V5.59859V5.57746V5.55633V5.5352V5.51407V5.49294V5.47181V5.45068V5.42955V5.40842V5.38729V5.36616V5.34503V5.3239V5.30278V5.28165V5.26052V5.23939V5.21826V5.19713V5.176V5.15487V5.13374V5.11261V5.09148V5.07035V5.04922V5.02809V5.00697V4.98584V4.96471V4.94358V4.92245V4.90132V4.88019V4.85906V4.83793V4.8168V4.79567V4.77454V4.75342V4.73229V4.71116V4.69003V4.6689V4.64777V4.62664V4.60551V4.58438V4.56325V4.54212V4.521V4.49987V4.47874V4.45761V4.43648V4.41535V4.39422V4.37309V4.35196V4.33083V4.30971V4.28858V4.26745V4.24632V4.22519V4.20406V4.18293V4.1618V4.14068V4.11955V4.09842V4.07729V4.05616V4.03503V4.0139V3.99277V3.97164V3.95052V3.92939V3.90826V3.88713V3.866V3.84487V3.82374V3.80262V3.78149V3.76036V3.73923V3.7181V3.69697V3.67584V3.65472V3.63359V3.61246V3.59133V3.5702V3.54907V3.52794V3.50682V3.48569V3.46456V3.44343V3.4223V3.40117V3.38005V3.35892V3.33779V3.31666V3.29553V3.2744V3.25328V3.23215C12.8824 3.20631 12.8826 3.18175 12.8829 3.15803C12.8834 3.09628 12.8839 3.04028 12.8804 2.98264L12.8804 2.98223C12.8538 2.52126 12.4694 2.15484 12.0096 2.15042L12.0094 2.15042C11.5027 2.14506 11.1148 2.53629 11.1148 3.09913V3.12051V3.14189V3.16327V3.18465V3.20604V3.22742V3.2488V3.27018V3.29156V3.31294V3.33432V3.35571V3.37709V3.39847V3.41985V3.44123V3.46261V3.48399V3.50538V3.52676V3.54814V3.56952V3.5909V3.61228V3.63367V3.65505V3.67643V3.69781V3.71919V3.74057V3.76196V3.78334V3.80472V3.8261V3.84748V3.86887V3.89025V3.91163V3.93301V3.95439V3.97577V3.99716V4.01854V4.03992V4.0613V4.08268V4.10407V4.12545V4.14683V4.16821V4.18959V4.21098V4.23236V4.25374V4.27512V4.2965V4.31789V4.33927V4.36065V4.38203V4.40341V4.4248V4.44618V4.46756V4.48894V4.51032V4.53171V4.55309V4.57447V4.59585V4.61723V4.63862V4.66V4.68138V4.70276V4.72415V4.74553V4.76691V4.78829V4.80967V4.83106V4.85244V4.87382V4.8952V4.91659V4.93797V4.95935V4.98073V5.00211V5.0235V5.04488V5.06626V5.08764V5.10903V5.13041V5.15179V5.17317V5.19456V5.21594V5.23732V5.2587V5.28009V5.30147V5.32285V5.34423V5.36562V5.387V5.40838V5.42976V5.45115V5.47253V5.49391V5.51529V5.53668V5.55806V5.57944V5.60082V5.62221V5.64359V5.66497V5.68635V5.70774V5.72912V5.7505V5.77188V5.79327V5.81465V5.83603V5.85741V5.8788V5.90018V5.92156V5.94294V5.96433V5.98571V6.00709V6.02848V6.04986V6.07124V6.09262V6.11401V6.13539V6.15677V6.17815V6.19954V6.22092V6.2423V6.26368V6.28507V6.30645V6.32783V6.34922V6.3706V6.39198V6.41336V6.43475V6.45613V6.47751V6.4989V6.52028V6.54166V6.56304V6.58443V6.60581V6.62719V6.64857V6.66996V6.69134V6.71272V6.73411V6.75549V6.77687V6.79825V6.81964V6.84102V6.8624V6.88379V6.90517V6.92655V6.94794V6.96932V6.9907V7.01208V7.03347V7.05485V7.07623V7.09762V7.119V7.14038V7.16176V7.18315V7.20453V7.22591V7.2473V7.26868V7.29006V7.31144V7.33283V7.35421V7.37559V7.39698V7.41836V7.43974V7.46113V7.48251V7.50389V7.52527V7.54666V7.56804V7.58942V7.61081V7.63219V7.65357V7.67496V7.69634V7.71772V7.7391V7.76049V7.78187V7.80325V7.82464V7.84602V7.8674V7.88879V7.91017V7.93155V7.95293V7.97432V7.9957V8.01708V8.03847V8.05985V8.08123V8.10262V8.124V8.14538V8.16676V8.18815V8.20953V8.23091V8.2523V8.27368V8.29506V8.31645V8.33783V8.35921V8.38059V8.40198V8.42336V8.44474V8.46613V8.48751V8.50889V8.53028V8.55166V8.57304V8.59443V8.61581V8.63719V8.65857V8.67996V8.70134V8.72272V8.74411V8.76549V8.78687V8.80826V8.82964V8.85102V8.87241V8.89379V8.91517V8.93655V8.95794V8.97932V9.0007V9.02209V9.04347V9.06485V9.08624V9.10762V9.129V9.15038V9.17177V9.19315V9.21453V9.23592V9.2573V9.27868V9.30007V9.32145V9.34283V9.36421V9.3856V9.40698V9.42836V9.44975V9.47113V9.49251V9.5139V9.53528V9.55666V9.57804V9.59943V9.62081V9.64219V9.66358V9.68496V9.70634V9.72773V9.74911V9.77049V9.79187V9.81326V9.83464V9.85602V9.87741V9.89879V9.92017V9.94155V9.96294V9.98432V10.0057V10.0271V10.0485V10.0699V10.0912V10.1126V10.134V10.1554V10.1768V10.1981V10.2195V10.2409V10.2623V10.2837V10.3051V10.3264V10.3478V10.3692V10.3906V10.412V10.4334V10.4547V10.4761V10.4975V10.5189V10.5403V10.5617V10.583V10.6044V10.6258V10.6472V10.6686V10.69V10.7113V10.7327V10.7541V10.7755V10.7969V10.8183V10.8396V10.861V10.8824V10.9038V10.9252V10.9465V10.9679V10.9893V11.0107V11.0321V11.0535V11.0748V11.0962V11.1176V11.139V11.1604V11.1818V11.2031V11.2245V11.2459V11.2673V11.2887V11.3101V11.3314V11.3528V11.3742V11.3956V11.417V11.4383V11.4597V11.4811V11.5025V11.5239V11.5453V11.5666V11.588V11.6094V11.6308V11.6522V11.6736V11.6949V11.7163V11.7377V11.7591V11.7805V11.8019V11.8232V11.8446V11.866V11.8874V11.9088V11.9301V11.9515V11.9729V11.9943V12.0157V12.0371V12.0584V12.0798V12.1012V12.1226V12.144V12.1654V12.1867V12.2081V12.2295V12.2509V12.2723V12.2936V12.315V12.3364V12.3578V12.3792V12.4006V12.4219V12.4433V12.4647V12.4861V12.5075V12.5289V12.5502V12.5716V12.593V12.6144V12.6358V12.6571V12.6785V12.6999V12.7213V12.7427V12.7641V12.7854V12.8068V12.8282V12.8496V12.871V12.8923V12.9137V12.9351V12.9565V12.9779V12.9993V13.0206V13.042V13.0634V13.0848V13.1062V13.1275V13.1489V13.1703V13.1917V13.2131V13.2345V13.2558V13.2772V13.2986V13.32V13.3414V13.3627V13.3841V13.4055V13.4269V13.4483V13.4697V13.491V13.5124V13.5338V13.5552V13.5766V13.5979V13.6193V13.6407V13.6621V13.6835V13.7049V13.7262V13.7476V13.769V13.7904V13.8118V13.8331V13.8545V13.8759V13.8973V13.9187V13.94V13.9614V13.9828V14.0042V14.0256V14.047V14.3153V14.6578L10.8631 14.4255C10.8386 14.4029 10.8159 14.3823 10.7948 14.3631C10.7494 14.3218 10.7112 14.287 10.6763 14.2521C10.6763 14.2521 10.6763 14.2521 10.6762 14.2521M13.3238 14.2516L10.6762 14.2521M13.3238 14.2516C13.5368 14.0389 13.749 13.8261 13.9611 13.6134C14.398 13.1752 14.8343 12.7376 15.2754 12.3038C15.5884 11.9962 16.0446 11.9588 16.3909 12.1907C16.7354 12.4214 16.8788 12.8699 16.7199 13.2424L16.7198 13.2425C16.6658 13.3694 16.5764 13.495 16.4734 13.5985L16.4733 13.5986C15.208 14.8728 13.9392 16.1428 12.6664 17.4095L12.7722 17.5158L12.6664 17.4095C12.4537 17.6211 12.2216 17.7174 11.9991 17.7171C11.7766 17.7168 11.5443 17.6199 11.3315 17.4078L11.3315 17.4078C10.054 16.1353 8.77941 14.8606 7.50767 13.5835L7.50766 13.5835C7.12022 13.1945 7.12245 12.648 7.48067 12.2957C7.83168 11.9505 8.37053 11.9535 8.75552 12.334C9.1977 12.7711 9.63665 13.2109 10.076 13.6512C10.2759 13.8515 10.4759 14.0518 10.6762 14.2521M13.3238 14.2516L10.6762 14.2521" fill="#0255A3" stroke="white" stroke-width="0.3"/>
</g>
<defs>
<clipPath id="clip0_2184_16554">
<rect width="20" height="20" fill="white" transform="translate(2 1.99988)"/>
</clipPath>
</defs>
</svg>
