<svg width="48" height="49" viewBox="0 0 48 49" fill="none" xmlns="http://www.w3.org/2000/svg">
<rect y="0.5" width="48" height="48" rx="24" fill="#0255A3"/>
<path d="M33 34.116V31.979C33 30.8455 32.5345 29.7584 31.706 28.9569C30.8774 28.1554 29.7537 27.7051 28.582 27.7051H19.7459C18.5742 27.7051 17.4504 28.1554 16.6219 28.9569C15.7934 29.7584 15.3279 30.8455 15.3279 31.979V34.116" stroke="white" stroke-width="1.5" stroke-linecap="round" stroke-linejoin="round"/>
<path d="M23.9872 23.4317C26.4273 23.4317 28.4053 21.5182 28.4053 19.1577C28.4053 16.7973 26.4273 14.8838 23.9872 14.8838C21.5472 14.8838 19.5692 16.7973 19.5692 19.1577C19.5692 21.5182 21.5472 23.4317 23.9872 23.4317Z" stroke="white" stroke-width="1.5" stroke-linecap="round" stroke-linejoin="round"/>
</svg>
