<svg width="108" height="77" viewBox="0 0 108 77" fill="none" xmlns="http://www.w3.org/2000/svg">
<g clip-path="url(#clip0_389_9305)">
<path d="M38.3059 13.8047C41.0947 11.593 43.8892 9.39066 46.68 7.18457C50.0156 10.4275 53.3815 13.6439 56.6944 16.9095C53.2585 14.2191 49.8831 11.4492 46.4908 8.70575C44.4455 10.594 42.3832 12.4614 40.3379 14.3496C39.6625 14.1642 38.9832 13.9883 38.3059 13.8047Z" fill="white"/>
<path d="M0 33.8685C6.74314 28.1962 13.4674 22.505 20.201 16.8252C23.2245 19.7238 26.2101 22.6658 29.2335 25.5663C30.2155 26.535 31.2466 27.4583 32.1737 28.48C28.3348 25.3658 24.53 22.2099 20.7043 19.0786C15.4994 23.5494 10.3172 28.043 5.12168 32.527C4.57678 32.9717 4.10189 33.5336 3.45482 33.8306C2.30826 33.9404 1.15035 33.8439 0 33.8685Z" fill="white"/>
<path d="M75.6162 33.0853C80.0927 28.5974 84.6544 24.1947 89.1574 19.7314C95.4351 25.3753 101.709 31.0268 108 36.6574C106.982 36.6877 105.968 36.8107 104.95 36.7747C104.653 36.7785 104.456 36.5193 104.241 36.3604C99.1245 31.6871 93.982 27.0403 88.8603 22.3765C84.4425 25.9391 80.0681 29.5624 75.6181 33.0853H75.6162Z" fill="white"/>
<path d="M60.3761 2.88252C61.5662 1.92326 62.7525 0.954552 63.9482 0.000976562C66.0143 1.01131 68.0709 2.04624 70.1313 3.07361C70.1219 3.45201 70.1105 3.8342 70.1048 4.21449C68.0539 3.21929 65.9992 2.23355 63.9501 1.23457C62.76 2.15787 61.5624 3.07172 60.3761 3.9988C60.3742 3.62608 60.3761 3.25524 60.3761 2.88252Z" fill="#0255A3"/>
<path d="M64.0352 2.50586C65.878 3.35537 67.7094 4.23138 69.5523 5.079C69.5882 6.43179 69.6128 7.78269 69.6185 9.13548C70.3942 9.12791 71.1699 9.12224 71.9495 9.12034C74.3012 11.3264 76.6227 13.5647 78.9764 15.7746C73.9266 16.9287 68.8768 18.0753 63.8327 19.2445C57.9258 14.0945 52.0228 8.9406 46.1253 3.77729C43.3403 5.68823 40.5798 7.63511 37.7683 9.50632C40.3358 7.19427 42.9089 4.88601 45.4745 2.57208C50.2064 3.68837 54.9383 4.80466 59.6741 5.9077C60.306 6.08744 61.0742 6.08366 61.5188 6.6437C62.391 7.58781 63.2632 8.53004 64.1184 9.48929C64.1108 7.16211 64.02 4.83493 64.0352 2.50775V2.50586Z" fill="#0255A3"/>
<path d="M4.22485 24.8654C9.32573 20.2886 14.4682 15.761 19.5861 11.2031C29.3603 13.5625 39.1363 15.9388 48.9124 18.2944C49.391 18.3871 49.6994 18.7958 50.0513 19.0985C52.1155 21.0794 54.2138 23.0244 56.2818 25.0035C57.5513 23.821 58.8454 22.6668 60.1263 21.4976C60.5766 21.0435 61.2596 21.0492 61.8424 20.8865C71.117 18.7712 80.3974 16.6881 89.6645 14.5558C92.9036 17.4487 96.1371 20.3472 99.3781 23.242C100.786 24.5418 102.279 25.7584 103.646 27.1036C98.5683 23.452 93.5563 19.7096 88.4933 16.0353C80.6263 23.5088 72.7442 30.9652 64.8734 38.4349C64.6615 38.6506 64.4099 38.8492 64.0882 38.7906C55.9393 38.7811 47.7885 38.679 39.6377 38.66C41.0397 37.4359 42.419 36.1853 43.8172 34.9536C35.7761 27.5899 27.754 20.2053 19.7167 12.8359C14.5439 16.8319 9.41654 20.8902 4.22675 24.8635L4.22485 24.8654Z" fill="#0255A3"/>
<path d="M46.7892 11.6445H48.2518C48.2518 12.1365 48.2537 12.6303 48.2574 13.1222C47.7655 13.1222 47.2755 13.1222 46.7874 13.1241C46.7874 12.6303 46.7892 12.1365 46.7892 11.6445Z" fill="#0255A3"/>
<path d="M44.9694 13.5273C45.4499 13.5254 45.9305 13.5254 46.4111 13.5254C46.4092 14.0135 46.4111 14.5036 46.413 14.9936C45.9305 14.9917 45.448 14.9917 44.9656 14.9917C44.9675 14.5036 44.9694 14.0135 44.9694 13.5273Z" fill="#0255A3"/>
<path d="M46.7894 13.5254C47.2757 13.5254 47.7657 13.5254 48.2557 13.5273C48.2538 14.0135 48.2538 14.5036 48.2576 14.9917H46.7856C46.7875 14.5036 46.7875 14.0135 46.7894 13.5254Z" fill="#0255A3"/>
<path d="M15.7566 25.6581C17.1453 25.6524 18.5322 25.6581 19.919 25.6543C19.9152 27.0374 19.9152 28.4185 19.919 29.8016C18.5303 29.8262 17.1434 29.7505 15.7566 29.8092C15.7585 28.4242 15.7585 27.0411 15.7566 25.6581Z" fill="#0255A3"/>
<path d="M20.9521 25.6658C22.3466 25.5939 23.741 25.6809 25.1354 25.6582C25.1335 27.0413 25.1335 28.4224 25.1373 29.8055C23.741 29.8055 22.3466 29.8093 20.9521 29.8017C20.954 28.4224 20.954 27.0451 20.9521 25.6658Z" fill="#0255A3"/>
<path d="M83.7161 28.9354C85.1748 28.9335 86.6354 28.9354 88.0923 28.9354C88.0885 30.3979 88.0885 31.8605 88.0923 33.323H83.7161C83.7217 31.8605 83.7198 30.3979 83.7161 28.9354Z" fill="#0255A3"/>
<path d="M89.1631 28.9354C90.6237 28.9354 92.0844 28.9335 93.5431 28.9354C93.5355 30.3979 93.5355 31.8605 93.5431 33.323H89.1631C89.165 31.8605 89.165 30.3979 89.1631 28.9354Z" fill="#0255A3"/>
<path d="M15.7566 30.9414C17.1453 30.9433 18.5341 30.9433 19.9228 30.9414C19.9152 32.3339 19.9152 33.7246 19.9247 35.1152C18.5341 35.1171 17.1453 35.119 15.7566 35.1152C15.7585 33.7246 15.7585 32.332 15.7566 30.9414Z" fill="#0255A3"/>
<path d="M20.9882 30.9654C22.3713 30.9049 23.7562 30.9616 25.1393 30.9408C25.1317 32.3334 25.1317 33.724 25.1412 35.1146C23.743 35.1165 22.3486 35.1184 20.9523 35.1146C20.9769 33.7297 20.9069 32.3466 20.9882 30.9654Z" fill="#0255A3"/>
<path d="M83.718 34.496C85.1768 34.4941 86.6336 34.496 88.0924 34.496C88.0886 35.9585 88.0886 37.4191 88.0924 38.8835C86.6336 38.8816 85.173 38.8835 83.718 38.8816C83.7199 37.4191 83.7218 35.9585 83.718 34.496Z" fill="#0255A3"/>
<path d="M89.1631 34.4941C90.6237 34.4979 92.0825 34.4941 93.5431 34.4979C93.5355 35.9586 93.5355 37.4211 93.5412 38.8836C92.0806 38.8817 90.6199 38.8836 89.1631 38.8817C89.1631 37.4192 89.165 35.9567 89.1631 34.4941Z" fill="#0255A3"/>
<path d="M44.9713 11.6445H46.4092C46.4092 12.1365 46.4111 12.6303 46.4111 13.1241C45.9287 13.1222 45.4481 13.1222 44.9675 13.1222C44.9675 12.6303 44.9694 12.1365 44.9713 11.6445Z" fill="#0355A3"/>
<path d="M16.0623 74.557C16.0623 74.8143 16.0623 75.0451 16.0661 75.2476C16.068 75.45 16.0718 75.6354 16.0756 75.8038C16.0794 75.94 16.1285 76.0233 16.2231 76.0536L16.891 76.2711L16.9099 76.5928C16.4351 76.5795 15.8466 76.5739 15.1447 76.5739C14.3955 76.5739 13.7276 76.5795 13.1411 76.5928L13.1089 76.2711L13.9698 76.0346C14.0776 76.0044 14.1344 75.9381 14.1438 75.836C14.1476 75.6657 14.1514 75.4727 14.1533 75.2608C14.1552 75.0489 14.1571 74.8143 14.1571 74.557V69.4391C14.1571 69.2253 14.1571 69.0304 14.1533 68.8544C14.1514 68.6785 14.1476 68.5177 14.1438 68.372C14.14 68.2603 14.0871 68.1903 13.9906 68.1601L13.1297 67.9103L13.1108 67.583C13.7105 67.6 14.3236 67.6095 14.9536 67.6095C15.086 67.6095 15.2506 67.6057 15.4474 67.6C15.6442 67.5944 15.8845 67.5868 16.1664 67.5773C16.4237 67.5698 16.6375 67.5622 16.8116 67.5584C16.9856 67.5546 17.12 67.5527 17.2202 67.5527C18.3195 67.5527 19.1444 67.7363 19.695 68.1052C20.2456 68.4741 20.5199 69.0115 20.5199 69.7172C20.5199 70.3548 20.3515 70.8694 20.0166 71.2611C19.6799 71.6527 19.1879 71.9536 18.5371 72.1636C18.8966 72.6933 19.1747 73.1247 19.3696 73.4539C19.5644 73.7831 19.7593 74.1067 19.9561 74.4264C20.1529 74.7462 20.3326 75.0262 20.4915 75.2703C20.6505 75.5143 20.8037 75.7073 20.9437 75.8473C21.0213 75.9117 21.0951 75.9665 21.1651 76.0138C21.2351 76.0611 21.3089 76.1009 21.3865 76.1368C21.464 76.1709 21.5454 76.1992 21.6343 76.2238C21.7213 76.2484 21.8197 76.2692 21.9276 76.292L21.9541 76.6193C21.534 76.6798 21.0554 76.7101 20.5161 76.7101C20.0885 76.7101 19.7877 76.6817 19.6174 76.6268C19.4471 76.572 19.2939 76.4925 19.1614 76.3884C18.9647 76.2352 18.783 76.0327 18.6184 75.7849C18.4538 75.537 18.2798 75.257 18.0943 74.9429C17.9108 74.6308 17.7216 74.2997 17.5267 73.9477C17.3319 73.5977 17.1275 73.2496 16.9137 72.9071C16.8494 72.8087 16.7964 72.7274 16.7567 72.6631C16.7151 72.5987 16.6753 72.5514 16.6337 72.5193C16.5921 72.4871 16.5505 72.4644 16.5051 72.4474C16.4596 72.4322 16.4029 72.4228 16.3348 72.419L16.0661 72.4133V74.557H16.0623ZM16.0623 71.8533C16.2894 71.8665 16.4937 71.8722 16.6791 71.8722C17.2865 71.8722 17.7311 71.719 18.0149 71.4124C18.2987 71.1059 18.4387 70.6273 18.4387 69.9764C18.4387 69.3256 18.3025 68.8885 18.03 68.599C17.7576 68.3095 17.3356 68.1657 16.7624 68.1657C16.664 68.1657 16.558 68.1714 16.4445 68.179C16.331 68.1866 16.2042 68.1998 16.0623 68.2168V71.8514V71.8533Z" fill="white"/>
<path d="M24.0901 67.6093H25.7135C26.7541 67.6093 27.8325 67.6017 28.9507 67.5828L28.9961 67.6339L28.5988 69.7719L28.2526 69.823L27.842 68.2621H25.3578V71.6715H25.704C26.0768 71.6715 26.476 71.6677 26.9055 71.6582C27.0171 71.6544 27.089 71.5958 27.123 71.4842L27.3539 70.6044L27.7777 70.5855C27.7644 71.206 27.7588 71.6715 27.7588 71.978C27.7588 72.2845 27.7644 72.7367 27.7777 73.3516L27.3539 73.3837L27.1155 72.4794C27.0814 72.3639 27.0152 72.3034 26.9168 72.2996C26.4798 72.292 26.073 72.2864 25.6965 72.2864H25.3559V74.4887C25.3559 74.9598 25.3597 75.4252 25.3691 75.8888H27.9366L28.7464 74.1992L29.138 74.1405L28.9848 76.5415L28.9394 76.5869C27.8742 76.5737 26.8355 76.568 25.8251 76.568H24.1242C23.5717 76.568 23.0022 76.5737 22.4157 76.5869L22.3835 76.2653L23.2444 76.0288C23.3523 75.9985 23.409 75.9323 23.4185 75.8301C23.4223 75.6598 23.426 75.4668 23.4279 75.2549C23.4298 75.043 23.4317 74.8084 23.4317 74.5511V69.4332C23.4317 69.2194 23.4317 69.0245 23.4279 68.8486C23.426 68.6726 23.4223 68.5118 23.4185 68.3661C23.4147 68.2545 23.3617 68.1845 23.2652 68.1542L22.4044 67.9045L22.3854 67.5771C22.9852 67.5942 23.5547 67.6036 24.0939 67.6036L24.0901 67.6093Z" fill="white"/>
<path d="M32.1804 73.7228L31.7245 74.9243C31.6336 75.1608 31.5655 75.3481 31.5163 75.4919C31.4671 75.6357 31.4425 75.7454 31.4425 75.823C31.4425 75.9005 31.4615 75.9516 31.5012 75.9895C31.539 76.0273 31.5996 76.0576 31.6809 76.0784L32.2977 76.2581L32.3167 76.5911C31.6961 76.5779 31.1909 76.5722 30.8012 76.5722C30.4114 76.5722 29.9308 76.5779 29.4086 76.5911L29.3765 76.2695L30.0633 76.0633C30.226 76.016 30.3452 75.9384 30.4227 75.8286C30.5003 75.7189 30.5855 75.5524 30.6801 75.331L33.8776 67.5416L34.5719 67.4395L37.34 75.2478C37.4478 75.5467 37.5443 75.7492 37.6313 75.8551C37.7184 75.9611 37.8451 76.0368 38.0078 76.0841L38.6379 76.2695L38.6568 76.5911C38.0778 76.5779 37.497 76.5722 36.9105 76.5722C36.1347 76.5722 35.3798 76.5779 34.6438 76.5911L34.6117 76.2695L35.2474 76.0841C35.3325 76.0576 35.395 76.0254 35.4328 75.9876C35.4706 75.9497 35.4915 75.8911 35.4915 75.8135C35.4915 75.7284 35.4706 75.6167 35.4271 75.4767C35.3836 75.3367 35.3212 75.1551 35.2417 74.928L34.8179 73.7209H32.1861L32.1804 73.7228ZM33.5673 70.0372C33.4897 70.2604 33.4065 70.4913 33.3175 70.7297L32.4377 73.055H34.5814L33.7924 70.7372C33.7111 70.4932 33.6354 70.2604 33.5673 70.0372Z" fill="white"/>
<path d="M42.074 69.4145V74.4926C42.074 74.9638 42.0778 75.4292 42.0872 75.8927H44.5979L45.4777 74.0688L45.8694 74.0102L45.7085 76.5474L45.6631 76.5928C44.6055 76.5795 43.5725 76.5739 42.5621 76.5739H40.969C40.3314 76.5739 39.7411 76.5795 39.1962 76.5928L39.1641 76.2711L39.9606 76.0346C40.0684 76.0044 40.1252 75.9381 40.1347 75.836C40.1384 75.6657 40.1422 75.4727 40.1441 75.2608C40.146 75.0489 40.1479 74.8143 40.1479 74.557V69.4391C40.1479 69.2253 40.1479 69.0304 40.1441 68.8544C40.1422 68.6785 40.1384 68.5177 40.1347 68.372C40.1309 68.2603 40.0779 68.1903 39.9814 68.1601L39.1849 67.9103L39.166 67.583C39.7184 67.6 40.356 67.6095 41.0788 67.6095C41.8015 67.6095 42.4694 67.6019 43.0181 67.583L43.0503 67.9103L42.2537 68.1487C42.1516 68.1752 42.0948 68.2395 42.0872 68.3417C42.0834 68.495 42.0797 68.7144 42.0778 69.0001C42.0759 69.2839 42.074 69.422 42.074 69.4145Z" fill="white"/>
<path d="M51.3387 67.6093H52.962C54.0026 67.6093 55.0811 67.6017 56.1993 67.5828L56.2447 67.6339L55.8474 69.7719L55.5011 69.823L55.0905 68.2621H52.6063V71.6715H52.9526C53.3253 71.6715 53.7245 71.6677 54.154 71.6582C54.2656 71.6544 54.3375 71.5958 54.3716 71.4842L54.6024 70.6044L55.0262 70.5855C55.013 71.206 55.0073 71.6715 55.0073 71.978C55.0073 72.2845 55.013 72.7367 55.0262 73.3516L54.6024 73.3837L54.364 72.4794C54.3299 72.3639 54.2637 72.3034 54.1653 72.2996C53.7283 72.292 53.3215 72.2864 52.945 72.2864H52.6044V74.4887C52.6044 74.9598 52.6082 75.4252 52.6177 75.8888H55.1851L55.9949 74.1992L56.3866 74.1405L56.2333 76.5415L56.1879 76.5869C55.1227 76.5737 54.084 76.568 53.0737 76.568H51.3727C50.8203 76.568 50.2508 76.5737 49.6642 76.5869L49.6321 76.2653L50.4929 76.0288C50.6008 75.9985 50.6576 75.9323 50.667 75.8301C50.6708 75.6598 50.6746 75.4668 50.6765 75.2549C50.6784 75.043 50.6803 74.8084 50.6803 74.5511V69.4332C50.6803 69.2194 50.6803 69.0245 50.6765 68.8486C50.6746 68.6726 50.6708 68.5118 50.667 68.3661C50.6632 68.2545 50.6103 68.1845 50.5138 68.1542L49.6529 67.9045L49.634 67.5771C50.2337 67.5942 50.8032 67.6036 51.3425 67.6036L51.3387 67.6093Z" fill="white"/>
<path d="M61.9476 68.1941C61.6733 68.0863 61.3763 68.0333 61.0546 68.0333C60.6005 68.0333 60.2164 68.1657 59.9024 68.4306C59.5883 68.6955 59.4294 69.038 59.4294 69.458C59.4294 69.7115 59.4805 69.9272 59.5826 70.107C59.6848 70.2867 59.8229 70.4475 59.9932 70.5875C60.1654 70.7294 60.3602 70.8562 60.5816 70.9659C60.8011 71.0776 61.03 71.1892 61.2646 71.2989C61.5257 71.4238 61.7887 71.5581 62.0536 71.7076C62.3185 71.8552 62.5569 72.0311 62.7669 72.2336C62.9769 72.436 63.1472 72.6801 63.2777 72.962C63.4083 73.2439 63.4745 73.5864 63.4745 73.9894C63.4745 74.8578 63.1472 75.5408 62.4925 76.0384C61.8379 76.5341 60.9732 76.7839 59.8986 76.7839C59.1229 76.7839 58.3604 76.6628 57.6055 76.4187L57.5676 76.3601L57.9082 74.048L58.3055 73.9837L58.788 75.9476C59.0964 76.0895 59.4388 76.1595 59.8153 76.1595C60.3584 76.1595 60.7973 76.0214 61.1284 75.7452C61.4595 75.4689 61.626 75.1 61.626 74.6383C61.626 74.3772 61.5749 74.1559 61.4727 73.9742C61.3706 73.7926 61.2306 73.6299 61.0546 73.4861C60.8787 73.3423 60.68 73.2155 60.4567 73.1039C60.2335 72.9923 60.0026 72.8806 59.7624 72.769C59.5013 72.6404 59.2402 72.506 58.9791 72.3641C58.718 72.2222 58.4853 72.0519 58.279 71.8495C58.0728 71.6471 57.9063 71.4068 57.7776 71.1267C57.649 70.8467 57.5847 70.5081 57.5847 70.1088C57.5847 69.2915 57.8968 68.6406 58.5212 68.1563C59.1456 67.6719 59.9572 67.4316 60.9543 67.4316C61.5882 67.4316 62.309 67.53 63.1188 67.7268L63.1566 67.7854L62.765 69.8534L62.4112 69.9121L61.942 68.1922L61.9476 68.1941Z" fill="white"/>
<path d="M67.9109 76.5739C67.1578 76.5739 66.4389 76.5796 65.754 76.5928L65.7218 76.2712L66.7492 75.9893C66.857 75.9552 66.9119 75.8871 66.9157 75.7831C66.9232 75.4614 66.9289 75.049 66.9289 74.5438V68.2699H65.0804L64.4901 69.9784L64.1306 70.037L63.9641 67.636L64.0095 67.585C65.0615 67.602 66.0699 67.6115 67.0348 67.6115H68.8266C69.7896 67.6115 70.8037 67.6039 71.8689 67.585L71.9087 67.636L71.4849 69.9859L71.1254 70.0446L70.7073 68.2718H68.8512V74.5457C68.8512 75.0509 68.855 75.4633 68.8644 75.785C68.8682 75.8871 68.9269 75.9552 69.0385 75.9912L70.0469 76.2731L70.0659 76.5947C69.3545 76.5815 68.6374 76.5758 67.9146 76.5758L67.9109 76.5739Z" fill="white"/>
<path d="M73.6914 73.7228L73.2354 74.9243C73.1465 75.1608 73.0765 75.3481 73.0273 75.4919C72.9781 75.6357 72.9535 75.7454 72.9535 75.823C72.9535 75.9005 72.9725 75.9516 73.0122 75.9895C73.05 76.0273 73.1106 76.0576 73.1919 76.0784L73.8087 76.2581L73.8276 76.5911C73.2071 76.5779 72.7019 76.5722 72.3121 76.5722C71.9224 76.5722 71.4418 76.5779 70.9196 76.5911L70.8875 76.2695L71.5743 76.0633C71.737 76.016 71.8562 75.9384 71.9337 75.8286C72.0113 75.7189 72.0964 75.5524 72.191 75.331L75.3886 67.5416L76.081 67.4395L78.849 75.2478C78.9569 75.5467 79.0534 75.7492 79.1423 75.8551C79.2293 75.9592 79.3561 76.0368 79.5169 76.0841L80.147 76.2695L80.1659 76.5911C79.5888 76.5779 79.0061 76.5722 78.4196 76.5722C77.6438 76.5722 76.8889 76.5779 76.1529 76.5911L76.1208 76.2695L76.7565 76.0841C76.8416 76.0576 76.9041 76.0254 76.9438 75.9876C76.9816 75.9497 77.0024 75.8911 77.0024 75.8135C77.0024 75.7284 76.9816 75.6167 76.9381 75.4767C76.8946 75.3367 76.8341 75.1551 76.7508 74.928L76.327 73.7209H73.6952L73.6914 73.7228ZM75.0783 70.0372C75.0007 70.2604 74.9174 70.4913 74.8285 70.7297L73.9487 73.055H76.0943L75.3034 70.7372C75.2221 70.4932 75.1464 70.2604 75.0783 70.0372Z" fill="white"/>
<path d="M83.5278 76.5739C82.7748 76.5739 82.0558 76.5796 81.3709 76.5928L81.3387 76.2712L82.3661 75.9893C82.4739 75.9552 82.5288 75.8871 82.5326 75.7831C82.5402 75.4614 82.5458 75.049 82.5458 74.5438V68.2699H80.6973L80.107 69.9784L79.7476 70.037L79.5811 67.636L79.6265 67.585C80.6784 67.602 81.6869 67.6115 82.6518 67.6115H84.4435C85.4066 67.6115 86.4207 67.6039 87.4878 67.585L87.5256 67.636L87.1018 69.9859L86.7423 70.0446L86.3242 68.2718H84.4681V74.5457C84.4681 75.0509 84.4719 75.4633 84.4814 75.785C84.4852 75.8871 84.5438 75.9552 84.6554 75.9912L85.6639 76.2731L85.6828 76.5947C84.9714 76.5815 84.2543 76.5758 83.5316 76.5758L83.5278 76.5739Z" fill="white"/>
<path d="M89.8453 67.6093H91.4686C92.5092 67.6093 93.5877 67.6017 94.7059 67.5828L94.7513 67.6339L94.3539 69.7719L94.0077 69.823L93.5971 68.2621H91.1129V71.6715H91.4592C91.8319 71.6715 92.2311 71.6677 92.6606 71.6582C92.7722 71.6544 92.8441 71.5958 92.8782 71.4842L93.109 70.6044L93.5328 70.5855C93.5196 71.206 93.5139 71.6715 93.5139 71.978C93.5139 72.2845 93.5196 72.7367 93.5328 73.3516L93.109 73.3837L92.8706 72.4794C92.8365 72.3639 92.7703 72.3034 92.6719 72.2996C92.2349 72.292 91.8281 72.2864 91.4516 72.2864H91.111V74.4887C91.111 74.9598 91.1148 75.4252 91.1243 75.8888H93.6917L94.5015 74.1992L94.8932 74.1405L94.7399 76.5415L94.6945 76.5869C93.6293 76.5737 92.5906 76.568 91.5802 76.568H89.8793C89.3269 76.568 88.7574 76.5737 88.1708 76.5869L88.1387 76.2653L88.9995 76.0288C89.1074 75.9985 89.1641 75.9323 89.1736 75.8301C89.1774 75.6598 89.1812 75.4668 89.1831 75.2549C89.185 75.043 89.1868 74.8084 89.1868 74.5511V69.4332C89.1868 69.2194 89.1868 69.0245 89.1831 68.8486C89.1812 68.6726 89.1774 68.5118 89.1736 68.3661C89.1698 68.2545 89.1187 68.1845 89.0204 68.1542L88.1595 67.9045L88.1406 67.5771C88.7403 67.5942 89.3079 67.6036 89.8491 67.6036L89.8453 67.6093Z" fill="white"/>
<path d="M1.69727 42.4044C3.09168 42.4441 4.52583 42.465 5.99971 42.465C6.53704 42.446 7.37899 42.4158 8.52555 42.376C9.67022 42.3363 10.4573 42.3174 10.8868 42.3174C13.4069 42.3174 15.3065 42.7242 16.5874 43.5358C17.8664 44.3475 18.5078 45.5149 18.5078 47.0399C18.5078 49.4314 17.0926 51.085 14.264 52.0007C15.9082 52.2296 17.1758 52.8029 18.067 53.7187C18.9581 54.6363 19.4046 55.781 19.4046 57.1546C19.4046 59.1469 18.6024 60.6888 16.9999 61.7786C15.3955 62.8703 13.125 63.4152 10.1867 63.4152C9.60967 63.4152 9.00423 63.4001 8.3704 63.3698C7.73847 63.3396 6.94761 63.3244 6.0016 63.3244C4.54664 63.3244 3.13709 63.3396 1.77295 63.3698L1.69916 62.6225L3.70091 62.07C3.95066 62 4.08499 61.8468 4.10391 61.6065C4.11337 61.2073 4.12094 60.7626 4.12661 60.2688C4.13229 59.775 4.13418 59.2301 4.13418 58.6322V46.7239C4.13418 46.2263 4.13229 45.7722 4.12661 45.3635C4.12094 44.9549 4.11337 44.5821 4.10391 44.2435C4.09445 43.9842 3.97336 43.8196 3.74443 43.7496L1.74267 43.1669L1.69727 42.4044ZM8.58609 51.6375C9.09505 51.6469 9.57751 51.6526 10.0354 51.6526C11.3106 51.6526 12.2547 51.3461 12.8658 50.7331C13.4788 50.1201 13.7854 49.0813 13.7854 47.6188C13.7854 46.2433 13.4694 45.2576 12.8375 44.6597C12.2055 44.0618 11.2917 43.7629 10.0959 43.7629C9.90672 43.7629 9.68535 43.7704 9.43182 43.7856C9.17829 43.8007 8.89638 43.8291 8.58798 43.8688V51.6375H8.58609ZM8.58609 52.9827V61.9187C9.14424 62.0076 9.73076 62.053 10.3495 62.053C11.7136 62.053 12.7504 61.6576 13.458 60.8648C14.1656 60.0721 14.5195 58.9255 14.5195 57.4213C14.5195 55.9172 14.1619 54.799 13.4448 54.0668C12.7277 53.3346 11.566 52.9694 9.96348 52.9694C9.49615 52.9694 9.03639 52.9751 8.58798 52.9846L8.58609 52.9827Z" fill="#0255A3"/>
<path d="M21.9285 42.4044C23.3229 42.4441 24.757 42.465 26.2309 42.465C26.7682 42.446 27.6102 42.4158 28.7567 42.376C29.9014 42.3363 30.6885 42.3174 31.118 42.3174C33.6381 42.3174 35.5377 42.7242 36.8186 43.5358C38.0976 44.3475 38.739 45.5149 38.739 47.0399C38.739 49.4314 37.3238 51.085 34.4952 52.0007C36.1394 52.2296 37.407 52.8029 38.2982 53.7187C39.1893 54.6363 39.6358 55.781 39.6358 57.1546C39.6358 59.1469 38.8336 60.6888 37.2311 61.7786C35.6267 62.8703 33.3562 63.4152 30.4179 63.4152C29.8409 63.4152 29.2354 63.4001 28.6016 63.3698C27.9697 63.3396 27.1788 63.3244 26.2328 63.3244C24.7778 63.3244 23.3683 63.3396 22.0041 63.3698L21.9304 62.6225L23.9321 62.07C24.1819 62 24.3162 61.8468 24.3351 61.6065C24.3446 61.2073 24.3521 60.7626 24.3578 60.2688C24.3635 59.775 24.3654 59.2301 24.3654 58.6322V46.7239C24.3654 46.2263 24.3635 45.7722 24.3578 45.3635C24.3521 44.9549 24.3446 44.5821 24.3351 44.2435C24.3256 43.9842 24.2046 43.8196 23.9756 43.7496L21.9739 43.1669L21.9285 42.4044ZM28.8173 51.6375C29.3262 51.6469 29.8087 51.6526 30.2666 51.6526C31.5418 51.6526 32.4859 51.3461 33.097 50.7331C33.71 50.1201 34.0165 49.0813 34.0165 47.6188C34.0165 46.2433 33.7006 45.2576 33.0687 44.6597C32.4367 44.0618 31.5229 43.7629 30.3271 43.7629C30.1379 43.7629 29.9166 43.7704 29.663 43.7856C29.4095 43.8007 29.1276 43.8291 28.8192 43.8688V51.6375H28.8173ZM28.8173 52.9827V61.9187C29.3754 62.0076 29.962 62.053 30.5807 62.053C31.9448 62.053 32.9816 61.6576 33.6892 60.8648C34.3968 60.0739 34.7507 58.9255 34.7507 57.4213C34.7507 55.9172 34.3931 54.799 33.676 54.0668C32.9589 53.3346 31.7972 52.9694 30.1947 52.9694C29.7274 52.9694 29.2676 52.9751 28.8192 52.9846L28.8173 52.9827Z" fill="#0255A3"/>
<path d="M64.7507 52.4156C64.7507 55.8628 63.7347 58.6347 61.7027 60.731C59.6706 62.8274 56.8421 63.8755 53.2151 63.8755C49.5881 63.8755 47.0698 62.9068 45.1759 60.9694C43.2839 59.032 42.3379 56.4096 42.3379 53.1024C42.3379 49.7952 43.3596 46.9288 45.4011 44.9213C47.4425 42.9139 50.2673 41.9111 53.8735 41.9111C57.4797 41.9111 60.0188 42.8496 61.9127 44.7283C63.8047 46.6052 64.7507 49.1689 64.7507 52.4156ZM47.3593 52.6105C47.3593 55.7985 47.8966 58.2354 48.9732 59.925C50.0497 61.6127 51.6277 62.4584 53.7089 62.4584C55.7901 62.4584 57.2772 61.6922 58.2592 60.1577C59.2393 58.6233 59.7312 56.2129 59.7312 52.9264C59.7312 49.8387 59.2128 47.4661 58.1778 45.8068C57.141 44.1475 55.5385 43.3188 53.3664 43.3188C51.1944 43.3188 49.7376 44.0888 48.7878 45.6271C47.8361 47.1653 47.3612 49.4943 47.3612 52.6124L47.3593 52.6105Z" fill="#0255A3"/>
<path d="M76.1348 52.0129L79.0031 46.3047C79.2718 45.8071 79.4856 45.3833 79.6464 45.0352C79.8054 44.687 79.8867 44.4032 79.8867 44.1838C79.8867 43.8848 79.6635 43.6748 79.215 43.5556L77.8698 43.198L77.8244 42.4053C78.9293 42.445 80.091 42.4658 81.3057 42.4658C82.4107 42.4658 83.5023 42.4469 84.5789 42.4053L84.6527 43.1678L83.0691 43.6313C82.7115 43.7505 82.4334 43.9283 82.2404 44.1611C82.0474 44.3957 81.8487 44.6908 81.6501 45.0503L76.9295 53.7914V58.6331C76.9295 59.231 76.9314 59.774 76.9371 60.2621C76.9427 60.7503 76.9484 61.1892 76.9598 61.5771C76.9692 61.8363 77.1433 62.0103 77.482 62.1012L79.1564 62.6233L79.2018 63.3707C77.9171 63.3404 76.4319 63.3253 74.7499 63.3253C73.0679 63.3253 71.5127 63.3404 70.2374 63.3707L70.1636 62.6233L72.0159 62.0709C72.2657 62.0009 72.3981 61.8476 72.4189 61.6073C72.4284 61.2081 72.4397 60.7635 72.4492 60.2697C72.4587 59.7759 72.4643 59.231 72.4643 58.6331V54.1509L67.6094 45.4552C67.2405 44.8479 66.9397 44.4127 66.705 44.1478C66.4704 43.8829 66.1601 43.6918 65.7723 43.5726L64.3381 43.1696L64.2776 42.4072C65.2633 42.4469 66.6634 42.4677 68.476 42.4677C70.4683 42.4677 72.3565 42.4488 74.1388 42.4072L74.2126 43.1696L72.6876 43.5424C72.4587 43.5916 72.2903 43.6654 72.1805 43.76C72.0708 43.8546 72.0159 43.9756 72.0159 44.1251C72.0159 44.3351 72.0859 44.5887 72.2259 44.8876C72.3659 45.1865 72.5589 45.5403 72.8087 45.949L76.1405 52.0148L76.1348 52.0129Z" fill="#0255A3"/>
<path d="M106.303 52.4156C106.303 55.8628 105.287 58.6347 103.255 60.731C101.223 62.8274 98.3943 63.8755 94.7673 63.8755C91.1403 63.8755 88.6221 62.9068 86.73 60.9694C84.838 59.032 83.8901 56.4096 83.8901 53.1024C83.8901 49.7952 84.9118 46.9288 86.9533 44.9213C88.9948 42.9139 91.8196 41.9111 95.4239 41.9111C99.0281 41.9111 101.569 42.8496 103.463 44.7283C105.355 46.6052 106.301 49.1689 106.301 52.4156H106.303ZM88.9115 52.6105C88.9115 55.7985 89.4489 58.2354 90.5254 59.925C91.6001 61.6127 93.1799 62.4584 95.2611 62.4584C97.3424 62.4584 98.8295 61.6922 99.8114 60.1577C100.792 58.6233 101.283 56.2129 101.283 52.9264C101.283 49.8387 100.765 47.4661 99.7301 45.8068C98.6933 44.1475 97.0907 43.3188 94.9187 43.3188C92.7467 43.3188 91.2898 44.0888 90.34 45.6271C89.3883 47.1653 88.9134 49.4943 88.9134 52.6124L88.9115 52.6105Z" fill="#0255A3"/>
</g>
<defs>
<clipPath id="clip0_389_9305">
<rect width="108" height="76.7831" fill="white" transform="translate(0 0.000976562)"/>
</clipPath>
</defs>
</svg>
