<svg width="48" height="49" viewBox="0 0 48 49" fill="none" xmlns="http://www.w3.org/2000/svg">
<path d="M34.017 42.7744L14.017 42.7934C9.61699 42.7974 6.01399 39.2014 6.00899 34.8014L5.98999 14.8014C5.98599 10.4014 9.58199 6.79842 13.982 6.79342L33.982 6.77442C38.382 6.77042 41.985 10.3664 41.99 14.7664L42.009 34.7664C42.014 39.1674 38.417 42.7704 34.017 42.7744Z" fill="url(#paint0_radial_389_9353)"/>
<path d="M34.017 42.7744L14.017 42.7934C9.61699 42.7974 6.01399 39.2014 6.00899 34.8014L5.98999 14.8014C5.98599 10.4014 9.58199 6.79842 13.982 6.79342L33.982 6.77442C38.382 6.77042 41.985 10.3664 41.99 14.7664L42.009 34.7664C42.014 39.1674 38.417 42.7704 34.017 42.7744Z" fill="url(#paint1_radial_389_9353)"/>
<path d="M24 31.7842C20.141 31.7842 17 28.6442 17 24.7842C17 20.9242 20.141 17.7842 24 17.7842C27.859 17.7842 31 20.9242 31 24.7842C31 28.6442 27.859 31.7842 24 31.7842ZM24 19.7842C21.243 19.7842 19 22.0272 19 24.7842C19 27.5412 21.243 29.7842 24 29.7842C26.757 29.7842 29 27.5412 29 24.7842C29 22.0272 26.757 19.7842 24 19.7842Z" fill="white"/>
<path d="M31.5 18.7842C32.3284 18.7842 33 18.1126 33 17.2842C33 16.4558 32.3284 15.7842 31.5 15.7842C30.6716 15.7842 30 16.4558 30 17.2842C30 18.1126 30.6716 18.7842 31.5 18.7842Z" fill="white"/>
<path d="M30 37.7842H18C14.141 37.7842 11 34.6442 11 30.7842V18.7842C11 14.9242 14.141 11.7842 18 11.7842H30C33.859 11.7842 37 14.9242 37 18.7842V30.7842C37 34.6442 33.859 37.7842 30 37.7842ZM18 13.7842C15.243 13.7842 13 16.0272 13 18.7842V30.7842C13 33.5412 15.243 35.7842 18 35.7842H30C32.757 35.7842 35 33.5412 35 30.7842V18.7842C35 16.0272 32.757 13.7842 30 13.7842H18Z" fill="white"/>
<defs>
<radialGradient id="paint0_radial_389_9353" cx="0" cy="0" r="1" gradientUnits="userSpaceOnUse" gradientTransform="translate(19.38 42.8194) scale(44.899 44.899)">
<stop stop-color="#FFDD55"/>
<stop offset="0.328" stop-color="#FF543F"/>
<stop offset="0.348" stop-color="#FC5245"/>
<stop offset="0.504" stop-color="#E64771"/>
<stop offset="0.643" stop-color="#D53E91"/>
<stop offset="0.761" stop-color="#CC39A4"/>
<stop offset="0.841" stop-color="#C837AB"/>
</radialGradient>
<radialGradient id="paint1_radial_389_9353" cx="0" cy="0" r="1" gradientUnits="userSpaceOnUse" gradientTransform="translate(11.786 6.32472) scale(29.813 19.8644)">
<stop stop-color="#4168C9"/>
<stop offset="0.999" stop-color="#4168C9" stop-opacity="0"/>
</radialGradient>
</defs>
</svg>
