<svg width="24" height="24" viewBox="0 0 24 24" fill="none" xmlns="http://www.w3.org/2000/svg">
<g clip-path="url(#clip0_571_13152)">
<g clip-path="url(#clip1_571_13152)">
<g clip-path="url(#clip2_571_13152)">
<g clip-path="url(#clip3_571_13152)">
<path d="M9 21.375H15" stroke="#0255A3" stroke-width="1.5" stroke-linecap="round" stroke-linejoin="round"/>
<path d="M5.26904 9.74994C5.2678 8.86045 5.44262 7.97951 5.78343 7.1579C6.12424 6.33628 6.6243 5.59025 7.25477 4.9628C7.88525 4.33535 8.63368 3.83889 9.45693 3.50204C10.2802 3.16519 11.1619 2.99461 12.0514 3.00013C15.763 3.02772 18.7317 6.11275 18.7317 9.83468V10.1249C18.7317 13.4827 19.4342 15.4311 20.0529 16.496C20.1196 16.6098 20.1551 16.7392 20.1558 16.871C20.1565 17.0029 20.1224 17.1326 20.0569 17.2471C19.9915 17.3616 19.8971 17.4568 19.7831 17.5232C19.6691 17.5895 19.5397 17.6246 19.4078 17.6249H4.59222C4.46034 17.6246 4.33087 17.5895 4.21689 17.5231C4.1029 17.4568 4.00844 17.3616 3.94301 17.247C3.87759 17.1325 3.84352 17.0028 3.84425 16.8709C3.84498 16.739 3.88048 16.6096 3.94716 16.4959C4.56622 15.4309 5.26904 13.4825 5.26904 10.1249L5.26904 9.74994Z" stroke="#0255A3" stroke-width="1.5" stroke-linecap="round" stroke-linejoin="round"/>
</g>
</g>
</g>
</g>
<defs>
<clipPath id="clip0_571_13152">
<rect width="24" height="24" fill="white"/>
</clipPath>
<clipPath id="clip1_571_13152">
<rect width="24" height="24" fill="white"/>
</clipPath>
<clipPath id="clip2_571_13152">
<rect width="24" height="24" fill="white"/>
</clipPath>
<clipPath id="clip3_571_13152">
<rect width="24" height="24" fill="white"/>
</clipPath>
</defs>
</svg>
