<svg width="48" height="49" viewBox="0 0 48 49" fill="none" xmlns="http://www.w3.org/2000/svg">
<rect y="0.5" width="48" height="48" rx="24" fill="#0255A3"/>
<path d="M22.5752 15.4463C23.3586 14.651 24.6414 14.651 25.4248 15.4463L26.4681 16.5053C26.8477 16.8906 27.367 17.1058 27.9078 17.1017L29.3945 17.0906C30.5108 17.0822 31.4178 17.9892 31.4094 19.1055L31.3983 20.5922C31.3942 21.133 31.6094 21.6523 31.9947 22.0319L33.0537 23.0752C33.849 23.8586 33.849 25.1414 33.0537 25.9248L31.9947 26.9681C31.6094 27.3477 31.3942 27.867 31.3983 28.4078L31.4094 29.8945C31.4178 31.0108 30.5108 31.9178 29.3945 31.9094L27.9078 31.8983C27.367 31.8942 26.8477 32.1094 26.4681 32.4947L25.4248 33.5537C24.6414 34.349 23.3586 34.349 22.5752 33.5537L21.5319 32.4947C21.1523 32.1094 20.633 31.8942 20.0921 31.8983L18.6055 31.9094C17.4892 31.9178 16.5822 31.0108 16.5906 29.8945L16.6017 28.4078C16.6058 27.867 16.3906 27.3477 16.0053 26.9681L14.9463 25.9248C14.151 25.1414 14.151 23.8586 14.9463 23.0752L16.0053 22.0319C16.3906 21.6523 16.6058 21.133 16.6017 20.5922L16.5906 19.1055C16.5822 17.9892 17.4892 17.0822 18.6055 17.0906L20.0922 17.1017C20.633 17.1058 21.1523 16.8906 21.5319 16.5053L22.5752 15.4463Z" stroke="white" stroke-width="2"/>
<path d="M28 22.5L23.625 26.5L21 24.6176" stroke="white" stroke-width="2" stroke-linecap="round" stroke-linejoin="round"/>
</svg>
