<svg width="14" height="8" viewBox="0 0 14 8" fill="none" xmlns="http://www.w3.org/2000/svg">
<g clip-path="url(#clip0_214_22969)">
<path d="M3.03409 7.84064L0.158546 4.94696C0.0570308 4.8448 -1.5127e-09 4.70625 0 4.56178C1.5127e-09 4.41731 0.0570308 4.27876 0.158546 4.1766C0.260062 4.07444 0.397746 4.01705 0.541311 4.01705C0.684876 4.01705 0.82256 4.07444 0.924076 4.1766L3.41703 6.68528L9.90149 0.159547C10.003 0.0573907 10.1407 -3.04449e-09 10.2843 0C10.4278 3.04449e-09 10.5655 0.0573907 10.667 0.159547C10.7685 0.261703 10.8256 0.400256 10.8256 0.544727C10.8256 0.689197 10.7685 0.827751 10.667 0.929907L3.79927 7.84064C3.69778 7.94272 3.56016 8.00005 3.41668 8.00005C3.27319 8.00005 3.13558 7.94272 3.03409 7.84064Z" fill="#06A88E"/>
<path d="M6.20826 7.84065L4.77573 6.39909C4.67422 6.29693 4.61719 6.15838 4.61719 6.01391C4.61719 5.86943 4.67422 5.73088 4.77573 5.62873C4.87725 5.52657 5.01493 5.46918 5.1585 5.46918C5.30206 5.46918 5.43975 5.52657 5.54126 5.62873L6.58946 6.68353L13.0757 0.159557C13.1775 0.0591366 13.3146 0.00320501 13.4572 0.00391289C13.5997 0.00462076 13.7363 0.0619109 13.8371 0.163337C13.9379 0.264764 13.9949 0.402133 13.9957 0.545602C13.9965 0.689071 13.9409 0.827051 13.8412 0.929565L6.97344 7.84065C6.87195 7.94272 6.73434 8.00006 6.59085 8.00006C6.44737 8.00006 6.30975 7.94272 6.20826 7.84065Z" fill="#06A88E"/>
</g>
<defs>
<clipPath id="clip0_214_22969">
<rect width="14" height="8" fill="white"/>
</clipPath>
</defs>
</svg>
