<svg width="18" height="19" viewBox="0 0 18 19" fill="none" xmlns="http://www.w3.org/2000/svg">
<path d="M15 5.87656V13.4516C14.88 13.4291 14.7525 13.4141 14.625 13.4141C13.59 13.4141 12.75 14.2541 12.75 15.2891C12.75 15.4166 12.765 15.5441 12.7875 15.6641H5.2125C5.235 15.5441 5.25 15.4166 5.25 15.2891C5.25 14.2541 4.41 13.4141 3.375 13.4141C3.2475 13.4141 3.12 13.4291 3 13.4516V5.87656C3.12 5.89906 3.2475 5.91406 3.375 5.91406C4.41 5.91406 5.25 5.07406 5.25 4.03906C5.25 3.91156 5.235 3.78406 5.2125 3.66406H12.7875C12.765 3.78406 12.75 3.91156 12.75 4.03906C12.75 5.07406 13.59 5.91406 14.625 5.91406C14.7525 5.91406 14.88 5.89906 15 5.87656Z" stroke="#171A20" stroke-width="1.5" stroke-linecap="round" stroke-linejoin="round"/>
<path d="M5.25 4.03906C5.25 5.07406 4.41 5.91406 3.375 5.91406C3.2475 5.91406 3.12 5.89906 3 5.87656C2.145 5.70406 1.5 4.94656 1.5 4.03906C1.5 3.00406 2.34 2.16406 3.375 2.16406C4.2825 2.16406 5.04 2.80906 5.2125 3.66406C5.235 3.78406 5.25 3.91156 5.25 4.03906Z" stroke="#171A20" stroke-width="1.5" stroke-linecap="round" stroke-linejoin="round"/>
<path d="M16.5 4.03906C16.5 4.94656 15.855 5.70406 15 5.87656C14.88 5.89906 14.7525 5.91406 14.625 5.91406C13.59 5.91406 12.75 5.07406 12.75 4.03906C12.75 3.91156 12.765 3.78406 12.7875 3.66406C12.96 2.80906 13.7175 2.16406 14.625 2.16406C15.66 2.16406 16.5 3.00406 16.5 4.03906Z" stroke="#171A20" stroke-width="1.5" stroke-linecap="round" stroke-linejoin="round"/>
<path d="M5.25 15.2891C5.25 15.4166 5.235 15.5441 5.2125 15.6641C5.04 16.5191 4.2825 17.1641 3.375 17.1641C2.34 17.1641 1.5 16.3241 1.5 15.2891C1.5 14.3816 2.145 13.6241 3 13.4516C3.12 13.4291 3.2475 13.4141 3.375 13.4141C4.41 13.4141 5.25 14.2541 5.25 15.2891Z" stroke="#171A20" stroke-width="1.5" stroke-linecap="round" stroke-linejoin="round"/>
<path d="M16.5 15.2891C16.5 16.3241 15.66 17.1641 14.625 17.1641C13.7175 17.1641 12.96 16.5191 12.7875 15.6641C12.765 15.5441 12.75 15.4166 12.75 15.2891C12.75 14.2541 13.59 13.4141 14.625 13.4141C14.7525 13.4141 14.88 13.4291 15 13.4516C15.855 13.6241 16.5 14.3816 16.5 15.2891Z" stroke="#171A20" stroke-width="1.5" stroke-linecap="round" stroke-linejoin="round"/>
</svg>
