<svg width="18" height="19" viewBox="0 0 18 19" fill="none" xmlns="http://www.w3.org/2000/svg">
<g clip-path="url(#clip0_389_6178)">
<path d="M15.1972 17.4292L14.055 16.2868C15.6474 15.699 16.7867 14.1665 16.7867 12.3717V10.1421H17.4499C17.8091 10.1421 18.1001 9.85104 18.1001 9.49206C18.1002 9.13289 17.8091 8.84187 17.45 8.84187H16.6868H2.5137V3.24067C2.5137 2.77392 2.79201 2.35724 3.22322 2.17844L3.22324 2.17843C3.65083 2.00102 4.13804 2.09574 4.46816 2.41916C4.02122 3.20785 4.02383 4.18222 4.47902 4.96776C4.57336 5.13074 4.73816 5.24041 4.9248 5.26484C5.11157 5.28928 5.29894 5.22539 5.43197 5.09236L5.36125 5.02165L5.43197 5.09236L8.10996 2.41427C8.24304 2.2812 8.3067 2.09381 8.28225 1.90728C8.25783 1.72081 8.14831 1.5558 7.98536 1.46143C7.17906 0.994204 6.17428 1.00433 5.37515 1.48752C4.67204 0.800713 3.63469 0.60003 2.72512 0.97732C1.80681 1.35797 1.21324 2.24664 1.21324 3.24077V8.84187H0.550182C0.19111 8.84187 -0.1 9.13298 -0.1 9.49206C-0.1 9.85105 0.19112 10.1421 0.550182 10.1421H1.21324V12.3717C1.21324 14.1939 2.3875 15.7462 4.01858 16.3135L2.90314 17.4292C2.64921 17.6832 2.64934 18.0948 2.90324 18.3487L2.90327 18.3487C3.03026 18.4756 3.1967 18.5389 3.36296 18.5389C3.52914 18.5389 3.69577 18.4755 3.82268 18.3486L3.75197 18.2779L3.82269 18.3486L5.6268 16.5442H12.4736L14.2778 18.3485C14.2778 18.3485 14.2778 18.3486 14.2778 18.3486C14.4047 18.4756 14.5714 18.5389 14.7375 18.5389C14.9037 18.5389 15.0702 18.4755 15.1972 18.3486L15.1972 18.3486C15.4512 18.0948 15.4512 17.683 15.1972 17.4292ZM15.4865 12.3716C15.4865 13.9552 14.1979 15.2438 12.6142 15.2438H5.38575C3.80212 15.2438 2.51361 13.9553 2.51361 12.3716V10.2924C2.51361 10.2095 2.5809 10.1421 2.66385 10.1421H15.3362C15.4191 10.1421 15.4865 10.2095 15.4865 10.2924V12.3716Z" fill="#171A20" stroke="#171A20" stroke-width="0.2"/>
<path d="M7.13446 4.50832C7.23106 4.50832 7.32647 4.46923 7.39359 4.40066C7.46207 4.33345 7.50125 4.23812 7.50125 4.14153C7.50125 4.04493 7.46216 3.95079 7.39359 3.88231C7.25672 3.74545 7.01211 3.74545 6.87524 3.88231C6.80685 3.95079 6.76758 4.04493 6.76758 4.14153C6.76758 4.23812 6.80676 4.33354 6.87524 4.40066C6.94372 4.46923 7.03787 4.50832 7.13446 4.50832Z" fill="#171A20"/>
<path d="M8.39236 5.91919C8.46447 5.99003 8.55861 6.02549 8.65276 6.02549C8.74573 6.02549 8.83988 5.99003 8.91198 5.91919C9.05502 5.77489 9.05502 5.54378 8.91198 5.39957C8.76895 5.25654 8.53667 5.25654 8.39236 5.39957C8.24942 5.54388 8.24942 5.77489 8.39236 5.91919Z" fill="#171A20"/>
<path d="M8.15273 5.16005C8.29585 5.01701 8.29585 4.78473 8.15273 4.64161C8.00969 4.49739 7.77741 4.49739 7.63437 4.64161C7.49134 4.78473 7.49134 5.01701 7.63437 5.16005C7.70657 5.23097 7.79945 5.26771 7.8936 5.26771C7.98765 5.26762 8.0818 5.23097 8.15273 5.16005Z" fill="#171A20"/>
<path d="M9.04419 6.41803C9.04419 6.51453 9.08337 6.60877 9.15185 6.67725C9.22023 6.74564 9.31429 6.78482 9.41089 6.78482C9.50748 6.78482 9.60281 6.74564 9.67001 6.67725C9.73858 6.60877 9.77768 6.51462 9.77768 6.41803C9.77768 6.32143 9.73858 6.22729 9.67001 6.15881C9.53451 6.02185 9.28862 6.02185 9.15176 6.15881C9.08337 6.22729 9.04419 6.32134 9.04419 6.41803Z" fill="#171A20"/>
<path d="M6.19917 4.67584C6.13187 4.74432 6.09277 4.83846 6.09277 4.93506C6.09277 5.03156 6.13196 5.1258 6.19917 5.19419C6.26882 5.26267 6.36297 5.30185 6.45956 5.30185C6.55498 5.30185 6.65031 5.26267 6.71879 5.19419C6.78717 5.1258 6.82635 5.03166 6.82635 4.93506C6.82635 4.83846 6.78726 4.74432 6.71879 4.67584C6.58301 4.53888 6.33612 4.53888 6.19917 4.67584Z" fill="#171A20"/>
<path d="M6.73099 6.25422C6.76519 6.25422 6.7982 6.24932 6.83249 6.23952C7.02686 6.18447 7.13933 5.98157 7.08427 5.78593C7.02804 5.59147 6.82505 5.47901 6.63068 5.53524C6.43631 5.59029 6.32266 5.79328 6.3789 5.98765C6.42533 6.149 6.572 6.25422 6.73099 6.25422Z" fill="#171A20"/>
<path d="M7.00357 7.20666C7.03658 7.20666 7.07078 7.20176 7.10506 7.19196C7.29943 7.13573 7.4119 6.93275 7.35694 6.73838C7.30061 6.54392 7.09772 6.43027 6.90326 6.4865C6.70771 6.54273 6.59515 6.74563 6.65148 6.94C6.69801 7.10144 6.84466 7.20666 7.00357 7.20666Z" fill="#171A20"/>
<path d="M7.27621 8.15794C7.37272 8.15794 7.46696 8.11884 7.53544 8.05027C7.60382 7.98307 7.643 7.88774 7.643 7.79115C7.643 7.69455 7.60382 7.60041 7.53544 7.53193C7.39848 7.39497 7.15395 7.39624 7.017 7.53193C6.94852 7.60041 6.90942 7.69455 6.90942 7.79115C6.90942 7.88774 6.94852 7.98307 7.017 8.05027C7.08548 8.11875 7.17953 8.15794 7.27621 8.15794Z" fill="#171A20"/>
<path d="M7.69921 3.24414C7.63074 3.31134 7.59155 3.40676 7.59155 3.50335C7.59155 3.59995 7.63065 3.69409 7.69921 3.76248C7.7676 3.83087 7.86175 3.87014 7.95834 3.87014C8.05494 3.87014 8.14908 3.83096 8.21747 3.76248C8.28595 3.694 8.32513 3.59995 8.32513 3.50335C8.32513 3.40676 8.28595 3.31134 8.21747 3.24414C8.08061 3.10718 7.83608 3.10718 7.69921 3.24414Z" fill="#171A20"/>
<path d="M9.71906 4.48263C9.75698 4.49488 9.79616 4.50096 9.83525 4.50096C9.98808 4.50096 10.1311 4.40436 10.1836 4.25153C10.2485 4.05961 10.1444 3.85173 9.95271 3.78697C9.7606 3.72221 9.55281 3.82606 9.48805 4.01798C9.4232 4.20999 9.52714 4.41787 9.71906 4.48263Z" fill="#171A20"/>
<path d="M8.78011 4.16597C8.81929 4.1793 8.85838 4.18547 8.89748 4.18547C9.05039 4.18547 9.19334 4.08897 9.24467 3.93614C9.30961 3.74413 9.20549 3.53506 9.01366 3.47148C8.82174 3.40672 8.61386 3.50939 8.54901 3.70131C8.48434 3.89332 8.58819 4.10239 8.78011 4.16597Z" fill="#171A20"/>
<path d="M10.7741 4.81767C10.8707 4.81767 10.9648 4.77848 11.0333 4.71001C11.1018 4.64153 11.1409 4.54747 11.1409 4.44961C11.1409 4.35428 11.1018 4.25887 11.0333 4.19039C10.8964 4.0547 10.6518 4.0547 10.5149 4.19039C10.4464 4.25887 10.4072 4.35437 10.4072 4.44961C10.4072 4.5462 10.4464 4.64153 10.5149 4.71001C10.5835 4.77848 10.6775 4.81767 10.7741 4.81767Z" fill="#171A20"/>
</g>
<defs>
<clipPath id="clip0_389_6178">
<rect width="18" height="18" fill="white" transform="translate(0 0.664062)"/>
</clipPath>
</defs>
</svg>
