<svg width="87" height="62" viewBox="0 0 87 62" fill="none" xmlns="http://www.w3.org/2000/svg">
<g clip-path="url(#clip0_2008_3088)">
<path d="M30.8574 11.2665C33.104 9.4848 35.3551 7.71072 37.6032 5.93359C40.2902 8.54594 43.0016 11.137 45.6704 13.7676C42.9026 11.6003 40.1835 9.36897 37.4508 7.15899C35.8032 8.68006 34.1419 10.1844 32.4943 11.7054C31.9502 11.5561 31.4031 11.4143 30.8574 11.2665Z" fill="#808080"/>
<path d="M0 27.4283C5.43197 22.859 10.8487 18.2744 16.2731 13.699C18.7086 16.0339 21.1137 18.4039 23.5492 20.7404C24.3402 21.5208 25.1709 22.2645 25.9177 23.0876C22.8253 20.5789 19.7603 18.0366 16.6785 15.5142C12.4856 19.1157 8.31104 22.7355 4.1258 26.3477C3.68685 26.7058 3.3043 27.1585 2.78305 27.3978C1.85943 27.4862 0.926667 27.4085 0 27.4283Z" fill="#808080"/>
<path d="M60.9131 26.7973C64.5192 23.1821 68.1938 19.6354 71.8212 16.04C76.8783 20.5865 81.9323 25.1391 87 29.6748C86.18 29.6992 85.3631 29.7983 84.5431 29.7693C84.3038 29.7724 84.1453 29.5636 83.9715 29.4356C79.8503 25.671 75.7077 21.9277 71.5819 18.1708C68.0231 21.0407 64.4993 23.9594 60.9146 26.7973H60.9131Z" fill="#808080"/>
<path d="M48.6362 2.46772C49.5948 1.69499 50.5505 0.914642 51.5137 0.146484C53.1781 0.960366 54.8348 1.79406 56.4946 2.62166C56.4869 2.92648 56.4778 3.23436 56.4732 3.54071C54.8211 2.73902 53.1659 1.94495 51.5152 1.14021C50.5566 1.88398 49.5918 2.62014 48.6362 3.36696C48.6347 3.0667 48.6362 2.76798 48.6362 2.46772Z" fill="#0255A3"/>
<path d="M51.584 2.16431C53.0685 2.84864 54.5438 3.55431 56.0283 4.23711C56.0573 5.32686 56.0771 6.41509 56.0816 7.50483C56.7065 7.49874 57.3314 7.49416 57.9594 7.49264C59.8539 9.26977 61.724 11.0728 63.62 12.853C59.5521 13.7827 55.4842 14.7063 51.4209 15.6482C46.6626 11.4996 41.9073 7.34785 37.1566 3.18852C34.9131 4.72788 32.6894 6.2962 30.4246 7.80356C32.4928 5.94108 34.5656 4.08165 36.6323 2.21765C40.4441 3.11688 44.256 4.01612 48.0709 4.90468C48.5799 5.04947 49.1987 5.04642 49.5569 5.49756C50.2595 6.2581 50.9621 7.01712 51.651 7.78985C51.6449 5.91517 51.5718 4.0405 51.584 2.16583V2.16431Z" fill="#0255A3"/>
<path d="M3.40332 20.1766C7.51236 16.4897 11.6549 12.8425 15.7777 9.1709C23.6513 11.0715 31.5264 12.9858 39.4016 14.8833C39.7872 14.958 40.0356 15.2872 40.3191 15.5311C41.9819 17.1268 43.6722 18.6936 45.338 20.2879C46.3607 19.3353 47.4032 18.4056 48.4351 17.4637C48.7978 17.0979 49.348 17.1024 49.8174 16.9714C57.2887 15.2674 64.7645 13.5893 72.2297 11.8716C74.839 14.202 77.4437 16.537 80.0545 18.8689C81.1885 19.916 82.391 20.896 83.4929 21.9796C79.4022 19.0381 75.3648 16.0234 71.2862 13.0635C64.9489 19.0838 58.5994 25.0904 52.2591 31.1076C52.0884 31.2814 51.8857 31.4414 51.6266 31.3941C45.0622 31.3865 38.4963 31.3042 31.9303 31.289C33.0597 30.3029 34.1708 29.2954 35.2971 28.3032C28.8196 22.3713 22.3573 16.4227 15.8828 10.4862C11.7159 13.7052 7.58551 16.9744 3.40484 20.1751L3.40332 20.1766Z" fill="#0255A3"/>
<path d="M37.6915 9.52588H38.8696C38.8696 9.92215 38.8711 10.3199 38.8742 10.7162C38.4779 10.7162 38.0832 10.7162 37.6899 10.7177C37.6899 10.3199 37.6915 9.92215 37.6915 9.52588Z" fill="#0255A3"/>
<path d="M36.2255 11.0425C36.6126 11.041 36.9997 11.041 37.3868 11.041C37.3853 11.4342 37.3868 11.829 37.3884 12.2237C36.9997 12.2222 36.6111 12.2222 36.2224 12.2222C36.2239 11.829 36.2255 11.4342 36.2255 11.0425Z" fill="#0255A3"/>
<path d="M37.6915 11.041C38.0832 11.041 38.478 11.041 38.8727 11.0425C38.8712 11.4342 38.8712 11.829 38.8742 12.2222H37.6885C37.69 11.829 37.69 11.4342 37.6915 11.041Z" fill="#0255A3"/>
<path d="M12.6929 20.8151C13.8116 20.8105 14.9288 20.8151 16.0459 20.812C16.0429 21.9261 16.0429 23.0388 16.0459 24.1529C14.9272 24.1727 13.8101 24.1117 12.6929 24.159C12.6944 23.0433 12.6944 21.9292 12.6929 20.8151Z" fill="#0255A3"/>
<path d="M16.8782 20.8213C18.0015 20.7633 19.1247 20.8335 20.248 20.8152C20.2465 21.9293 20.2465 23.0419 20.2495 24.156C19.1247 24.156 18.0015 24.1591 16.8782 24.153C16.8797 23.0419 16.8797 21.9323 16.8782 20.8213Z" fill="#0255A3"/>
<path d="M67.438 23.4548C68.6131 23.4533 69.7897 23.4548 70.9633 23.4548C70.9602 24.6329 70.9602 25.8111 70.9633 26.9892H67.438C67.4426 25.8111 67.441 24.6329 67.438 23.4548Z" fill="#0255A3"/>
<path d="M71.8259 23.4548C73.0026 23.4548 74.1792 23.4533 75.3543 23.4548C75.3482 24.6329 75.3482 25.8111 75.3543 26.9892H71.8259C71.8275 25.8111 71.8275 24.6329 71.8259 23.4548Z" fill="#0255A3"/>
<path d="M12.6929 25.0706C13.8116 25.0721 14.9303 25.0721 16.049 25.0706C16.0429 26.1923 16.0429 27.3125 16.0505 28.4328C14.9303 28.4343 13.8116 28.4358 12.6929 28.4328C12.6944 27.3125 12.6944 26.1908 12.6929 25.0706Z" fill="#0255A3"/>
<path d="M16.9071 25.0902C18.0212 25.0414 19.1369 25.0871 20.251 25.0704C20.2449 26.1921 20.2449 27.3123 20.2525 28.4326C19.1262 28.4341 18.0029 28.4356 16.8781 28.4326C16.8979 27.3169 16.8415 26.2028 16.9071 25.0902Z" fill="#0255A3"/>
<path d="M67.4395 27.9343C68.6146 27.9327 69.7881 27.9343 70.9632 27.9343C70.9602 29.1124 70.9602 30.289 70.9632 31.4687C69.7881 31.4672 68.6115 31.4687 67.4395 31.4672C67.441 30.289 67.4425 29.1124 67.4395 27.9343Z" fill="#0255A3"/>
<path d="M71.8259 27.9329C73.0026 27.9359 74.1776 27.9329 75.3543 27.9359C75.3482 29.1125 75.3482 30.2907 75.3527 31.4688C74.1761 31.4673 72.9995 31.4688 71.8259 31.4673C71.8259 30.2892 71.8275 29.111 71.8259 27.9329Z" fill="#0255A3"/>
<path d="M36.2269 9.52588H37.3853C37.3853 9.92215 37.3868 10.3199 37.3868 10.7177C36.9981 10.7162 36.611 10.7162 36.2239 10.7162C36.2239 10.3199 36.2254 9.92215 36.2269 9.52588Z" fill="#0355A3"/>
<path d="M12.9382 60.206C12.9382 60.4133 12.9382 60.5992 12.9413 60.7623C12.9428 60.9254 12.9459 61.0748 12.9489 61.2104C12.952 61.3202 12.9916 61.3872 13.0678 61.4116L13.6058 61.5869L13.621 61.846C13.2385 61.8353 12.7645 61.8307 12.199 61.8307C11.5955 61.8307 11.0575 61.8353 10.585 61.846L10.5591 61.5869L11.2526 61.3964C11.3394 61.372 11.3852 61.3186 11.3928 61.2363C11.3958 61.0992 11.3989 60.9437 11.4004 60.773C11.4019 60.6023 11.4034 60.4133 11.4034 60.206V56.0833C11.4034 55.911 11.4034 55.7541 11.4004 55.6123C11.3989 55.4706 11.3958 55.341 11.3928 55.2237C11.3897 55.1337 11.3471 55.0773 11.2693 55.053L10.5758 54.8518L10.5606 54.5881C11.0438 54.6018 11.5376 54.6094 12.0451 54.6094C12.1518 54.6094 12.2844 54.6064 12.4429 54.6018C12.6014 54.5973 12.795 54.5912 13.0221 54.5835C13.2293 54.5774 13.4016 54.5713 13.5418 54.5683C13.682 54.5652 13.7902 54.5637 13.871 54.5637C14.7565 54.5637 15.421 54.7116 15.8646 55.0088C16.3081 55.306 16.5291 55.7388 16.5291 56.3073C16.5291 56.8209 16.3934 57.2355 16.1237 57.551C15.8524 57.8665 15.4561 58.1088 14.9318 58.278C15.2214 58.7048 15.4454 59.0523 15.6024 59.3175C15.7594 59.5827 15.9164 59.8433 16.0749 60.1009C16.2334 60.3584 16.3782 60.584 16.5062 60.7806C16.6342 60.9772 16.7577 61.1327 16.8705 61.2455C16.933 61.2973 16.9924 61.3415 17.0488 61.3796C17.1052 61.4177 17.1646 61.4497 17.2271 61.4787C17.2896 61.5061 17.3551 61.529 17.4268 61.5488C17.4969 61.5686 17.5761 61.5854 17.663 61.6036L17.6844 61.8673C17.346 61.9161 16.9604 61.9405 16.526 61.9405C16.1816 61.9405 15.9392 61.9176 15.8021 61.8734C15.6649 61.8292 15.5414 61.7652 15.4348 61.6814C15.2762 61.5579 15.1299 61.3948 14.9973 61.1952C14.8647 60.9955 14.7245 60.7699 14.5751 60.5169C14.4273 60.2655 14.2749 59.9987 14.1179 59.7153C13.9609 59.4333 13.7963 59.1529 13.6241 58.877C13.5723 58.7977 13.5296 58.7322 13.4976 58.6804C13.4641 58.6286 13.4321 58.5905 13.3985 58.5645C13.365 58.5386 13.3315 58.5203 13.2949 58.5066C13.2583 58.4944 13.2126 58.4868 13.1577 58.4838L12.9413 58.4792V60.206H12.9382ZM12.9382 58.028C13.1211 58.0387 13.2857 58.0433 13.4351 58.0433C13.9243 58.0433 14.2825 57.9198 14.5111 57.6729C14.7398 57.426 14.8525 57.0404 14.8525 56.5161C14.8525 55.9918 14.7428 55.6398 14.5233 55.4066C14.3039 55.1734 13.964 55.0575 13.5022 55.0575C13.4229 55.0575 13.3376 55.0621 13.2461 55.0682C13.1547 55.0743 13.0525 55.085 12.9382 55.0987V58.0265V58.028Z" fill="#808080"/>
<path d="M19.405 54.6094H20.7127C21.551 54.6094 22.4197 54.6033 23.3205 54.5881L23.3571 54.6292L23.037 56.3515L22.7581 56.3926L22.4274 55.1352H20.4262V57.8817H20.7051C21.0054 57.8817 21.327 57.8786 21.6729 57.871C21.7629 57.868 21.8208 57.8207 21.8482 57.7308L22.0341 57.0221L22.3755 57.0069C22.3649 57.5068 22.3603 57.8817 22.3603 58.1286C22.3603 58.3755 22.3649 58.7398 22.3755 59.2351L22.0341 59.261L21.8421 58.5325C21.8147 58.4395 21.7613 58.3908 21.6821 58.3877C21.33 58.3816 21.0023 58.377 20.699 58.377H20.4247V60.1511C20.4247 60.5306 20.4277 60.9056 20.4353 61.279H22.5036L23.1559 59.9179L23.4714 59.8707L23.3479 61.8048L23.3114 61.8414C22.4533 61.8307 21.6165 61.8261 20.8027 61.8261H19.4325C18.9874 61.8261 18.5287 61.8307 18.0562 61.8414L18.0303 61.5823L18.7237 61.3918C18.8106 61.3674 18.8563 61.314 18.864 61.2317C18.867 61.0945 18.8701 60.9391 18.8716 60.7684C18.8731 60.5977 18.8746 60.4087 18.8746 60.2014V56.0787C18.8746 55.9064 18.8746 55.7495 18.8716 55.6077C18.8701 55.466 18.867 55.3364 18.864 55.2191C18.8609 55.1291 18.8182 55.0727 18.7405 55.0484L18.047 54.8472L18.0318 54.5835C18.5149 54.5972 18.9737 54.6048 19.4081 54.6048L19.405 54.6094Z" fill="#808080"/>
<path d="M25.9223 59.534L25.555 60.5018C25.4819 60.6924 25.427 60.8432 25.3874 60.9591C25.3477 61.0749 25.3279 61.1633 25.3279 61.2258C25.3279 61.2883 25.3432 61.3294 25.3752 61.3599C25.4056 61.3904 25.4544 61.4148 25.52 61.4316L26.0168 61.5763L26.0321 61.8446C25.5322 61.8339 25.1252 61.8294 24.8112 61.8294C24.4973 61.8294 24.1101 61.8339 23.6895 61.8446L23.6636 61.5855L24.2168 61.4194C24.3479 61.3813 24.4439 61.3188 24.5064 61.2304C24.5689 61.142 24.6375 61.0079 24.7137 60.8295L27.2895 54.5547L27.8488 54.4724L30.0786 60.7625C30.1655 61.0033 30.2432 61.1664 30.3133 61.2517C30.3834 61.3371 30.4856 61.398 30.6166 61.4361L31.1242 61.5855L31.1394 61.8446C30.673 61.8339 30.2051 61.8294 29.7326 61.8294C29.1077 61.8294 28.4996 61.8339 27.9067 61.8446L27.8808 61.5855L28.3929 61.4361C28.4615 61.4148 28.5118 61.3889 28.5423 61.3584C28.5728 61.3279 28.5895 61.2807 28.5895 61.2182C28.5895 61.1496 28.5728 61.0597 28.5377 60.9469C28.5027 60.8341 28.4524 60.6878 28.3884 60.5049L28.047 59.5325H25.9269L25.9223 59.534ZM27.0395 56.565C26.977 56.7449 26.91 56.9308 26.8383 57.1229L26.1296 58.996H27.8564L27.2209 57.129C27.1553 56.9323 27.0944 56.7449 27.0395 56.565Z" fill="#808080"/>
<path d="M33.892 56.0635V60.1542C33.892 60.5337 33.895 60.9087 33.9026 61.2821H35.9251L36.6338 59.8128L36.9493 59.7656L36.8198 61.8094L36.7832 61.846C35.9312 61.8353 35.0991 61.8308 34.2852 61.8308H33.0019C32.4882 61.8308 32.0127 61.8353 31.5738 61.846L31.5479 61.5869L32.1895 61.3964C32.2764 61.372 32.3221 61.3187 32.3297 61.2364C32.3328 61.0992 32.3358 60.9437 32.3373 60.773C32.3389 60.6023 32.3404 60.4133 32.3404 60.2061V56.0833C32.3404 55.9111 32.3404 55.7541 32.3373 55.6123C32.3358 55.4706 32.3328 55.341 32.3297 55.2237C32.3267 55.1338 32.284 55.0774 32.2063 55.053L31.5646 54.8518L31.5494 54.5881C31.9944 54.6019 32.508 54.6095 33.0903 54.6095C33.6725 54.6095 34.2105 54.6034 34.6525 54.5881L34.6784 54.8518L34.0367 55.0438C33.9544 55.0652 33.9087 55.117 33.9026 55.1993C33.8996 55.3228 33.8965 55.4996 33.895 55.7297C33.8935 55.9583 33.892 56.0696 33.892 56.0635Z" fill="#808080"/>
<path d="M41.3555 54.6094H42.6632C43.5014 54.6094 44.3702 54.6033 45.2709 54.5881L45.3075 54.6292L44.9875 56.3515L44.7085 56.3926L44.3778 55.1352H42.3766V57.8817H42.6555C42.9558 57.8817 43.2774 57.8786 43.6234 57.871C43.7133 57.868 43.7712 57.8207 43.7986 57.7308L43.9846 57.0221L44.326 57.0069C44.3153 57.5068 44.3107 57.8817 44.3107 58.1286C44.3107 58.3755 44.3153 58.7398 44.326 59.2351L43.9846 59.261L43.7925 58.5325C43.7651 58.4395 43.7118 58.3908 43.6325 58.3877C43.2804 58.3816 42.9527 58.377 42.6494 58.377H42.3751V60.1511C42.3751 60.5306 42.3782 60.9056 42.3858 61.279H44.454L45.1063 59.9179L45.4218 59.8707L45.2984 61.8048L45.2618 61.8414C44.4037 61.8307 43.567 61.8261 42.7531 61.8261H41.3829C40.9379 61.8261 40.4791 61.8307 40.0066 61.8414L39.9807 61.5823L40.6742 61.3918C40.7611 61.3674 40.8068 61.314 40.8144 61.2317C40.8175 61.0945 40.8205 60.9391 40.822 60.7684C40.8236 60.5977 40.8251 60.4087 40.8251 60.2014V56.0787C40.8251 55.9064 40.8251 55.7495 40.822 55.6077C40.8205 55.466 40.8175 55.3364 40.8144 55.2191C40.8114 55.1291 40.7687 55.0727 40.691 55.0484L39.9975 54.8472L39.9822 54.5835C40.4654 54.5972 40.9241 54.6048 41.3585 54.6048L41.3555 54.6094Z" fill="#808080"/>
<path d="M49.9014 55.0805C49.6804 54.9937 49.4411 54.951 49.182 54.951C48.8162 54.951 48.5068 55.0577 48.2538 55.271C48.0008 55.4844 47.8728 55.7603 47.8728 56.0986C47.8728 56.3029 47.9139 56.4766 47.9962 56.6214C48.0785 56.7662 48.1898 56.8958 48.327 57.0085C48.4657 57.1229 48.6227 57.225 48.801 57.3134C48.9778 57.4033 49.1622 57.4932 49.3512 57.5816C49.5615 57.6822 49.7734 57.7904 49.9867 57.9108C50.2001 58.0297 50.3922 58.1715 50.5613 58.3345C50.7305 58.4976 50.8677 58.6942 50.9728 58.9213C51.078 59.1484 51.1314 59.4243 51.1314 59.7489C51.1314 60.4485 50.8677 60.9987 50.3403 61.3995C49.813 61.7989 49.1165 62.0001 48.2508 62.0001C47.6259 62.0001 47.0117 61.9025 46.4035 61.7059L46.373 61.6586L46.6474 59.7962L46.9675 59.7443L47.3561 61.3264C47.6045 61.4407 47.8804 61.4971 48.1837 61.4971C48.6211 61.4971 48.9747 61.3858 49.2414 61.1633C49.5082 60.9408 49.6423 60.6436 49.6423 60.2717C49.6423 60.0614 49.6011 59.883 49.5188 59.7367C49.4365 59.5904 49.3237 59.4593 49.182 59.3435C49.0403 59.2277 48.8802 59.1256 48.7004 59.0356C48.5205 58.9457 48.3346 58.8558 48.141 58.7659C47.9307 58.6622 47.7204 58.554 47.51 58.4397C47.2997 58.3254 47.1122 58.1882 46.9461 58.0251C46.78 57.8621 46.6459 57.6685 46.5422 57.4429C46.4386 57.2174 46.3868 56.9445 46.3868 56.6229C46.3868 55.9645 46.6382 55.4402 47.1412 55.0501C47.6442 54.6599 48.298 54.4663 49.1012 54.4663C49.6118 54.4663 50.1925 54.5456 50.8448 54.7041L50.8753 54.7513L50.5598 56.4172L50.2748 56.4644L49.8968 55.079L49.9014 55.0805Z" fill="#808080"/>
<path d="M54.7054 61.8307C54.0988 61.8307 53.5197 61.8353 52.9679 61.846L52.942 61.5868L53.7696 61.3598C53.8565 61.3323 53.9007 61.2775 53.9038 61.1936C53.9099 60.9345 53.9144 60.6023 53.9144 60.1953V55.1413H52.4254L51.9498 56.5176L51.6602 56.5649L51.5261 54.6308L51.5627 54.5896C52.4101 54.6033 53.2225 54.6109 53.9998 54.6109H55.4431C56.2189 54.6109 57.0358 54.6048 57.8939 54.5896L57.9259 54.6308L57.5845 56.5237L57.2949 56.571L56.9581 55.1429H55.4629V60.1968C55.4629 60.6038 55.466 60.936 55.4736 61.1951C55.4766 61.2775 55.5239 61.3323 55.6138 61.3613L56.4262 61.5884L56.4414 61.8475C55.8683 61.8368 55.2907 61.8322 54.7085 61.8322L54.7054 61.8307Z" fill="#808080"/>
<path d="M59.3615 59.534L58.9942 60.5018C58.9226 60.6924 58.8662 60.8432 58.8266 60.9591C58.7869 61.0749 58.7671 61.1633 58.7671 61.2258C58.7671 61.2883 58.7824 61.3294 58.8144 61.3599C58.8449 61.3904 58.8936 61.4148 58.9592 61.4316L59.456 61.5763L59.4713 61.8446C58.9714 61.8339 58.5644 61.8294 58.2504 61.8294C57.9365 61.8294 57.5493 61.8339 57.1287 61.8446L57.1028 61.5855L57.656 61.4194C57.7871 61.3813 57.8831 61.3188 57.9456 61.2304C58.0081 61.142 58.0767 61.0079 58.1529 60.8295L60.7287 54.5547L61.2865 54.4724L63.5163 60.7625C63.6032 61.0033 63.6809 61.1664 63.7525 61.2517C63.8226 61.3355 63.9248 61.398 64.0543 61.4361L64.5618 61.5855L64.5771 61.8446C64.1122 61.8339 63.6428 61.8294 63.1703 61.8294C62.5454 61.8294 61.9373 61.8339 61.3444 61.8446L61.3185 61.5855L61.8306 61.4361C61.8992 61.4148 61.9495 61.3889 61.9815 61.3584C62.012 61.3279 62.0288 61.2807 62.0288 61.2182C62.0288 61.1496 62.012 61.0597 61.9769 60.9469C61.9419 60.8341 61.8931 60.6878 61.826 60.5049L61.4846 59.5325H59.3646L59.3615 59.534ZM60.4787 56.565C60.4162 56.7449 60.3492 56.9308 60.2775 57.1229L59.5688 58.996H61.2972L60.6601 57.129C60.5945 56.9323 60.5336 56.7449 60.4787 56.565Z" fill="#808080"/>
<path d="M67.2855 61.8307C66.6789 61.8307 66.0998 61.8353 65.548 61.846L65.5221 61.5868L66.3497 61.3598C66.4366 61.3323 66.4808 61.2775 66.4838 61.1936C66.4899 60.9345 66.4945 60.6023 66.4945 60.1953V55.1413H65.0054L64.5299 56.5176L64.2403 56.5649L64.1062 54.6308L64.1428 54.5896C64.9902 54.6033 65.8026 54.6109 66.5799 54.6109H68.0232C68.799 54.6109 69.6159 54.6048 70.4755 54.5896L70.506 54.6308L70.1646 56.5237L69.875 56.571L69.5382 55.1429H68.043V60.1968C68.043 60.6038 68.0461 60.936 68.0537 61.1951C68.0567 61.2775 68.104 61.3323 68.1939 61.3613L69.0063 61.5884L69.0215 61.8475C68.4484 61.8368 67.8708 61.8322 67.2886 61.8322L67.2855 61.8307Z" fill="#808080"/>
<path d="M72.3745 54.6094H73.6822C74.5205 54.6094 75.3892 54.6033 76.29 54.5881L76.3266 54.6292L76.0065 56.3515L75.7276 56.3926L75.3969 55.1352H73.3957V57.8817H73.6746C73.9748 57.8817 74.2964 57.8786 74.6424 57.871C74.7323 57.868 74.7903 57.8207 74.8177 57.7308L75.0036 57.0221L75.345 57.0069C75.3344 57.5068 75.3298 57.8817 75.3298 58.1286C75.3298 58.3755 75.3344 58.7398 75.345 59.2351L75.0036 59.261L74.8116 58.5325C74.7842 58.4395 74.7308 58.3908 74.6516 58.3877C74.2995 58.3816 73.9718 58.377 73.6685 58.377H73.3942V60.1511C73.3942 60.5306 73.3972 60.9056 73.4048 61.279H75.4731L76.1254 59.9179L76.4409 59.8707L76.3174 61.8048L76.2808 61.8414C75.4228 61.8307 74.586 61.8261 73.7721 61.8261H72.402C71.9569 61.8261 71.4981 61.8307 71.0257 61.8414L70.9998 61.5823L71.6932 61.3918C71.7801 61.3674 71.8258 61.314 71.8335 61.2317C71.8365 61.0945 71.8395 60.9391 71.8411 60.7684C71.8426 60.5977 71.8441 60.4087 71.8441 60.2014V56.0787C71.8441 55.9064 71.8441 55.7495 71.8411 55.6077C71.8395 55.466 71.8365 55.3364 71.8335 55.2191C71.8304 55.1291 71.7893 55.0727 71.71 55.0484L71.0165 54.8472L71.0013 54.5835C71.4844 54.5972 71.9417 54.6048 72.3776 54.6048L72.3745 54.6094Z" fill="#808080"/>
<path d="M1.36719 34.3052C2.49047 34.3372 3.64575 34.354 4.83304 34.354C5.26589 34.3387 5.94413 34.3144 6.86775 34.2824C7.78984 34.2503 8.42388 34.2351 8.76985 34.2351C10.8 34.2351 12.3302 34.5628 13.362 35.2166C14.3923 35.8705 14.909 36.8109 14.909 38.0393C14.909 39.9658 13.769 41.2979 11.4904 42.0356C12.8149 42.22 13.836 42.6818 14.5539 43.4195C15.2718 44.1587 15.6315 45.0808 15.6315 46.1873C15.6315 47.7922 14.9852 49.0343 13.6943 49.9122C12.4018 50.7917 10.5729 51.2306 8.20593 51.2306C7.74107 51.2306 7.25335 51.2184 6.74277 51.194C6.23371 51.1696 5.59663 51.1574 4.83457 51.1574C3.66252 51.1574 2.52705 51.1696 1.42815 51.194L1.36871 50.592L2.98123 50.147C3.18242 50.0906 3.29063 49.9671 3.30587 49.7735C3.31349 49.452 3.31959 49.0938 3.32416 48.696C3.32873 48.2982 3.33026 47.8592 3.33026 47.3776V37.7848C3.33026 37.3839 3.32873 37.0182 3.32416 36.6889C3.31959 36.3597 3.31349 36.0595 3.30587 35.7867C3.29825 35.5779 3.20071 35.4453 3.01629 35.3889L1.40377 34.9194L1.36719 34.3052ZM6.91652 41.7429C7.32651 41.7506 7.71516 41.7551 8.084 41.7551C9.11126 41.7551 9.87179 41.5082 10.3641 41.0144C10.8579 40.5206 11.1048 39.6838 11.1048 38.5057C11.1048 37.3977 10.8503 36.6036 10.3412 36.122C9.83217 35.6403 9.09602 35.3995 8.13277 35.3995C7.98036 35.3995 7.80203 35.4056 7.5978 35.4178C7.39357 35.43 7.16648 35.4529 6.91804 35.4849V41.7429H6.91652ZM6.91652 42.8266V50.025C7.36614 50.0967 7.83861 50.1332 8.337 50.1332C9.43589 50.1332 10.2711 49.8147 10.8411 49.1761C11.4112 48.5375 11.6962 47.6139 11.6962 46.4022C11.6962 45.1905 11.4081 44.2897 10.8305 43.6999C10.2528 43.1101 9.31701 42.8159 8.02608 42.8159C7.64962 42.8159 7.27926 42.8205 6.91804 42.8281L6.91652 42.8266Z" fill="#0255A3"/>
<path d="M17.6646 34.3052C18.7878 34.3372 19.9431 34.354 21.1304 34.354C21.5633 34.3387 22.2415 34.3144 23.1651 34.2824C24.0872 34.2503 24.7212 34.2351 25.0672 34.2351C27.0973 34.2351 28.6276 34.5628 29.6594 35.2166C30.6897 35.8705 31.2064 36.8109 31.2064 38.0393C31.2064 39.9658 30.0663 41.2979 27.7878 42.0356C29.1122 42.22 30.1334 42.6818 30.8513 43.4195C31.5691 44.1587 31.9288 45.0808 31.9288 46.1873C31.9288 47.7922 31.2826 49.0343 29.9917 49.9122C28.6992 50.7917 26.8703 51.2306 24.5033 51.2306C24.0384 51.2306 23.5507 51.2184 23.0401 51.194C22.5311 51.1696 21.894 51.1574 21.1319 51.1574C19.9599 51.1574 18.8244 51.1696 17.7255 51.194L17.6661 50.592L19.2786 50.147C19.4798 50.0906 19.588 49.9671 19.6032 49.7735C19.6109 49.452 19.617 49.0938 19.6215 48.696C19.6261 48.2982 19.6276 47.8592 19.6276 47.3776V37.7848C19.6276 37.3839 19.6261 37.0182 19.6215 36.6889C19.617 36.3597 19.6109 36.0595 19.6032 35.7867C19.5956 35.5779 19.4981 35.4453 19.3137 35.3889L17.7011 34.9194L17.6646 34.3052ZM23.2139 41.7429C23.6239 41.7506 24.0125 41.7551 24.3814 41.7551C25.4086 41.7551 26.1692 41.5082 26.6614 41.0144C27.1553 40.5206 27.4022 39.6838 27.4022 38.5057C27.4022 37.3977 27.1476 36.6036 26.6386 36.122C26.1295 35.6403 25.3934 35.3995 24.4301 35.3995C24.2777 35.3995 24.0994 35.4056 23.8952 35.4178C23.6909 35.43 23.4638 35.4529 23.2154 35.4849V41.7429H23.2139ZM23.2139 42.8266V50.025C23.6635 50.0967 24.136 50.1332 24.6344 50.1332C25.7333 50.1332 26.5685 49.8147 27.1385 49.1761C27.7085 48.539 27.9935 47.6139 27.9935 46.4022C27.9935 45.1905 27.7055 44.2897 27.1278 43.6999C26.5502 43.1101 25.6144 42.8159 24.3234 42.8159C23.947 42.8159 23.5766 42.8205 23.2154 42.8281L23.2139 42.8266Z" fill="#0255A3"/>
<path d="M52.16 42.3692C52.16 45.1461 51.3415 47.379 49.7046 49.0677C48.0677 50.7564 45.7892 51.6008 42.8674 51.6008C39.9457 51.6008 37.9171 50.8204 36.3914 49.2597C34.8673 47.699 34.1052 45.5866 34.1052 42.9224C34.1052 40.2582 34.9283 37.9492 36.5728 36.3321C38.2173 34.715 40.4928 33.9072 43.3978 33.9072C46.3028 33.9072 48.3482 34.6632 49.8738 36.1766C51.3979 37.6886 52.16 39.7538 52.16 42.3692ZM38.1502 42.5261C38.1502 45.0943 38.5831 47.0574 39.4503 48.4184C40.3175 49.7779 41.5887 50.4592 43.2652 50.4592C44.9417 50.4592 46.1397 49.8419 46.9307 48.6059C47.7202 47.3698 48.1165 45.4281 48.1165 42.7807C48.1165 40.2933 47.6989 38.3821 46.8652 37.0454C46.03 35.7087 44.739 35.0412 42.9893 35.0412C41.2396 35.0412 40.0661 35.6615 39.301 36.9006C38.5343 38.1397 38.1518 40.0159 38.1518 42.5277L38.1502 42.5261Z" fill="#0255A3"/>
<path d="M61.3307 42.0447L63.6413 37.4464C63.8577 37.0455 64.03 36.7041 64.1595 36.4237C64.2875 36.1433 64.3531 35.9147 64.3531 35.7379C64.3531 35.497 64.1732 35.3279 63.812 35.2318L62.7284 34.9438L62.6918 34.3052C63.5819 34.3372 64.5177 34.3539 65.4962 34.3539C66.3862 34.3539 67.2657 34.3387 68.1329 34.3052L68.1923 34.9194L66.9166 35.2928C66.6286 35.3888 66.4045 35.5321 66.2491 35.7196C66.0936 35.9086 65.9336 36.1463 65.7735 36.4359L61.9709 43.4773V47.3776C61.9709 47.8592 61.9724 48.2966 61.977 48.6899C61.9815 49.0831 61.9861 49.4367 61.9952 49.7491C62.0029 49.9579 62.1431 50.0981 62.4159 50.1713L63.7648 50.592L63.8013 51.194C62.7665 51.1696 61.57 51.1574 60.2151 51.1574C58.8601 51.1574 57.6073 51.1696 56.58 51.194L56.5206 50.592L58.0127 50.1469C58.2139 50.0905 58.3206 49.9671 58.3374 49.7735C58.345 49.4519 58.3541 49.0937 58.3617 48.6959C58.3694 48.2982 58.3739 47.8592 58.3739 47.3776V43.7669L54.463 36.7621C54.1658 36.2728 53.9235 35.9223 53.7345 35.7089C53.5455 35.4955 53.2956 35.3416 52.9831 35.2456L51.8278 34.9209L51.7791 34.3067C52.5731 34.3387 53.701 34.3555 55.1611 34.3555C56.766 34.3555 58.2871 34.3402 59.7228 34.3067L59.7822 34.9209L58.5538 35.2212C58.3694 35.2608 58.2337 35.3202 58.1453 35.3964C58.0569 35.4727 58.0127 35.5702 58.0127 35.6906C58.0127 35.8598 58.0691 36.064 58.1819 36.3048C58.2947 36.5456 58.4501 36.8306 58.6513 37.1599L61.3353 42.0462L61.3307 42.0447Z" fill="#0255A3"/>
<path d="M85.6329 42.3692C85.6329 45.1461 84.8144 47.379 83.1775 49.0677C81.5406 50.7564 79.2621 51.6008 76.3403 51.6008C73.4186 51.6008 71.39 50.8204 69.8658 49.2597C68.3417 47.699 67.5781 45.5866 67.5781 42.9224C67.5781 40.2582 68.4011 37.9492 70.0457 36.3321C71.6902 34.715 73.9657 33.9072 76.8692 33.9072C79.7726 33.9072 81.8195 34.6632 83.3452 36.1766C84.8693 37.6886 85.6314 39.7538 85.6314 42.3692H85.6329ZM71.6231 42.5261C71.6231 45.0943 72.056 47.0574 72.9232 48.4184C73.7889 49.7779 75.0616 50.4592 76.7381 50.4592C78.4146 50.4592 79.6126 49.8419 80.4036 48.6059C81.1931 47.3698 81.5894 45.4281 81.5894 42.7807C81.5894 40.2933 81.1718 38.3821 80.3381 37.0454C79.5029 35.7087 78.2119 35.0412 76.4622 35.0412C74.7125 35.0412 73.539 35.6615 72.7739 36.9006C72.0072 38.1397 71.6247 40.0159 71.6247 42.5277L71.6231 42.5261Z" fill="#0255A3"/>
</g>
<defs>
<clipPath id="clip0_2008_3088">
<rect width="87" height="61.8535" fill="white" transform="translate(0 0.146484)"/>
</clipPath>
</defs>
</svg>
