<svg width="24" height="25" viewBox="0 0 24 25" fill="none" xmlns="http://www.w3.org/2000/svg">
<g clip-path="url(#clip0_2038_11470)">
<path d="M3.91926 20.5768V20.4268H4.06926V20.2768V20.1763V17.1382C4.06926 16.701 4.06935 16.2638 4.06945 15.8267C4.06968 14.734 4.06992 13.6415 4.06869 12.5487C4.06811 12.0472 3.78771 11.6504 3.34667 11.5128C2.6638 11.2997 2.00224 11.8001 2.00167 12.5401L3.91926 20.5768ZM3.91926 20.5768H4.06926M3.91926 20.5768H4.06926M4.06926 20.5768H19.9295H20.0795M4.06926 20.5768H20.0795M20.0795 20.5768V20.4268M20.0795 20.5768V20.4268M20.0795 20.4268V20.4263V20.4258V20.4253V20.4248V20.4243V20.4238V20.4233V20.4228V20.4223V20.4218V20.4213V20.4208V20.4203V20.4198V20.4193V20.4188V20.4183V20.4178V20.4173V20.4168V20.4163V20.4158V20.4153V20.4148V20.4143V20.4138V20.4133V20.4128V20.4123V20.4118V20.4113V20.4108V20.4103V20.4098V20.4093V20.4088V20.4083V20.4078V20.4073V20.4069V20.4064V20.4059V20.4054V20.4049V20.4044V20.4039V20.4034V20.4029V20.4024V20.4019V20.4014V20.4009V20.4004V20.3999V20.3994V20.3989V20.3984V20.3979V20.3974V20.3969V20.3964V20.3959V20.3954V20.3949V20.3945V20.394V20.3935V20.393V20.3925V20.392V20.3915V20.391V20.3905V20.39V20.3895V20.389V20.3885V20.388V20.3875V20.387V20.3865V20.386V20.3855V20.385V20.3846V20.3841V20.3836V20.3831V20.3826V20.3821V20.3816V20.3811V20.3806V20.3801V20.3796V20.3791V20.3786V20.3781V20.3776V20.3771V20.3767V20.3762V20.3757V20.3752V20.3747V20.3742V20.3737V20.3732V20.3727V20.3722V20.3717V20.3712V20.3707V20.3702V20.3698V20.3693V20.3688V20.3683V20.3678V20.3673V20.3668V20.3663V20.3658V20.3653V20.3648V20.3643V20.3638V20.3634V20.3629V20.3624V20.3619V20.3614V20.3609V20.3604V20.3599V20.3594V20.3589V20.3584V20.3579V20.3575V20.357V20.3565V20.356V20.3555V20.355V20.3545V20.354V20.3535V20.353V20.3525V20.352V20.3516V20.3511V20.3506V20.3501V20.3496V20.3491V20.3486V20.3481V20.3476V20.3471V20.3467V20.3462V20.3457V20.3452V20.3447V20.3442V20.3437V20.3432V20.3427V20.3422V20.3418V20.3413V20.3408V20.3403V20.3398V20.3393V20.3388V20.3383V20.3378V20.3373V20.3369V20.3364V20.3359V20.3354V20.3349V20.3344V20.3339V20.3334V20.3329V20.3325V20.332V20.3315V20.331V20.3305V20.33V20.3295V20.329V20.3285V20.3281V20.3276V20.3271V20.3266V20.3261V20.3256V20.3251V20.3246V20.3241V20.3237V20.3232V20.3227V20.3222V20.3217V20.3212V20.3207V20.3202V20.3197V20.3193V20.3188V20.3183V20.3178V20.3173V20.3168V20.3163V20.3158V20.3154V20.3149V20.3144V20.3139V20.3134V20.3129V20.3124V20.3119V20.3115V20.311V20.3105V20.31V20.3095V20.309V20.3085V20.308V20.3076V20.3071V20.3066V20.3061V20.3056V20.3051V20.3046V20.3041V20.3037V20.3032V20.3027V20.3022V20.3017V20.3012V20.3007V20.3003V20.2998V20.2993V20.2988V20.2983V20.2978V20.2973V20.2968V20.2964V20.2959V20.2954V20.2949V20.2944V20.2939V20.2934V20.293V20.2925V20.292V20.2915V20.291V20.2905V20.29V20.2896V20.2891V20.2886V20.2881V20.2876V20.2871V20.2866V20.2862V20.2857V20.2852V20.2847V20.2842V20.2837V20.2832V20.2828V20.2823V20.2818V20.2813V20.2808V20.2803V20.2798V20.2794V20.2789V20.2784V20.2779V20.2774V20.2769V20.2764V20.276V20.2755V20.275V20.2745V20.274V20.2735V20.273V20.2726V20.2721V20.2716V20.2711V20.2706V20.2701V20.2697V20.2692V20.2687V20.2682V20.2677V20.2672V20.2667V20.2663V20.2658V20.2653V20.2648V20.2643V20.2638V20.2634V20.2629V20.2624V20.2619V20.2614V20.2609V20.2604V20.26V20.2595V20.259V20.2585V20.258V20.2575V20.2571V20.2566V20.2561V20.2556V20.2551V20.2546V20.2541V20.2537V20.2532V20.2527V20.2522V20.2517V20.2512V20.2508V20.2503V20.2498V20.2493V20.2488V20.2483V20.2479V20.2474V20.2469V20.2464V20.2459V20.2454V20.245V20.2445V20.244V20.2435V20.243V20.2425V20.2421V20.2416V20.2411V20.2406V20.2401V20.2396V20.2392V20.2387V20.2382V20.2377V20.2372V20.2367V20.2362V20.2358V20.2353V20.2348V20.2343V20.2338V20.2333V20.2329V20.2324V20.2319V20.2314V20.2309V20.2304V20.23V20.2295V20.229V20.2285V20.228V20.2275V20.2271V20.2266V20.2261V20.2256V20.2251V20.2247V20.2242V20.2237V20.2232V20.2227V20.2222V20.2218V20.2213V20.2208V20.2203V20.2198V20.2193V20.2189V20.2184V20.2179V20.2174V20.2169V20.2164V20.216V20.2155V20.215V20.2145V20.214V20.2135V20.2131V20.2126V20.2121V20.2116V20.2111V20.2106V20.2102V20.2097V20.2092V20.2087V20.2082V20.2077V20.2073V20.2068V20.2063V20.2058V20.2053V20.2049V20.2044V20.2039V20.2034V20.2029V20.2024V20.202V20.2015V20.201V20.2005V20.2V20.1995V20.1991V20.1986V20.1981V20.1976V20.1971V20.1966V20.1962V20.1957V20.1952V20.1947V20.1942V20.1938V20.1933V20.1928V20.1923V20.1918V20.1913V20.1909V20.1904V20.1899V20.1894V20.1889V20.1884V20.188V20.1875V20.187V20.1865V20.186V20.1855V20.1851V20.1846V20.1841V20.1836V20.1831V20.1827V20.1822V20.1817V20.1812V20.1807V20.1802V20.1798V20.1793V20.1788V20.1783V20.1778V20.1773V20.1769C20.0795 19.5413 20.0794 18.9057 20.0794 18.2701C20.0793 16.3631 20.0792 14.4561 20.08 12.5494V12.5493M20.0795 20.4268L20.08 12.5493M20.08 12.5493C20.08 12.0402 20.4186 11.6627 20.8767 11.6183M20.08 12.5493L20.8767 11.6183M2.15167 12.5402L2.15167 12.5403C2.14957 14.5043 2.14991 16.4683 2.15026 18.4324C2.15039 19.1689 2.15051 19.9055 2.15051 20.6421L2.15167 12.5402ZM2.15167 12.5402C2.15217 11.8956 2.72107 11.4747 3.30199 11.656M2.15167 12.5402L3.30199 11.656M20.8767 11.6183L20.8622 11.469M20.8767 11.6183L20.8622 11.469M20.8622 11.469L20.8766 11.6184C21.3942 11.5686 21.8404 11.9656 21.8459 12.4984M20.8622 11.469L21.8459 12.4984M21.8459 12.4984C21.8512 13.0479 21.8502 13.597 21.8491 14.1471M21.8459 12.4984L21.8491 14.1471M21.8491 14.1471C21.8486 14.3725 21.8482 14.598 21.8482 14.8239M21.8491 14.1471L21.8482 14.8239M21.8482 14.8239V14.8352M21.8482 14.8239V14.8352M21.8482 14.8352V14.8466M21.8482 14.8352V14.8466M21.8482 14.8466V14.858M21.8482 14.8466V14.858M21.8482 14.858V14.8693M21.8482 14.858V14.8693M21.8482 14.8693V14.8807M21.8482 14.8693V14.8807M21.8482 14.8807V14.8921M21.8482 14.8807V14.8921M21.8482 14.8921V14.9034M21.8482 14.8921V14.9034M21.8482 14.9034V14.9148M21.8482 14.9034V14.9148M21.8482 14.9148V14.9261M21.8482 14.9148V14.9261M21.8482 14.9261V14.9375M21.8482 14.9261V14.9375M21.8482 14.9375V14.9489M21.8482 14.9375V14.9489M21.8482 14.9489V14.9602M21.8482 14.9489V14.9602M21.8482 14.9602V14.9716M21.8482 14.9602V14.9716M21.8482 14.9716V14.983M21.8482 14.9716V14.983M21.8482 14.983V14.9943M21.8482 14.983V14.9943M21.8482 14.9943V15.0057M21.8482 14.9943V15.0057M21.8482 15.0057V15.0171M21.8482 15.0057V15.0171M21.8482 15.0171V15.0284M21.8482 15.0171V15.0284M21.8482 15.0284V15.0398M21.8482 15.0284V15.0398M21.8482 15.0398V15.0511M21.8482 15.0398V15.0511M21.8482 15.0511V15.0625M21.8482 15.0511V15.0625M21.8482 15.0625V15.0739M21.8482 15.0625V15.0739M21.8482 15.0739V15.0852M21.8482 15.0739V15.0852M21.8482 15.0852V15.0966M21.8482 15.0852V15.0966M21.8482 15.0966V15.108M21.8482 15.0966V15.108M21.8482 15.108V15.1193M21.8482 15.108V15.1193M21.8482 15.1193V15.1307M21.8482 15.1193V15.1307M21.8482 15.1307V15.1421M21.8482 15.1307V15.1421M21.8482 15.1421V15.1534M21.8482 15.1421V15.1534M21.8482 15.1534V15.1648M21.8482 15.1534V15.1648M21.8482 15.1648V15.1761M21.8482 15.1648V15.1761M21.8482 15.1761V15.1875M21.8482 15.1761V15.1875M21.8482 15.1875V15.1989M21.8482 15.1875V15.1989M21.8482 15.1989V15.2102M21.8482 15.1989V15.2102M21.8482 15.2102V15.2216M21.8482 15.2102V15.2216M21.8482 15.2216V15.233M21.8482 15.2216V15.233M21.8482 15.233V15.2443M21.8482 15.233V15.2443M21.8482 15.2443V15.2557M21.8482 15.2443V15.2557M21.8482 15.2557V15.2671M21.8482 15.2557V15.2671M21.8482 15.2671V15.2784M21.8482 15.2671V15.2784M21.8482 15.2784V15.2898M21.8482 15.2784V15.2898M21.8482 15.2898V15.3011M21.8482 15.2898V15.3011M21.8482 15.3011V15.3125M21.8482 15.3011V15.3125M21.8482 15.3125V15.3239M21.8482 15.3125V15.3239M21.8482 15.3239V15.3352M21.8482 15.3239V15.3352M21.8482 15.3352V15.3466M21.8482 15.3352V15.3466M21.8482 15.3466V15.358M21.8482 15.3466V15.358M21.8482 15.358V15.3693M21.8482 15.358V15.3693M21.8482 15.3693V15.3807M21.8482 15.3693V15.3807M21.8482 15.3807V15.392M21.8482 15.3807V15.392M21.8482 15.392V15.4034M21.8482 15.392V15.4034M21.8482 15.4034V15.4148M21.8482 15.4034V15.4148M21.8482 15.4148V15.4261M21.8482 15.4148V15.4261M21.8482 15.4261V15.4375M21.8482 15.4261V15.4375M21.8482 15.4375V15.4489M21.8482 15.4375V15.4489M21.8482 15.4489V15.4602M21.8482 15.4489V15.4602M21.8482 15.4602V15.4716M21.8482 15.4602V15.4716M21.8482 15.4716V15.483M21.8482 15.4716V15.483M21.8482 15.483V15.4943M21.8482 15.483V15.4943M21.8482 15.4943V15.5057M21.8482 15.4943V15.5057M21.8482 15.5057V15.517M21.8482 15.5057V15.517M21.8482 15.517V15.5284M21.8482 15.517V15.5284M21.8482 15.5284V15.5398M21.8482 15.5284V15.5398M21.8482 15.5398V15.5511M21.8482 15.5398V15.5511M21.8482 15.5511V15.5625M21.8482 15.5511V15.5625M21.8482 15.5625V15.5739M21.8482 15.5625V15.5739M21.8482 15.5739V15.5852M21.8482 15.5739V15.5852M21.8482 15.5852V15.5966M21.8482 15.5852V15.5966M21.8482 15.5966V15.6079M21.8482 15.5966V15.6079M21.8482 15.6079V15.6193M21.8482 15.6079V15.6193M21.8482 15.6193V15.6307M21.8482 15.6193V15.6307M21.8482 15.6307V15.642M21.8482 15.6307V15.642M21.8482 15.642V15.6534M21.8482 15.642V15.6534M21.8482 15.6534V15.6648M21.8482 15.6534V15.6648M21.8482 15.6648V15.6761M21.8482 15.6648V15.6761M21.8482 15.6761V15.6875M21.8482 15.6761V15.6875M21.8482 15.6875V15.6989M21.8482 15.6875V15.6989M21.8482 15.6989V15.7102M21.8482 15.6989V15.7102M21.8482 15.7102V15.7216M21.8482 15.7102V15.7216M21.8482 15.7216V15.7329M21.8482 15.7216V15.7329M21.8482 15.7329V15.7443M21.8482 15.7329V15.7443M21.8482 15.7443V15.7557M21.8482 15.7443V15.7557M21.8482 15.7557V15.767M21.8482 15.7557V15.767M21.8482 15.767V15.7784M21.8482 15.767V15.7784M21.8482 15.7784V15.7898M21.8482 15.7784V15.7898M21.8482 15.7898V15.8011M21.8482 15.7898V15.8011M21.8482 15.8011V15.8125M21.8482 15.8011V15.8125M21.8482 15.8125V15.8238M21.8482 15.8125V15.8238M21.8482 15.8238V15.8352M21.8482 15.8238V15.8352M21.8482 15.8352V15.8466M21.8482 15.8352V15.8466M21.8482 15.8466V15.8579M21.8482 15.8466V15.8579M21.8482 15.8579V15.8693M21.8482 15.8579V15.8693M21.8482 15.8693V15.8807M21.8482 15.8693V15.8807M21.8482 15.8807V15.892M21.8482 15.8807V15.892M21.8482 15.892V15.9034M21.8482 15.892V15.9034M21.8482 15.9034V15.9147M21.8482 15.9034V15.9147M21.8482 15.9147V15.9261M21.8482 15.9147V15.9261M21.8482 15.9261V15.9375M21.8482 15.9261V15.9375M21.8482 15.9375V15.9488M21.8482 15.9375V15.9488M21.8482 15.9488V15.9602M21.8482 15.9488V15.9602M21.8482 15.9602V15.9716M21.8482 15.9602V15.9716M21.8482 15.9716V15.9829M21.8482 15.9716V15.9829M21.8482 15.9829V15.9943M21.8482 15.9829V15.9943M21.8482 15.9943V16.0056M21.8482 15.9943V16.0056M21.8482 16.0056V16.017M21.8482 16.0056V16.017M21.8482 16.017V16.0284M21.8482 16.017V16.0284M21.8482 16.0284V16.0397M21.8482 16.0284V16.0397M21.8482 16.0397V16.0511M21.8482 16.0397V16.0511M21.8482 16.0511V16.0625M21.8482 16.0511V16.0625M21.8482 16.0625V16.0738M21.8482 16.0625V16.0738M21.8482 16.0738V16.0852M21.8482 16.0738V16.0852M21.8482 16.0852V16.0965M21.8482 16.0852V16.0965M21.8482 16.0965V16.1079M21.8482 16.0965V16.1079M21.8482 16.1079V16.1193M21.8482 16.1079V16.1193M21.8482 16.1193V16.1306M21.8482 16.1193V16.1306M21.8482 16.1306V16.142M21.8482 16.1306V16.142M21.8482 16.142V16.1534M21.8482 16.142V16.1534M21.8482 16.1534V16.1647M21.8482 16.1534V16.1647M21.8482 16.1647V16.1761M21.8482 16.1647V16.1761M21.8482 16.1761V16.1874M21.8482 16.1761V16.1874M21.8482 16.1874V16.1988M21.8482 16.1874V16.1988M21.8482 16.1988V16.2102M21.8482 16.1988V16.2102M21.8482 16.2102V16.2215M21.8482 16.2102V16.2215M21.8482 16.2215V16.2329M21.8482 16.2215V16.2329M21.8482 16.2329V16.2443M21.8482 16.2329V16.2443M21.8482 16.2443V16.2556M21.8482 16.2443V16.2556M21.8482 16.2556V16.267M21.8482 16.2556V16.267M21.8482 16.267V16.2783M21.8482 16.267V16.2783M21.8482 16.2783V16.2897M21.8482 16.2783V16.2897M21.8482 16.2897V16.3011M21.8482 16.2897V16.3011M21.8482 16.3011V16.3124M21.8482 16.3011V16.3124M21.8482 16.3124V16.3238M21.8482 16.3124V16.3238M21.8482 16.3238V16.3352M21.8482 16.3238V16.3352M21.8482 16.3352V16.3465M21.8482 16.3352V16.3465M21.8482 16.3465V16.3579M21.8482 16.3465V16.3579M21.8482 16.3579V16.3692M21.8482 16.3579V16.3692M21.8482 16.3692V16.3806M21.8482 16.3692V16.3806M21.8482 16.3806V16.392M21.8482 16.3806V16.392M21.8482 16.392V16.4033M21.8482 16.392V16.4033M21.8482 16.4033V16.4147M21.8482 16.4033V16.4147M21.8482 16.4147V16.4261M21.8482 16.4147V16.4261M21.8482 16.4261V16.4374M21.8482 16.4261V16.4374M21.8482 16.4374V16.4488M21.8482 16.4374V16.4488M21.8482 16.4488V16.4601M21.8482 16.4488V16.4601M21.8482 16.4601V16.4715M21.8482 16.4601V16.4715M21.8482 16.4715V16.4829M21.8482 16.4715V16.4829M21.8482 16.4829V16.4942M21.8482 16.4829V16.4942M21.8482 16.4942V16.5056M21.8482 16.4942V16.5056M21.8482 16.5056V16.517M21.8482 16.5056V16.517M21.8482 16.517V16.5283M21.8482 16.517V16.5283M21.8482 16.5283V16.5397M21.8482 16.5283V16.5397M21.8482 16.5397V16.551M21.8482 16.5397V16.551M21.8482 16.551V16.5624M21.8482 16.551V16.5624M21.8482 16.5624V16.5738M21.8482 16.5624V16.5738M21.8482 16.5738V16.5851M21.8482 16.5738V16.5851M21.8482 16.5851V16.5965M21.8482 16.5851V16.5965M21.8482 16.5965V16.6079M21.8482 16.5965V16.6079M21.8482 16.6079V16.6192M21.8482 16.6079V16.6192M21.8482 16.6192V16.6306M21.8482 16.6192V16.6306M21.8482 16.6306V16.6419M21.8482 16.6306V16.6419M21.8482 16.6419V16.6533M21.8482 16.6419V16.6533M21.8482 16.6533V16.6647M21.8482 16.6533V16.6647M21.8482 16.6647V16.676M21.8482 16.6647V16.676M21.8482 16.676V16.6874M21.8482 16.676V16.6874M21.8482 16.6874V16.6988M21.8482 16.6874V16.6988M21.8482 16.6988V16.7101M21.8482 16.6988V16.7101M21.8482 16.7101V16.7215M21.8482 16.7101V16.7215M21.8482 16.7215V16.7328M21.8482 16.7215V16.7328M21.8482 16.7328V16.7442M21.8482 16.7328V16.7442M21.8482 16.7442V16.7556M21.8482 16.7442V16.7556M21.8482 16.7556V16.7669M21.8482 16.7556V16.7669M21.8482 16.7669V16.7783M21.8482 16.7669V16.7783M21.8482 16.7783V16.7897M21.8482 16.7783V16.7897M21.8482 16.7897V16.801M21.8482 16.7897V16.801M21.8482 16.801V16.8124M21.8482 16.801V16.8124M21.8482 16.8124V16.8237M21.8482 16.8124V16.8237M21.8482 16.8237V16.8351M21.8482 16.8237V16.8351M21.8482 16.8351V16.8465M21.8482 16.8351V16.8465M21.8482 16.8465V16.8578M21.8482 16.8465V16.8578M21.8482 16.8578V16.8692M21.8482 16.8578V16.8692M21.8482 16.8692V16.8806M21.8482 16.8692V16.8806M21.8482 16.8806V16.8919M21.8482 16.8806V16.8919M21.8482 16.8919V16.9033M21.8482 16.8919V16.9033M21.8482 16.9033V16.9146M21.8482 16.9033V16.9146M21.8482 16.9146V16.926M21.8482 16.9146V16.926M21.8482 16.926V16.9374M21.8482 16.926V16.9374M21.8482 16.9374V16.9487M21.8482 16.9374V16.9487M21.8482 16.9487V16.9601M21.8482 16.9487V16.9601M21.8482 16.9601V16.9715M21.8482 16.9601V16.9715M21.8482 16.9715V16.9828M21.8482 16.9715V16.9828M21.8482 16.9828V16.9942M21.8482 16.9828V16.9942M21.8482 16.9942V17.0055M21.8482 16.9942V17.0055M21.8482 17.0055V17.0169M21.8482 17.0055V17.0169M21.8482 17.0169V17.0283M21.8482 17.0169V17.0283M21.8482 17.0283V17.0396M21.8482 17.0283V17.0396M21.8482 17.0396V17.051M21.8482 17.0396V17.051M21.8482 17.051V17.0624M21.8482 17.051V17.0624M21.8482 17.0624V17.0737M21.8482 17.0624V17.0737M21.8482 17.0737V17.0851M21.8482 17.0737V17.0851M21.8482 17.0851V17.0964M21.8482 17.0851V17.0964M21.8482 17.0964V17.1078M21.8482 17.0964V17.1078M21.8482 17.1078V17.1192M21.8482 17.1078V17.1192M21.8482 17.1192V17.1305M21.8482 17.1192V17.1305M21.8482 17.1305V17.1419M21.8482 17.1305V17.1419M21.8482 17.1419V17.1532M21.8482 17.1419V17.1532M21.8482 17.1532V17.1646M21.8482 17.1532V17.1646M21.8482 17.1646V17.176M21.8482 17.1646V17.176M21.8482 17.176V17.1873M21.8482 17.176V17.1873M21.8482 17.1873V17.1987M21.8482 17.1873V17.1987M21.8482 17.1987V17.2101M21.8482 17.1987V17.2101M21.8482 17.2101V17.2214M21.8482 17.2101V17.2214M21.8482 17.2214V17.2328M21.8482 17.2214V17.2328M21.8482 17.2328V17.2441M21.8482 17.2328V17.2441M21.8482 17.2441V17.2555M21.8482 17.2441V17.2555M21.8482 17.2555V17.2669M21.8482 17.2555V17.2669M21.8482 17.2669V17.2782M21.8482 17.2669V17.2782M21.8482 17.2782V17.2896M21.8482 17.2782V17.2896M21.8482 17.2896V17.301M21.8482 17.2896V17.301M21.8482 17.301V17.3123M21.8482 17.301V17.3123M21.8482 17.3123V17.3237M21.8482 17.3123V17.3237M21.8482 17.3237V17.335M21.8482 17.3237V17.335M21.8482 17.335V17.3464M21.8482 17.335V17.3464M21.8482 17.3464V17.3578M21.8482 17.3464V17.3578M21.8482 17.3578V17.3691M21.8482 17.3578V17.3691M21.8482 17.3691V17.3805M21.8482 17.3691V17.3805M21.8482 17.3805V17.3919M21.8482 17.3805V17.3919M21.8482 17.3919V17.4032M21.8482 17.3919V17.4032M21.8482 17.4032V17.4146M21.8482 17.4032V17.4146M21.8482 17.4146V17.4259M21.8482 17.4146V17.4259M21.8482 17.4259V17.4373M21.8482 17.4259V17.4373M21.8482 17.4373V17.4487M21.8482 17.4373V17.4487M21.8482 17.4487V17.46M21.8482 17.4487V17.46M21.8482 17.46V17.4714M21.8482 17.46V17.4714M21.8482 17.4714V17.4828M21.8482 17.4714V17.4828M21.8482 17.4828V17.4941M21.8482 17.4828V17.4941M21.8482 17.4941V17.5055M21.8482 17.4941V17.5055M21.8482 17.5055V17.5168M21.8482 17.5055V17.5168M21.8482 17.5168V17.5282M21.8482 17.5168V17.5282M21.8482 17.5282V17.5396M21.8482 17.5282V17.5396M21.8482 17.5396V17.5509M21.8482 17.5396V17.5509M21.8482 17.5509V17.5623M21.8482 17.5509V17.5623M21.8482 17.5623V17.5736M21.8482 17.5623V17.5736M21.8482 17.5736V17.585M21.8482 17.5736V17.585M21.8482 17.585V17.5964M21.8482 17.585V17.5964M21.8482 17.5964V17.6077M21.8482 17.5964V17.6077M21.8482 17.6077V17.6191M21.8482 17.6077V17.6191M21.8482 17.6191V17.6305M21.8482 17.6191V17.6305M21.8482 17.6305V17.6418M21.8482 17.6305V17.6418M21.8482 17.6418V17.6532M21.8482 17.6418V17.6532M21.8482 17.6532V17.6645M21.8482 17.6532V17.6645M21.8482 17.6645V17.6759M21.8482 17.6645V17.6759M21.8482 17.6759V17.6873M21.8482 17.6759V17.6873M21.8482 17.6873V17.6986M21.8482 17.6873V17.6986M21.8482 17.6986V17.71M21.8482 17.6986V17.71M21.8482 17.71V17.7214M21.8482 17.71V17.7214M21.8482 17.7214V17.7327M21.8482 17.7214V17.7327M21.8482 17.7327V17.7441M21.8482 17.7327V17.7441M21.8482 17.7441V17.7554M21.8482 17.7441V17.7554M21.8482 17.7554V17.7668M21.8482 17.7554V17.7668M21.8482 17.7668V17.7782M21.8482 17.7668V17.7782M21.8482 17.7782V17.7895M21.8482 17.7782V17.7895M21.8482 17.7895V17.8009M21.8482 17.7895V17.8009M21.8482 17.8009V17.8123M21.8482 17.8009V17.8123M21.8482 17.8123V17.8236M21.8482 17.8123V17.8236M21.8482 17.8236V17.835M21.8482 17.8236V17.835M21.8482 17.835V17.8463M21.8482 17.835V17.8463M21.8482 17.8463V17.8577M21.8482 17.8463V17.8577M21.8482 17.8577V17.8691M21.8482 17.8577V17.8691M21.8482 17.8691V17.8804M21.8482 17.8691V17.8804M21.8482 17.8804V17.8918M21.8482 17.8804V17.8918M21.8482 17.8918V17.9031M21.8482 17.8918V17.9031M21.8482 17.9031V17.9145M21.8482 17.9031V17.9145M21.8482 17.9145V17.9259M21.8482 17.9145V17.9259M21.8482 17.9259V17.9372M21.8482 17.9259V17.9372M21.8482 17.9372V17.9486M21.8482 17.9372V17.9486M21.8482 17.9486V17.96M21.8482 17.9486V17.96M21.8482 17.96V17.9713M21.8482 17.96V17.9713M21.8482 17.9713V17.9827M21.8482 17.9713V17.9827M21.8482 17.9827V17.994M21.8482 17.9827V17.994M21.8482 17.994V18.0054M21.8482 17.994V18.0054M21.8482 18.0054V18.0168M21.8482 18.0054V18.0168M21.8482 18.0168V18.0281M21.8482 18.0168V18.0281M21.8482 18.0281V18.0395M21.8482 18.0281V18.0395M21.8482 18.0395V18.0509M21.8482 18.0395V18.0509M21.8482 18.0509V18.0622M21.8482 18.0509V18.0622M21.8482 18.0622V18.0736M21.8482 18.0622V18.0736M21.8482 18.0736V18.0849M21.8482 18.0736V18.0849M21.8482 18.0849V18.0963M21.8482 18.0849V18.0963M21.8482 18.0963V18.1077M21.8482 18.0963V18.1077M21.8482 18.1077V18.119M21.8482 18.1077V18.119M21.8482 18.119V18.1304M21.8482 18.119V18.1304M21.8482 18.1304V18.1418M21.8482 18.1304V18.1418M21.8482 18.1418V18.1531M21.8482 18.1418V18.1531M21.8482 18.1531V18.1645M21.8482 18.1531V18.1645M21.8482 18.1645V18.1758M21.8482 18.1645V18.1758M21.8482 18.1758V18.1872M21.8482 18.1758V18.1872M21.8482 18.1872V18.1986M21.8482 18.1872V18.1986M21.8482 18.1986V18.2099M21.8482 18.1986V18.2099M21.8482 18.2099V18.2213M21.8482 18.2099V18.2213M21.8482 18.2213V18.2327M21.8482 18.2213V18.2327M21.8482 18.2327V18.244M21.8482 18.2327V18.244M21.8482 18.244V18.2554M21.8482 18.244V18.2554M21.8482 18.2554V18.2667M21.8482 18.2554V18.2667M21.8482 18.2667V18.2781M21.8482 18.2667V18.2781M21.8482 18.2781V18.2895M21.8482 18.2781V18.2895M21.8482 18.2895V18.3008M21.8482 18.2895V18.3008M21.8482 18.3008V18.3122M21.8482 18.3008V18.3122M21.8482 18.3122V18.3235M21.8482 18.3122V18.3235M21.8482 18.3235V18.3349M21.8482 18.3235V18.3349M21.8482 18.3349V18.3463M21.8482 18.3349V18.3463M21.8482 18.3463V18.3576M21.8482 18.3463V18.3576M21.8482 18.3576V18.369M21.8482 18.3576V18.369M21.8482 18.369V18.3804M21.8482 18.369V18.3804M21.8482 18.3804V18.3917M21.8482 18.3804V18.3917M21.8482 18.3917V18.4031M21.8482 18.3917V18.4031M21.8482 18.4031V18.4144M21.8482 18.4031V18.4144M21.8482 18.4144V18.4258M21.8482 18.4144V18.4258M21.8482 18.4258V18.4372M21.8482 18.4258V18.4372M21.8482 18.4372V18.4485M21.8482 18.4372V18.4485M21.8482 18.4485V18.4599M21.8482 18.4485V18.4599M21.8482 18.4599V18.4713M21.8482 18.4599V18.4713M21.8482 18.4713V18.4826M21.8482 18.4713V18.4826M21.8482 18.4826V18.494M21.8482 18.4826V18.494M21.8482 18.494V18.5053M21.8482 18.494V18.5053M21.8482 18.5053V18.5167M21.8482 18.5053V18.5167M21.8482 18.5167V18.5281M21.8482 18.5167V18.5281M21.8482 18.5281V18.5394M21.8482 18.5281V18.5394M21.8482 18.5394V18.5508M21.8482 18.5394V18.5508M21.8482 18.5508V18.5622M21.8482 18.5508V18.5622M21.8482 18.5622V18.5735M21.8482 18.5622V18.5735M21.8482 18.5735V18.5849M21.8482 18.5735V18.5849M21.8482 18.5849V18.5962M21.8482 18.5849V18.5962M21.8482 18.5962V18.6076M21.8482 18.5962V18.6076M21.8482 18.6076V18.619M21.8482 18.6076V18.619M21.8482 18.619V18.6303M21.8482 18.619V18.6303M21.8482 18.6303V18.6417M21.8482 18.6303V18.6417M21.8482 18.6417V18.6531M21.8482 18.6417V18.6531M21.8482 18.6531V18.6644M21.8482 18.6531V18.6644M21.8482 18.6644V18.6758M21.8482 18.6644V18.6758M21.8482 18.6758V18.6871M21.8482 18.6758V18.6871M21.8482 18.6871V18.6985M21.8482 18.6871V18.6985M21.8482 18.6985V18.7099M21.8482 18.6985V18.7099M21.8482 18.7099V18.7212M21.8482 18.7099V18.7212M21.8482 18.7212V18.7326M21.8482 18.7212V18.7326M21.8482 18.7326V18.744M21.8482 18.7326V18.744M21.8482 18.744V18.7553M21.8482 18.744V18.7553M21.8482 18.7553V18.7667M21.8482 18.7553V18.7667M21.8482 18.7667V18.778M21.8482 18.7667V18.778M21.8482 18.778V18.7894M21.8482 18.778V18.7894M21.8482 18.7894V18.8008M21.8482 18.7894V18.8008M21.8482 18.8008V18.8121M21.8482 18.8008V18.8121M21.8482 18.8121V18.8235M21.8482 18.8121V18.8235M21.8482 18.8235V18.8349M21.8482 18.8235V18.8349M21.8482 18.8349V18.8462M21.8482 18.8349V18.8462M21.8482 18.8462V18.8576M21.8482 18.8462V18.8576M21.8482 18.8576V18.8689M21.8482 18.8576V18.8689M21.8482 18.8689V18.8803M21.8482 18.8689V18.8803M21.8482 18.8803V18.8917M21.8482 18.8803V18.8917M21.8482 18.8917V18.903M21.8482 18.8917V18.903M21.8482 18.903V18.9144M21.8482 18.903V18.9144M21.8482 18.9144V18.9257M21.8482 18.9144V18.9257M21.8482 18.9257V18.9371M21.8482 18.9257V18.9371M21.8482 18.9371V18.9485M21.8482 18.9371V18.9485M21.8482 18.9485V18.9598M21.8482 18.9485V18.9598M21.8482 18.9598V18.9712M21.8482 18.9598V18.9712M21.8482 18.9712V18.9826M21.8482 18.9712V18.9826M21.8482 18.9826V18.9939M21.8482 18.9826V18.9939M21.8482 18.9939V19.0053M21.8482 18.9939V19.0053M21.8482 19.0053V19.0166M21.8482 19.0053V19.0166M21.8482 19.0166V19.028M21.8482 19.0166V19.028M21.8482 19.028V19.0394M21.8482 19.028V19.0394M21.8482 19.0394V19.0507M21.8482 19.0394V19.0507M21.8482 19.0507V19.0621M21.8482 19.0507V19.0621M21.8482 19.0621V19.0735M21.8482 19.0621V19.0735M21.8482 19.0735V19.0848M21.8482 19.0735V19.0848M21.8482 19.0848V19.0962M21.8482 19.0848V19.0962M21.8482 19.0962V19.1075M21.8482 19.0962V19.1075M21.8482 19.1075V19.1189M21.8482 19.1075V19.1189M21.8482 19.1189V19.1303M21.8482 19.1189V19.1303M21.8482 19.1303V19.1416M21.8482 19.1303V19.1416M21.8482 19.1416V19.153M21.8482 19.1416V19.153M21.8482 19.153V19.1644M21.8482 19.153V19.1644M21.8482 19.1644V19.1757M21.8482 19.1644V19.1757M21.8482 19.1757V19.1871M21.8482 19.1757V19.1871M21.8482 19.1871V19.1984M21.8482 19.1871V19.1984M21.8482 19.1984V19.2098M21.8482 19.1984V19.2098M21.8482 19.2098V19.2212M21.8482 19.2098V19.2212M21.8482 19.2212V19.2325M21.8482 19.2212V19.2325M21.8482 19.2325V19.2439M21.8482 19.2325V19.2439M21.8482 19.2439V19.2553M21.8482 19.2439V19.2553M21.8482 19.2553V19.2666M21.8482 19.2553V19.2666M21.8482 19.2666V19.278M21.8482 19.2666V19.278M21.8482 19.278V19.2893M21.8482 19.278V19.2893M21.8482 19.2893V19.3007M21.8482 19.2893V19.3007M21.8482 19.3007V19.3121M21.8482 19.3007V19.3121M21.8482 19.3121V19.3234M21.8482 19.3121V19.3234M21.8482 19.3234V19.3348M21.8482 19.3234V19.3348M21.8482 19.3348V19.3462M21.8482 19.3348V19.3462M21.8482 19.3462V19.3575M21.8482 19.3462V19.3575M21.8482 19.3575V19.3689M21.8482 19.3575V19.3689M21.8482 19.3689V19.3802M21.8482 19.3689V19.3802M21.8482 19.3802V19.3916M21.8482 19.3802V19.3916M21.8482 19.3916V19.403M21.8482 19.3916V19.403M21.8482 19.403V19.4143M21.8482 19.403V19.4143M21.8482 19.4143V19.4257M21.8482 19.4143V19.4257M21.8482 19.4257V19.4371M21.8482 19.4257V19.4371M21.8482 19.4371V19.4484M21.8482 19.4371V19.4484M21.8482 19.4484V19.4598M21.8482 19.4484V19.4598M21.8482 19.4598V19.4712M21.8482 19.4598V19.4712M21.8482 19.4712V19.4825M21.8482 19.4712V19.4825M21.8482 19.4825V19.4939M21.8482 19.4825V19.4939M21.8482 19.4939V19.5052M21.8482 19.4939V19.5052M21.8482 19.5052V19.5166M21.8482 19.5052V19.5166M21.8482 19.5166V19.528M21.8482 19.5166V19.528M21.8482 19.528V19.5393M21.8482 19.528V19.5393M21.8482 19.5393V19.5507M21.8482 19.5393V19.5507M21.8482 19.5507V19.5621M21.8482 19.5507V19.5621M21.8482 19.5621V19.5734M21.8482 19.5621V19.5734M21.8482 19.5734V19.5848M21.8482 19.5734V19.5848M21.8482 19.5848V19.5961M21.8482 19.5848V19.5961M21.8482 19.5961V19.6075M21.8482 19.5961V19.6075M21.8482 19.6075V19.6189M21.8482 19.6075V19.6189M21.8482 19.6189V19.6302M21.8482 19.6189V19.6302M21.8482 19.6302V19.6416M21.8482 19.6302V19.6416M21.8482 19.6416V19.653M21.8482 19.6416V19.653M21.8482 19.653V19.6643M21.8482 19.653V19.6643M21.8482 19.6643V19.6757M21.8482 19.6643V19.6757M21.8482 19.6757V19.687M21.8482 19.6757V19.687M21.8482 19.687V19.6984M21.8482 19.687V19.6984M21.8482 19.6984V19.7098M21.8482 19.6984V19.7098M21.8482 19.7098V19.7211M21.8482 19.7098V19.7211M21.8482 19.7211V19.7325M21.8482 19.7211V19.7325M21.8482 19.7325V19.7439M21.8482 19.7325V19.7439M21.8482 19.7439V19.7552M21.8482 19.7439V19.7552M21.8482 19.7552V19.7666M21.8482 19.7552V19.7666M21.8482 19.7666V19.7779M21.8482 19.7666V19.7779M21.8482 19.7779V19.7893M21.8482 19.7779V19.7893M21.8482 19.7893V19.8007M21.8482 19.7893V19.8007M21.8482 19.8007V19.812M21.8482 19.8007V19.812M21.8482 19.812V19.8234M21.8482 19.812V19.8234M21.8482 19.8234V19.8348M21.8482 19.8234V19.8348M21.8482 19.8348V19.8461M21.8482 19.8348V19.8461M21.8482 19.8461V19.8575M21.8482 19.8461V19.8575M21.8482 19.8575V19.8689M21.8482 19.8575V19.8689M21.8482 19.8689V19.8802M21.8482 19.8689V19.8802M21.8482 19.8802V19.8916M21.8482 19.8802V19.8916M21.8482 19.8916V19.9029M21.8482 19.8916V19.9029M21.8482 19.9029V19.9143M21.8482 19.9029V19.9143M21.8482 19.9143V19.9257M21.8482 19.9143V19.9257M21.8482 19.9257V19.937M21.8482 19.9257V19.937M21.8482 19.937V19.9484M21.8482 19.937V19.9484M21.8482 19.9484V19.9598M21.8482 19.9484V19.9598M21.8482 19.9598V19.9711M21.8482 19.9598V19.9711M21.8482 19.9711V19.9825M21.8482 19.9711V19.9825M21.8482 19.9825V19.9938M21.8482 19.9825V19.9938M21.8482 19.9938V20.0052M21.8482 19.9938V20.0052M21.8482 20.0052V20.0166M21.8482 20.0052V20.0166M21.8482 20.0166V20.0279M21.8482 20.0166V20.0279M21.8482 20.0279V20.0393M21.8482 20.0279V20.0393M21.8482 20.0393V20.0507M21.8482 20.0393V20.0507M21.8482 20.0507V20.062M21.8482 20.0507V20.062M21.8482 20.062V20.0734M21.8482 20.062V20.0734M21.8482 20.0734V20.0848M21.8482 20.0734V20.0848M21.8482 20.0848V20.0961M21.8482 20.0848V20.0961M21.8482 20.0961V20.1075M21.8482 20.0961V20.1075M21.8482 20.1075V20.1188M21.8482 20.1075V20.1188M21.8482 20.1188V20.1302M21.8482 20.1188V20.1302M21.8482 20.1302V20.1416M21.8482 20.1302V20.1416M21.8482 20.1416V20.1529M21.8482 20.1416V20.1529M21.8482 20.1529V20.1643M21.8482 20.1529V20.1643M21.8482 20.1643V20.1757M21.8482 20.1643V20.1757M21.8482 20.1757V20.187M21.8482 20.1757V20.187M21.8482 20.187V20.1984M21.8482 20.187V20.1984M21.8482 20.1984V20.2097M21.8482 20.1984V20.2097M21.8482 20.2097V20.2211M21.8482 20.2097V20.2211M21.8482 20.2211V20.2325M21.8482 20.2211V20.2325M21.8482 20.2325V20.2438M21.8482 20.2325V20.2438M21.8482 20.2438V20.2552M21.8482 20.2438V20.2552M21.8482 20.2552V20.2666M21.8482 20.2552V20.2666M21.8482 20.2666V20.2779M21.8482 20.2666V20.2779M21.8482 20.2779V20.2893M21.8482 20.2779V20.2893M21.8482 20.2893V20.3007M21.8482 20.2893V20.3007M21.8482 20.3007V20.312M21.8482 20.3007V20.312M21.8482 20.312V20.3234M21.8482 20.312V20.3234M21.8482 20.3234V20.3347M21.8482 20.3234V20.3347M21.8482 20.3347V20.3461M21.8482 20.3347V20.3461M21.8482 20.3461V20.3575M21.8482 20.3461V20.3575M21.8482 20.3575V20.3688M21.8482 20.3575V20.3688M21.8482 20.3688V20.3802M21.8482 20.3688V20.3802M21.8482 20.3802V20.3916M21.8482 20.3802V20.3916M21.8482 20.3916V20.4029M21.8482 20.3916V20.4029M21.8482 20.4029V20.4143M21.8482 20.4029V20.4143M21.8482 20.4143V20.4257M21.8482 20.4143V20.4257M21.8482 20.4257V20.437M21.8482 20.4257V20.437M21.8482 20.437V20.4484M21.8482 20.437V20.4484M21.8482 20.4484V20.4597M21.8482 20.4484V20.4597M21.8482 20.4597V20.4711M21.8482 20.4597V20.4711M21.8482 20.4711V20.4825M21.8482 20.4711V20.4825M21.8482 20.4825V20.4938M21.8482 20.4825V20.4938M21.8482 20.4938V20.5052M21.8482 20.4938V20.5052M21.8482 20.5052V20.5166M21.8482 20.5052V20.5166M21.8482 20.5166V20.5279M21.8482 20.5166V20.5279M21.8482 20.5279V20.5393M21.8482 20.5279V20.5393M21.8482 20.5393V20.5507M21.8482 20.5393V20.5507M21.8482 20.5507V20.562M21.8482 20.5507V20.562M21.8482 20.562V20.5734M21.8482 20.562V20.5734M21.8482 20.5734V20.5847M21.8482 20.5734V20.5847M21.8482 20.5847V20.5961M21.8482 20.5847V20.5961M21.8482 20.5961V20.6075M21.8482 20.5961V20.6075M21.8482 20.6075V20.6188M21.8482 20.6075V20.6188M21.8482 20.6188V20.6302M21.8482 20.6188V20.6302M21.8482 20.6302V20.6416M21.8482 20.6302V20.6416M21.8482 20.6416C21.8482 21.1781 21.6791 21.6017 21.3903 21.891M21.8482 20.6416L21.3903 21.891M21.3903 21.891C21.1016 22.1802 20.6788 22.3495 20.1436 22.3498M21.3903 21.891L20.1436 22.3498M20.1436 22.3498H20.1118H20.08H20.0482H20.0164H19.9846H19.9528H19.921H19.8891H19.8573H19.8255H19.7937H19.7619H19.7301H19.6983H19.6664H19.6346H19.6028H19.571H19.5392H19.5074H19.4756H19.4438H19.4119H19.3801H19.3483H19.3165H19.2847H19.2529H19.2211H19.1892H19.1574H19.1256H19.0938H19.062H19.0302H18.9984H18.9666H18.9347H18.9029H18.8711H18.8393H18.8075H18.7757H18.7439H18.7121H18.6802H18.6484H18.6166H18.5848H18.553H18.5212H18.4894H18.4575H18.4257H18.3939H18.3621H18.3303H18.2985H18.2667H18.2349H18.203H18.1712H18.1394H18.1076H18.0758H18.044H18.0122H17.9804H17.9485H17.9167H17.8849H17.8531H17.8213H17.7895H17.7577H17.7259H17.694H17.6622H17.6304H17.5986H17.5668H17.535H17.5032H17.4713H17.4395H17.4077H17.3759H17.3441H17.3123H17.2805H17.2487H17.2168H17.185H17.1532H17.1214H17.0896H17.0578H17.026H16.9942H16.9623H16.9305H16.8987H16.8669H16.8351H16.8033H16.7715H16.7397H16.7078H16.676H16.6442H16.6124H16.5806H16.5488H16.517H16.4852H16.4533H16.4215H16.3897H16.3579H16.3261H16.2943H16.2625H16.2307H16.1988H16.167H16.1352H16.1034H16.0716H16.0398H16.008H15.9762H15.9443H15.9125H15.8807H15.8489H15.8171H15.7853H15.7535H15.7217H15.6898H15.658H15.6262H15.5944H15.5626H15.5308H15.499H15.4672H15.4354H15.4035H15.3717H15.3399H15.3081H15.2763H15.2445H15.2127H15.1809H15.149H15.1172H15.0854H15.0536H15.0218H14.99H14.9582H14.9264H14.8945H14.8627H14.8309H14.7991H14.7673H14.7355H14.7037H14.6719H14.64H14.6082H14.5764H14.5446H14.5128H14.481H14.4492H14.4174H14.3855H14.3537H14.3219H14.2901H14.2583H14.2265H14.1947H14.1629H14.1311H14.0992H14.0674H14.0356H14.0038H13.972H13.9402H13.9084H13.8766H13.8447H13.8129H13.7811H13.7493H13.7175H13.6857H13.6539H13.6221H13.5902H13.5584H13.5266H13.4948H13.463H13.4312H13.3994H13.3676H13.3358H13.3039H13.2721H13.2403H13.2085H13.1767H13.1449H13.1131H13.0813H13.0494H13.0176H12.9858H12.954H12.9222H12.8904H12.8586H12.8268H12.7949H12.7631H12.7313H12.6995H12.6677H12.6359H12.6041H12.5723H12.5405H12.5086H12.4768H12.445H12.4132H12.3814H12.3496H12.3178H12.286H12.2541H12.2223H12.1905H12.1587H12.1269H12.0951H12.0633H12.0315H11.9997H11.9678H11.936H11.9042H11.8724H11.8406H11.8088H11.777H11.7452H11.7133H11.6815H11.6497H11.6179H11.5861H11.5543H11.5225H11.4907H11.4588H11.427H11.3952H11.3634H11.3316H11.2998H11.268H11.2362H11.2044H11.1725H11.1407H11.1089H11.0771H11.0453H11.0135H10.9817H10.9499H10.918H10.8862H10.8544H10.8226H10.7908H10.759H10.7272H10.6954H10.6635H10.6317H10.5999H10.5681H10.5363H10.5045H10.4727H10.4409H10.4091H10.3772H10.3454H10.3136H10.2818H10.25H10.2182H10.1864H10.1546H10.1227H10.0909H10.0591H10.0273H9.9955H9.96368H9.93187H9.90006H9.86825H9.83644H9.80462H9.77281H9.741H9.70919H9.67738H9.64556H9.61375H9.58194H9.55013H9.51832H9.4865H9.45469H9.42288H9.39107H9.35925H9.32744H9.29563H9.26382H9.23201H9.20019H9.16838H9.13657H9.10476H9.07295H9.04113H9.00932H8.97751H8.9457H8.91388H8.88207H8.85026H8.81845H8.78664H8.75482H8.72301H8.6912H8.65939H8.62757H8.59576H8.56395H8.53214H8.50033H8.46851H8.4367H8.40489H8.37308H8.34126H8.30945H8.27764H8.24583H8.21402H8.1822H8.15039H8.11858H8.08677H8.05495H8.02314H7.99133H7.95952H7.9277H7.89589H7.86408H7.83227H7.80045H7.76864H7.73683H7.70502H7.6732H7.64139H7.60958H7.57777H7.54596H7.51414H7.48233H7.45052H7.41871H7.38689H7.35508H7.32327H7.29146H7.25964H7.22783H7.19602H7.16421H7.13239H7.10058H7.06877H7.03696H7.00514H6.97333H6.94152H6.90971H6.87789H6.84608H6.81427H6.78245H6.75064H6.71883H6.68702H6.6552H6.62339H6.59158H6.55977H6.52795H6.49614H6.46433H6.43252H6.4007H6.36889H6.33708H6.30526H6.27345H6.24164H6.20983H6.17801H6.1462H6.11439H6.08257H6.05076H6.01895H5.98714H5.95532H5.92351H5.8917H5.85988H5.82807H5.79626H5.76445H5.73263H5.70082H5.66901H5.63719H5.60538H5.57357H5.54175H5.50994H5.47813H5.44632H5.4145H5.38269H5.35088H5.31906H5.28725H5.25544H5.22362H5.19181H5.16H5.12818H5.09637H5.06456H5.03275H5.00093H4.96912H4.93731H4.90549H4.87368H4.84187H4.81005H4.77824H4.74643H4.71461H4.6828H4.65099H4.61917H4.58736H4.55555H4.52373H4.49192H4.46011H4.42829H4.39648H4.36467H4.33285H4.30104H4.26923H4.23741H4.2056H4.17379H4.14197H4.11016H4.07834H4.04653H4.01472H3.9829H3.95109H3.91928H3.88746H3.85565C3.32016 22.3498 2.89736 22.1806 2.60866 21.8915C2.31994 21.6023 2.1508 21.1787 2.15051 20.6421L20.1436 22.3498ZM3.30199 11.656C3.6748 11.7723 3.91818 12.1068 3.91869 12.5489M3.30199 11.656L3.91869 12.5489M3.91869 12.5489C3.91992 13.6416 3.91968 14.734 3.91945 15.8265M3.91869 12.5489L3.91945 15.8265M3.91945 15.8265C3.91935 16.2637 3.91926 16.7009 3.91926 17.1382M3.91945 15.8265L3.91926 17.1382M3.91926 17.1382V17.1441M3.91926 17.1382V17.1441M3.91926 17.1441V17.15M3.91926 17.1441V17.15M3.91926 17.15V17.156M3.91926 17.15V17.156M3.91926 17.156V17.1619M3.91926 17.156V17.1619M3.91926 17.1619V17.1678M3.91926 17.1619V17.1678M3.91926 17.1678V17.1738M3.91926 17.1678V17.1738M3.91926 17.1738V17.1797M3.91926 17.1738V17.1797M3.91926 17.1797V17.1856M3.91926 17.1797V17.1856M3.91926 17.1856V17.1916M3.91926 17.1856V17.1916M3.91926 17.1916V17.1975M3.91926 17.1916V17.1975M3.91926 17.1975V17.2035M3.91926 17.1975V17.2035M3.91926 17.2035V17.2094M3.91926 17.2035V17.2094M3.91926 17.2094V17.2153M3.91926 17.2094V17.2153M3.91926 17.2153V17.2213M3.91926 17.2153V17.2213M3.91926 17.2213V17.2272M3.91926 17.2213V17.2272M3.91926 17.2272V17.2331M3.91926 17.2272V17.2331M3.91926 17.2331V17.2391M3.91926 17.2331V17.2391M3.91926 17.2391V17.245M3.91926 17.2391V17.245M3.91926 17.245V17.2509M3.91926 17.245V17.2509M3.91926 17.2509V17.2569M3.91926 17.2509V17.2569M3.91926 17.2569V17.2628M3.91926 17.2569V17.2628M3.91926 17.2628V17.2687M3.91926 17.2628V17.2687M3.91926 17.2687V17.2747M3.91926 17.2687V17.2747M3.91926 17.2747V17.2806M3.91926 17.2747V17.2806M3.91926 17.2806V17.2865M3.91926 17.2806V17.2865M3.91926 17.2865V17.2925M3.91926 17.2865V17.2925M3.91926 17.2925V17.2984M3.91926 17.2925V17.2984M3.91926 17.2984V17.3043M3.91926 17.2984V17.3043M3.91926 17.3043V17.3103M3.91926 17.3043V17.3103M3.91926 17.3103V17.3162M3.91926 17.3103V17.3162M3.91926 17.3162V17.3221M3.91926 17.3162V17.3221M3.91926 17.3221V17.3281M3.91926 17.3221V17.3281M3.91926 17.3281V17.334M3.91926 17.3281V17.334M3.91926 17.334V17.3399M3.91926 17.334V17.3399M3.91926 17.3399V17.3459M3.91926 17.3399V17.3459M3.91926 17.3459V17.3518M3.91926 17.3459V17.3518M3.91926 17.3518V17.3578M3.91926 17.3518V17.3578M3.91926 17.3578V17.3637M3.91926 17.3578V17.3637M3.91926 17.3637V17.3696M3.91926 17.3637V17.3696M3.91926 17.3696V17.3756M3.91926 17.3696V17.3756M3.91926 17.3756V17.3815M3.91926 17.3756V17.3815M3.91926 17.3815V17.3874M3.91926 17.3815V17.3874M3.91926 17.3874V17.3934M3.91926 17.3874V17.3934M3.91926 17.3934V17.3993M3.91926 17.3934V17.3993M3.91926 17.3993V17.4052M3.91926 17.3993V17.4052M3.91926 17.4052V17.4112M3.91926 17.4052V17.4112M3.91926 17.4112V17.4171M3.91926 17.4112V17.4171M3.91926 17.4171V17.423M3.91926 17.4171V17.423M3.91926 17.423V17.429M3.91926 17.423V17.429M3.91926 17.429V17.4349M3.91926 17.429V17.4349M3.91926 17.4349V17.4408M3.91926 17.4349V17.4408M3.91926 17.4408V17.4468M3.91926 17.4408V17.4468M3.91926 17.4468V17.4527M3.91926 17.4468V17.4527M3.91926 17.4527V17.4586M3.91926 17.4527V17.4586M3.91926 17.4586V17.4646M3.91926 17.4586V17.4646M3.91926 17.4646V17.4705M3.91926 17.4646V17.4705M3.91926 17.4705V17.4764M3.91926 17.4705V17.4764M3.91926 17.4764V17.4824M3.91926 17.4764V17.4824M3.91926 17.4824V17.4883M3.91926 17.4824V17.4883M3.91926 17.4883V17.4942M3.91926 17.4883V17.4942M3.91926 17.4942V17.5002M3.91926 17.4942V17.5002M3.91926 17.5002V17.5061M3.91926 17.5002V17.5061M3.91926 17.5061V17.512M3.91926 17.5061V17.512M3.91926 17.512V17.518M3.91926 17.512V17.518M3.91926 17.518V17.5239M3.91926 17.518V17.5239M3.91926 17.5239V17.5298M3.91926 17.5239V17.5298M3.91926 17.5298V17.5358M3.91926 17.5298V17.5358M3.91926 17.5358V17.5417M3.91926 17.5358V17.5417M3.91926 17.5417V17.5476M3.91926 17.5417V17.5476M3.91926 17.5476V17.5536M3.91926 17.5476V17.5536M3.91926 17.5536V17.5595M3.91926 17.5536V17.5595M3.91926 17.5595V17.5655M3.91926 17.5595V17.5655M3.91926 17.5655V17.5714M3.91926 17.5655V17.5714M3.91926 17.5714V17.5773M3.91926 17.5714V17.5773M3.91926 17.5773V17.5833M3.91926 17.5773V17.5833M3.91926 17.5833V17.5892M3.91926 17.5833V17.5892M3.91926 17.5892V17.5951M3.91926 17.5892V17.5951M3.91926 17.5951V17.6011M3.91926 17.5951V17.6011M3.91926 17.6011V17.607M3.91926 17.6011V17.607M3.91926 17.607V17.6129M3.91926 17.607V17.6129M3.91926 17.6129V17.6189M3.91926 17.6129V17.6189M3.91926 17.6189V17.6248M3.91926 17.6189V17.6248M3.91926 17.6248V17.6307M3.91926 17.6248V17.6307M3.91926 17.6307V17.6367M3.91926 17.6307V17.6367M3.91926 17.6367V17.6426M3.91926 17.6367V17.6426M3.91926 17.6426V17.6485M3.91926 17.6426V17.6485M3.91926 17.6485V17.6545M3.91926 17.6485V17.6545M3.91926 17.6545V17.6604M3.91926 17.6545V17.6604M3.91926 17.6604V17.6663M3.91926 17.6604V17.6663M3.91926 17.6663V17.6723M3.91926 17.6663V17.6723M3.91926 17.6723V17.6782M3.91926 17.6723V17.6782M3.91926 17.6782V17.6841M3.91926 17.6782V17.6841M3.91926 17.6841V17.6901M3.91926 17.6841V17.6901M3.91926 17.6901V17.696M3.91926 17.6901V17.696M3.91926 17.696V17.7019M3.91926 17.696V17.7019M3.91926 17.7019V17.7079M3.91926 17.7019V17.7079M3.91926 17.7079V17.7138M3.91926 17.7079V17.7138M3.91926 17.7138V17.7197M3.91926 17.7138V17.7197M3.91926 17.7197V17.7257M3.91926 17.7197V17.7257M3.91926 17.7257V17.7316M3.91926 17.7257V17.7316M3.91926 17.7316V17.7375M3.91926 17.7316V17.7375M3.91926 17.7375V17.7435M3.91926 17.7375V17.7435M3.91926 17.7435V17.7494M3.91926 17.7435V17.7494M3.91926 17.7494V17.7553M3.91926 17.7494V17.7553M3.91926 17.7553V17.7613M3.91926 17.7553V17.7613M3.91926 17.7613V17.7672M3.91926 17.7613V17.7672M3.91926 17.7672V17.7731M3.91926 17.7672V17.7731M3.91926 17.7731V17.7791M3.91926 17.7731V17.7791M3.91926 17.7791V17.785M3.91926 17.7791V17.785M3.91926 17.785V17.7909M3.91926 17.785V17.7909M3.91926 17.7909V17.7969M3.91926 17.7909V17.7969M3.91926 17.7969V17.8028M3.91926 17.7969V17.8028M3.91926 17.8028V17.8087M3.91926 17.8028V17.8087M3.91926 17.8087V17.8147M3.91926 17.8087V17.8147M3.91926 17.8147V17.8206M3.91926 17.8147V17.8206M3.91926 17.8206V17.8265M3.91926 17.8206V17.8265M3.91926 17.8265V17.8325M3.91926 17.8265V17.8325M3.91926 17.8325V17.8384M3.91926 17.8325V17.8384M3.91926 17.8384V17.8443M3.91926 17.8384V17.8443M3.91926 17.8443V17.8503M3.91926 17.8443V17.8503M3.91926 17.8503V17.8562M3.91926 17.8503V17.8562M3.91926 17.8562V17.8621M3.91926 17.8562V17.8621M3.91926 17.8621V17.8681M3.91926 17.8621V17.8681M3.91926 17.8681V17.874M3.91926 17.8681V17.874M3.91926 17.874V17.8799M3.91926 17.874V17.8799M3.91926 17.8799V17.8859M3.91926 17.8799V17.8859M3.91926 17.8859V17.8918M3.91926 17.8859V17.8918M3.91926 17.8918V17.8978M3.91926 17.8918V17.8978M3.91926 17.8978V17.9037M3.91926 17.8978V17.9037M3.91926 17.9037V17.9096M3.91926 17.9037V17.9096M3.91926 17.9096V17.9156M3.91926 17.9096V17.9156M3.91926 17.9156V17.9215M3.91926 17.9156V17.9215M3.91926 17.9215V17.9274M3.91926 17.9215V17.9274M3.91926 17.9274V17.9334M3.91926 17.9274V17.9334M3.91926 17.9334V17.9393M3.91926 17.9334V17.9393M3.91926 17.9393V17.9452M3.91926 17.9393V17.9452M3.91926 17.9452V17.9512M3.91926 17.9452V17.9512M3.91926 17.9512V17.9571M3.91926 17.9512V17.9571M3.91926 17.9571V17.963M3.91926 17.9571V17.963M3.91926 17.963V17.969M3.91926 17.963V17.969M3.91926 17.969V17.9749M3.91926 17.969V17.9749M3.91926 17.9749V17.9808M3.91926 17.9749V17.9808M3.91926 17.9808V17.9868M3.91926 17.9808V17.9868M3.91926 17.9868V17.9927M3.91926 17.9868V17.9927M3.91926 17.9927V17.9986M3.91926 17.9927V17.9986M3.91926 17.9986V18.0046M3.91926 17.9986V18.0046M3.91926 18.0046V18.0105M3.91926 18.0046V18.0105M3.91926 18.0105V18.0164M3.91926 18.0105V18.0164M3.91926 18.0164V18.0224M3.91926 18.0164V18.0224M3.91926 18.0224V18.0283M3.91926 18.0224V18.0283M3.91926 18.0283V18.0342M3.91926 18.0283V18.0342M3.91926 18.0342V18.0402M3.91926 18.0342V18.0402M3.91926 18.0402V18.0461M3.91926 18.0402V18.0461M3.91926 18.0461V18.052M3.91926 18.0461V18.052M3.91926 18.052V18.058M3.91926 18.052V18.058M3.91926 18.058V18.0639M3.91926 18.058V18.0639M3.91926 18.0639V18.0698M3.91926 18.0639V18.0698M3.91926 18.0698V18.0758M3.91926 18.0698V18.0758M3.91926 18.0758V18.0817M3.91926 18.0758V18.0817M3.91926 18.0817V18.0876M3.91926 18.0817V18.0876M3.91926 18.0876V18.0936M3.91926 18.0876V18.0936M3.91926 18.0936V18.0995M3.91926 18.0936V18.0995M3.91926 18.0995V18.1054M3.91926 18.0995V18.1054M3.91926 18.1054V18.1114M3.91926 18.1054V18.1114M3.91926 18.1114V18.1173M3.91926 18.1114V18.1173M3.91926 18.1173V18.1232M3.91926 18.1173V18.1232M3.91926 18.1232V18.1292M3.91926 18.1232V18.1292M3.91926 18.1292V18.1351M3.91926 18.1292V18.1351M3.91926 18.1351V18.141M3.91926 18.1351V18.141M3.91926 18.141V18.147M3.91926 18.141V18.147M3.91926 18.147V18.1529M3.91926 18.147V18.1529M3.91926 18.1529V18.1588M3.91926 18.1529V18.1588M3.91926 18.1588V18.1648M3.91926 18.1588V18.1648M3.91926 18.1648V18.1707M3.91926 18.1648V18.1707M3.91926 18.1707V18.1766M3.91926 18.1707V18.1766M3.91926 18.1766V18.1826M3.91926 18.1766V18.1826M3.91926 18.1826V18.1885M3.91926 18.1826V18.1885M3.91926 18.1885V18.1944M3.91926 18.1885V18.1944M3.91926 18.1944V18.2004M3.91926 18.1944V18.2004M3.91926 18.2004V18.2063M3.91926 18.2004V18.2063M3.91926 18.2063V18.2122M3.91926 18.2063V18.2122M3.91926 18.2122V18.2182M3.91926 18.2122V18.2182M3.91926 18.2182V18.2241M3.91926 18.2182V18.2241M3.91926 18.2241V18.23M3.91926 18.2241V18.23M3.91926 18.23V18.236M3.91926 18.23V18.236M3.91926 18.236V18.2419M3.91926 18.236V18.2419M3.91926 18.2419V18.2478M3.91926 18.2419V18.2478M3.91926 18.2478V18.2538M3.91926 18.2478V18.2538M3.91926 18.2538V18.2597M3.91926 18.2538V18.2597M3.91926 18.2597V18.2656M3.91926 18.2597V18.2656M3.91926 18.2656V18.2716M3.91926 18.2656V18.2716M3.91926 18.2716V18.2775M3.91926 18.2716V18.2775M3.91926 18.2775V18.2834M3.91926 18.2775V18.2834M3.91926 18.2834V18.2894M3.91926 18.2834V18.2894M3.91926 18.2894V18.2953M3.91926 18.2894V18.2953M3.91926 18.2953V18.3012M3.91926 18.2953V18.3012M3.91926 18.3012V18.3072M3.91926 18.3012V18.3072M3.91926 18.3072V18.3131M3.91926 18.3072V18.3131M3.91926 18.3131V18.319M3.91926 18.3131V18.319M3.91926 18.319V18.325M3.91926 18.319V18.325M3.91926 18.325V18.3309M3.91926 18.325V18.3309M3.91926 18.3309V18.3368M3.91926 18.3309V18.3368M3.91926 18.3368V18.3428M3.91926 18.3368V18.3428M3.91926 18.3428V18.3487M3.91926 18.3428V18.3487M3.91926 18.3487V18.3546M3.91926 18.3487V18.3546M3.91926 18.3546V18.3606M3.91926 18.3546V18.3606M3.91926 18.3606V18.3665M3.91926 18.3606V18.3665M3.91926 18.3665V18.3724M3.91926 18.3665V18.3724M3.91926 18.3724V18.3784M3.91926 18.3724V18.3784M3.91926 18.3784V18.3843M3.91926 18.3784V18.3843M3.91926 18.3843V18.3902M3.91926 18.3843V18.3902M3.91926 18.3902V18.3962M3.91926 18.3902V18.3962M3.91926 18.3962V18.4021M3.91926 18.3962V18.4021M3.91926 18.4021V18.408M3.91926 18.4021V18.408M3.91926 18.408V18.414M3.91926 18.408V18.414M3.91926 18.414V18.4199M3.91926 18.414V18.4199M3.91926 18.4199V18.4258M3.91926 18.4199V18.4258M3.91926 18.4258V18.4318M3.91926 18.4258V18.4318M3.91926 18.4318V18.4377M3.91926 18.4318V18.4377M3.91926 18.4377V18.4436M3.91926 18.4377V18.4436M3.91926 18.4436V18.4496M3.91926 18.4436V18.4496M3.91926 18.4496V18.4555M3.91926 18.4496V18.4555M3.91926 18.4555V18.4614M3.91926 18.4555V18.4614M3.91926 18.4614V18.4674M3.91926 18.4614V18.4674M3.91926 18.4674V18.4733M3.91926 18.4674V18.4733M3.91926 18.4733V18.4792M3.91926 18.4733V18.4792M3.91926 18.4792V18.4852M3.91926 18.4792V18.4852M3.91926 18.4852V18.4911M3.91926 18.4852V18.4911M3.91926 18.4911V18.497M3.91926 18.4911V18.497M3.91926 18.497V18.503M3.91926 18.497V18.503M3.91926 18.503V18.5089M3.91926 18.503V18.5089M3.91926 18.5089V18.5148M3.91926 18.5089V18.5148M3.91926 18.5148V18.5208M3.91926 18.5148V18.5208M3.91926 18.5208V18.5267M3.91926 18.5208V18.5267M3.91926 18.5267V18.5326M3.91926 18.5267V18.5326M3.91926 18.5326V18.5386M3.91926 18.5326V18.5386M3.91926 18.5386V18.5445M3.91926 18.5386V18.5445M3.91926 18.5445V18.5504M3.91926 18.5445V18.5504M3.91926 18.5504V18.5564M3.91926 18.5504V18.5564M3.91926 18.5564V18.5623M3.91926 18.5564V18.5623M3.91926 18.5623V18.5682M3.91926 18.5623V18.5682M3.91926 18.5682V18.5742M3.91926 18.5682V18.5742M3.91926 18.5742V18.5801M3.91926 18.5742V18.5801M3.91926 18.5801V18.586M3.91926 18.5801V18.586M3.91926 18.586V18.592M3.91926 18.586V18.592M3.91926 18.592V18.5979M3.91926 18.592V18.5979M3.91926 18.5979V18.6038M3.91926 18.5979V18.6038M3.91926 18.6038V18.6098M3.91926 18.6038V18.6098M3.91926 18.6098V18.6157M3.91926 18.6098V18.6157M3.91926 18.6157V18.6216M3.91926 18.6157V18.6216M3.91926 18.6216V18.6276M3.91926 18.6216V18.6276M3.91926 18.6276V18.6335M3.91926 18.6276V18.6335M3.91926 18.6335V18.6394M3.91926 18.6335V18.6394M3.91926 18.6394V18.6454M3.91926 18.6394V18.6454M3.91926 18.6454V18.6513M3.91926 18.6454V18.6513M3.91926 18.6513V18.6572M3.91926 18.6513V18.6572M3.91926 18.6572V18.6632M3.91926 18.6572V18.6632M3.91926 18.6632V18.6691M3.91926 18.6632V18.6691M3.91926 18.6691V18.675M3.91926 18.6691V18.675M3.91926 18.675V18.681M3.91926 18.675V18.681M3.91926 18.681V18.6869M3.91926 18.681V18.6869M3.91926 18.6869V18.6928M3.91926 18.6869V18.6928M3.91926 18.6928V18.6988M3.91926 18.6928V18.6988M3.91926 18.6988V18.7047M3.91926 18.6988V18.7047M3.91926 18.7047V18.7106M3.91926 18.7047V18.7106M3.91926 18.7106V18.7166M3.91926 18.7106V18.7166M3.91926 18.7166V18.7225M3.91926 18.7166V18.7225M3.91926 18.7225V18.7284M3.91926 18.7225V18.7284M3.91926 18.7284V18.7344M3.91926 18.7284V18.7344M3.91926 18.7344V18.7403M3.91926 18.7344V18.7403M3.91926 18.7403V18.7462M3.91926 18.7403V18.7462M3.91926 18.7462V18.7522M3.91926 18.7462V18.7522M3.91926 18.7522V18.7581M3.91926 18.7522V18.7581M3.91926 18.7581V18.764M3.91926 18.7581V18.764M3.91926 18.764V18.77M3.91926 18.764V18.77M3.91926 18.77V18.7759M3.91926 18.77V18.7759M3.91926 18.7759V18.7818M3.91926 18.7759V18.7818M3.91926 18.7818V18.7878M3.91926 18.7818V18.7878M3.91926 18.7878V18.7937M3.91926 18.7878V18.7937M3.91926 18.7937V18.7996M3.91926 18.7937V18.7996M3.91926 18.7996V18.8056M3.91926 18.7996V18.8056M3.91926 18.8056V18.8115M3.91926 18.8056V18.8115M3.91926 18.8115V18.8174M3.91926 18.8115V18.8174M3.91926 18.8174V18.8234M3.91926 18.8174V18.8234M3.91926 18.8234V18.8293M3.91926 18.8234V18.8293M3.91926 18.8293V18.8352M3.91926 18.8293V18.8352M3.91926 18.8352V18.8412M3.91926 18.8352V18.8412M3.91926 18.8412V18.8471M3.91926 18.8412V18.8471M3.91926 18.8471V18.853M3.91926 18.8471V18.853M3.91926 18.853V18.859M3.91926 18.853V18.859M3.91926 18.859V18.8649M3.91926 18.859V18.8649M3.91926 18.8649V18.8708M3.91926 18.8649V18.8708M3.91926 18.8708V18.8768M3.91926 18.8708V18.8768M3.91926 18.8768V18.8827M3.91926 18.8768V18.8827M3.91926 18.8827V18.8886M3.91926 18.8827V18.8886M3.91926 18.8886V18.8946M3.91926 18.8886V18.8946M3.91926 18.8946V18.9005M3.91926 18.8946V18.9005M3.91926 18.9005V18.9064M3.91926 18.9005V18.9064M3.91926 18.9064V18.9124M3.91926 18.9064V18.9124M3.91926 18.9124V18.9183M3.91926 18.9124V18.9183M3.91926 18.9183V18.9242M3.91926 18.9183V18.9242M3.91926 18.9242V18.9302M3.91926 18.9242V18.9302M3.91926 18.9302V18.9361M3.91926 18.9302V18.9361M3.91926 18.9361V18.942M3.91926 18.9361V18.942M3.91926 18.942V18.948M3.91926 18.942V18.948M3.91926 18.948V18.9539M3.91926 18.948V18.9539M3.91926 18.9539V18.9598M3.91926 18.9539V18.9598M3.91926 18.9598V18.9658M3.91926 18.9598V18.9658M3.91926 18.9658V18.9717M3.91926 18.9658V18.9717M3.91926 18.9717V18.9776M3.91926 18.9717V18.9776M3.91926 18.9776V18.9836M3.91926 18.9776V18.9836M3.91926 18.9836V18.9895M3.91926 18.9836V18.9895M3.91926 18.9895V18.9954M3.91926 18.9895V18.9954M3.91926 18.9954V19.0014M3.91926 18.9954V19.0014M3.91926 19.0014V19.0073M3.91926 19.0014V19.0073M3.91926 19.0073V19.0132M3.91926 19.0073V19.0132M3.91926 19.0132V19.0192M3.91926 19.0132V19.0192M3.91926 19.0192V19.0251M3.91926 19.0192V19.0251M3.91926 19.0251V19.031M3.91926 19.0251V19.031M3.91926 19.031V19.037M3.91926 19.031V19.037M3.91926 19.037V19.0429M3.91926 19.037V19.0429M3.91926 19.0429V19.0488M3.91926 19.0429V19.0488M3.91926 19.0488V19.0548M3.91926 19.0488V19.0548M3.91926 19.0548V19.0607M3.91926 19.0548V19.0607M3.91926 19.0607V19.0666M3.91926 19.0607V19.0666M3.91926 19.0666V19.0726M3.91926 19.0666V19.0726M3.91926 19.0726V19.0785M3.91926 19.0726V19.0785M3.91926 19.0785V19.0844M3.91926 19.0785V19.0844M3.91926 19.0844V19.0904M3.91926 19.0844V19.0904M3.91926 19.0904V19.0963M3.91926 19.0904V19.0963M3.91926 19.0963V19.1022M3.91926 19.0963V19.1022M3.91926 19.1022V19.1082M3.91926 19.1022V19.1082M3.91926 19.1082V19.1141M3.91926 19.1082V19.1141M3.91926 19.1141V19.12M3.91926 19.1141V19.12M3.91926 19.12V19.126M3.91926 19.12V19.126M3.91926 19.126V19.1319M3.91926 19.126V19.1319M3.91926 19.1319V19.1378M3.91926 19.1319V19.1378M3.91926 19.1378V19.1438M3.91926 19.1378V19.1438M3.91926 19.1438V19.1497M3.91926 19.1438V19.1497M3.91926 19.1497V19.1556M3.91926 19.1497V19.1556M3.91926 19.1556V19.1616M3.91926 19.1556V19.1616M3.91926 19.1616V19.1675M3.91926 19.1616V19.1675M3.91926 19.1675V19.1734M3.91926 19.1675V19.1734M3.91926 19.1734V19.1794M3.91926 19.1734V19.1794M3.91926 19.1794V19.1853M3.91926 19.1794V19.1853M3.91926 19.1853V19.1912M3.91926 19.1853V19.1912M3.91926 19.1912V19.1972M3.91926 19.1912V19.1972M3.91926 19.1972V19.2031M3.91926 19.1972V19.2031M3.91926 19.2031V19.209M3.91926 19.2031V19.209M3.91926 19.209V19.215M3.91926 19.209V19.215M3.91926 19.215V19.2209M3.91926 19.215V19.2209M3.91926 19.2209V19.2268M3.91926 19.2209V19.2268M3.91926 19.2268V19.2328M3.91926 19.2268V19.2328M3.91926 19.2328V19.2387M3.91926 19.2328V19.2387M3.91926 19.2387V19.2446M3.91926 19.2387V19.2446M3.91926 19.2446V19.2506M3.91926 19.2446V19.2506M3.91926 19.2506V19.2565M3.91926 19.2506V19.2565M3.91926 19.2565V19.2624M3.91926 19.2565V19.2624M3.91926 19.2624V19.2684M3.91926 19.2624V19.2684M3.91926 19.2684V19.2743M3.91926 19.2684V19.2743M3.91926 19.2743V19.2802M3.91926 19.2743V19.2802M3.91926 19.2802V19.2862M3.91926 19.2802V19.2862M3.91926 19.2862V19.2921M3.91926 19.2862V19.2921M3.91926 19.2921V19.298M3.91926 19.2921V19.298M3.91926 19.298V19.304M3.91926 19.298V19.304M3.91926 19.304V19.3099M3.91926 19.304V19.3099M3.91926 19.3099V19.3158M3.91926 19.3099V19.3158M3.91926 19.3158V19.3218M3.91926 19.3158V19.3218M3.91926 19.3218V19.3277M3.91926 19.3218V19.3277M3.91926 19.3277V19.3336M3.91926 19.3277V19.3336M3.91926 19.3336V19.3396M3.91926 19.3336V19.3396M3.91926 19.3396V19.3455M3.91926 19.3396V19.3455M3.91926 19.3455V19.3514M3.91926 19.3455V19.3514M3.91926 19.3514V19.3574M3.91926 19.3514V19.3574M3.91926 19.3574V19.3633M3.91926 19.3574V19.3633M3.91926 19.3633V19.3692M3.91926 19.3633V19.3692M3.91926 19.3692V19.3752M3.91926 19.3692V19.3752M3.91926 19.3752V19.3811M3.91926 19.3752V19.3811M3.91926 19.3811V19.387M3.91926 19.3811V19.387M3.91926 19.387V19.393M3.91926 19.387V19.393M3.91926 19.393V19.3989M3.91926 19.393V19.3989M3.91926 19.3989V19.4048M3.91926 19.3989V19.4048M3.91926 19.4048V19.4108M3.91926 19.4048V19.4108M3.91926 19.4108V19.4167M3.91926 19.4108V19.4167M3.91926 19.4167V19.4226M3.91926 19.4167V19.4226M3.91926 19.4226V19.4286M3.91926 19.4226V19.4286M3.91926 19.4286V19.4345M3.91926 19.4286V19.4345M3.91926 19.4345V19.4404M3.91926 19.4345V19.4404M3.91926 19.4404V19.4464M3.91926 19.4404V19.4464M3.91926 19.4464V19.4523M3.91926 19.4464V19.4523M3.91926 19.4523V19.4582M3.91926 19.4523V19.4582M3.91926 19.4582V19.4642M3.91926 19.4582V19.4642M3.91926 19.4642V19.4701M3.91926 19.4642V19.4701M3.91926 19.4701V19.476M3.91926 19.4701V19.476M3.91926 19.476V19.482M3.91926 19.476V19.482M3.91926 19.482V19.4879M3.91926 19.482V19.4879M3.91926 19.4879V19.4938M3.91926 19.4879V19.4938M3.91926 19.4938V19.4998M3.91926 19.4938V19.4998M3.91926 19.4998V19.5057M3.91926 19.4998V19.5057M3.91926 19.5057V19.5116M3.91926 19.5057V19.5116M3.91926 19.5116V19.5176M3.91926 19.5116V19.5176M3.91926 19.5176V19.5235M3.91926 19.5176V19.5235M3.91926 19.5235V19.5294M3.91926 19.5235V19.5294M3.91926 19.5294V19.5354M3.91926 19.5294V19.5354M3.91926 19.5354V19.5413M3.91926 19.5354V19.5413M3.91926 19.5413V19.5472M3.91926 19.5413V19.5472M3.91926 19.5472V19.5532M3.91926 19.5472V19.5532M3.91926 19.5532V19.5591M3.91926 19.5532V19.5591M3.91926 19.5591V19.565M3.91926 19.5591V19.565M3.91926 19.565V19.571M3.91926 19.565V19.571M3.91926 19.571V19.5769M3.91926 19.571V19.5769M3.91926 19.5769V19.5828M3.91926 19.5769V19.5828M3.91926 19.5828V19.5888M3.91926 19.5828V19.5888M3.91926 19.5888V19.5947M3.91926 19.5888V19.5947M3.91926 19.5947V19.6006M3.91926 19.5947V19.6006M3.91926 19.6006V19.6066M3.91926 19.6006V19.6066M3.91926 19.6066V19.6125M3.91926 19.6066V19.6125M3.91926 19.6125V19.6185M3.91926 19.6125V19.6185M3.91926 19.6185V19.6244M3.91926 19.6185V19.6244M3.91926 19.6244V19.6303M3.91926 19.6244V19.6303M3.91926 19.6303V19.6363M3.91926 19.6303V19.6363M3.91926 19.6363V19.6422M3.91926 19.6363V19.6422M3.91926 19.6422V19.6481M3.91926 19.6422V19.6481M3.91926 19.6481V19.6541M3.91926 19.6481V19.6541M3.91926 19.6541V19.66M3.91926 19.6541V19.66M3.91926 19.66V19.6659M3.91926 19.66V19.6659M3.91926 19.6659V19.6719M3.91926 19.6659V19.6719M3.91926 19.6719V19.6778M3.91926 19.6719V19.6778M3.91926 19.6778V19.6837M3.91926 19.6778V19.6837M3.91926 19.6837V19.6897M3.91926 19.6837V19.6897M3.91926 19.6897V19.6956M3.91926 19.6897V19.6956M3.91926 19.6956V19.7015M3.91926 19.6956V19.7015M3.91926 19.7015V19.7075M3.91926 19.7015V19.7075M3.91926 19.7075V19.7134M3.91926 19.7075V19.7134M3.91926 19.7134V19.7193M3.91926 19.7134V19.7193M3.91926 19.7193V19.7253M3.91926 19.7193V19.7253M3.91926 19.7253V19.7312M3.91926 19.7253V19.7312M3.91926 19.7312V19.7371M3.91926 19.7312V19.7371M3.91926 19.7371V19.7431M3.91926 19.7371V19.7431M3.91926 19.7431V19.749M3.91926 19.7431V19.749M3.91926 19.749V19.7549M3.91926 19.749V19.7549M3.91926 19.7549V19.7609M3.91926 19.7549V19.7609M3.91926 19.7609V19.7668M3.91926 19.7609V19.7668M3.91926 19.7668V19.7727M3.91926 19.7668V19.7727M3.91926 19.7727V19.7787M3.91926 19.7727V19.7787M3.91926 19.7787V19.7846M3.91926 19.7787V19.7846M3.91926 19.7846V19.7905M3.91926 19.7846V19.7905M3.91926 19.7905V19.7965M3.91926 19.7905V19.7965M3.91926 19.7965V19.8024M3.91926 19.7965V19.8024M3.91926 19.8024V19.8083M3.91926 19.8024V19.8083M3.91926 19.8083V19.8143M3.91926 19.8083V19.8143M3.91926 19.8143V19.8202M3.91926 19.8143V19.8202M3.91926 19.8202V19.8261M3.91926 19.8202V19.8261M3.91926 19.8261V19.8321M3.91926 19.8261V19.8321M3.91926 19.8321V19.838M3.91926 19.8321V19.838M3.91926 19.838V19.8439M3.91926 19.838V19.8439M3.91926 19.8439V19.8499M3.91926 19.8439V19.8499M3.91926 19.8499V19.8558M3.91926 19.8499V19.8558M3.91926 19.8558V19.8618M3.91926 19.8558V19.8618M3.91926 19.8618V19.8677M3.91926 19.8618V19.8677M3.91926 19.8677V19.8736M3.91926 19.8677V19.8736M3.91926 19.8736V19.8796M3.91926 19.8736V19.8796M3.91926 19.8796V19.8855M3.91926 19.8796V19.8855M3.91926 19.8855V19.8914M3.91926 19.8855V19.8914M3.91926 19.8914V19.8974M3.91926 19.8914V19.8974M3.91926 19.8974V19.9033M3.91926 19.8974V19.9033M3.91926 19.9033V19.9092M3.91926 19.9033V19.9092M3.91926 19.9092V19.9152M3.91926 19.9092V19.9152M3.91926 19.9152V19.9211M3.91926 19.9152V19.9211M3.91926 19.9211V19.927M3.91926 19.9211V19.927M3.91926 19.927V19.933M3.91926 19.927V19.933M3.91926 19.933V19.9389M3.91926 19.933V19.9389M3.91926 19.9389V19.9448M3.91926 19.9389V19.9448M3.91926 19.9448V19.9508M3.91926 19.9448V19.9508M3.91926 19.9508V19.9567M3.91926 19.9508V19.9567M3.91926 19.9567V19.9626M3.91926 19.9567V19.9626M3.91926 19.9626V19.9686M3.91926 19.9626V19.9686M3.91926 19.9686V19.9745M3.91926 19.9686V19.9745M3.91926 19.9745V19.9804M3.91926 19.9745V19.9804M3.91926 19.9804V19.9864M3.91926 19.9804V19.9864M3.91926 19.9864V19.9923M3.91926 19.9864V19.9923M3.91926 19.9923V19.9982M3.91926 19.9923V19.9982M3.91926 19.9982V20.0042M3.91926 19.9982V20.0042M3.91926 20.0042V20.0101M3.91926 20.0042V20.0101M3.91926 20.0101V20.016M3.91926 20.0101V20.016M3.91926 20.016V20.022M3.91926 20.016V20.022M3.91926 20.022V20.0279M3.91926 20.022V20.0279M3.91926 20.0279V20.0339M3.91926 20.0279V20.0339M3.91926 20.0339V20.0398M3.91926 20.0339V20.0398M3.91926 20.0398V20.0457M3.91926 20.0398V20.0457M3.91926 20.0457V20.0517M3.91926 20.0457V20.0517M3.91926 20.0517V20.0576M3.91926 20.0517V20.0576M3.91926 20.0576V20.0635M3.91926 20.0576V20.0635M3.91926 20.0635V20.0695M3.91926 20.0635V20.0695M3.91926 20.0695V20.0754M3.91926 20.0695V20.0754M3.91926 20.0754V20.0813M3.91926 20.0754V20.0813M3.91926 20.0813V20.0873M3.91926 20.0813V20.0873M3.91926 20.0873V20.0932M3.91926 20.0873V20.0932M3.91926 20.0932V20.0991M3.91926 20.0932V20.0991M3.91926 20.0991V20.1051M3.91926 20.0991V20.1051M3.91926 20.1051V20.111M3.91926 20.1051V20.111M3.91926 20.111V20.1169M3.91926 20.111V20.1169M3.91926 20.1169V20.1229M3.91926 20.1169V20.1229M3.91926 20.1229V20.1288M3.91926 20.1229V20.1288M3.91926 20.1288V20.1347M3.91926 20.1288V20.1347M3.91926 20.1347V20.1407M3.91926 20.1347V20.1407M3.91926 20.1407V20.1466M3.91926 20.1407V20.1466M3.91926 20.1466V20.1525M3.91926 20.1466V20.1525M3.91926 20.1525V20.1585M3.91926 20.1525V20.1585M3.91926 20.1585V20.1644M3.91926 20.1585V20.1644M3.91926 20.1644V20.1704M3.91926 20.1644V20.1704M3.91926 20.1704V20.1763M3.91926 20.1704V20.1763M3.91926 20.1763V20.4268V20.1763Z" fill="#0255A3" stroke="white" stroke-width="0.3"/>
<path d="M10.6762 14.7522C10.6763 14.7522 10.6763 14.7522 10.6763 14.7522C10.7112 14.7871 10.7494 14.8219 10.7948 14.8632C10.8159 14.8824 10.8386 14.903 10.8631 14.9257L11.1148 15.1579V14.8154V14.5471V14.5257V14.5043V14.4829V14.4616V14.4402V14.4188V14.3974V14.376V14.3546V14.3333V14.3119V14.2905V14.2691V14.2477V14.2264V14.205V14.1836V14.1622V14.1408V14.1194V14.0981V14.0767V14.0553V14.0339V14.0125V13.9912V13.9698V13.9484V13.927V13.9056V13.8842V13.8629V13.8415V13.8201V13.7987V13.7773V13.756V13.7346V13.7132V13.6918V13.6704V13.6491V13.6277V13.6063V13.5849V13.5635V13.5421V13.5208V13.4994V13.478V13.4566V13.4352V13.4138V13.3925V13.3711V13.3497V13.3283V13.3069V13.2856V13.2642V13.2428V13.2214V13.2V13.1786V13.1573V13.1359V13.1145V13.0931V13.0717V13.0504V13.029V13.0076V12.9862V12.9648V12.9434V12.9221V12.9007V12.8793V12.8579V12.8365V12.8152V12.7938V12.7724V12.751V12.7296V12.7082V12.6869V12.6655V12.6441V12.6227V12.6013V12.5799V12.5586V12.5372V12.5158V12.4944V12.473V12.4517V12.4303V12.4089V12.3875V12.3661V12.3447V12.3234V12.302V12.2806V12.2592V12.2378V12.2164V12.1951V12.1737V12.1523V12.1309V12.1095V12.0881V12.0668V12.0454V12.024V12.0026V11.9812V11.9599V11.9385V11.9171V11.8957V11.8743V11.8529V11.8316V11.8102V11.7888V11.7674V11.746V11.7246V11.7033V11.6819V11.6605V11.6391V11.6177V11.5963V11.575V11.5536V11.5322V11.5108V11.4894V11.4681V11.4467V11.4253V11.4039V11.3825V11.3611V11.3398V11.3184V11.297V11.2756V11.2542V11.2328V11.2115V11.1901V11.1687V11.1473V11.1259V11.1045V11.0832V11.0618V11.0404V11.019V10.9976V10.9762V10.9549V10.9335V10.9121V10.8907V10.8693V10.848V10.8266V10.8052V10.7838V10.7624V10.741V10.7197V10.6983V10.6769V10.6555V10.6341V10.6127V10.5914V10.57V10.5486V10.5272V10.5058V10.4844V10.4631V10.4417V10.4203V10.3989V10.3775V10.3561V10.3348V10.3134V10.292V10.2706V10.2492V10.2278V10.2065V10.1851V10.1637V10.1423V10.1209V10.0995V10.0782V10.0568V10.0354V10.014V9.99263V9.97125V9.94987V9.92849V9.9071V9.88572V9.86434V9.84295V9.82157V9.80019V9.7788V9.75742V9.73604V9.71465V9.69327V9.67189V9.65051V9.62912V9.60774V9.58636V9.56497V9.54359V9.52221V9.50082V9.47944V9.45806V9.43668V9.41529V9.39391V9.37253V9.35114V9.32976V9.30838V9.28699V9.26561V9.24423V9.22285V9.20146V9.18008V9.1587V9.13731V9.11593V9.09455V9.07316V9.05178V9.0304V9.00902V8.98763V8.96625V8.94487V8.92348V8.9021V8.88072V8.85933V8.83795V8.81657V8.79518V8.7738V8.75242V8.73104V8.70965V8.68827V8.66689V8.6455V8.62412V8.60274V8.58135V8.55997V8.53859V8.51721V8.49582V8.47444V8.45306V8.43167V8.41029V8.38891V8.36752V8.34614V8.32476V8.30338V8.28199V8.26061V8.23923V8.21784V8.19646V8.17508V8.15369V8.13231V8.11093V8.08955V8.06816V8.04678V8.0254V8.00401V7.98263V7.96125V7.93986V7.91848V7.8971V7.87572V7.85433V7.83295V7.81157V7.79018V7.7688V7.74742V7.72604V7.70465V7.68327V7.66189V7.6405V7.61912V7.59774V7.57635V7.55497V7.53359V7.51221V7.49082V7.46944V7.44806V7.42667V7.40529V7.38391V7.36253V7.34114V7.31976V7.29838V7.27699V7.25561V7.23423V7.21285V7.19146V7.17008V7.1487V7.12731V7.10593V7.08455V7.06317V7.04178V7.0204V6.99902V6.97763V6.95625V6.93487V6.91349V6.8921V6.87072V6.84934V6.82796V6.80657V6.78519V6.76381V6.74242V6.72104V6.69966V6.67828V6.65689V6.63551V6.61413V6.59275V6.57136V6.54998V6.5286V6.50721V6.48583V6.46445V6.44307V6.42168V6.4003V6.37892V6.35754V6.33615V6.31477V6.29339V6.27201V6.25062V6.22924V6.20786V6.18648V6.16509V6.14371V6.12233V6.10094V6.07956V6.05818V6.0368V6.01541V5.99403V5.97265V5.95127V5.92988V5.9085V5.88712V5.86574V5.84435V5.82297V5.80159V5.78021V5.75883V5.73744V5.71606V5.69468V5.6733V5.65191V5.63053V5.60915V5.58777V5.56638V5.545V5.52362V5.50224V5.48085V5.45947V5.43809V5.41671V5.39533V5.37394V5.35256V5.33118V5.3098V5.28841V5.26703V5.24565V5.22427V5.20289V5.1815V5.16012V5.13874V5.11736V5.09597V5.07459V5.05321V5.03183V5.01045V4.98906V4.96768V4.9463V4.92492V4.90354V4.88215V4.86077V4.83939V4.81801V4.79663V4.77524V4.75386V4.73248V4.7111V4.68972V4.66833V4.64695V4.62557V4.60419V4.58281V4.56142V4.54004V4.51866V4.49728V4.4759V4.45451V4.43313V4.41175V4.39037V4.36899V4.34761V4.32622V4.30484V4.28346V4.26208V4.2407V4.21931V4.19793V4.17655V4.15517V4.13379V4.11241V4.09102V4.06964V4.04826V4.02688V4.0055V3.98412V3.96274V3.94135V3.91997V3.89859V3.87721V3.85583V3.83445V3.81306V3.79168V3.7703V3.74892V3.72754V3.70616V3.68478V3.66339V3.64201V3.62063V3.59925C11.1148 3.03642 11.5027 2.64518 12.0094 2.65054L12.0096 2.65055C12.4694 2.65497 12.8538 3.02138 12.8804 3.48235L12.8804 3.48276C12.8839 3.5404 12.8834 3.5964 12.8829 3.65815C12.8826 3.68187 12.8824 3.70644 12.8824 3.73227V3.7534V3.77453V3.79565V3.81678V3.83791V3.85904V3.88017V3.9013V3.92242V3.94355V3.96468V3.98581V4.00694V4.02807V4.04919V4.07032V4.09145V4.11258V4.13371V4.15484V4.17597V4.19709V4.21822V4.23935V4.26048V4.28161V4.30274V4.32387V4.34499V4.36612V4.38725V4.40838V4.42951V4.45064V4.47177V4.4929V4.51402V4.53515V4.55628V4.57741V4.59854V4.61967V4.6408V4.66193V4.68305V4.70418V4.72531V4.74644V4.76757V4.7887V4.80983V4.83096V4.85209V4.87321V4.89434V4.91547V4.9366V4.95773V4.97886V4.99999V5.02112V5.04225V5.06338V5.0845V5.10563V5.12676V5.14789V5.16902V5.19015V5.21128V5.23241V5.25354V5.27467V5.2958V5.31692V5.33805V5.35918V5.38031V5.40144V5.42257V5.4437V5.46483V5.48596V5.50709V5.52822V5.54935V5.57047V5.5916V5.61273V5.63386V5.65499V5.67612V5.69725V5.71838V5.73951V5.76064V5.78177V5.8029V5.82403V5.84516V5.86629V5.88741V5.90854V5.92967V5.9508V5.97193V5.99306V6.01419V6.03532V6.05645V6.07758V6.09871V6.11984V6.14097V6.1621V6.18323V6.20436V6.22549V6.24661V6.26774V6.28887V6.31V6.33113V6.35226V6.37339V6.39452V6.41565V6.43678V6.45791V6.47904V6.50017V6.5213V6.54243V6.56356V6.58469V6.60582V6.62695V6.64808V6.66921V6.69034V6.71147V6.7326V6.75373V6.77485V6.79598V6.81711V6.83824V6.85937V6.8805V6.90163V6.92276V6.94389V6.96502V6.98615V7.00728V7.02841V7.04954V7.07067V7.0918V7.11293V7.13406V7.15519V7.17632V7.19745V7.21858V7.23971V7.26084V7.28197V7.3031V7.32423V7.34536V7.36649V7.38762V7.40875V7.42988V7.45101V7.47214V7.49327V7.5144V7.53553V7.55666V7.57779V7.59892V7.62005V7.64117V7.6623V7.68343V7.70456V7.72569V7.74682V7.76795V7.78908V7.81021V7.83134V7.85247V7.8736V7.89473V7.91586V7.93699V7.95812V7.97925V8.00038V8.02151V8.04264V8.06377V8.0849V8.10603V8.12716V8.14829V8.16942V8.19055V8.21168V8.23281V8.25394V8.27507V8.2962V8.31733V8.33846V8.35959V8.38072V8.40185V8.42298V8.44411V8.46524V8.48637V8.5075V8.52863V8.54976V8.57089V8.59202V8.61315V8.63428V8.65541V8.67654V8.69767V8.7188V8.73993V8.76106V8.78219V8.80332V8.82445V8.84558V8.86671V8.88784V8.90897V8.9301V8.95123V8.97236V8.99349V9.01462V9.03575V9.05688V9.07801V9.09914V9.12027V9.1414V9.16253V9.18366V9.20479V9.22592V9.24705V9.26818V9.28931V9.31044V9.33157V9.3527V9.37383V9.39496V9.41609V9.43722V9.45835V9.47948V9.50061V9.52174V9.54287V9.564V9.58513V9.60626V9.62739V9.64852V9.66965V9.69078V9.71191V9.73304V9.75417V9.7753V9.79643V9.81756V9.83869V9.85982V9.88095V9.90208V9.92321V9.94434V9.96547V9.9866V10.0077V10.0289V10.05V10.0711V10.0922V10.1134V10.1345V10.1556V10.1768V10.1979V10.219V10.2402V10.2613V10.2824V10.3035V10.3247V10.3458V10.3669V10.3881V10.4092V10.4303V10.4515V10.4726V10.4937V10.5148V10.536V10.5571V10.5782V10.5994V10.6205V10.6416V10.6628V10.6839V10.705V10.7261V10.7473V10.7684V10.7895V10.8107V10.8318V10.8529V10.8741V10.8952V10.9163V10.9374V10.9586V10.9797V11.0008V11.022V11.0431V11.0642V11.0854V11.1065V11.1276V11.1487V11.1699V11.191V11.2121V11.2333V11.2544V11.2755V11.2966V11.3178V11.3389V11.36V11.3812V11.4023V11.4234V11.4446V11.4657V11.4868V11.5079V11.5291V11.5502V11.5713V11.5925V11.6136V11.6347V11.6559V11.677V11.6981V11.7192V11.7404V11.7615V11.7826V11.8038V11.8249V11.846V11.8672V11.8883V11.9094V11.9305V11.9517V11.9728V11.9939V12.0151V12.0362V12.0573V12.0784V12.0996V12.1207V12.1418V12.163V12.1841V12.2052V12.2264V12.2475V12.2686V12.2897V12.3109V12.332V12.3531V12.3743V12.3954V12.4165V12.4376V12.4588V12.4799V12.501V12.5222V12.5433V12.5644V12.5856V12.6067V12.6278V12.6489V12.6701V12.6912V12.7123V12.7335V12.7546V12.7757V12.7968V12.818V12.8391V12.8602V12.8814V12.9025V12.9236V12.9447V12.9659V12.987V13.0081V13.0293V13.0504V13.0715V13.0927V13.1138V13.1349V13.156V13.1772V13.1983V13.2194V13.2406V13.2617V13.2828V13.3039V13.3251V13.3462V13.3673V13.3885V13.4096V13.4307V13.4518V13.473V13.4941V13.5152V13.5364V13.5575V13.5786V13.5997V13.6209V13.642V13.6631V13.6843V13.7054V13.7265V13.7476V13.7688V13.7899V13.811V13.8322V13.8533V13.8744V13.8955V13.9167V13.9378V13.9589V13.9801V14.0012V14.0223V14.0434V14.0646V14.0857V14.1068V14.128V14.1491V14.1702V14.1913V14.2125V14.2336V14.2547V14.2759V14.297V14.3181V14.3392V14.3604V14.3815V14.4026V14.4238V14.4449V14.466V14.4871V14.5083V14.5294V14.5505V14.8183V15.1804L13.1375 14.9253L10.6762 14.7522ZM10.6762 14.7522C10.4758 14.5519 10.2758 14.3515 10.0759 14.1512C9.6366 13.711 9.19768 13.2712 8.75553 12.8341C8.37054 12.4536 7.83167 12.4506 7.48065 12.7958C7.12245 13.1482 7.12023 13.6946 7.50766 14.0836L7.50767 14.0836C8.77941 15.3607 10.054 16.6355 11.3315 17.9079L11.3315 17.9079C11.5443 18.12 11.7766 18.217 11.9991 18.2173C12.2216 18.2176 12.4537 18.1212 12.6664 17.9096L12.7722 18.0159L10.6762 14.7522Z" fill="#0255A3" stroke="white" stroke-width="0.3"/>
</g>
<defs>
<clipPath id="clip0_2038_11470">
<rect width="20" height="20" fill="white" transform="translate(2 2.5)"/>
</clipPath>
</defs>
</svg>
