<svg width="24" height="24" viewBox="0 0 24 24" fill="none" xmlns="http://www.w3.org/2000/svg">
<g clip-path="url(#clip0_571_13165)">
<path d="M11.183 18.4169C11.183 17.9661 11.5489 17.6002 11.9997 17.6002C12.4504 17.6002 12.8163 17.9661 12.8163 18.4169C12.8163 18.8677 12.4504 19.2335 11.9997 19.2335C11.5489 19.2335 11.183 18.8677 11.183 18.4169Z" fill="#0255A3" stroke="white" stroke-width="0.2"/>
<path d="M5.44775 18.5525C1.82863 14.9341 1.82864 9.0667 5.44766 5.44768L5.44775 18.5525ZM5.44775 18.5525C9.06589 22.1714 14.9333 22.1714 18.5525 18.5523M5.44775 18.5525L18.5525 18.5523M18.5525 18.5523C22.1714 14.9342 22.1714 9.06674 18.5524 5.44767C14.9333 1.8286 9.0659 1.82858 5.44767 5.44767L18.5525 18.5523ZM4.29264 4.29277L4.29264 4.29276C8.54866 0.0357658 15.4504 0.0357555 19.7073 4.29268C23.9642 8.54965 23.9642 15.4513 19.7073 19.7073L19.778 19.778L19.7073 19.7073C15.4504 23.9642 8.54866 23.9642 4.29282 19.7074L4.2928 19.7074C0.0357655 15.4513 0.0357558 8.54965 4.29264 4.29277Z" fill="#0255A3" stroke="white" stroke-width="0.2"/>
<path d="M12.3572 7.43201L12.3571 7.43201C11.1445 7.21914 10.0663 8.13201 10.0663 9.33364C10.0663 9.78467 9.70069 10.1503 9.24966 10.1503C8.79863 10.1503 8.43301 9.78467 8.43301 9.33364C8.43301 7.12181 10.4224 5.43409 12.6398 5.82332C14.0837 6.07715 15.2562 7.24963 15.51 8.6937C15.7816 10.2399 15.0446 11.7281 13.7195 12.4587L13.7677 12.5463L13.7195 12.4587C13.1621 12.766 12.8163 13.4266 12.8163 14.1525V15.7503C12.8163 16.2013 12.4506 16.5669 11.9996 16.5669C11.5486 16.5669 11.183 16.2013 11.183 15.7503V14.1525C11.183 12.8481 11.8332 11.6336 12.9309 11.0284C13.6528 10.6304 14.0505 9.82556 13.9013 8.97637L13.9013 8.97636C13.7665 8.20931 13.124 7.56683 12.3572 7.43201Z" fill="#0255A3" stroke="white" stroke-width="0.2"/>
</g>
<defs>
<clipPath id="clip0_571_13165">
<rect width="22" height="22" fill="white" transform="translate(1 1)"/>
</clipPath>
</defs>
</svg>
