<svg width="24" height="25" viewBox="0 0 24 25" fill="none" xmlns="http://www.w3.org/2000/svg">
<path d="M7.09298 21.364L7.04464 21.3472C7.042 21.3461 7.03967 21.3443 7.03785 21.3421C7.03602 21.34 7.03474 21.3374 7.03413 21.3346L6.31738 20.9282C6.22546 20.8913 6.12741 20.8721 6.02837 20.8715C5.98876 20.8709 5.94924 20.8752 5.91066 20.8841C5.16495 21.1519 4.40286 21.3718 3.62905 21.5425L3.48717 21.5593H3.44408C3.27148 21.5692 3.09881 21.5409 2.93841 21.4765C2.778 21.412 2.6338 21.313 2.51609 21.1865C2.2974 20.9133 2.18537 20.57 2.20081 20.2205L2.22183 20.0483C2.41057 19.2642 2.6482 18.4927 2.93332 17.7383C2.97421 17.5978 2.95797 17.4468 2.88813 17.3183L2.69475 16.9423C1.85689 15.3397 1.44724 13.548 1.50544 11.7408C1.56363 9.93363 2.0877 8.17203 3.02694 6.62646C3.96618 5.0809 5.28879 3.8037 6.8668 2.91845C8.44481 2.0332 10.2248 1.56986 12.0345 1.57326H12.0755C13.6666 1.58612 15.2341 1.95979 16.6596 2.66607C18.0851 3.37235 19.3315 4.39281 20.3047 5.65049C21.278 6.90817 21.9527 8.37023 22.278 9.9264C22.6033 11.4826 22.5707 13.0922 22.1826 14.634C21.7946 16.1757 21.0612 17.6093 20.0378 18.8266C19.0144 20.0439 17.7277 21.0131 16.2747 21.6612C14.8217 22.3092 13.2405 22.6192 11.6501 22.5677C10.0598 22.5162 8.50089 22.1046 7.09298 21.364ZM6.91327 19.5915C7.00995 19.6377 7.13292 19.7039 7.30212 19.8015L7.74562 20.0567H7.75192L8.05355 20.21C9.61172 20.9613 11.3524 21.2517 13.0704 21.0471C14.7884 20.8424 16.4119 20.1512 17.7496 19.055L17.9808 18.8586C19.3559 17.6486 20.3307 16.0497 20.7761 14.2739C21.2215 12.498 21.1165 10.6288 20.475 8.91387C19.8335 7.19894 18.6857 5.71914 17.1837 4.67043C15.6817 3.62171 13.8963 3.05355 12.064 3.04118H11.7687C10.2341 3.08164 8.73508 3.51195 7.41306 4.29153C6.09103 5.07112 4.98953 6.17429 4.21244 7.49702C3.43534 8.81975 3.00826 10.3184 2.97146 11.8517C2.93467 13.3851 3.28938 14.9025 4.00214 16.2609L4.19236 16.6315C4.31812 16.8721 4.3946 17.1353 4.41734 17.4057C4.44008 17.6762 4.40861 17.9484 4.32478 18.2066C4.05605 18.9201 3.83142 19.6495 3.65217 20.3906L3.75096 20.0042L4.17134 19.8992C4.47086 19.8162 4.75251 19.7312 5.03312 19.6388L5.47241 19.4876C5.65766 19.4368 5.84888 19.411 6.04098 19.4109C6.34069 19.4133 6.63703 19.4754 6.91327 19.5915ZM15.5311 12.0734C15.5311 11.8365 15.6014 11.6048 15.7331 11.4078C15.8649 11.2108 16.0522 11.0572 16.2713 10.9666C16.4904 10.8759 16.7315 10.8521 16.9641 10.8984C17.1967 10.9446 17.4104 11.0587 17.5781 11.2263C17.7458 11.3938 17.86 11.6073 17.9063 11.8397C17.9526 12.0721 17.9288 12.313 17.838 12.5319C17.7473 12.7508 17.5936 12.9379 17.3964 13.0696C17.1992 13.2012 16.9674 13.2715 16.7302 13.2715C16.4125 13.2709 16.1081 13.1445 15.8836 12.9198C15.6592 12.6952 15.5332 12.3908 15.5332 12.0734H15.5311ZM10.8701 12.0734C10.8701 11.8365 10.9404 11.6048 11.0722 11.4078C11.2039 11.2108 11.3912 11.0572 11.6103 10.9666C11.8295 10.8759 12.0706 10.8521 12.3032 10.8984C12.5358 10.9446 12.7494 11.0587 12.9171 11.2263C13.0848 11.3938 13.1991 11.6073 13.2453 11.8397C13.2916 12.0721 13.2678 12.313 13.1771 12.5319C13.0863 12.7508 12.9326 12.9379 12.7354 13.0696C12.5382 13.2012 12.3064 13.2715 12.0692 13.2715C11.7512 13.2715 11.4462 13.1453 11.2213 12.9206C10.9964 12.6959 10.8701 12.3912 10.8701 12.0734ZM6.20703 12.0734C6.20703 11.8365 6.27736 11.6048 6.40912 11.4078C6.54088 11.2108 6.72816 11.0572 6.94727 10.9666C7.16639 10.8759 7.40749 10.8521 7.6401 10.8984C7.87271 10.9446 8.08638 11.0587 8.25408 11.2263C8.42178 11.3938 8.53599 11.6073 8.58226 11.8397C8.62852 12.0721 8.60478 12.313 8.51402 12.5319C8.42326 12.7508 8.26956 12.9379 8.07237 13.0696C7.87517 13.2012 7.64333 13.2715 7.40616 13.2715C7.08813 13.2715 6.78313 13.1453 6.55825 12.9206C6.33336 12.6959 6.20703 12.3912 6.20703 12.0734Z" fill="#0255A3"/>
</svg>
