<svg width="24" height="24" viewBox="0 0 24 24" fill="none" xmlns="http://www.w3.org/2000/svg">
<path d="M0 24V0H24V24H0ZM2.2925 11.9556C2.2775 17.3144 6.63125 21.6869 12.0019 21.7069C17.3606 21.7269 21.7344 17.3781 21.76 12.0044C21.7856 6.63938 17.4175 2.2525 12.0387 2.24187C6.67625 2.23125 2.3075 6.585 2.2925 11.955V11.9556Z" fill="white"/>
<path d="M4.76404e-05 11.9761C0.0185399 5.355 5.4044 -0.0130765 12.0154 2.39269e-05C18.6464 0.0131243 24.0315 5.42127 23.9999 12.037C23.9683 18.6627 18.5762 24.0238 11.9699 23.9999C5.34892 23.9753 -0.0184446 18.5841 4.76404e-05 11.9769V11.9761ZM22.1537 11.9853C22.1429 6.38762 17.5954 1.84641 12.0007 1.84641C6.39604 1.84641 1.83771 6.41073 1.84696 12.0131C1.8562 17.6077 6.40683 22.1528 12 22.1528C17.6039 22.1528 22.1653 17.5861 22.1545 11.9846L22.1537 11.9853Z" fill="black"/>
<path d="M20.2626 11.9627C20.2713 16.5059 16.5719 20.2096 12.0257 20.2096C7.4888 20.2096 3.79755 16.5227 3.79005 11.9859C3.78255 7.44211 7.48068 3.73961 12.0263 3.74023C16.5644 3.74023 20.2538 7.42399 20.2619 11.9634L20.2626 11.9627ZM10.2832 13.7171C10.4088 13.7171 10.5007 13.7171 10.5926 13.7171C11.4894 13.714 12.3869 13.739 13.2819 13.7015C15.0113 13.629 16.4307 11.9615 16.2582 10.2434C16.0788 8.46023 14.7438 7.24336 12.9551 7.23711C11.8713 7.23336 10.7876 7.23648 9.7038 7.23648C9.04255 7.23648 8.7863 7.49273 8.78568 8.15398C8.78568 10.7034 8.78568 13.2527 8.78568 15.8021C8.78568 15.8721 8.78443 15.9427 8.7888 16.0127C8.81193 16.3834 9.0963 16.6777 9.4563 16.7065C9.8438 16.7371 10.1726 16.5059 10.2532 16.1359C10.2776 16.0227 10.2813 15.904 10.2819 15.7877C10.2844 15.1102 10.2832 14.4327 10.2832 13.7171Z" fill="white"/>
<path d="M10.2828 13.7162C10.2828 14.4318 10.2841 15.1093 10.2816 15.7868C10.2816 15.9031 10.2772 16.0218 10.2528 16.135C10.1722 16.5056 9.84345 16.7362 9.45595 16.7056C9.09595 16.6768 8.81157 16.3825 8.78845 16.0118C8.78407 15.9418 8.78532 15.8718 8.78532 15.8012C8.78532 13.2518 8.78532 10.7025 8.78532 8.1531C8.78532 7.49185 9.04157 7.2356 9.70345 7.2356C10.7872 7.2356 11.8709 7.23247 12.9547 7.23622C14.7434 7.24247 16.0784 8.45935 16.2578 10.2425C16.4309 11.9606 15.0116 13.6287 13.2816 13.7006C12.3866 13.7381 11.4884 13.7131 10.5922 13.7162C10.5003 13.7162 10.4084 13.7162 10.2828 13.7162ZM10.2984 8.7331V12.2075C10.3584 12.2118 10.4034 12.2181 10.4484 12.2181C11.3059 12.2181 12.1634 12.2193 13.0209 12.2168C13.1372 12.2168 13.2559 12.21 13.3691 12.1856C14.2309 12.0037 14.8409 11.2081 14.7678 10.3706C14.6853 9.4356 13.9916 8.76122 13.0672 8.7381C12.5222 8.72435 11.9759 8.73372 11.4303 8.7331C11.0578 8.7331 10.6853 8.7331 10.2978 8.7331H10.2984Z" fill="black"/>
<path d="M10.2988 8.73543C10.6863 8.73543 11.0588 8.73543 11.4313 8.73543C11.977 8.73543 12.5226 8.72605 13.0682 8.74043C13.992 8.76418 14.6863 9.43855 14.7688 10.3729C14.8426 11.2111 14.232 12.0061 13.3701 12.1879C13.257 12.2117 13.1382 12.2186 13.022 12.2192C12.1645 12.2217 11.307 12.2211 10.4495 12.2204C10.4045 12.2204 10.3588 12.2142 10.2995 12.2098V8.73543H10.2988Z" fill="white"/>
</svg>
