<svg width="48" height="49" viewBox="0 0 48 49" fill="none" xmlns="http://www.w3.org/2000/svg">
<rect x="13" y="14.3066" width="23" height="23" fill="white"/>
<path d="M24 6.30664C13.5227 6.30664 5 14.8294 5 25.3066C5 35.7839 13.5227 44.3066 24 44.3066C34.4773 44.3066 43 35.7839 43 25.3066C43 14.8294 34.4773 6.30664 24 6.30664ZM33.2827 21.6091C33.291 21.804 33.296 22.0023 33.296 22.2014C33.296 28.2467 28.6922 35.2197 20.2752 35.2197C17.6912 35.2197 15.2848 34.4622 13.2609 33.1636C13.6186 33.2065 13.9812 33.2272 14.3521 33.2272C16.4967 33.2272 18.4702 32.4969 20.0348 31.2693C18.0323 31.233 16.3438 29.9071 15.7598 28.0914C16.0398 28.1451 16.3265 28.174 16.6222 28.174C17.0394 28.174 17.4442 28.1186 17.8267 28.0129C15.735 27.5908 14.158 25.7436 14.158 23.5256C14.158 23.5058 14.158 23.4868 14.158 23.4678C14.7751 23.8106 15.4797 24.0171 16.2307 24.0411C15.0014 23.2191 14.1952 21.8197 14.1952 20.232C14.1952 19.3935 14.4199 18.6079 14.8139 17.9305C17.0716 20.6987 20.4437 22.5202 24.2462 22.7119C24.1677 22.3765 24.1264 22.0279 24.1264 21.6694C24.1264 19.1424 26.1751 17.0937 28.7029 17.0937C30.0189 17.0937 31.2076 17.6488 32.042 18.5385C33.0837 18.3336 34.0642 17.9528 34.9481 17.4291C34.607 18.4964 33.8808 19.3935 32.935 19.9602C33.8618 19.8479 34.7424 19.6033 35.5644 19.239C34.9514 20.1568 34.1757 20.9639 33.2827 21.6091Z" fill="#03A9F4"/>
</svg>
