<svg width="24" height="24" viewBox="0 0 24 24" fill="none" xmlns="http://www.w3.org/2000/svg">
<g clip-path="url(#clip0_195_38287)">
<path d="M3.34604 10.9098H22.2491H23.2666C23.7424 10.9098 24.128 11.2953 24.1279 11.7711L3.34604 10.9098ZM3.34604 10.9098V3.43597C3.34604 2.81138 3.71848 2.25378 4.2955 2.01453L4.29552 2.01452C4.86902 1.77657 5.52269 1.90446 5.96449 2.33965C5.36743 3.39015 5.37019 4.689 5.9768 5.7359C6.1017 5.95175 6.31995 6.09699 6.56712 6.12935C6.81444 6.16172 7.06254 6.07711 7.23869 5.90096L7.14834 5.81061L7.23869 5.90096L10.8094 2.33017C10.9856 2.15396 11.0699 1.90583 11.0375 1.65883C11.0052 1.41191 10.8601 1.1934 10.6444 1.06845C9.56981 0.445785 8.23043 0.460016 7.16606 1.10541C6.23013 0.18881 4.84767 -0.0794502 3.63566 0.423284L3.34604 10.9098ZM1.62321 10.9098V3.43609C1.62321 2.11283 2.41329 0.929967 3.63563 0.423297L1.62321 10.9098ZM1.62321 10.9098H0.733576C0.257881 10.9098 -0.127778 11.2955 -0.127778 11.7711C-0.127778 12.2467 0.257894 12.6324 0.733576 12.6324H1.62321V15.6106C1.62321 18.0409 3.19134 20.1108 5.36831 20.8641L3.87479 22.358C3.53838 22.6944 3.53855 23.2397 3.87492 23.576L3.87495 23.5761C4.0432 23.7442 4.26368 23.8281 4.48395 23.8281C4.70411 23.8281 4.92485 23.744 5.09298 23.5759L5.00263 23.4856L5.09299 23.5759L7.5001 21.1684H16.6338L19.0409 23.5759C19.2091 23.7442 19.4299 23.8281 19.65 23.8281C19.8702 23.8281 20.0908 23.744 20.259 23.5759L20.259 23.5759C20.5954 23.2396 20.5954 22.6942 20.259 22.3579L18.7299 20.8286C20.8553 20.0478 22.3768 18.0044 22.3768 15.6106V12.6324H23.2665C23.7423 12.6324 24.1279 12.2467 24.1279 11.7712L1.62321 10.9098ZM20.6542 15.6105C20.6542 17.7251 18.9337 19.4457 16.819 19.4457H7.18099C5.06643 19.4457 3.34593 17.7252 3.34593 15.6105V12.8383C3.34593 12.7247 3.43813 12.6324 3.5518 12.6324H20.4483C20.5619 12.6324 20.6542 12.7246 20.6542 12.8383V15.6105Z" fill="#171A20" stroke="#171A20" stroke-width="0.255556"/>
<path d="M9.51213 5.12584C9.64092 5.12584 9.76814 5.07371 9.85763 4.98229C9.94894 4.89268 10.0012 4.76558 10.0012 4.63679C10.0012 4.50799 9.94906 4.38247 9.85763 4.29116C9.67514 4.10867 9.34899 4.10867 9.1665 4.29116C9.07531 4.38247 9.02295 4.50799 9.02295 4.63679C9.02295 4.76558 9.07519 4.8928 9.1665 4.98229C9.2578 5.07371 9.38333 5.12584 9.51213 5.12584Z" fill="#171A20"/>
<path d="M11.1898 7.00773C11.286 7.10218 11.4115 7.14947 11.537 7.14947C11.661 7.14947 11.7865 7.10218 11.8826 7.00773C12.0734 6.81533 12.0734 6.50719 11.8826 6.31491C11.6919 6.1242 11.3822 6.1242 11.1898 6.31491C10.9992 6.50731 10.9992 6.81533 11.1898 7.00773Z" fill="#171A20"/>
<path d="M10.8703 5.99562C11.0611 5.80491 11.0611 5.4952 10.8703 5.30437C10.6796 5.11209 10.3699 5.11209 10.1792 5.30437C9.98846 5.4952 9.98846 5.80491 10.1792 5.99562C10.2754 6.09019 10.3993 6.13917 10.5248 6.13917C10.6502 6.13905 10.7757 6.09019 10.8703 5.99562Z" fill="#171A20"/>
<path d="M12.0591 7.67203C12.0591 7.8007 12.1113 7.92636 12.2026 8.01766C12.2938 8.10885 12.4192 8.16109 12.548 8.16109C12.6768 8.16109 12.8039 8.10885 12.8935 8.01766C12.9849 7.92636 13.0371 7.80083 13.0371 7.67203C13.0371 7.54324 12.9849 7.41771 12.8935 7.32641C12.7128 7.1438 12.385 7.1438 12.2025 7.32641C12.1113 7.41771 12.0591 7.54312 12.0591 7.67203Z" fill="#171A20"/>
<path d="M8.26539 5.34985C8.17566 5.44115 8.12354 5.56668 8.12354 5.69548C8.12354 5.82415 8.17578 5.9498 8.26539 6.04098C8.35827 6.13229 8.48379 6.18453 8.61259 6.18453C8.73981 6.18453 8.86691 6.13229 8.95822 6.04098C9.0494 5.9498 9.10164 5.82427 9.10164 5.69548C9.10164 5.56668 9.04952 5.44115 8.95822 5.34985C8.77718 5.16724 8.448 5.16724 8.26539 5.34985Z" fill="#171A20"/>
<path d="M8.97498 7.45452C9.02058 7.45452 9.0646 7.44799 9.11031 7.43493C9.36947 7.36152 9.51943 7.09099 9.44602 6.83014C9.37104 6.57086 9.10039 6.4209 8.84123 6.49588C8.58207 6.56929 8.43054 6.83993 8.50552 7.09909C8.56744 7.31423 8.76299 7.45452 8.97498 7.45452Z" fill="#171A20"/>
<path d="M9.33842 8.72354C9.38244 8.72354 9.42803 8.71701 9.47374 8.70395C9.7329 8.62897 9.88286 8.35833 9.80957 8.09917C9.73447 7.83989 9.46395 7.68835 9.20467 7.76333C8.94394 7.83831 8.79386 8.10884 8.86896 8.368C8.931 8.58326 9.12654 8.72354 9.33842 8.72354Z" fill="#171A20"/>
<path d="M9.70194 9.99248C9.83062 9.99248 9.95627 9.94036 10.0476 9.84893C10.1388 9.75932 10.191 9.63222 10.191 9.50343C10.191 9.37464 10.1388 9.24911 10.0476 9.15781C9.86497 8.9752 9.53893 8.97689 9.35632 9.15781C9.26502 9.24911 9.21289 9.37464 9.21289 9.50343C9.21289 9.63222 9.26502 9.75932 9.35632 9.84893C9.44763 9.94024 9.57303 9.99248 9.70194 9.99248Z" fill="#171A20"/>
<path d="M10.2661 3.43969C10.1748 3.5293 10.1226 3.65652 10.1226 3.78531C10.1226 3.91411 10.1747 4.03963 10.2661 4.13082C10.3573 4.222 10.4828 4.27437 10.6116 4.27437C10.7404 4.27437 10.8659 4.22212 10.9571 4.13082C11.0484 4.03951 11.1007 3.91411 11.1007 3.78531C11.1007 3.65652 11.0484 3.5293 10.9571 3.43969C10.7746 3.25708 10.4486 3.25708 10.2661 3.43969Z" fill="#171A20"/>
<path d="M12.9583 5.09192C13.0088 5.10824 13.0611 5.11635 13.1132 5.11635C13.317 5.11635 13.5077 4.98755 13.5777 4.78378C13.6642 4.52789 13.5254 4.25071 13.2698 4.16436C13.0137 4.07802 12.7366 4.21648 12.6502 4.47238C12.5638 4.72839 12.7024 5.00557 12.9583 5.09192Z" fill="#171A20"/>
<path d="M11.7063 4.66864C11.7586 4.68642 11.8107 4.69464 11.8628 4.69464C12.0667 4.69464 12.2573 4.56597 12.3257 4.3622C12.4123 4.10618 12.2735 3.82743 12.0177 3.74265C11.7618 3.65631 11.4847 3.7932 11.3982 4.0491C11.312 4.30511 11.4504 4.58387 11.7063 4.66864Z" fill="#171A20"/>
<path d="M14.3651 5.53847C14.4939 5.53847 14.6195 5.48622 14.7108 5.39492C14.8021 5.30361 14.8542 5.1782 14.8542 5.04772C14.8542 4.92062 14.8021 4.7934 14.7108 4.70209C14.5282 4.52118 14.2021 4.52118 14.0195 4.70209C13.9282 4.7934 13.876 4.92074 13.876 5.04772C13.876 5.17651 13.9282 5.30361 14.0195 5.39492C14.111 5.48622 14.2364 5.53847 14.3651 5.53847Z" fill="#171A20"/>
</g>
<defs>
<clipPath id="clip0_195_38287">
<rect width="24" height="24" fill="white"/>
</clipPath>
</defs>
</svg>
