<svg width="48" height="48" viewBox="0 0 48 48" fill="none" xmlns="http://www.w3.org/2000/svg">
<rect x="0.5" y="0.5" width="47" height="47" rx="9.5" stroke="#71859E" stroke-opacity="0.3"/>
<path d="M12.625 17.0581H14.3167V35.3748C14.3167 35.6223 14.415 35.8597 14.59 36.0348C14.7651 36.2098 15.0025 36.3081 15.25 36.3081H32.75C32.9975 36.3081 33.2349 36.2098 33.41 36.0348C33.585 35.8597 33.6833 35.6223 33.6833 35.3748V17.0581H35.375C35.6225 17.0581 35.8599 16.9598 36.035 16.7848C36.21 16.6097 36.3083 16.3723 36.3083 16.1248C36.3083 15.8773 36.21 15.6399 36.035 15.4648C35.8599 15.2898 35.6225 15.1915 35.375 15.1915H28.4333V12.623C28.4333 12.3755 28.335 12.1381 28.16 11.9631C27.9849 11.788 27.7475 11.6897 27.5 11.6897H20.5C20.2525 11.6897 20.0151 11.788 19.84 11.9631C19.665 12.1381 19.5667 12.3755 19.5667 12.623V15.1915H12.625C12.3775 15.1915 12.1401 15.2898 11.965 15.4648C11.79 15.6399 11.6917 15.8773 11.6917 16.1248C11.6917 16.3723 11.79 16.6097 11.965 16.7848C12.1401 16.9598 12.3775 17.0581 12.625 17.0581ZM21.4333 13.5581H26.5667V15.1915H21.4333V13.5581ZM31.8167 17.0581V34.4415H16.1833V17.0581H31.8167ZM20.715 30.7848C20.8901 30.9598 21.1275 31.0581 21.375 31.0581C21.6225 31.0581 21.8599 30.9598 22.035 30.7848C22.21 30.6097 22.3083 30.3723 22.3083 30.1248V21.3748C22.3083 21.1273 22.21 20.8899 22.035 20.7148C21.8599 20.5398 21.6225 20.4415 21.375 20.4415C21.1275 20.4415 20.8901 20.5398 20.715 20.7148C20.54 20.8899 20.4417 21.1273 20.4417 21.3748V30.1248C20.4417 30.3723 20.54 30.6097 20.715 30.7848ZM25.965 30.7848C26.1401 30.9598 26.3775 31.0581 26.625 31.0581C26.8725 31.0581 27.1099 30.9598 27.285 30.7848C27.46 30.6097 27.5583 30.3723 27.5583 30.1248V21.3748C27.5583 21.1273 27.46 20.8899 27.285 20.7148C27.1099 20.5398 26.8725 20.4415 26.625 20.4415C26.3775 20.4415 26.1401 20.5398 25.965 20.7148C25.79 20.8899 25.6917 21.1273 25.6917 21.3748V30.1248C25.6917 30.3723 25.79 30.6097 25.965 30.7848Z" fill="white" stroke="white" stroke-width="0.116667"/>
</svg>
