<svg width="48" height="49" viewBox="0 0 48 49" fill="none" xmlns="http://www.w3.org/2000/svg">
<circle cx="25" cy="25.3066" r="19" fill="#A81D23"/>
<path d="M17.7851 13.3066H19.2973L20.335 17.0089L21.2958 13.3066H22.8224L21.0742 18.8116V22.5686H19.5713V18.8116L17.7851 13.3066ZM24.7084 15.6797C23.5336 15.6797 22.7547 16.42 22.7547 17.5147V20.8641C22.7547 22.0684 23.4152 22.6951 24.7084 22.6951C25.7816 22.6951 26.6257 22.012 26.6257 20.8641V17.5147C26.6257 16.4458 25.7884 15.6797 24.7084 15.6797ZM25.2657 20.8069C25.2657 21.1791 25.0661 21.453 24.7075 21.453C24.3388 21.453 24.1257 21.1662 24.1257 20.8069V17.6275C24.1257 17.2537 24.3066 16.9766 24.6813 16.9766C25.0907 16.9766 25.2657 17.2457 25.2657 17.6275V20.8069ZM30.2311 15.7369V20.9229C30.0687 21.1171 29.7059 21.4353 29.4471 21.4353C29.1629 21.4353 29.0919 21.2492 29.0919 20.9753V15.7369H27.7582V21.4473C27.7582 22.1224 27.9747 22.6677 28.6893 22.6677C29.0928 22.6677 29.6535 22.4679 30.2303 21.8147V22.5686H31.564V15.7377L30.2311 15.7369ZM32.5443 29.5953C32.074 29.5953 31.9759 29.9102 31.9759 30.3581V31.0171H33.0982V30.3573C33.0999 29.9175 33.0018 29.5953 32.5443 29.5953ZM27.6059 29.6356C27.518 29.6783 27.4308 29.7443 27.3437 29.8337V33.8888C27.4478 33.9951 27.5476 34.0708 27.6448 34.1175C27.852 34.2174 28.154 34.2247 28.2944 34.0507C28.3679 33.9589 28.4043 33.8098 28.4043 33.602V30.2429C28.4043 30.023 28.3595 29.8571 28.269 29.7427C28.1151 29.5494 27.8292 29.5284 27.6059 29.6356ZM32.6745 24.4399C29.9402 24.2627 21.0556 24.2627 18.3255 24.4399C15.3713 24.6316 15.022 26.3321 15 30.8068C15.022 35.2743 15.3679 36.982 18.3255 37.1737C21.0556 37.3509 29.9402 37.3509 32.6745 37.1737C35.6287 36.982 35.978 35.2807 36 30.8068C35.978 26.3401 35.6321 24.6324 32.6745 24.4399ZM19.7345 35.1261H18.3035V27.5855H16.8234V26.3055H21.2146V27.5855H19.7345V35.1261ZM24.8226 35.1261H23.5522V34.4083C23.318 34.6734 23.0744 34.8755 22.8215 35.0133C22.1373 35.3871 21.1968 35.3782 21.1968 34.0579V28.6198H22.4663V33.6076C22.4663 33.8694 22.5323 34.0458 22.8046 34.0458C23.0524 34.0458 23.3966 33.743 23.5514 33.5585V28.6198H24.8217L24.8226 35.1261ZM29.7127 33.7784C29.7127 34.5831 29.3964 35.2098 28.5515 35.2098C28.0863 35.2098 27.699 35.0479 27.3454 34.6266V35.1269H26.0633V26.3063H27.3454V29.1466C27.6321 28.8139 28.0212 28.5384 28.4754 28.5384C29.4057 28.5384 29.7144 29.2876 29.7144 30.1696V33.7784H29.7127ZM34.4066 32.0264H31.9768V33.2548C31.9768 33.743 32.0207 34.1651 32.5307 34.1651C33.0669 34.1651 33.0991 33.8211 33.0991 33.2548V32.8029H34.4066V33.2919C34.4066 34.5453 33.8416 35.3049 32.5028 35.3049C31.29 35.3049 30.6692 34.4631 30.6692 33.2919V30.371C30.6692 29.2417 31.4524 28.4571 32.5984 28.4571C33.8171 28.4571 34.4058 29.1949 34.4058 30.371V32.0272L34.4066 32.0264Z" fill="white"/>
</svg>
